<svg width="421" height="281" viewBox="0 0 421 281" fill="none" xmlns="http://www.w3.org/2000/svg">
<g clip-path="url(#clip0_1_711)">
<path d="M259.554 166.021C259.498 166.594 259.183 168.426 258.737 168.574C257.494 168.981 253.431 168.5 251.724 168.629C250.611 168.703 249.294 169.055 248.199 169.24C251.557 175.844 252.411 182.856 249.739 189.905C246.01 199.747 235.732 204.15 225.621 203.835C223.932 203.78 219.498 202.744 218.348 202.947C216.53 203.262 215.602 205.87 216.103 207.517C216.827 209.848 222.318 210.347 224.415 210.551C233.023 211.42 256.27 210.939 259.164 221.818C260.815 228.015 257.55 233.51 252.095 236.322C241.743 241.687 213.765 241.872 203.097 237.321C194.378 233.602 197.55 223.816 204.415 219.986C206.251 218.968 208.348 218.524 210.148 217.433C196.975 214.824 201.873 204.705 210.463 200.135C205.194 195.695 202.355 190.09 201.873 183.152C200.352 161.562 222.467 151.942 239.832 161.525C241.854 162.635 243.32 164.152 245.287 165.262C246.938 161.377 251.26 158.898 255.435 158.528C256.103 158.473 259.572 158.325 259.572 158.991C259.572 161.192 259.776 163.912 259.572 166.021H259.554ZM224.507 167.186C213.635 168.777 212.634 192.606 224.823 194.271C234.711 195.621 237.513 187.148 236.826 178.934C236.214 171.7 232.615 166.021 224.507 167.186ZM218.663 218.894C215.268 219.468 209.276 227.035 213.431 229.791C216.752 231.993 230.518 231.771 234.86 231.364C237.94 231.068 247.865 229.403 244.674 224.334C242.578 221.004 233.747 220.245 229.925 219.764C227.364 219.449 220.852 218.524 218.682 218.876L218.663 218.894Z" fill="#0F405A"/>
<path d="M373.431 221.577H356.863V172.755C356.863 172.551 355.991 170.794 355.768 170.479C353.709 167.575 346.807 168.444 343.987 170.017C342.911 170.609 340.592 172.755 340.592 173.976V221.559H324.025L323.709 159.435L339.776 159.176C340.778 159.509 339.924 164.393 340.741 165.558C347.976 159.805 358.162 155.661 367.29 159.601C370.611 161.026 373.431 165.151 373.431 168.777V221.577Z" fill="#0F405A"/>
<path d="M311.743 190.367H279.368C278.681 190.367 278.867 194.937 278.904 195.732C279.015 199.266 279.535 206.814 281.539 209.626C283.858 212.864 290.277 213.474 293.19 210.866C294.266 209.904 295.787 205.981 295.787 204.594V199.858H311.743C312.039 210.218 307.735 218.599 297.308 221.429C288.106 223.945 272.763 223.076 267.383 213.937C261.335 203.669 260.537 177.621 266.808 167.445C273.561 156.475 291.947 155.698 302.132 161.858C312.318 168.019 311.891 180.229 311.743 190.367ZM295.472 183.929V176.733C295.472 174.92 293.691 170.72 292.206 169.592C290.11 167.982 286.604 167.963 284.21 168.889C278.941 170.924 279.591 178.62 278.904 183.208C278.83 183.467 279.22 183.948 279.349 183.948H295.453L295.472 183.929Z" fill="#0F405A"/>
<path d="M49.3319 190.367H16.9387C16.7161 190.367 16.5306 190.885 16.4749 191.126C16.2337 192.476 16.3822 196.028 16.4749 197.564C16.7903 204.187 17.4211 212.975 26.1595 212.401C32.9684 211.957 33.3394 205.242 33.358 199.84H49.3134V204.28C49.3134 208.368 46.178 214.658 43.024 217.285C34.3227 224.482 13.4694 224.889 6.10392 215.565C-1.89234 205.445 -2.35616 174.235 6.6605 164.504C13.6549 156.956 29.4062 156.493 38.1631 160.934C49.4061 166.632 49.5546 179.267 49.3134 190.367H49.3319ZM33.0611 183.929V176.437C33.0611 175.882 31.9109 172.441 31.5769 171.793C30.5751 169.795 28.7198 168.574 26.4563 168.334C16.9759 167.298 16.7161 177.047 16.4749 183.948H33.0426L33.0611 183.929Z" fill="#0F405A"/>
<path d="M161.966 180.562H145.398C145.584 174.846 144.211 167.594 136.975 168.019C131.558 168.334 129.851 172.311 129.183 177.084C128.831 179.619 128.608 183.023 128.515 185.594C128.311 190.83 128.367 204.261 130.63 208.609C132.894 212.956 140.63 213.844 143.524 209.737C144.192 208.775 145.417 205.353 145.417 204.28V199.84H161.688C161.799 207.776 159.294 215.121 152.151 219.246C143.45 224.278 124.768 224.019 118.163 215.546C110.686 205.963 110.352 178.731 116.103 168.315C122.133 157.4 138.348 156.068 149.035 159.972C158.2 163.32 161.947 171.164 161.984 180.562H161.966Z" fill="#0F405A"/>
<path d="M71.1129 159.454L81.0757 180.895L82.3188 182.098L92.597 159.454H107.94C108.014 159.898 107.866 160.212 107.699 160.582C106.196 164.134 103.079 168.556 101.131 172.089C97.9217 177.972 94.7491 183.911 91.6694 189.868C96.0293 198.896 101.354 207.462 105.955 216.36C106.808 217.988 107.885 219.82 108.256 221.577H92.4486C88.905 214.214 85.8995 206.518 83.0238 198.841L82.0219 198.304L71.2798 221.559H55.176L71.7251 190.182C66.8828 180.007 61.0758 170.295 55.4172 160.564L55.176 159.435H71.1314L71.1129 159.454Z" fill="#0F405A"/>
<path d="M408.106 136.809V158.695C408.106 158.787 408.514 159.157 408.421 159.453H421V168.167C421 168.167 420.573 168.629 420.536 168.629H408.421C408.44 169.406 408.162 170.128 408.106 170.905C407.457 180.488 407.568 194.345 408.106 203.983C408.162 205.149 408.328 207.017 408.57 208.109C409.72 213.622 416.937 212.049 421.019 212.068V221.411L420.499 221.818C412.874 222.78 398.625 223.834 394.061 216.138C393.004 214.38 391.854 210.551 391.854 208.553V168.611H383.264V159.435H391.39C391.39 159.435 391.854 159.009 391.854 158.972V136.791H408.124L408.106 136.809Z" fill="#0F405A"/>
<path d="M158.589 154.551C157.124 152.553 151.929 148.39 149.703 145.819C121.15 112.851 122.727 61.4208 161.502 37.3335C204.767 10.4527 261.298 39.3686 264.173 90.1332C265.472 112.981 257.272 134.552 240.314 149.907C236.103 149.167 231.854 147.965 227.513 147.798C223.617 147.65 219.851 148.39 215.992 148.723C215.862 148.187 216.214 148.113 216.455 147.798C219.665 143.617 224.804 139.344 228.422 135.255C246.214 115.22 252.225 86.0631 234.396 63.8074C205.435 27.6209 147.254 50.4132 149.369 97.4778C150.816 129.613 174.637 136.772 186.27 161.988C186.938 163.431 189.572 169.666 189.294 170.85L171.483 183.3C171.279 172.015 166.029 163.727 158.886 155.606C158.552 155.217 158.664 154.606 158.589 154.532C164.081 160.767 168.292 165.392 170.704 173.514C171.539 176.326 171.521 179.212 172.096 182.079C172.411 182.412 174.879 180.599 175.305 180.229C176.159 179.508 177.569 177.454 178.051 177.158C178.701 176.751 179.795 176.733 180.778 176.215C181.688 175.715 188.125 170.813 188.311 170.239C188.608 169.222 186.456 163.968 185.862 162.71C176.344 142.211 154.916 130.593 149.888 107.653C143.895 80.2541 159.22 51.4677 187.736 46.3616C231.836 38.462 259.721 85.0826 238.7 122.583C233.914 131.093 226.975 137.568 220.593 144.616C220.24 145.005 217.439 147.484 217.828 147.835C218.96 147.909 219.962 147.317 221.057 147.225C225.491 146.855 231.223 147.225 235.491 148.113C236.437 148.316 239.275 149.519 240.018 149.315C240.481 149.186 244.34 144.912 245.008 144.154C281.631 102.417 262.244 35.613 204.823 28.4349C157.866 22.5703 124.638 63.6964 131.929 108.763C135.176 128.762 145.825 140.047 158.608 154.551H158.589Z" fill="#3B6998"/>
<path d="M99.9625 257.986C104.564 255.155 108.534 257.116 109.647 262.259C111.243 269.733 108.775 280.426 99.3502 274.21C99.2946 274.451 99.4244 275.746 99.3502 275.746H94.8976C94.5636 275.746 94.4523 275.006 94.4152 274.691C94.1183 272.194 94.6935 269.437 94.7491 267.032C94.8605 261.575 94.6378 256.099 94.7491 250.641H99.4987C99.4987 250.641 99.9625 251.067 99.9625 251.104V257.986ZM101.502 272.379C102.523 272.786 103.747 272.767 104.415 271.75C104.601 271.454 104.508 271.01 104.619 270.788C104.768 270.492 105.157 270.51 105.194 270.325C105.287 269.955 105.491 267.735 105.491 267.273C105.491 265.941 104.842 261.149 103.784 260.465C102.857 259.873 100.705 260.039 99.9625 260.872C99.4615 261.445 99.2389 263.24 99.1461 264.035C98.9792 265.46 99.1461 269.16 99.5543 270.473C99.7955 271.232 100.834 272.083 101.502 272.36V272.379Z" fill="#2363A0"/>
<path d="M6.3636 257.986C7.27269 257.801 7.81072 257.116 8.79402 256.894C11.6883 256.284 14.3599 257.227 15.4916 260.039C17.6994 265.515 16.9758 279.224 7.9777 275.487C7.06861 275.117 6.62334 274.377 5.73281 274.21C5.67715 274.451 5.80702 275.746 5.73281 275.746H1.13171V251.103C1.13171 250.4 6.34505 250.4 6.34505 251.103V257.986H6.3636ZM9.74021 260.742C9.74021 260.742 9.81442 260.187 9.74021 260.132C9.12797 259.669 7.12427 260.335 6.53058 261.057C5.25043 262.611 5.49162 269.659 6.53058 271.435C7.56953 273.211 9.99995 273.23 11.0389 271.38C11.1688 271.158 11.8552 269.807 11.8738 269.715C12.4304 267.347 11.9851 262.851 10.3525 261.057C10.2411 260.927 9.85153 260.872 9.74021 260.742Z" fill="#2363A0"/>
<path d="M129.424 275.746H124.675C124.359 275.746 123.914 274.266 123.896 273.914C119.09 278.817 111.632 274.969 114.322 268.179C115.825 264.387 122.857 264.72 123.747 262.888C124.805 260.761 121.261 259.354 119.61 260.613C118.961 261.094 118.886 262.592 118.163 262.833C117.551 263.036 114.656 263.092 114.415 262.37C113.636 260.039 116.178 257.449 118.348 256.894C121.465 256.08 126.994 256.339 128.33 259.817C129.925 263.98 127.755 271.176 129.406 275.727L129.424 275.746ZM123.914 266.255C121.743 267.18 118.886 267.162 118.812 270.122C118.682 274.284 123.914 272.323 123.914 270.695V266.255Z" fill="#2363A0"/>
<path d="M171.168 210.403C171.224 210.107 171.817 209.422 172.096 209.182L190.352 196.472C190.982 196.398 190.741 196.491 190.815 196.916C191.205 199.858 190.203 203.095 190.5 206.092L190.073 206.888C185.213 210.292 180.444 213.844 175.565 217.211C174.174 218.173 172.689 219.32 171.168 220.023C171.576 217.267 170.63 212.919 171.168 210.384V210.403Z" fill="#1260A7"/>
<path d="M320.629 266.866H310.5C310.425 268.346 310.388 271.528 312.039 272.212C315.138 273.507 315.453 269.622 315.713 269.622H320.629C319.943 278.391 306.177 278.373 305.286 269.474C304.804 264.553 305.064 257.579 311.297 256.802C318.551 255.914 321.056 260.206 320.629 266.866ZM310.5 264.109H315.713C316.269 258.689 309.795 258.652 310.5 264.109Z" fill="#2363A0"/>
<path d="M200.333 0C200.407 1.68352 200.24 3.38554 200.333 5.06906C200.556 9.95312 201.224 16.8352 200.667 21.5898C200.63 21.9043 200.519 22.6443 200.185 22.6443H192.819C192.559 22.6443 192.281 21.9043 192.337 21.5898L192.04 0H200.333Z" fill="#2363A0"/>
<path d="M164.118 253.101C164.155 252.824 164.675 252.176 164.433 251.566H168.107V275.135C167.012 275.061 165.806 275.246 164.73 275.135C164.563 275.135 164.304 274.895 164.118 274.821C164.118 274.617 164.118 274.414 164.118 274.21C164.155 274.173 164.322 274.229 164.433 274.21C164.359 274.284 164.489 274.525 164.582 274.525C164.916 274.506 164.582 274.081 164.433 274.21C164.341 272.453 162.708 274.71 162.263 274.95C160.055 276.134 156.697 275.542 155.472 273.193C154.174 270.714 154.192 261.538 155.695 259.225C156.808 257.523 159.164 256.765 161.131 257.135C162.096 257.32 163.079 258.337 164.118 257.986C164.6 257.819 164.619 254.008 164.118 253.397C164.118 253.305 164.118 253.194 164.118 253.083V253.101ZM159.498 271.454C159.498 271.454 159.74 271.398 159.814 271.454C159.795 271.694 159.869 271.99 160.129 272.064C160.203 272.083 160.333 272.064 160.445 272.064L160.686 272.286L161.057 272.064C161.335 272.101 161.669 272.064 161.984 272.064C162.04 272.064 162.17 272.786 163.079 272.083C164.823 270.751 164.656 265.423 164.452 263.314C164.322 261.871 163.357 260.058 161.743 259.854C157.717 259.373 157.365 269.308 159.535 271.435L159.498 271.454Z" fill="#1260A7"/>
<path d="M397.067 251.566V257.079H400.443C400.351 257.653 400.573 260.631 400.443 260.761C400.184 261.02 397.438 260.243 397.104 261.26C396.9 261.889 396.993 270.325 397.215 270.843C397.865 272.323 400.258 271.583 400.425 271.768C400.536 271.879 400.759 274.784 400.703 274.932C400.221 276.338 394.098 275.875 392.837 274.728C392.651 274.562 391.816 272.971 391.816 272.841V260.761C391.334 260.687 389.163 260.872 389.052 260.761C388.922 260.631 389.145 257.819 389.052 257.264C389.108 256.838 391.816 257.227 391.816 257.079V251.566H397.03H397.067Z" fill="#2363A0"/>
<path d="M141.706 260.742C141.428 260.742 140.797 260.002 139.869 260.909C137.736 262.981 139.851 273.36 138.812 274.84C138.441 275.376 134.953 275.284 134.953 274.673V257.69C135.547 257.782 138.515 257.56 138.645 257.69C138.831 257.875 138.051 259.688 139.721 259.41C139.999 259.373 141.372 257.949 142.114 257.634C143.636 256.968 145.491 256.913 146.92 257.856C147.309 258.115 148.459 259.688 148.459 259.984V275.136H144.471V262.426C144.471 262.13 143.728 260.946 143.413 260.724C142.615 260.15 142.411 260.761 142.318 260.742C142.114 260.742 141.91 260.742 141.706 260.742Z" fill="#2363A0"/>
<path d="M63.7475 260.446C63.2836 259.577 61.113 259.669 60.2224 259.836C58.5156 260.15 59.1649 262.574 55.9182 261.963C54.1186 261.63 56.7345 258.134 57.8291 257.745C60.7234 256.746 67.6992 256.95 68.33 260.909C68.4042 265.645 68.163 270.455 68.9608 275.117C67.9218 274.932 66.048 275.376 65.1575 275.135C64.6751 275.006 65.1204 273.507 64.1927 273.563C63.1723 273.618 61.6695 275.246 59.7957 275.357C56.9015 275.524 55.139 274.58 54.8236 271.602C54.5638 269.178 54.5638 267.809 56.7531 266.496C58.5156 265.441 64.3411 264.627 64.6565 262.74C64.7493 262.241 64.6565 260.539 63.7103 260.742C63.6732 260.65 63.7475 260.502 63.7103 260.428L63.7475 260.446ZM64.3597 266.255C61.6139 266.311 57.1798 269.049 59.7401 272.157C61.0759 273.766 64.3597 271.398 64.3597 270.695V266.255Z" fill="#2363A0"/>
<path d="M240.537 257.079C241.52 256.746 240.704 253.139 240.964 252.769C245.565 251.474 244.915 253.361 244.823 257.079C245.027 257.079 245.231 257.079 245.435 257.079C246.418 257.135 247.773 256.802 248.496 257.394C247.476 257.338 246.437 257.431 245.435 257.394L248.496 257.69V260.446H245.416C245.342 260.668 245.732 260.724 245.732 260.742C245.732 261.02 245.435 261.519 245.416 262.093C245.361 264.072 245.12 268.642 245.491 270.307C246.047 272.805 248.923 271.861 249.108 272.046C249.22 272.157 249.35 274.969 249.275 275.099C248.719 276.209 243.654 275.746 242.578 275.339C241.966 275.117 241.335 274.729 241.001 274.155C240.834 273.859 240.203 271.806 240.203 271.584V261.02C239.758 260.946 237.847 261.131 237.754 261.02C237.606 260.872 237.606 257.172 237.754 257.042C237.921 256.876 240.036 257.209 240.518 257.042L240.537 257.079Z" fill="#2363A0"/>
<path d="M375.583 261.667C374.247 261.26 370.054 262.315 370.054 263.961V275.746H364.525V257.079H369.739C369.868 257.079 369.646 259.188 369.739 259.521C370.666 258.744 370.963 257.764 372.188 257.227C372.818 256.95 375.564 256.321 375.564 257.227V261.667H375.583Z" fill="#2363A0"/>
<path d="M296.399 272.064C297.012 271.787 297.346 271.398 297.346 270.695C297.346 266.921 288.329 267.698 287.791 263.351C287.253 259.003 290.203 257.116 294.099 257.042C296.733 256.987 301.019 258.393 300.203 261.667C299.368 261.575 298.292 261.834 297.531 261.612C296.845 261.408 296.641 260.372 296.121 259.965C294.08 258.337 289.72 260.409 291.464 263.018C291.687 263.351 291.91 263.129 292.114 263.203C292.207 263.24 292.336 263.166 292.429 263.203C292.281 263.832 292.93 264.035 293.375 264.239C296.752 265.756 301.65 266.052 300.982 270.991C300.147 277.115 287.123 277.189 287.197 270.251C287.939 270.399 290.407 270.011 290.834 270.288C291.038 270.418 291.279 272.693 292.874 272.989C293.598 273.119 296.195 273.359 296.084 272.083C296.177 272.046 296.307 272.12 296.399 272.083V272.064Z" fill="#1260A7"/>
<path d="M265.695 69.4682C265.342 68.7837 264.303 66.9522 264.489 66.3047C271.075 62.4936 278.607 60.1996 285.528 56.9621C285.824 56.8511 285.936 57.0361 286.084 57.2396C286.288 57.5171 288.496 63.1781 288.589 63.6591C288.644 63.9921 288.756 64.1956 288.403 64.4361C281.112 67.1557 273.969 70.4487 266.622 72.8352L265.991 70.0972C266.047 70.1897 266.437 70.3932 266.678 70.7817C266.882 71.1332 266.863 71.8917 266.919 71.9287C267.643 72.6132 275.546 68.3767 277.049 68.2472C277.383 67.2297 276.029 66.8412 275.862 66.2122C275.75 65.7127 276.214 65.0837 276.14 64.4546C276.084 64.0291 275.305 63.3446 275.509 63.0671C275.676 62.8451 278.181 62.6231 277.661 61.2356L265.379 66.2862L265.157 66.8227L265.713 69.5052L265.695 69.4682Z" fill="#3B6998"/>
<path d="M158.255 33.9478C158.181 34.0403 156.511 34.6323 156.029 34.9468C155.176 35.5019 153.357 37.2224 152.745 37.4999C152.411 37.6664 152.17 37.7404 151.836 37.4999C150.983 36.2419 144.6 27.2508 144.916 26.6217C145.101 26.2332 150.686 22.2742 151.038 22.3482L157.606 32.0238C157.847 32.4123 158.534 33.5593 158.255 33.9293V33.9478Z" fill="#2363A0"/>
<path d="M129.127 67.9328C129.294 67.6368 129.127 66.5638 128.645 66.4343C124.675 65.5278 121.243 62.5862 117.161 62.4197C116.604 62.9562 119.09 66.4158 114.805 66.6933C114.007 66.7488 112.615 66.0643 112.244 66.8783C112.04 67.3223 113.766 67.9143 114.118 68.0623C114.693 68.2843 115.918 68.7283 116.456 68.8023C117.81 68.9873 119.35 68.2843 120.315 68.6173C120.871 68.8023 121.372 70.3008 122.059 70.8558C122.448 71.1518 125.862 72.5394 126.196 72.5394C127.458 72.5394 127.959 69.1168 128.478 68.1548C128.627 67.8773 129.09 67.9883 129.109 67.9513C128.497 69.7828 127.847 71.6144 127.254 73.4459L105.862 65.5648C105.51 65.3613 105.176 65.3058 105.213 64.7878C105.231 64.4363 107.439 58.4977 107.68 58.0537C107.847 57.7762 107.94 57.4617 108.33 57.5727L129.22 66.1383C130.408 66.8413 129.257 67.4888 129.109 67.9328H129.127Z" fill="#3B6998"/>
<path d="M189.276 273.304C188.905 273.581 187.995 272.527 187.736 272.249C185.862 270.251 184.229 267.976 182.244 266.07C182.151 265.571 188.366 258.726 188.867 258.633C189.22 258.578 189.387 258.855 189.61 259.059C190.426 260.65 195.454 264.646 195.417 266.126C195.398 267.032 189.684 271.879 189.276 273.304Z" fill="#0F405A"/>
<path d="M267.735 258.615C268.218 258.522 274.266 265.33 274.322 265.811C274.359 266.163 274.266 266.477 274.006 266.736L268.793 272.545C268.589 272.767 268.329 272.989 267.995 272.989C267.42 272.989 261.502 266.607 261.446 266.052C261.372 265.127 266.938 259.854 267.717 258.615H267.735Z" fill="#0F405A"/>
<path d="M242.021 37.2963C241.724 37.4628 241.427 37.2963 241.149 37.1853C240.76 37.0188 236.121 34.0587 235.917 33.8182C235.658 33.5037 235.546 33.3742 235.583 32.9117L241.724 23.7171C241.984 23.3471 242.337 23.2176 242.782 23.2546C243.394 23.3101 248.459 26.7881 248.478 27.3802C248.496 28.5272 242.633 35.5573 242.003 37.2963H242.021Z" fill="#2363A0"/>
<path d="M281.038 111.094C280.611 112.204 279.554 118.457 278.7 118.716C277.735 119.012 269.591 115.756 267.847 115.664C267.476 115.238 269.832 109.188 269.368 108.023L281.038 111.094Z" fill="#3B6998"/>
<path d="M265.695 69.4683L265.138 66.7858L265.361 66.2493L277.643 61.1987C278.162 62.5862 275.676 62.8082 275.49 63.0302C275.286 63.3078 276.066 63.9923 276.121 64.4178C276.195 65.0468 275.732 65.6758 275.843 66.1753C275.991 66.8043 277.364 67.2113 277.03 68.2103C275.528 68.3213 267.643 72.5579 266.901 71.8919C266.863 71.8549 266.863 71.0964 266.659 70.7448C266.418 70.3378 266.029 70.1528 265.973 70.0603C265.824 69.8198 265.769 69.6533 265.657 69.4498L265.695 69.4683Z" fill="#2363A0"/>
<path d="M409.33 258.911C409.367 259.225 409.219 259.688 409.646 259.836C409.683 260.021 409.609 260.261 409.646 260.446L409.961 261.371C410.017 261.649 409.905 262.019 409.961 262.296L410.276 262.611C410.369 263.018 410.555 263.351 410.592 263.536C410.833 264.664 411.037 266.311 411.204 267.513C410.369 267.698 410.61 267.069 410.443 266.588C409.794 264.812 409.98 264.257 409.609 262.537C409.423 261.686 408.644 258.134 408.31 257.708C407.753 257.042 405.119 257.56 404.154 257.412C403.764 257.819 407.048 266.477 407.438 267.754C407.957 269.419 409.404 273.544 409.404 275.006C409.404 277.837 406.38 278.059 404.154 277.911C404.228 278.336 404.043 279.946 404.154 280.057C404.488 280.39 408.774 280.149 409.442 279.983C409.701 279.909 411.093 279.058 411.353 278.836C413.022 277.43 413.802 274.266 414.488 272.175C414.655 271.657 414.488 271.028 414.655 270.51C416.046 266.274 417.753 262.148 418.551 257.727H414.581C414.061 260.668 413.56 263.665 412.837 266.551C412.688 267.125 412.558 267.957 412.28 268.438C411.909 269.067 411.853 268.457 411.816 268.438C412.132 266.903 412.429 265.386 412.744 263.85C413.189 261.538 413.43 258.892 414.432 256.82H419.497C419.442 258.06 419.052 259.299 418.737 260.483C417.456 265.127 415.378 273.359 413.319 277.411C412.243 279.539 410.685 280.649 408.273 280.945C407.308 281.056 404.191 281.204 403.709 280.371C403.449 279.946 403.431 277.966 403.709 277.596C404.117 277.004 408.718 277.781 408.811 275.024L403.319 257.801C403.097 257.468 403.523 256.802 403.727 256.802H408.644C409.108 256.802 409.349 258.541 409.404 258.948L409.33 258.911Z" fill="#3B6998"/>
<path d="M233.932 268.087C235.342 268.512 233.153 273.526 232.262 274.377C229.646 276.837 223.153 276.689 220.76 273.877C217.958 270.603 218.162 261.112 221.52 258.152C223.951 256.006 230.444 256.099 232.689 258.615C233.376 259.392 235.194 263.036 233.895 263.443C233.654 263.517 229.609 263.869 229.387 263.813C228.867 263.684 229.016 260.298 226.604 260.446C224.062 260.594 224.136 266.144 224.285 267.939C224.767 274.099 228.867 273.655 229.498 268.105C230.667 268.327 232.967 267.809 233.951 268.105L233.932 268.087ZM233.468 262.888C233.877 256.358 223.209 255.599 220.648 260.354C219.109 263.221 219.201 270.473 221.186 273.137C223.005 275.561 226.493 275.616 229.257 275.061C232.021 274.506 233.58 271.546 233.468 269.012C232.522 269.289 231.057 268.457 230.277 268.734C229.628 268.956 229.813 271.546 228.218 272.508C223.264 275.505 223.376 265.811 223.635 263.351C224.136 258.744 228.904 258.467 229.98 262.907H233.468V262.888Z" fill="#3B6998"/>
<path d="M353.783 257.079H358.997L359.312 274.969C359.312 275.228 358.997 275.746 358.83 275.746H354.08C354.266 273.23 353.06 275.08 352.151 275.505C350.314 276.356 346.789 276.467 345.36 274.802C345.156 274.562 344.266 272.693 344.266 272.527V257.079H349.331C349.331 257.079 349.794 257.505 349.794 257.542V271.01C349.794 271.879 352.911 272.379 353.412 270.64L353.783 257.079ZM349.182 257.69H344.878V272.527C344.878 272.656 346.102 274.469 346.399 274.691C347.624 275.616 350.091 275.635 351.483 275.117C352.577 274.71 352.8 273.6 353.932 273.581C354.896 273.581 353.987 274.765 354.896 275.08C355.75 275.376 357.401 274.969 358.384 275.117V257.671H354.395V270.381C354.395 270.473 353.357 271.75 353.152 271.898C352.503 272.323 350.778 272.619 350.091 272.212C350.017 272.175 349.164 271.065 349.164 270.991V257.671L349.182 257.69Z" fill="#3B6998"/>
<path d="M141.706 260.742C140.742 261.131 139.554 261.834 139.554 263.036V275.746H134.341V257.079H139.09C139.591 257.079 139.294 258.578 139.999 258.3C140.241 258.207 140.575 257.615 140.964 257.43C143.914 256.006 148.144 256.376 148.979 260.058C149.628 262.907 149.721 271.694 149.369 274.691C149.331 275.006 149.22 275.746 148.886 275.746H143.821V262.74C143.821 262.167 143.005 260.835 142.281 260.742C142.356 260.742 142.578 260.15 143.376 260.724C143.691 260.946 144.434 262.13 144.434 262.426V275.135H148.422V259.984C148.422 259.669 147.272 258.115 146.882 257.856C145.454 256.912 143.599 256.968 142.077 257.634C141.354 257.948 139.962 259.355 139.684 259.41C137.996 259.688 138.775 257.893 138.608 257.689C138.478 257.56 135.51 257.782 134.916 257.689V274.673C134.916 275.283 138.404 275.376 138.775 274.839C139.814 273.359 137.717 262.981 139.832 260.909C140.76 260.002 141.409 260.761 141.669 260.742H141.706Z" fill="#3B6998"/>
<path d="M339.665 263.499H334.915C334.525 263.499 334.266 259.725 331.613 260.483C329.331 261.149 329.627 267.513 329.85 269.456C330.017 270.991 330.945 272.675 332.689 272.305C334.748 271.879 334.358 269.345 335.212 268.068H339.665C340.203 274.136 336.01 276.745 330.333 276.005C324.025 275.172 323.487 266.829 324.767 261.926C326.826 253.971 340.11 254.878 339.665 263.48V263.499ZM335.082 262.87C335.23 263.018 338.867 263.092 339.034 262.407C339.127 262.056 337.976 259.651 337.661 259.225C335.342 256.21 328.551 256.894 326.474 259.965C324.396 263.036 324.451 271.62 327.42 274.025C330.091 276.19 336.251 275.949 338.032 272.712C338.217 272.36 339.293 269.604 339.312 269.4C339.423 268.383 336.102 268.512 335.657 268.827C335.212 269.141 335.249 270.88 334.767 271.62C333.542 273.452 330.537 273.359 329.683 271.158C328.551 268.235 327.995 258.744 333.004 259.891C334.952 260.335 334.822 262.611 335.082 262.87Z" fill="#3B6998"/>
<path d="M63.7474 260.446C62.4116 260.354 61.6139 259.873 60.2966 260.52C58.9052 261.205 59.3133 262.63 58.6454 262.852C58.2744 262.981 55.7883 262.981 55.3059 262.889C53.8217 262.611 54.7308 260.132 55.3059 259.225C57.4209 255.969 64.638 255.729 67.4209 258.134C71.1685 261.371 67.9589 271.232 69.8699 275.746H64.8049C64.4895 275.746 64.2298 274.229 63.8773 274.229C60.8532 277.226 54.7493 276.856 54.2113 271.935C53.8402 268.457 54.5267 266.959 57.6065 265.516C58.7196 264.998 63.4135 263.703 63.7474 263.37C64.3782 262.759 63.9701 261.501 63.7474 260.761C64.6936 260.539 64.7678 262.241 64.6936 262.759C64.3782 264.646 58.5526 265.46 56.7901 266.515C54.6195 267.828 54.6195 269.216 54.8606 271.621C55.176 274.599 56.9386 275.543 59.8328 275.376C61.7066 275.265 63.1908 273.637 64.2298 273.582C65.1574 273.526 64.6936 275.025 65.1945 275.154C66.0665 275.395 67.9589 274.951 68.9979 275.136C68.2001 270.474 68.4413 265.664 68.3671 260.927C67.7363 256.987 60.7604 256.783 57.8662 257.764C56.7716 258.134 54.1371 261.649 55.9553 261.982C59.202 262.574 58.5526 260.169 60.2595 259.854C61.15 259.688 63.3207 259.595 63.7845 260.465L63.7474 260.446Z" fill="#3B6998"/>
<path d="M125.751 114.146C125.751 114.146 126.215 114.072 126.326 114.202C125.714 115.441 127.105 114.812 126.53 115.996C123.209 117.791 119.257 119.141 115.621 120.27L113.821 113.018L114.081 112.481L124.638 108.929C124.916 108.985 125.547 111.815 125.621 112.315C125.695 112.777 125.454 113.147 125.454 113.24C125.565 113.295 125.918 113.166 126.029 113.277C126.196 113.462 125.732 114.109 125.751 114.146C125.751 114.091 125.491 113.739 125.435 113.221C125.306 113.166 124.897 113.351 124.823 113.018C124.638 112.278 125.194 109.91 124.007 109.577C123.358 109.392 119.517 111.778 118.385 111.704C118.089 112.463 118.923 112.222 118.998 112.518C119.239 113.443 118.756 115.164 118.998 116.089C119.035 116.237 121.168 117.513 121.539 117.476C121.781 117.458 125.602 116.144 125.714 115.941C125.862 115.7 125.769 114.572 125.751 114.146Z" fill="#3B6998"/>
<path d="M84.007 257.69C83.6916 255.377 83.4133 252.935 84.007 250.66H88.7566C88.7566 250.66 89.2204 251.085 89.2204 251.122V275.764H84.3039C84.3039 275.764 84.3595 274.469 84.3039 274.229C80.7417 277.189 76.2334 276.8 74.6564 272.083C72.393 265.33 74.1184 252.288 84.007 257.708C82.931 258.411 82.3558 257.301 81.3911 257.116C77.3651 256.376 75.2316 259.133 74.8048 262.759C74.4895 265.46 74.4895 270.806 75.7139 273.174C77.5136 276.671 81.8735 275.524 84.4709 273.618C85.1016 273.877 84.8419 275.024 84.9532 275.135C85.1017 275.302 88.033 275.043 88.6267 275.135V251.714C88.6267 250.937 84.9532 251.27 84.6749 251.585C84.1369 252.214 85.4356 256.765 84.0256 257.671L84.007 257.69Z" fill="#3B6998"/>
<path d="M191.112 178.12C190.277 180.396 191.539 187.333 190.333 188.813L171.632 201.689C170.686 200.931 171.446 199.802 171.483 198.785C171.539 197.286 171.15 191.94 171.762 191.107L189.48 178.472L191.131 178.12H191.112ZM172.096 192.051V200.154C173.97 199.969 175.342 198.23 176.715 197.268C181.001 194.289 185.398 191.477 189.572 188.369C190.519 185.465 190.11 182.357 190.185 179.341L189.48 179.397C183.71 183.67 177.643 187.5 172.077 192.032L172.096 192.051Z" fill="#3B6998"/>
<path d="M171.168 228.163L190.055 214.861C190.686 214.787 190.444 214.88 190.519 215.305C190.945 218.525 190.11 222.243 190.148 225.499C188.255 226.683 186.289 227.886 184.47 229.162C180.76 231.771 175.918 235.952 172.207 238.042C171.855 238.227 171.65 238.505 171.187 238.412V228.163H171.168ZM189.888 216.064C189.572 215.731 186.715 217.729 186.233 218.081C181.335 221.503 176.604 225.259 171.762 228.755C171.224 231.401 172.114 234.398 171.78 237.191L189.424 224.944L189.888 216.064Z" fill="#3B6998"/>
<path d="M164.118 274.21C162.189 276.134 159.09 276.819 156.641 275.394C152.856 273.174 153.135 262.981 154.749 259.521C156.363 256.062 160.296 255.747 163.487 257.375V251.104C163.487 251.104 163.914 250.641 163.951 250.641H169.016V275.746H164.099C164.099 275.45 164.099 275.135 164.099 274.821C164.285 274.876 164.545 275.117 164.712 275.135C165.157 275.69 168.701 275.598 168.701 274.987V251.566C167.031 251.289 163.506 250.271 164.099 253.102C164.099 253.194 164.099 253.305 164.099 253.416C163.97 254.896 164.192 256.506 164.099 258.004C163.06 258.356 162.077 257.338 161.112 257.153C159.146 256.783 156.771 257.523 155.676 259.244C154.174 261.556 154.137 270.732 155.454 273.211C156.678 275.542 160.036 276.134 162.244 274.969C162.689 274.728 164.322 272.471 164.415 274.229C164.322 274.247 164.155 274.192 164.099 274.229L164.118 274.21Z" fill="#3B6998"/>
<path d="M26.6047 275.746H21.0759V257.542C21.0759 257.542 21.5026 257.079 21.5397 257.079H26.6047C26.716 257.079 26.5305 258.929 26.6047 259.225C27.7735 257.819 29.9813 256.172 31.9293 256.82C32.8384 257.116 32.4117 260.52 32.3004 261.39C29.9813 261.797 26.6047 262.111 26.6047 265.201V275.764V275.746ZM25.9924 257.689C25.844 257.541 22.3561 257.8 21.6882 257.689V275.135H25.9924V264.276C25.9924 262.592 29.8514 260.502 31.5212 261.057C32.4488 253.305 27.3468 260.317 26.4562 260.132C25.677 259.965 26.1223 257.819 25.9924 257.689Z" fill="#3B6998"/>
<path d="M209.071 257.079H213.988C213.988 257.079 214.452 257.505 214.452 257.542V275.283C214.452 275.283 214.025 275.746 213.988 275.746H209.071C209.071 275.746 208.608 275.32 208.608 275.283V257.542C208.608 257.542 208.96 257.246 209.071 257.079ZM213.524 257.69H209.535V275.135H213.524V257.69Z" fill="#3B6998"/>
<path d="M40.3523 256.857C46.1222 256.025 49.6844 257.912 50.241 263.98C50.6677 268.605 50.1482 275.117 44.4896 275.986C39.8514 276.708 36.1594 275.376 35.0277 270.566C33.8959 265.756 34.3041 257.727 40.3338 256.857H40.3523ZM47.6807 259.022C45.6955 256.709 40.2224 256.746 37.959 258.763C34.6937 261.686 34.3969 270.122 37.087 273.415C39.7772 276.708 46.9015 276.171 48.7196 272.249C50.2038 269.049 50.0554 261.797 47.6807 259.022Z" fill="#3B6998"/>
<path d="M190.816 232.585V239.467C190.816 239.467 190.389 239.93 190.352 239.93H182.671C182.578 239.93 182.096 239.43 182.207 239.171C182.318 238.69 188.979 233.27 189.721 232.881C190.092 232.678 190.296 232.474 190.797 232.585H190.816Z" fill="#2363A0"/>
<path d="M296.399 272.064C297.754 268.124 291.873 268.05 289.424 266.625C285.583 264.368 286.121 259.059 290.036 257.32C294.377 255.395 301.316 256.487 301.297 262.278H296.845C296.566 262.278 296.214 260.631 295.453 260.298C293.19 259.281 291.427 260.798 292.077 263.203C291.873 263.129 291.65 263.351 291.427 263.018C289.683 260.409 294.043 258.337 296.084 259.965C296.604 260.372 296.808 261.408 297.494 261.612C298.273 261.852 299.349 261.575 300.166 261.667C300.982 258.393 296.696 256.987 294.062 257.042C290.184 257.116 287.253 259.207 287.754 263.351C288.255 267.495 297.29 266.921 297.309 270.695C297.309 271.398 296.975 271.787 296.362 272.064H296.399Z" fill="#3B6998"/>
<path d="M384.785 275.746H379.572V257.079H384.637C384.804 257.079 385.119 257.597 385.119 257.856L384.803 275.746H384.785ZM384.173 275.135V258.763C383.82 256.95 379.85 257.283 380.184 259.355V275.117H384.173V275.135Z" fill="#3B6998"/>
<path d="M292.392 263.203C296.789 264.664 303.728 266.144 301.205 272.453C298.96 278.077 285.323 277.392 286.548 269.622H291.464C291.613 269.622 291.65 271.639 292.763 272.157C293.765 272.619 295.064 272.397 296.066 272.083C296.158 273.378 293.561 273.137 292.856 272.989C291.26 272.693 291.019 270.418 290.815 270.288C290.388 270.011 287.921 270.399 287.179 270.251C287.105 277.189 300.129 277.115 300.963 270.991C301.631 266.052 296.715 265.774 293.357 264.239C292.912 264.035 292.262 263.85 292.411 263.203H292.392Z" fill="#3B6998"/>
<path d="M379.256 250.345H384.618C385.23 250.345 385.286 253.268 384.803 253.897C384.321 254.526 380.852 254.489 380.073 254.267C378.737 253.879 379.386 251.455 379.238 250.345H379.256Z" fill="#3B6998"/>
<path d="M214.452 250.345C214.266 252.325 215.324 254.082 212.782 254.341C209.016 254.711 208.255 254.212 208.626 250.345H214.452Z" fill="#3B6998"/>
<path d="M245.435 257.079C245.231 257.079 245.027 257.079 244.823 257.079C244.897 253.361 245.565 251.474 240.964 252.769C240.704 253.139 241.502 256.728 240.537 257.079C240.537 256.876 240.537 256.672 240.537 256.469V256.154C240.537 255.137 240.5 254.101 240.537 253.102V252.787C240.593 252.491 240.351 251.955 240.704 251.862C241.669 252.066 244.507 251.566 245.157 252.01C245.806 252.454 245.286 256.099 245.435 257.079Z" fill="#3B6998"/>
<path d="M248.515 257.375C248.719 257.375 248.923 257.375 249.127 257.375V260.742H245.75C245.75 260.724 245.379 260.668 245.435 260.446H248.515V257.69L245.453 257.394C246.474 257.431 247.513 257.338 248.515 257.394V257.375Z" fill="#3B6998"/>
<path d="M240.537 253.102C240.537 253.102 240.5 253.046 240.537 252.787V253.102Z" fill="#2363A0"/>
<path d="M158.589 154.551C145.806 140.065 135.157 128.78 131.91 108.763C124.619 63.6965 157.847 22.552 204.804 28.4351C262.225 35.6132 281.613 102.417 244.99 144.154C244.34 144.894 240.463 149.186 239.999 149.316C239.275 149.519 236.437 148.317 235.472 148.113C231.205 147.225 225.472 146.855 221.038 147.225C219.943 147.318 218.941 147.91 217.81 147.836C217.42 147.484 220.222 145.024 220.574 144.617C226.938 137.568 233.895 131.111 238.682 122.583C259.721 85.1013 231.817 38.4807 187.717 46.3618C159.202 51.4679 143.877 80.2542 149.869 107.653C154.897 130.593 176.326 142.211 185.843 162.71C186.437 163.968 188.589 169.222 188.292 170.239C188.125 170.831 181.687 175.734 180.76 176.215C179.777 176.751 178.682 176.77 178.033 177.158C177.532 177.454 176.14 179.508 175.287 180.229C174.86 180.599 172.393 182.394 172.077 182.079C171.502 179.212 171.521 176.326 170.686 173.514C168.274 165.392 164.062 160.767 158.571 154.533L158.589 154.551Z" fill="#1260A7"/>
<path d="M101.502 272.379C100.834 272.101 99.7955 271.269 99.5543 270.492C99.1461 269.178 98.9791 265.478 99.1461 264.054C99.2389 263.258 99.4615 261.445 99.9624 260.89C100.705 260.058 102.857 259.891 103.784 260.483C104.842 261.149 105.491 265.959 105.491 267.291C105.491 267.754 105.287 269.955 105.194 270.344C105.157 270.529 104.768 270.51 104.619 270.806C104.508 271.028 104.619 271.472 104.415 271.768C103.766 272.786 102.541 272.823 101.502 272.397C101.595 272.397 103.339 272.064 103.432 272.027C103.951 271.842 104.452 270.64 104.545 270.085C104.86 268.198 104.972 262.278 103.506 261.057C98.6081 257.005 98.9049 272.286 101.502 272.397V272.379Z" fill="#3B6998"/>
<path d="M10.3525 261.057C12.0037 262.851 12.4304 267.347 11.8738 269.715C11.8553 269.807 11.1503 271.158 11.0389 271.38C9.99998 273.23 7.55101 273.156 6.53061 271.435C5.5102 269.715 5.23191 262.629 6.53061 261.057C7.1243 260.335 9.128 259.669 9.74024 260.132C9.81445 260.187 9.66603 260.668 9.74024 260.742C8.03338 260.039 6.64192 261.39 6.38219 263.055C6.04824 265.164 5.8256 272.009 8.70128 272.268C10.4081 272.416 10.5751 271.509 10.9276 270.048C11.6141 267.18 11.4285 263.813 10.3525 261.057Z" fill="#3B6998"/>
<path d="M164.118 253.102C163.524 250.271 167.049 251.289 168.719 251.566V274.988C168.719 275.598 165.176 275.709 164.73 275.136C165.806 275.247 167.012 275.062 168.107 275.136V251.566H164.433C164.693 252.158 164.155 252.806 164.118 253.102Z" fill="#2363A0"/>
<path d="M161.966 272.064C162.318 271.805 162.968 271.916 163.209 271.546C164.174 269.974 164.563 261.131 162.689 260.483C161.632 260.113 159.498 260.946 159.22 261.889C158.441 264.664 158.96 268.642 159.517 271.454C157.346 269.326 157.717 259.392 161.725 259.873C163.339 260.058 164.304 261.889 164.433 263.332C164.637 265.441 164.804 270.769 163.061 272.102C162.151 272.805 162.022 272.083 161.966 272.083V272.064Z" fill="#3B6998"/>
<path d="M164.118 257.986C164.211 256.487 163.988 254.877 164.118 253.397C164.619 254.008 164.6 257.819 164.118 257.986Z" fill="#2363A0"/>
<path d="M160.129 272.065C159.888 271.991 159.795 271.695 159.814 271.454C160.073 271.639 160.166 271.713 160.129 272.065Z" fill="#3B6998"/>
<path d="M161.038 272.064L160.667 272.286L160.426 272.064C160.63 272.101 160.853 272.027 161.038 272.064Z" fill="#3B6998"/>
<path d="M164.415 274.21C164.563 274.062 164.897 274.488 164.563 274.525C164.452 274.525 164.341 274.284 164.415 274.21Z" fill="#2363A0"/>
<path d="M129.127 67.9329C129.127 67.9329 128.664 67.8589 128.497 68.1364C127.959 69.0985 127.476 72.5025 126.215 72.521C125.881 72.521 122.467 71.1335 122.077 70.8375C121.391 70.301 120.871 68.8025 120.333 68.5989C119.369 68.2659 117.81 68.969 116.474 68.7839C115.936 68.7099 114.693 68.2659 114.137 68.0439C113.784 67.8959 112.059 67.3224 112.263 66.8599C112.634 66.0644 114.025 66.7304 114.823 66.6749C119.109 66.3974 116.623 62.9564 117.179 62.4014C121.261 62.5679 124.693 65.4909 128.664 66.4159C129.146 66.5639 129.332 67.6369 129.146 67.9144L129.127 67.9329Z" fill="#2363A0"/>
<path d="M411.798 268.401C411.798 268.401 411.891 269.03 412.262 268.401C412.54 267.92 412.688 267.088 412.818 266.514C413.542 263.628 414.043 260.631 414.562 257.708H418.533C417.735 262.13 416.009 266.237 414.636 270.473C414.469 271.01 414.636 271.62 414.469 272.138C413.783 274.247 413.004 277.392 411.334 278.798C411.074 279.02 409.683 279.89 409.423 279.945C408.737 280.112 404.47 280.334 404.136 280.019C404.024 279.908 404.21 278.299 404.136 277.873C406.362 278.021 409.367 277.799 409.386 274.969C409.386 273.507 407.939 269.382 407.419 267.717C407.03 266.422 403.746 257.764 404.136 257.375C405.082 257.542 407.735 257.024 408.291 257.671C408.644 258.078 409.405 261.63 409.59 262.5C409.961 264.22 409.794 264.775 410.425 266.551C410.592 267.032 410.351 267.643 411.186 267.476C411.186 267.569 411.186 267.68 411.186 267.791C411.204 267.939 411.353 268.05 411.501 268.105C411.594 268.216 411.687 268.327 411.816 268.42L411.798 268.401Z" fill="#1260A7"/>
<path d="M233.468 262.888H229.98C228.923 258.467 224.136 258.744 223.635 263.351C223.376 265.811 223.264 275.505 228.218 272.508C229.813 271.546 229.628 268.956 230.277 268.734C231.057 268.457 232.522 269.289 233.468 269.012C233.58 271.565 231.928 274.525 229.257 275.061C226.585 275.598 223.005 275.561 221.186 273.137C219.183 270.473 219.109 263.221 220.648 260.354C223.209 255.599 233.877 256.358 233.468 262.888Z" fill="#1260A7"/>
<path d="M349.182 257.689V271.01C349.182 271.01 350.036 272.194 350.11 272.231C350.778 272.638 352.503 272.342 353.171 271.916C353.375 271.787 354.414 270.492 354.414 270.399V257.689H358.403V275.135C357.42 274.969 355.768 275.376 354.915 275.098C353.987 274.784 354.915 273.581 353.95 273.6C352.818 273.6 352.596 274.728 351.501 275.135C350.11 275.653 347.642 275.616 346.418 274.71C346.121 274.488 344.896 272.675 344.896 272.545V257.708H349.201L349.182 257.689Z" fill="#2363A0"/>
<path d="M335.082 262.87C334.822 262.611 334.971 260.335 333.004 259.891C327.995 258.744 328.551 268.235 329.683 271.158C330.537 273.359 333.542 273.47 334.767 271.62C335.249 270.899 335.23 269.141 335.657 268.827C336.084 268.512 339.423 268.383 339.312 269.4C339.293 269.604 338.217 272.379 338.032 272.712C336.251 275.949 330.073 276.19 327.42 274.025C324.47 271.62 324.433 262.999 326.474 259.965C328.514 256.931 335.342 256.191 337.661 259.225C337.976 259.651 339.127 262.037 339.034 262.407C338.867 263.092 335.23 263.018 335.082 262.87Z" fill="#1260A7"/>
<path d="M125.751 114.146C125.751 114.572 125.862 115.7 125.714 115.941C125.602 116.126 121.781 117.439 121.539 117.476C121.168 117.513 119.035 116.237 118.998 116.089C118.775 115.145 119.257 113.443 118.998 112.518C118.923 112.222 118.089 112.463 118.385 111.704C119.536 111.778 123.376 109.392 124.007 109.577C125.194 109.91 124.619 112.278 124.823 113.018C124.916 113.351 125.306 113.166 125.435 113.221C125.473 113.721 125.732 114.091 125.751 114.146Z" fill="#2363A0"/>
<path d="M84.007 257.69C85.417 256.783 84.1183 252.232 84.6564 251.603C84.9347 251.289 88.6081 250.956 88.6081 251.733V275.154C88.0144 275.043 85.1016 275.302 84.9347 275.154C84.8233 275.043 85.0831 273.896 84.4523 273.637C81.8549 275.543 77.495 276.69 75.6954 273.193C74.4709 270.825 74.4894 265.479 74.7863 262.778C75.213 259.151 77.328 256.395 81.3725 257.135C82.3558 257.32 82.9124 258.43 83.9885 257.727L84.007 257.69ZM80.8531 260.502C78.4412 261.223 78.7751 268.957 79.6471 270.751C80.6675 272.86 83.1722 272.527 83.9328 270.307C84.7306 267.958 85.0831 259.244 80.8531 260.502Z" fill="#2363A0"/>
<path d="M172.096 192.051C177.662 187.518 183.747 183.689 189.498 179.415L190.203 179.36C190.129 182.357 190.537 185.465 189.591 188.388C185.398 191.496 181.02 194.327 176.734 197.287C175.342 198.249 173.988 199.988 172.114 200.173V192.07L172.096 192.051Z" fill="#1260A7"/>
<path d="M189.888 216.064L189.424 224.944L171.78 237.191C172.114 234.398 171.205 231.401 171.762 228.755C176.604 225.259 181.335 221.503 186.233 218.081C186.734 217.729 189.572 215.749 189.888 216.064Z" fill="#1260A7"/>
<path d="M25.9925 257.69C26.1224 257.819 25.6771 259.984 26.4563 260.132C27.3468 260.317 32.4489 253.305 31.5212 261.057C29.8515 260.502 25.9925 262.592 25.9925 264.276V275.136H21.6882V257.69C22.3376 257.801 25.8255 257.542 25.9925 257.69Z" fill="#1260A7"/>
<path d="M213.524 257.689H209.535V275.135H213.524V257.689Z" fill="#1260A7"/>
<path d="M47.6807 259.022C50.074 261.797 50.2039 269.067 48.7197 272.249C46.9015 276.171 39.6659 276.578 37.0871 273.415C34.5082 270.251 34.6752 261.686 37.959 258.763C40.2225 256.746 45.6956 256.728 47.6807 259.022ZM40.7234 271.768C40.7234 271.768 40.6863 272.323 41.2243 272.638C42.0963 273.156 43.8217 273.137 44.434 272.249C44.7123 271.842 44.6009 271.38 44.7494 271.102C45.9182 268.827 46.0295 264.609 45.1575 262C44.2855 259.392 41.2614 258.781 39.9998 261.075C38.998 262.907 39.2021 267.624 39.536 269.752C39.6102 270.214 39.8885 271.195 40.1112 271.565C40.2967 271.842 40.7049 271.731 40.742 271.768H40.7234Z" fill="#1260A7"/>
<path d="M384.173 275.135H380.184V259.373C379.85 257.301 383.82 256.968 384.173 258.781V275.154V275.135Z" fill="#1260A7"/>
<path d="M411.482 268.087C411.353 268.05 411.204 267.92 411.167 267.772C411.278 267.865 411.371 267.976 411.482 268.087Z" fill="#3B6998"/>
<path d="M40.7233 271.769C40.7233 271.769 40.2781 271.861 40.0925 271.565C39.8699 271.195 39.5916 270.215 39.5174 269.752C39.1835 267.624 38.9608 262.907 39.9812 261.075C41.2428 258.781 44.2669 259.447 45.1389 262C46.0109 264.553 45.8996 268.827 44.7307 271.103C44.5823 271.38 44.6936 271.843 44.4154 272.25C43.8031 273.138 42.0962 273.156 41.2057 272.638C40.6677 272.324 40.779 271.861 40.7048 271.769C41.113 272.268 42.5972 272.509 43.2465 272.324C45.6584 271.602 45.3244 262.944 44.0814 261.205C42.8384 259.466 40.5749 260.372 40.1482 262.185C39.7215 263.998 39.5545 270.363 40.7048 271.769H40.7233Z" fill="#3B6998"/>
<path d="M197.036 51.8256C197.212 51.806 197.35 51.7897 197.526 51.787C208.049 51.7449 218.382 55.113 226.228 62.3563C236.48 71.8228 240.95 87.5941 237.61 101.123C235.747 108.678 228.821 119.509 223.521 125.189C224.051 123.401 225.386 120.331 226.093 118.424C228.484 111.976 229.346 106.005 229.046 99.1306C229.104 96.609 227.872 91.3523 227.148 88.8893C224.006 78.1881 217.311 70.0777 207.415 64.8833C197.037 59.3683 184.836 58.4629 173.764 62.3856C170.02 63.6977 166.807 65.6064 162.895 66.8374C163.078 66.6286 163.264 66.4219 163.451 66.2174C165.415 64.0866 166.883 63.7794 169.01 62.1863C177.264 56.0025 186.611 52.2778 197.036 51.8256Z" fill="#BCD8F2"/>
</g>
<defs>
<clipPath id="clip0_1_711">
<rect width="421" height="281" fill="white"/>
</clipPath>
</defs>
</svg>
