<svg width="394" height="394" viewBox="0 0 394 394" fill="none" xmlns="http://www.w3.org/2000/svg">
<g clip-path="url(#clip0_12_1494)">
<path d="M375.37 115.19C376.05 115.92 375.69 116.21 374.72 116.02C374.1 114.95 373.38 113.97 372.57 113.08C371.85 112.35 371.13 111.6 370.64 110.7C364.65 99.6999 359.23 89.8299 351.65 79.7399C292.34 0.719948 181.46 -20.4201 96.8702 30.3699C64.9102 49.5599 38.2502 78.8299 21.6202 112.1C16.2802 122.78 13.1902 132.37 9.81024 143.69C9.58024 144.45 9.10023 145.1 8.62023 145.72L7.92023 147.83C8.59023 148.03 8.60023 148.34 7.92023 148.53L7.57023 149.58C7.87023 149.7 7.87023 149.81 7.57023 149.93L7.22023 150.98C7.52023 151.1 7.52023 151.21 7.22023 151.33L6.87023 152.38C7.76023 152.94 7.59023 154.3 6.52023 154.49L6.17023 155.54C6.73023 156.24 6.60023 156.86 5.82023 157.29L5.47023 158.69C5.77023 158.81 5.77023 158.92 5.47023 159.04C5.15023 160.21 4.58023 160.96 4.24023 159.3C5.52023 153.13 6.86023 147.08 8.28023 141.14C38.6202 37.5 147.6 -22.7201 252.1 8.04995C295.13 20.7199 332.75 47.9599 358.25 84.7499C364.83 94.2399 370.83 104.56 375.37 115.19Z" fill="#4E1414"/>
<path d="M375.37 115.19C378.91 116.83 388.97 155.32 390 161.1C412.58 287.25 313.96 398.81 186.37 393.16C184.59 393.08 181.53 392.88 179.89 392.44L175.72 391.45L175.5 390.69C175.43 390.96 175.34 391.31 175.11 391.39C174.06 391.74 169.06 391.15 168.13 390.69L167.88 391.01C167.01 390.64 166.34 390.65 165.85 391.04C162.93 390.59 159.9 390.2 157.08 389.29C158.7 387.97 153.96 388.28 153.22 388.59C150.58 388.04 148.08 387.16 145.5 386.48C145.62 385.98 145.85 385.52 146.2 385.08C147.27 385 148.36 384.96 149.42 385.17C163.18 387.95 175.41 390.23 189.56 390.72C240.7 392.47 289.76 374.5 327.51 340.06C378.75 293.31 401.27 222.41 386.14 154.68C383.04 140.78 378.49 129.18 373.19 116.09C372.8 115.14 372.67 114.1 372.57 113.09C373.91 113.21 374.43 115.16 375.2 115.54C375.39 115.63 375.36 115.19 375.37 115.2V115.19Z" fill="#5A1313"/>
<path d="M146.19 385.07C146.81 385.85 146.5 386.44 145.49 386.47C88.6699 371.54 41.4699 331.48 17.3299 277.91C15.6999 274.3 10.0599 261.57 10.0199 258.37C9.45993 256.48 9.68993 255.31 10.7199 254.86L11.5699 256.03C31.4899 317.93 82.4799 366.61 145 384.27L146.2 385.07H146.19Z" fill="#4C1515"/>
<path d="M8.27015 141.16C8.90015 143.33 7.72015 145.29 7.25015 147.34C6.84015 149.15 6.35015 150.97 5.97015 152.73C5.45015 155.15 5.12015 157.69 4.76015 160.11L5.46015 159.06C5.61015 160.15 5.74015 161.26 5.61015 162.36C3.63015 178.14 1.99015 192.02 2.91015 208.03C3.80015 223.53 6.86015 236.63 10.4901 251.58C10.7501 252.65 10.7501 253.77 10.7301 254.87C10.3801 255.72 10.0201 257.5 10.0301 258.38C-1.95985 223.49 -3.05985 184.27 5.98015 148.52C6.61015 146.02 7.54015 143.61 8.26015 141.15L8.27015 141.16Z" fill="#601314"/>
<path d="M179.88 392.44C175.17 392.53 170.48 391.75 165.84 391.04C165.58 389.49 167.49 390.69 168.12 390.69H175.49C176.15 390.69 178.95 392.19 179.88 392.44Z" fill="#4C1515"/>
<path d="M153.21 388.58C153.01 387.47 153.77 387.97 154.44 387.89C155.41 387.76 157.3 387.49 158.13 388.06C159.47 388.99 158.13 389.3 157.08 389.29C155.57 389.27 154.61 388.88 153.22 388.59L153.21 388.58Z" fill="#4C1515"/>
<path d="M372.56 113.08C416.55 206.05 381.27 315.63 292.78 366.18C248.67 391.38 195.45 398.02 146.2 385.07C82.7801 368.39 29.6701 317.63 10.7301 254.87C0.890142 222.28 -0.519857 192.59 5.46014 159.06C5.48014 158.95 5.44014 158.82 5.46014 158.71L5.81014 157.31C5.92014 156.72 6.05014 156.14 6.16014 155.56L6.51014 154.51C6.64014 153.84 6.70014 153.14 6.86014 152.4L7.21014 151.35C7.24014 151.24 7.18014 151.11 7.21014 151L7.56014 149.95C7.59014 149.84 7.53014 149.71 7.56014 149.6L7.91014 148.55C7.96014 148.34 7.86014 148.06 7.91014 147.85L8.61014 145.74C17.5001 105.9 48.0101 64.5 80.4401 40.51C179.25 -32.6 320.23 2.48003 372.56 113.08Z" fill="#F8FAFC"/>
<path d="M5.45996 158.7C5.55996 158.12 5.73996 157.66 5.80996 157.3L5.45996 158.7Z" fill="#601314"/>
<path d="M7.91016 147.82C8.07016 147.09 7.95016 146.27 8.61016 145.71C8.45016 146.43 8.58016 147.26 7.91016 147.82Z" fill="#601314"/>
<path d="M7.56006 149.58C7.67006 149.11 7.88006 148.67 7.91006 148.53L7.56006 149.58Z" fill="#601314"/>
<path d="M6.85986 152.39C6.96986 151.89 7.17986 151.49 7.20986 151.34L6.85986 152.39Z" fill="#601314"/>
<path d="M7.20996 150.98C7.31996 150.5 7.52996 150.07 7.55996 149.93L7.20996 150.98Z" fill="#601314"/>
<path d="M6.16016 155.55C6.26016 155.03 6.49016 154.59 6.51016 154.5L6.16016 155.55Z" fill="#601314"/>
<path d="M190.69 6.48999C303.34 3.01999 393.31 96.34 386.6 208.72C380.84 305.13 302.75 382.72 206.04 387.19C114.17 391.44 33.0198 330.58 11.5898 241.53C-16.8002 123.53 69.8598 10.21 190.69 6.48999Z" fill="#B0B7BB"/>
<path d="M188.23 18.78C272.06 14.85 348 71.03 369.09 151.82C393.77 246.37 336.29 344.23 242.42 368.83C124.83 399.64 12.6702 307.85 18.7802 186.96C23.3702 96.52 97.8902 23.02 188.23 18.78Z" fill="#F5FAFB"/>
<path d="M83.72 67.1C83.27 67.94 82.8 68.7799 82.11 69.4499C73.64 77.7799 66.21 85.16 59.08 94.8C17.12 151.6 14.06 227.55 51.53 287.57C57.43 297.01 63.81 304.54 70.96 312.95C71.62 313.72 72.06 314.65 72.48 315.57L71.55 315.69C69.85 313.75 68.06 312.19 66.16 311.01C65.98 310.8 65.71 310.6 65.46 310.31C65.56 310.16 65.64 310.01 65.62 309.87C65.54 309.04 61.6 305.05 60.54 304.35C2.62004 231.52 12.75 127.81 81.97 66.4C82.84 65.87 83.8 65.91 83.72 67.1Z" fill="#193E6A"/>
<path d="M72.4899 315.58C73.0799 315.61 73.6199 315.77 74.1099 316.08C122.83 367.26 200.09 382.09 264.97 353.86C277.31 348.49 287.06 342.17 298.13 334.73C298.99 334.15 299.98 333.8 300.96 333.48C301.91 333.06 302.42 334.25 301.66 334.88C228.5 390.95 126.61 379.85 66.1699 311.01C66.5299 310.2 67.1799 310.84 67.5899 311.17C69.1899 312.46 71.0699 314.36 72.4899 315.57V315.58Z" fill="#1E3E70"/>
<path d="M298.16 55.87L300.12 57.77C300.64 58.96 299.37 58.75 298.51 58.33C297.52 58.03 296.53 57.7 295.66 57.14C285.73 50.73 276.86 45.08 265.95 40.26C217.12 18.67 162.62 20.87 115.68 45.99C104.73 51.85 96.04 58.37 86.27 65.86C85.51 66.44 84.62 66.79 83.73 67.11L81.98 66.41C142.75 12.5 232.24 8.50003 298.17 55.88L298.16 55.87Z" fill="#1D4071"/>
<path d="M361.33 251.71C360.81 252.03 360.15 252.18 359.58 252.06C359.55 251.09 359.54 250.09 359.79 249.15C363.29 236.09 366.18 224.71 367.32 211.12C371.07 166.33 357.03 121.72 328.22 87.22C319.52 76.8 310.67 69.21 300.35 60.59C299.6 59.96 299.04 59.15 298.52 58.34L299.92 58.17L298.17 55.88C360.02 100.33 385.58 178.98 361.34 251.71H361.33Z" fill="#174069"/>
<path d="M361.33 251.71C349.99 285.74 329.97 313.19 301.67 334.89L300.97 333.49C301.39 332.74 301.84 331.98 302.5 331.41C315.28 320.3 325.59 310.51 335.62 296.64C345.68 282.72 351.69 269.94 358.11 254.2C358.44 253.39 359.01 252.72 359.58 252.07C359.88 251.31 360.75 250.96 361.33 251.72V251.71Z" fill="#1B315B"/>
<path d="M60.5601 304.35C61.1701 304.6 61.8201 304.75 62.3401 305.2C62.6701 305.49 65.6101 308.72 65.8401 309.07C66.2201 309.63 66.6701 310.46 65.4701 310.32C63.7301 308.32 62.1601 306.37 60.5601 304.35Z" fill="#1E3E70"/>
<path d="M298.51 58.33C358.8 102.73 383.5 180.55 359.58 252.06C349.02 283.62 327.29 313.32 300.97 333.48C236.57 382.8 145.67 380.07 84.4198 326.99C80.2798 323.4 76.5598 319.06 72.4898 315.58C44.8098 286.87 28.6298 249.55 25.1098 209.76C24.0398 197.64 24.5898 186.06 26.2098 174.01C31.7498 132.76 52.3698 94.28 83.7198 67.09C120.76 34.96 171.55 19.26 220.36 26.44C248.8 30.62 275.42 41.32 298.51 58.32V58.33Z" fill="#FBFCFC"/>
<path d="M330.44 163.27H62.3101C67.2301 145.41 75.5501 127.93 86.8901 113.27C132.94 53.7 216.58 41.08 277.76 85.92C303.66 104.9 321.67 132.43 330.44 163.27Z" fill="#005388"/>
<path d="M331.5 227.84C328.54 242 322.13 255.98 314.45 268.17C285.87 313.55 235.71 338.69 181.82 333.12C124.25 327.17 76.48 283.78 61.96 228.37L331.5 227.84Z" fill="#600C14"/>
<path d="M303.07 213.8V177.83C303.07 177.83 303.56 177.3 303.6 177.3H322.55C336.22 177.3 337.3 194.52 334.9 204.39C333.92 208.41 330.36 213.79 325.7 213.79H303.06L303.07 213.8Z" fill="#075386"/>
<path d="M145.66 177.3C152.32 178 155.61 181.83 156.03 188.34C156.39 193.83 155.88 199.63 150.76 202.75C152.74 204.98 154.63 207.37 156.3 209.83C156.7 210.42 158.9 213.38 158.47 213.8L147.94 214.01C147.23 213.81 145.75 211.87 145.15 211.16C144.29 210.14 140.73 204.78 140.22 204.5C139.24 203.96 136.86 204.52 135.66 204.32V213.27C135.66 213.65 134.8 213.77 134.45 213.81C132.47 214.04 129.84 213.73 127.75 213.77C127.26 213.78 125.48 214.42 125.48 213.61V177.29C131.92 177.79 139.34 176.62 145.66 177.29V177.3Z" fill="#075286"/>
<path d="M102.32 186.08C102.89 187.9 102.62 189.81 102.67 191.7H116.01V200.12C115.56 199.93 114.97 200.47 114.78 200.47H102.67C102.9 202.05 102.46 203.88 102.47 205.37C102.47 205.77 102.44 205.89 102.9 206.04C107.09 206.02 111.31 206.24 115.5 206.11C116.13 206.09 119.17 205.23 119.17 206.27V213.82H92.5V177.32H118.65C119.73 177.32 118.84 181.2 118.81 182.04C118.78 182.88 119.42 186.09 118.65 186.09H102.33L102.32 186.08Z" fill="#085486"/>
<path d="M296.75 186.08H279.9V191.7H292.89V200.12L280.26 200.47V206.09H296.75V213.81H269.73C269.64 213.55 270.08 213.39 270.08 213.28V177.31H296.23C296.23 177.31 296.76 177.8 296.76 177.84V186.09L296.75 186.08Z" fill="#095587"/>
<path d="M245.86 177.3V186.07C241.13 186.65 235.65 185.5 230.93 186.05C230.58 186.09 229.72 186.21 229.72 186.59V193.43C232.11 193.36 234.53 193.51 236.93 193.44C237.78 193.42 243.06 192.41 243.06 193.6V201.85L230.07 202.2V213.26C230.07 213.26 229.58 213.79 229.54 213.79H219.19L219.54 177.29H245.86V177.3Z" fill="#0B5485"/>
<path d="M85.7798 178.06C86.1098 178.6 84.9298 186.29 84.4498 186.63C80.3998 187.02 73.8098 183.98 70.5498 187.47C67.2898 190.96 67.2298 202.01 71.2698 205.03C75.6198 208.29 80.0898 204.95 84.7398 205.07L85.8098 213.79C77.3698 215.03 63.3198 216.94 59.3398 207.14C56.7598 200.8 56.6898 189.35 60.0698 183.31C64.7398 174.95 77.8198 176.64 85.7898 178.07L85.7798 178.06Z" fill="#095484"/>
<path d="M196.03 186.08C195.69 185.97 195.27 186.43 195.15 186.43H184.09V213.8H173.91V186.43H162.33L161.98 177.65C172.87 176.88 183.88 177.51 194.81 177.28C195.17 177.2 196.02 177.53 196.02 177.82V186.07L196.03 186.08Z" fill="#095588"/>
<path d="M211.82 213.8H201.29L201.64 177.3H211.29C211.29 177.3 211.82 177.79 211.82 177.83V213.8Z" fill="#0E558A"/>
<path d="M262.01 177.3V213.27C262.01 213.27 261.52 213.8 261.48 213.8H251.83C251.55 202.88 252.19 191.89 251.84 180.97C251.82 180.34 250.96 177.3 252 177.3H262H262.01Z" fill="#0C578D"/>
<path d="M213.93 356.99L210.07 357.34C210.13 354.04 210.13 350.76 209.55 347.51C207.64 349.03 207.48 355.94 206.07 357.02C205.45 357.5 203.78 357.57 203.22 357C202.18 355.93 201.09 350.44 199.99 348.66C199.76 348.29 200.01 348.05 199.2 348.21C199.25 349.66 199.12 351.14 199.2 352.59C199.39 355.87 201.47 358.94 196.19 357.35L196.01 338.18C196.93 337.97 198.65 337.74 199.37 338.37C200.19 339.09 202.54 346.84 203.45 348.68C203.64 349.06 204.53 351.23 205.15 350.66L208.85 338.04C209.22 337.02 212.31 337.07 212.72 337.65L213.93 356.97V356.99Z" fill="#085587"/>
<path d="M50.9901 118.43C53.6701 117.87 57.1601 119.17 58.8101 121.33C60.7001 123.8 59.3901 125.09 63.5601 125.03C64.7701 125.01 68.5201 123.93 67.8701 126.5C66.8701 130.4 59.4201 126.83 57.4201 130.1C57.4401 130.9 63.5701 133.57 63.9301 134.13C64.2901 134.69 62.7701 136.59 62.3201 136.79C61.7201 137.05 60.9101 136.53 60.3401 136.31C57.2801 135.11 53.2501 133.16 50.3901 131.52C49.6101 131.07 45.5401 128.6 45.3101 128.18C44.1201 126.04 48.3701 118.98 51.0001 118.44L50.9901 118.43Z" fill="#105B8D"/>
<path d="M254.25 62.5101C253.85 62.8601 250.81 62.0001 250.75 61.6301C250.9 59.2001 254.3 53.8601 253.95 51.8501C253.69 50.3901 251.63 50.6901 250.83 51.8901C249.93 53.2301 248.42 59.6501 247.99 59.9401C247.33 60.4001 245.36 59.2701 244.48 59.3701C243.93 58.7301 248.41 50.3001 247.63 48.5001C246.94 48.5601 246.04 48.3401 245.4 48.5601C244.16 48.9801 242.41 57.6501 241.98 57.9501C241.4 58.3601 239.33 57.1701 238.51 57.2601C238.76 55.7301 241.86 45.3901 242.4 45.0401C243.05 44.6201 248.29 46.2001 249.38 46.5601C250 46.7701 250.49 47.3901 251.13 47.6201C254.98 49.0101 258.25 47.9201 257.36 53.5001C257.24 54.2501 254.61 62.1901 254.25 62.5001V62.5101Z" fill="#115D8F"/>
<path d="M107.59 335.58L117.07 317.34C123.23 320.07 130.76 322.92 125.5 330.86C122.17 335.89 118.67 334.05 114.47 331.4C113.7 331.58 111.86 336 111.09 336.48C110.22 337.02 108.57 335.66 107.59 335.58Z" fill="#135A87"/>
<path d="M235.65 55.8399C235.3 56.1399 232.06 55.8999 231.93 55.0199C231.74 53.7599 234.73 46.1499 234.13 45.3399C233.68 44.7299 231.68 44.7499 231.17 45.5799C230.45 46.7699 229.35 54.1099 228.97 54.4399C228.59 54.7699 226.16 54.3699 225.51 54.1099C225.25 53.7299 227.58 46.5299 227.59 45.1299C227.6 43.4599 225.26 43.1299 224.76 43.8099C223.69 45.2899 223.37 52.7299 223.04 53.0699C222.92 53.1899 220.01 53.2099 219.69 52.7499C218.94 51.6799 221.67 41.7799 221.66 39.7499C221.85 39.5799 223.77 40.0099 224.24 40.1299C227.76 40.9599 231.05 41.7499 234.65 42.3599C236.21 42.6299 237.77 43.2899 237.76 45.1399C237.76 46.0399 236.06 55.4999 235.65 55.8599V55.8399Z" fill="#125B8E"/>
<path d="M71.6898 97.7101C72.2898 97.5301 72.9698 97.5501 73.5398 97.8201C75.8098 99.8001 78.4198 101.32 80.7298 103.26C81.8598 104.2 85.0398 106.68 85.1198 108.01C85.2098 109.46 80.9598 116.86 78.8298 113.56C78.6198 112.68 82.4698 109.48 80.9098 107.62C79.5598 106.02 77.8198 110.58 76.5398 111.33C74.7398 112.38 71.9698 110.01 70.5698 108.85C69.5998 108.05 66.3398 105.08 66.6698 103.94C66.9198 103.06 70.8698 97.9501 71.6898 97.7001V97.7101Z" fill="#0C5586"/>
<path d="M141.6 60.4C140.51 61.12 138.78 61.23 137.79 61.68C136.11 62.45 134.58 64.83 132.32 62.89C130.76 61.56 127.98 55.34 128.35 53.32C128.86 50.57 131.64 50.57 133.54 49.37C133.56 49.04 131.15 44.27 130.9 43.23C130.55 41.8 134.1 41.26 134.56 42.75C135.02 45 142.16 59.62 141.6 60.39V60.4Z" fill="#085485"/>
<path d="M264.07 330.37C265.03 332.69 266.25 334.91 267.19 337.25C268.13 339.59 270.39 344.3 269.17 346.44C267.54 349.3 260.64 351.21 262.53 347.51C263.05 346.49 267.31 346.65 265.96 343.75C265.1 341.9 263.6 344.66 261.83 344.74C258.01 344.91 254.8 337.14 256.02 334.34C257.01 332.04 261.8 330.83 264.08 330.37H264.07Z" fill="#065287"/>
<path d="M323.69 101.21C326.7 100.63 330.4 105.18 330.03 107.9C329.64 110.83 323.41 115.32 320.53 114.76C317.84 114.24 315.53 110.37 316.13 107.71C316.61 105.6 321.66 101.6 323.69 101.21Z" fill="#0D5B8F"/>
<path d="M157.37 37.57C157.03 38.11 153.17 38.64 152.9 39.61C152.53 40.9 157.16 52.8 157.04 55.32C156.92 55.78 154.22 56.69 153.79 56.55C153 56.31 150.18 42.57 149.19 40.77C148.26 39.65 145.79 41.45 144.67 41.1C143.82 40.83 143.75 38.33 144.69 38.04L156.23 34.83C157.25 34.83 157.74 36.98 157.37 37.57Z" fill="#155C8A"/>
<path d="M139.07 336.01C141.1 335.54 145.79 337.61 146.18 339.63C146.69 342.24 144.36 349.42 141.44 349.96C138.52 350.5 134.72 349.36 134.29 345.91C133.94 343.09 135.94 336.73 139.07 336.01Z" fill="#085683"/>
<path d="M272.18 71.67C271.43 71.33 268.56 70.5 268.72 69.45C270.37 68.08 273.83 59.42 275 58.84C275.46 58.61 276.07 58.91 276.49 59.12C277.93 59.84 280.9 61.39 282.14 62.25C284.66 63.99 283.41 64.76 282.21 67.11C281.72 68.08 278.19 74.44 277.82 74.68C277.23 75.06 274.68 73.91 274.66 72.91C274.63 71.45 280.01 65.26 279.4 63.94C279 63.07 277.36 62.61 276.59 63.26C275.36 64.3 273.12 69.96 272.19 71.68L272.18 71.67Z" fill="#075A8C"/>
<path d="M326.63 124.01C326.84 123.64 332.47 120.35 333.61 119.22C334.56 118.27 335.5 116.87 333.61 116.38C332.13 115.99 326.53 121.31 325.36 121.39C324.72 121.43 322.91 119.34 323.23 118.7C323.55 118.06 332.5 111.82 333.16 111.72C333.5 111.67 333.64 111.7 333.95 111.84C334.34 112.01 338.45 118.08 338.7 118.72C338.88 119.18 338.93 119.27 338.7 119.74C338.24 120.75 330.89 125.82 329.68 126.18C327.83 126.72 325.87 125.31 326.63 124.01Z" fill="#0A5A8B"/>
<path d="M211.03 38.06C217.52 37.67 219.04 45.01 216.33 49.68C214.26 53.25 206.85 52.61 206.23 48.66C205.67 45.13 206.47 38.34 211.04 38.06H211.03Z" fill="#0D598A"/>
<path d="M238.85 352.79C238.29 351.54 237.09 343.32 236.71 343C236.33 342.68 234.47 342.94 234.11 343.66C233.31 345.29 235.63 351.18 235.72 353.27L232.52 354.05C232.29 352.43 229.05 342.18 229.52 341.54C229.99 340.9 232.51 341 233.33 340.77C235.17 340.26 237.44 338.03 239.36 340.52C240.64 342.19 241.3 348.9 242.37 351.21C242.22 352.55 239.86 352.45 238.85 352.79Z" fill="#06578C"/>
<path d="M265.52 53.42C265.84 53.85 261.25 61.27 261.71 62.99C261.9 63.71 262.79 64.51 263.6 63.97C265.55 62.65 267.27 57.11 267.98 54.82C268.83 55.03 271.1 55.84 271.13 56.73C271.15 57.27 267.53 65.73 267 66.65C266.78 67.04 266.1 68.03 265.71 68.06C264.19 66.73 258.69 65.83 257.99 64.29C256.72 61.47 261.18 55.65 261.84 52.71C262.75 51.59 264.47 53.37 265.53 53.42H265.52Z" fill="#0C578C"/>
<path d="M298.22 81.92C300.39 80.65 304.24 86.84 305.12 83.7C305.79 81.32 299.06 80.88 302.88 78.66C304.13 77.94 305.41 79.3 306.39 80.1C307.85 81.29 309.56 82.55 308.71 84.5C307.49 87.29 303.56 90.12 302.13 93.04C301.06 93.39 296.21 89.88 295.54 88.85C293.32 85.48 296.79 84.53 298.22 81.92Z" fill="#085687"/>
<path d="M247.52 336.02C250.94 335.44 251.6 336.52 252.79 339.35C253.14 340.19 255.36 346.26 255.36 346.65C255.36 347.17 255.28 347.59 254.78 347.84C251.1 348.34 246.68 352.7 244.91 347.24C244.31 345.39 244.06 343.99 245.68 342.6C246.78 341.65 251.59 340.69 248.78 339.13C246.82 338.04 243.7 341.81 243.45 338.85C243.35 337.68 246.51 336.19 247.51 336.02H247.52Z" fill="#095085"/>
<path d="M107.15 73.33C106.5 73.96 102.51 75.21 103.18 76.57C104.73 79.71 108.1 75.51 109.11 75.58C110.38 75.68 111.05 77.04 110.02 78.12C108.81 79.39 106.05 81.28 104.26 81.16C101.51 80.97 96.8099 74.87 97.0699 72.22C97.2799 70.11 100.7 67.2 102.82 67.46C104.71 67.69 108.39 72.13 107.16 73.33H107.15Z" fill="#085286"/>
<path d="M223.36 347.47C223.52 347.22 223.46 346.31 223.36 345.99C222.82 344.37 218.36 346.5 217.59 345.44C215.83 343.01 223.21 341.6 225.14 343.15C226.45 344.2 227.82 351.81 227.94 353.71C227.97 354.12 228.06 354.52 227.82 354.9C227.3 355.63 225.96 354.92 225.14 355.03C224.12 355.16 223.35 356.1 222.51 356.27C218.51 357.04 216.28 353.58 217.7 350.06C218.7 347.58 223.04 347.97 223.35 347.47H223.36Z" fill="#0D5084"/>
<path d="M276.27 326.24C276.72 326.69 278.79 329.73 278.75 330.16C278.73 330.45 277.42 331.6 277.06 331.88C275.97 332.73 271.46 334.33 274.65 335.77C276.8 336.74 278.95 332.62 280.61 334.36C281.92 335.74 278.56 337.77 277.44 338.22C273.26 339.91 271.53 337.85 269.66 334.42C268.05 331.46 266.83 329.28 269.91 326.82C271.95 325.2 274.2 324.21 276.27 326.23V326.24Z" fill="#0B5580"/>
<path d="M192.42 50.52C191.12 51.87 186.25 52.02 184.67 50.92C182.57 49.45 182.41 44.7 182.73 42.4C183.47 36.99 190.97 36.27 192.71 41.49C194.74 47.59 190.28 45.07 186.79 46.11C185.35 46.54 187 48.54 187.86 48.79C189.25 49.2 191.46 48.35 192.16 48.67C192.92 49.02 192.98 49.95 192.42 50.52Z" fill="#0A578B"/>
<path d="M158.82 349.63C158.1 353.44 163.22 352.33 163.93 353.48C165.39 355.84 158.41 356.54 156.41 353.97C153.04 349.64 157.54 338.09 164.26 342.61C165.93 343.73 166.51 348.46 165.68 349.66C164.97 350.67 160.14 349.19 158.81 349.64L158.82 349.63Z" fill="#0C5486"/>
<path d="M66.53 116.6C65.91 117.45 68.57 118.19 69.43 117.94C70.42 117.66 72.41 114.15 73.02 114.15C74.15 114.15 74.26 116.09 73.86 117.09C71.58 122.83 67.76 122.23 63.32 119.28C60.1 117.14 58.57 115.1 61.26 111.52C63.23 108.9 65.53 108.59 68.05 110.69C70.79 112.98 69.53 114.23 67.39 116.26C67.1 116.54 66.55 116.57 66.52 116.61L66.53 116.6Z" fill="#0D5381"/>
<path d="M128.58 64.01C128.66 64.05 129.33 65.29 129.31 65.47C129.23 66 127.41 67.28 126.85 67.58C121.45 70.47 118.58 66.29 117.16 61.56C115.55 56.18 122.55 51.89 126.13 57.5C126.5 58.07 127.37 59.97 127.2 60.55C126.7 62.25 120.46 62.22 122.35 64.79C123.85 66.82 127.52 63.39 128.57 64.01H128.58Z" fill="#0E5386"/>
<path d="M166.45 40.1701C171.49 39.3101 172.27 42.6301 172.72 46.7701C171.85 47.4701 166.25 47.9501 166.2 48.6801C167.03 52.2501 171.8 49.5501 172.52 50.0501C172.78 50.2301 173.21 51.4601 173.14 51.7901C172.94 52.8101 170.44 53.3201 169.52 53.4101C162.07 54.1701 163.44 49.2001 162.55 43.6601C162.71 41.6301 164.61 40.4801 166.45 40.1601V40.1701Z" fill="#065485"/>
<path d="M330.16 128.94C330.21 128.85 331.49 128.18 331.7 128.16C333.77 127.96 333.43 133.37 335.61 132.47C338.2 131.4 335.06 128.36 336.46 125.92C336.88 125.19 340 123.26 340.75 123.32C342.08 123.44 345.57 128.49 345.43 129.75C345.36 130.42 343.73 130.88 343.26 131.31C342.83 131.28 341.6 126.55 339.92 127.62C338.08 128.78 341.83 133.02 337.23 135.46C335.92 136.16 335.32 136.63 333.83 135.84C332.67 135.23 329.48 130.13 330.17 128.93L330.16 128.94Z" fill="#0E5485"/>
<path d="M318.16 87.81C318.07 87.92 315.98 88.25 315.7 89.06C315.5 89.9 319.25 91.35 316.24 93.1C314.52 94.1 313.46 91.68 313.07 91.68C312.78 91.68 309.32 95.35 309.08 95.76C307.87 97.88 311.97 99.55 309.37 100.64C308.21 101.12 304.67 97.78 304.51 96.68C304.24 94.75 309.42 90.57 310.44 89.05C310.94 88.31 310.71 87.36 311.64 86.74C312.22 86.35 312.92 86.41 313.49 86.13C314.37 85.7 314.53 84.8 315.85 84.99C316.64 85.1 318.67 87.21 318.15 87.81H318.16Z" fill="#125681"/>
<path d="M184.45 340.85C184.61 341.76 184.14 344.1 184.6 344.74C185.06 345.38 187.63 344.64 187.62 346.3C187.61 347.96 184.23 347.38 184.09 347.52C183.85 347.76 183.97 353.84 184.08 354.31C184.3 355.26 187.44 353.94 186.91 356.82C186.64 358.27 182.01 357.99 181.12 356.99C179.77 355.47 180.27 350.83 180.25 348.74C180.22 346.41 180.25 346.65 180.57 344.53C181.1 341 179.53 340.52 184.45 340.86V340.85Z" fill="#0D5889"/>
<path d="M84.68 82.24C85.57 82.1 86.28 82.87 86.2 83.76C86.12 84.65 82.79 86.88 84.41 88.01C86.03 89.14 88.64 85.81 90.06 86.2C91.02 86.47 94.07 89.9 94.22 90.88C94.31 91.49 92.24 93.87 91.64 94.49C90.93 95.21 89.36 97.11 88.3 96.44C85.93 94.93 91.96 92.11 89.89 90.27C88.25 88.82 86.68 92.2 83.99 91.61C82.4 91.26 79.99 88.32 80.55 86.59C80.91 85.49 83.6 82.41 84.69 82.25L84.68 82.24Z" fill="#0E537D"/>
<path d="M101.59 82.57C103.24 83.74 98.45 88.02 96.81 87.55C95.59 87.2 92.11 82.88 90.75 81.65C90.18 81.13 89.4 81.07 88.78 80.46C88.33 80.02 86.1 75.4 86.2 75.05C86.37 74.48 88.07 73.58 88.74 73.8C89.66 74.1 89.75 76.6 90.9 76.6C91.83 76.6 93.03 74.03 94.23 74.63C96.55 75.79 92.81 77.41 92.87 78.1C92.94 78.97 97.16 83.49 98.3 83.6C99.44 83.71 100.77 81.98 101.59 82.57Z" fill="#0D5082"/>
<path d="M178.48 32.01L180.26 51.46C180.15 51.89 177.21 52.26 176.7 51.87L176.37 51.15L174.61 32.02H178.47L178.48 32.01Z" fill="#195D8C"/>
<path d="M294.17 71.43C296.14 71.3 302.42 75.27 299.2 76.75C297.05 77.74 296.7 75.01 295.19 75.16C293.99 75.28 291.12 79.45 291.12 80.62C291.12 82.49 294.48 83.91 292.54 84.83C290.45 85.82 286.84 82.13 287 80.36C287.22 77.95 291.65 71.6 294.18 71.43H294.17Z" fill="#135A85"/>
<path d="M177.78 346.46C173.23 345.59 171.97 347.1 171.8 351.57C171.63 356.04 175.99 354.16 176.72 354.89C177.16 355.33 176.65 356.87 175.68 357.19C172.49 358.23 168.71 356.47 168.29 352.97C167.95 350.14 168.87 344.34 172.15 343.48C174.31 342.91 178.02 343.73 177.78 346.47V346.46Z" fill="#175A8A"/>
<path d="M199.62 41.21C198.56 42.31 198.43 47.79 200.49 48.42C201.99 48.88 205.25 48.04 203.71 50.39C202.9 51.62 199.41 51.54 198.12 51.15C194.93 50.18 195.16 42.46 196.25 40.11C198.3 35.69 205.52 37.73 203.61 40.45C203.09 41.19 200.46 40.36 199.63 41.21H199.62Z" fill="#125B89"/>
<path d="M153.91 340.85C152.49 344.82 152.06 349.27 150.65 353.21C150.18 354.54 149.22 356.58 147.69 356.92C146.68 357.14 144.16 356.98 144.05 355.76C143.91 354.16 145.69 354.11 146.38 353.51C147.51 352.51 149.47 342.57 150.22 340.5C150.84 339.63 152.93 341.01 153.91 340.86V340.85Z" fill="#0B5789"/>
<path d="M131.18 333.05C131.55 333.27 135.66 333.48 134.8 335.23C133.86 337.15 132.02 335.83 130.92 335.92C129.14 336.07 127.38 343.98 126.2 344.54C125.78 344.74 123.17 343.57 123.11 343.14C123.09 342.98 123.76 341.27 123.91 340.85C124.36 339.61 127.54 332.24 128.11 331.72C129.7 330.26 130.72 332.77 131.18 333.04V333.05Z" fill="#165786"/>
<path d="M113.04 60.13C115.66 62.6 110.92 63.14 111.26 65.03C111.55 66.62 116.39 71.66 116.36 72.91C116.34 73.57 114.17 74.72 113.66 74.77C113.11 74.82 112.99 74.41 112.7 74.1C110.58 71.84 108.88 66.9 106.58 64.41C106.47 63.33 111.93 60.65 113.04 60.12V60.13Z" fill="#0C5484"/>
<path d="M282.98 319.52C284.42 319.15 285.67 320.1 285 321.55C284.56 322.5 282.92 322.47 283.11 323.76C283.3 325.05 287.42 329.74 287.59 331.62C287.65 332.3 285.3 333.76 284.48 333.33C283.74 332.94 282.22 329.17 281.6 328.12C281.08 327.24 278.24 323.39 278.19 323.09C278.07 322.46 282.31 319.7 282.99 319.53L282.98 319.52Z" fill="#0E5580"/>
<path d="M283.74 79.0099C283.33 79.2999 280.22 77.9499 280.29 77.1599C282.62 74.2099 284.3 69.7799 286.63 66.9799C286.9 66.6599 287.07 66.0599 287.64 66.1799C287.94 66.2499 290.14 67.5799 290.27 67.7899C290.8 68.6199 288.27 71.1699 287.61 72.1699C286.21 74.3099 284.71 76.6399 283.73 78.9999L283.74 79.0099Z" fill="#095787"/>
<path d="M74.9499 92.73C76.3699 93.11 77.1599 91.17 77.4299 90.99C77.9699 90.63 81.5599 94.66 82.3199 95.37C83.0799 96.08 86.5599 98.5 86.5499 99.22C86.5499 99.91 84.3699 102.18 83.3799 101.33C81.2699 98.7 77.1299 96.31 75.2999 93.61C75.0999 93.32 74.8099 93.27 74.9499 92.73Z" fill="#115587"/>
<path d="M319.56 95.18C321.55 94.09 322.65 94.87 321.67 96.93C321.38 97.28 321.29 98.03 320.79 98.33C318.47 99.58 315.05 104.3 312.88 105.19C311.85 105.61 310.77 104.03 310.1 103.42C313.01 100.27 315.93 97.46 319.57 95.17L319.56 95.18Z" fill="#0B5382"/>
<path d="M284.23 312.18C286.77 309.86 290.63 314.1 288.16 316.29C285.39 318.75 281.81 314.39 284.23 312.18Z" fill="#175282"/>
<path d="M319.56 95.18C322.06 93.61 320.67 94.4 322.07 92.25C324.38 88.72 328.31 92.56 324.59 94.77C322.68 95.91 323.26 94.97 321.66 96.93C321.1 95.21 321.7 94.94 319.55 95.18H319.56Z" fill="#275D89"/>
<path d="M73.0801 87.16C73.8001 87.1 75.3401 89.28 76.0001 89.74C74.4001 91.02 73.4501 93.01 71.6101 90.98C70.1001 89.33 71.4901 87.3 73.0901 87.15L73.0801 87.16Z" fill="#135284"/>
<path d="M290.68 61.54C293.74 60.82 293.78 64.95 291.65 66.4C291.36 66.47 288.81 64.49 288.78 64.12C288.74 63.62 290.09 61.68 290.68 61.54Z" fill="#164E83"/>
<path d="M151.14 338.01C151 336.06 151.24 333.87 153.7 334.2C154.92 334.36 155.36 334.72 155.08 335.86C154.47 338.34 153.59 338.88 151.14 338.01Z" fill="#253F71"/>
<path d="M351.77 189.32C352.72 190.36 352.04 193.09 350.65 192.73C349.35 192.39 350.19 187.6 351.77 189.32Z" fill="#4B2E2E"/>
<path d="M352.2 196.61C352.41 197.58 352.17 200.51 350.65 200.11C349.42 199.78 349.98 195.74 352.2 196.61Z" fill="#432728"/>
<path d="M346.81 160.84C347.77 160.67 349.13 163.5 347.77 163.94C345.8 164.58 344.8 161.19 346.81 160.84Z" fill="#5D2C29"/>
<path d="M46.6998 241.26C48.6398 241.42 47.9198 247.14 46.0198 243.96C45.4198 242.96 45.2098 241.14 46.6998 241.26Z" fill="#69332D"/>
<path d="M351.85 203.63C352.34 203.96 352.15 206.23 351.68 206.79C351.35 207.18 350.25 207.29 350.1 207.14C349.59 206.65 350.33 202.6 351.85 203.63Z" fill="#3E2A2B"/>
<path d="M349.31 170.9C348.02 172.3 346.08 168.19 348.58 167.87C349.66 167.78 350.08 170.06 349.31 170.9Z" fill="#472929"/>
<path d="M41.9399 213.46C42.3899 214.76 42.7899 216.55 41.0899 216.96C39.8299 215.62 39.4499 213.22 41.9399 213.46Z" fill="#61302C"/>
<path d="M351.09 214.09C348.92 215.34 349.5 210.64 350.97 210.63C352.6 210.63 351.51 213.85 351.09 214.09Z" fill="#4A2B2D"/>
<path d="M41.4398 177.73C42.9498 177.87 41.8098 181.6 40.3898 181.16C39.1998 180.06 40.0298 178.14 41.4398 177.73Z" fill="#5F3533"/>
<path d="M50.0298 142.91C50.4798 143.36 49.0598 147.02 47.5798 146.42C46.9998 145.31 48.8998 141.79 50.0298 142.91Z" fill="#4C2827"/>
<path d="M349.61 174.87C352.2 175.47 350.09 180.05 348.96 177.57C348.47 176.49 348.53 175.49 349.61 174.87Z" fill="#602C2A"/>
<path d="M61.6099 277.68C60.6899 278.32 58.3499 275.36 59.8599 274.69C61.6299 273.9 62.3699 277.15 61.6099 277.68Z" fill="#542E29"/>
<path d="M318.51 293.82C317.31 292.6 322.28 288.68 321.52 291.39C321.34 292.02 319.11 294.44 318.51 293.82Z" fill="#553534"/>
<path d="M43.01 223.98C43.01 223.98 42.06 224.02 41.83 223.94C40.75 223.57 40.77 220.72 41.79 220.47C42.98 220.19 43.29 223.72 43.01 223.98Z" fill="#492C2D"/>
<path d="M349.39 224.69C350.13 225.24 348.96 228.89 348.16 228.89C346.77 228.89 348.12 223.75 349.39 224.69Z" fill="#482221"/>
<path d="M41.9801 166.75C41.4801 166.1 42.5001 163.27 43.8801 163.62C45.3501 164.03 43.0601 168.14 41.9801 166.75Z" fill="#56302E"/>
<path d="M295.6 317.04C298.66 316.42 295.96 320.26 293.94 319.27C292.91 318.58 294.96 317.17 295.6 317.04Z" fill="#5B302D"/>
<path d="M48.3701 251.26C47.3001 250.23 47.5601 248.94 48.8001 248.21C50.6601 249.16 50.2401 253.06 48.3701 251.26Z" fill="#4D302E"/>
<path d="M44.4099 230.65C43.1699 231.85 41.2299 227.98 42.8499 227.49C44.4699 227 44.7299 230.34 44.4099 230.65Z" fill="#62302C"/>
<path d="M342.79 150.21C342.2 149.87 341.66 148.17 342.73 147.65C345.34 146.36 344.95 151.45 342.79 150.21Z" fill="#4F2724"/>
<path d="M349.79 182.26C349.96 182.07 351.24 181.73 351.45 182.44C352.15 184.84 350.25 186.97 349.76 184.49C349.68 184.11 349.66 182.4 349.79 182.26Z" fill="#3B2322"/>
<path d="M40.0601 185.06C41.9701 184.48 41.5401 188.73 39.6901 188.18C38.6901 187.88 39.1801 185.32 40.0601 185.06Z" fill="#40292A"/>
<path d="M344.48 246.09C345.09 246.7 343.16 250.37 342.03 249.25C341.42 248.64 343.35 244.97 344.48 246.09Z" fill="#472929"/>
<path d="M40.0299 191.7C41.3299 191.72 41.1399 195.74 39.3299 195.2C38.0799 194.82 39.4299 191.69 40.0299 191.7Z" fill="#603231"/>
<path d="M43.0101 170.64C43.2401 171.47 42.5401 174.38 41.4401 174.15C40.1501 173 41.2901 170.42 43.0101 170.64Z" fill="#513433"/>
<path d="M350.8 218.02C351.1 218.31 350.77 221.64 349.23 221.18C347.71 220.4 349.68 216.92 350.8 218.02Z" fill="#492A2B"/>
<path d="M345.02 154.15C346.99 154.19 346.97 156.22 345.7 157.3C344.6 157.55 343.85 154.82 345.02 154.15Z" fill="#4E2825"/>
<path d="M52.1302 258.37C51.0402 259.13 49.0302 255.89 50.9502 255.23C52.2402 255.24 52.8302 257.88 52.1302 258.37Z" fill="#5E332F"/>
<path d="M317.11 295.93C317.79 296.61 314.74 299.31 313.96 299.44C313.32 298.15 316.31 295.13 317.11 295.93Z" fill="#6A2E29"/>
<path d="M344.48 242.58C343.86 242.09 344.56 238.67 346.05 239.08C347.36 239.43 345.29 243.22 344.48 242.58Z" fill="#402322"/>
<path d="M72.01 292.48C73.29 292.23 74.63 294.88 73.36 295.23C72.24 295.54 70 292.88 72.01 292.48Z" fill="#432C2B"/>
<path d="M40.0299 206.44C41.6699 205.92 41.5899 209.32 40.7299 209.59C39.0899 210.11 39.1699 206.71 40.0299 206.44Z" fill="#442827"/>
<path d="M91.3298 313.53C93.6898 313.34 92.4598 317.65 90.5498 315.59C89.6498 314.61 90.1498 313.62 91.3298 313.53Z" fill="#522F2D"/>
<path d="M329.39 278.73C329.38 280.36 328.21 281.94 326.59 282.24C326.65 280.66 327.7 278.86 329.39 278.73Z" fill="#4A3333"/>
<path d="M342.02 253.11C342.18 254.56 341.18 256.37 339.57 256.27C339.41 254.82 340.41 253.01 342.02 253.11Z" fill="#4C2524"/>
<path d="M78.0302 300.41C77.0802 301.36 74.6602 299.58 76.1602 298.35C77.2302 297.47 79.0002 299.43 78.0302 300.41Z" fill="#59302E"/>
<path d="M307.28 307.16C307.87 307.82 306.12 310.26 305.01 309.97C302.94 309.42 306.7 306.52 307.28 307.16Z" fill="#4A2E2D"/>
<path d="M47.5698 149.58C47.7898 151.12 47.1298 152.16 45.9898 153.08C44.6698 151.82 45.8598 149.6 47.5698 149.58Z" fill="#572724"/>
<path d="M347.99 232.06C348.18 232.93 347.9 235.65 346.42 235.21C345.14 234.84 346.52 231.67 347.99 232.06Z" fill="#523333"/>
<path d="M56.76 270.94C56.23 270.64 55.36 268.19 56.88 268.19C57.72 268.19 58.22 269.79 58.45 270.47C58.12 271.01 57.29 271.23 56.76 270.94Z" fill="#5E2C2A"/>
<path d="M332.9 272.42C333.51 273.49 331.2 276.35 330.45 275.58C329.93 275.05 331.63 271.87 332.9 272.42Z" fill="#473031"/>
<path d="M39.1701 202.2C38.6001 201.72 38.7401 198.93 40.3601 199.42C41.7401 199.83 40.6201 203.41 39.1701 202.2Z" fill="#55302F"/>
<path d="M339.22 259.78C339.61 260.16 338.08 263.57 336.77 262.94C336.6 261.49 337.61 259.68 339.22 259.78Z" fill="#5E3432"/>
<path d="M44.9501 156.6C46.4401 156.29 45.5401 160.17 43.9001 159.76C42.6801 159.45 44.4601 156.7 44.9501 156.6Z" fill="#553837"/>
<path d="M299.56 314.88C298.76 313.3 302.06 311.55 302.36 312.96C302.51 313.68 300.38 315.37 299.56 314.88Z" fill="#4E2A29"/>
<path d="M45.8198 237.67C45.2498 237.69 44.6998 237.79 44.2398 237.33C42.0598 235.17 46.2698 233.21 45.8198 237.67Z" fill="#4B312F"/>
<path d="M54.2298 261.89C54.7698 263.19 55.5498 263.98 54.0598 265.04C52.5898 264.08 52.1798 262.25 54.2298 261.89Z" fill="#452928"/>
<path d="M96.59 318.09C98.85 317.46 97.5 322.26 94.96 319.62C95.45 319.25 96.05 318.24 96.59 318.09Z" fill="#4F302F"/>
<path d="M312.19 301.9C312.73 302.42 311.01 304.27 310.26 304.36C307.42 304.69 311.32 301.06 312.19 301.9Z" fill="#5B2724"/>
<path d="M86.7 308.69C88.54 308.69 88.33 311.91 86.17 310.85C84.96 310.25 85.48 308.69 86.7 308.69Z" fill="#3F2C2B"/>
<path d="M65.0298 281.27C67.0398 283.43 62.8998 285.21 63.3898 281.22C63.8798 281.02 64.6298 280.84 65.0298 281.27Z" fill="#4D2B27"/>
<path d="M336.06 266.1C336.66 266.71 334.8 269.61 333.61 269.26C333.25 268.42 335.21 265.25 336.06 266.1Z" fill="#5E3532"/>
<path d="M80.6499 305.32C79.2699 304.04 82.5999 302.32 82.9899 304.58C83.1599 305.55 81.4999 306.1 80.6499 305.32Z" fill="#3F2928"/>
<path d="M67.2301 286.81C67.9001 286.35 70.3801 288.2 68.6201 289.1C66.9901 289.93 66.5401 287.29 67.2301 286.81Z" fill="#4B2622"/>
<path d="M325.88 284.7C326.3 285.1 324.68 286.87 324.3 287.15C324.08 287.32 322.76 288.29 322.73 287.33C322.72 286.92 324.95 284.24 325.88 284.7Z" fill="#472B2C"/>
<path d="M103.72 324.35C103.29 324.94 100.18 324.74 101.42 322.93C102.23 321.75 104.34 323.49 103.72 324.35Z" fill="#3D2F2F"/>
<path d="M146.54 116.59C145.14 116.57 143.73 116.6 142.33 116.59C142.09 116.36 144.34 110.91 144.7 110.37C144.96 109.97 145.06 109.59 145.66 109.57L169.14 109.61C179 111.69 174.11 121.8 167.61 124.84C172.65 127.32 171.81 135.14 168.32 138.54C166.77 140.05 162.17 142.21 160.06 142.21H139.18L145.85 119.75C148.18 119.58 150.52 119.49 152.87 119.48C153.56 118.29 155.58 118.69 155.6 120.19L154.68 123.92C158.28 122.44 169.14 117.24 158.07 117.13C154.83 117.04 151.61 116.93 148.42 116.79L146.56 116.59H146.54Z" fill="#F3F8F9"/>
<path d="M226.56 139.75C224.61 140.86 222.66 141.9 220.69 142.86L220.06 142.21L219.82 142.91C216.51 142.96 213.23 142.84 209.97 142.55C209.09 143.03 206.88 143.34 206.55 142.2C205.12 141.25 207.31 137.62 208.3 136.58C208.15 135.6 208.16 135.24 209.22 135.17L215 135.22C216.07 135 217 135.1 217.78 135.53L217.66 135.08C218.82 134.12 218.41 132.97 216.43 131.62C210.42 127.26 210.77 120.24 218.08 117.99C218.34 117.91 218.58 117.85 218.84 117.99C221.06 117.39 229.23 117.34 231.67 117.62C232.12 117.67 232.69 117.63 232.85 118.21C232.93 118.49 231.73 123.64 231.49 123.8C228.57 124.31 226.2 123.26 223.24 123.97C220.28 124.68 225.37 128.09 226.21 129.03C229.43 132.62 230 136.03 226.55 139.74L226.56 139.75Z" fill="#EBF6FB"/>
<path d="M210.77 117.64L211.52 118.1C211.71 119.32 208.42 125.51 206.4 124.61C202.75 124.21 197.91 123.73 195.78 127.47C194.46 129.8 195.66 132.34 197.76 133.73C198.87 134.46 200.48 135.18 201.64 135.55C201.73 135.25 201.84 135.25 201.99 135.55C202.49 135.77 203.11 135.91 203.21 135.21C207.41 134.08 203.79 141.8 203.2 142.1C202.42 142.49 199.12 142.6 198.14 142.22C186.04 141.26 181.93 127.98 191.12 120.63C197.05 115.88 204.09 118.44 210.78 117.65L210.77 117.64Z" fill="#F0F5F9"/>
<path d="M230.42 99.74C215.5 94.72 198.4 97.0901 185.66 106.4C185.46 106.67 187.3 108.42 187.61 109.03C191.56 116.7 177.31 117.43 179.76 109.62C180.47 107.35 182.33 107.51 183.71 106.55C186.73 104.46 189.16 101.91 192.54 99.9401C212.27 88.4601 230.76 92.6101 246.39 108.15C251.34 113.07 243.32 116.87 240.24 113.95C238.89 112.67 238.53 111.13 239.22 109.42C239.86 107.84 241.18 107.73 241.83 106.4C238.71 103.11 234.6 101.14 230.41 99.7301L230.42 99.74Z" fill="#EBF6FC"/>
<path d="M210.77 117.64C212.71 117.41 210.65 115.37 211.79 113.92C212.32 113.25 215.04 113.2 215.68 113.61C215.97 113.79 216.07 114.42 216.41 114.64C216.88 114.94 218.37 115.2 218.49 115.72C218.75 116.86 215.92 116.72 215.48 117.28C215.27 117.52 215.63 118.66 215.69 118.7C216.25 119.12 218.13 117.03 218.85 118C214.79 119.1 211.43 123.44 213.64 127.59C214.52 129.25 218.86 133.31 219.06 134.12C219.18 134.61 218.19 135.4 217.79 135.54C216.01 135.7 216.21 134.75 217.06 133.5C216.21 133.04 215.56 132.42 215.11 131.64C213.12 131.72 212.03 131.62 210.43 130.46C208.71 127.06 201.21 124.47 201.94 130.4C202.34 133.67 203.26 134.28 206.43 133.43C207.94 133.31 209.31 135.55 208.3 136.59C208.47 138.07 206.4 140.52 206.55 142.21H220.06C221.82 142.21 224.88 140.45 226.55 139.75C224.94 141.48 222.58 141.75 221.63 142.73C220.78 143.61 222.13 144.82 220.02 145C217.22 145.24 215.64 144.49 213.13 143.59C212.87 143.5 212.99 142.97 212.36 142.89C211.87 142.83 210.37 142.8 209.95 142.91C209.56 143.01 209.71 143.81 208.84 143.98C207.49 144.24 205.2 144.01 204 143.28C203.65 143.07 203.58 142.36 203.19 142.27C202.38 142.08 199.24 143.3 198.12 142.22C199.29 142.31 201.97 142.52 202.65 141.66C202.94 141.29 204.84 136.73 204.77 136.46C204.16 135.42 202.78 136.34 201.98 135.56L202.12 135.11C203.34 135.85 200.6 133.42 201.63 135.56C192.43 135.08 191.89 124.25 201.79 123.62C203.26 123.53 206.81 124.2 207.6 123.81C208.18 123.52 211.29 118.75 210.76 117.67L210.77 117.64Z" fill="#0B5582"/>
<path d="M245.51 117.29L237.79 142.21H230.42L237.97 117.29H245.51Z" fill="#ECF7FB"/>
<path d="M179.18 142.21H171.46L178.52 118.04C180.66 117.99 182.82 117.38 184.99 117.63C185.57 117.7 186.21 117.7 186.15 118.45L179.18 142.21Z" fill="#F2F7F9"/>
<path d="M207.67 104.37C208.53 103.86 209.4 105.05 209.84 104.97C210.19 104.91 210.49 104.12 211.3 103.96C212.9 103.63 217.85 104.35 220.09 104.32C221.09 104.31 222.02 103.9 222.88 103.93C224.3 103.98 225.08 105.29 226.22 105.57C227.15 105.8 227.76 105.01 228.32 105.89C226.59 106.91 226.9 108.15 226.3 109.48C225.48 111.34 223.46 110.4 221.85 110.65C220.83 110.81 220.15 111.64 219.01 111.71C216.3 111.87 212.97 111 210.59 110.95C209.84 110.94 208.53 111.42 208.18 111.31C207.97 111.25 205.89 108.05 205.86 107.62C205.82 106.98 207.33 104.58 207.67 104.38V104.37Z" fill="#00528C"/>
<path d="M146.54 116.59C151.19 116.64 156.59 116.2 161.12 116.58C162.83 116.72 163.74 117.13 163.33 119.14C162.71 122.19 156.12 123.02 154.27 125.19L159.36 127.82C164.24 131.94 160.02 134.91 155.16 135.2C153.77 135.28 150.56 135.73 151.18 133.7L154.96 119.96C154.75 119.55 154.67 119.55 154.26 119.55C151.49 119.53 148.64 119.99 145.85 119.76C146.19 118.97 151.71 119.62 152.87 119.41C151.76 118.32 152.75 118.18 152.87 116.96C152.48 116.6 147.45 117.49 146.55 116.61L146.54 116.59Z" fill="#15577E"/>
<path d="M250.32 105.08C254.1 103.99 256.07 107.28 253.88 110.04C251.25 113.36 246.6 106.15 250.32 105.08Z" fill="#E5F1F8"/>
<path d="M230.42 99.74C230.88 100.03 230.98 102.06 229.53 102.2C228.5 102.3 223.06 100.56 225.65 99.36C227.29 98.6 227.36 99.45 228.51 99.72C229.03 99.84 230.24 99.62 230.42 99.73V99.74Z" fill="#00528C"/>
<path d="M207.26 99.39C205.97 99.64 204.54 100.17 203.75 98.69C204.88 98.62 207.11 97.51 207.26 99.39Z" fill="#00528C"/>
<path d="M225.86 116.94C225.94 117.55 225.06 117.27 224.64 117.29C223.76 117.33 222.88 117.27 222.01 117.29C221.93 116.68 222.81 116.96 223.23 116.94C224.11 116.9 224.99 116.96 225.86 116.94Z" fill="#00528C"/>
<path d="M239.19 248.2C240.4 250.42 244.7 267.54 245.68 267.86C245.87 267.92 246.61 268 246.56 267.62L252.52 248.21H264.1V282.95H255.68L254.97 265.75C254.21 266.14 253.95 267.37 253.67 268.13C251.97 272.82 251.07 277.85 249.54 282.6C248.95 283.4 243.79 282.7 242.5 282.97L236.19 265.75C235.4 265.45 235.69 266.56 235.67 266.98C235.56 268.84 235.67 271.02 235.65 272.94C235.62 276.28 235.71 279.62 235.67 282.96H227.6V248.22H239.18L239.19 248.2Z" fill="#FBFBF9"/>
<path d="M145.31 248.2C147.25 248.35 151.04 249.01 152.75 249.88C159.53 253.34 159.6 268.17 152.52 271.88L160.57 283.29C157.09 282.7 153.46 282.83 149.95 283.24C147.23 280.55 145.27 277.1 143.01 274.01C141.83 273.05 139.89 273.59 138.47 273.46V282.94H128.99C128.9 282.68 129.34 282.52 129.34 282.41V248.19C134.55 248.48 140.15 247.8 145.31 248.19V248.2Z" fill="#FAF8F4"/>
<path d="M204.45 274.17V282.94H195.33V248.2H212C213.1 248.2 216.29 248.74 217.45 249.07C226.42 251.61 226.79 268.7 219.31 272.7C218.61 273.08 215.75 274.17 215.17 274.17H204.47H204.45Z" fill="#FAF8F9"/>
<path d="M191.82 248.2V256.97H181.64V282.94H171.46V256.97H161.28C160.57 254.62 161.16 252.7 161.31 250.47C161.35 249.88 160.74 248.19 161.45 248.19H191.81L191.82 248.2Z" fill="#F9F8F9"/>
<path d="M270.69 246.52C275.09 245.77 274.36 251.71 272.29 252.35C268.66 253.46 266.14 247.3 270.69 246.52Z" fill="#F7ECEE"/>
<path d="M313.42 185.38H318.68C320.58 185.38 322.86 187.05 323.78 188.7C325.84 192.41 325.84 202.5 321.99 205.18C321.5 205.52 319.47 206.43 319.03 206.43H313.41C312.19 206.43 313.22 199.58 313.25 198.55C313.35 194.39 313.02 190.23 313.03 186.09C313.03 185.68 313.05 185.64 313.41 185.37L313.42 185.38Z" fill="#F2F8F9"/>
<path d="M135.66 196.61V185.38H141.8C142.53 185.38 144.5 186.81 144.97 187.47C146.09 189.04 146.22 192.57 145.4 194.25C145.14 194.79 143.3 196.61 142.85 196.61H135.66Z" fill="#EAF4FB"/>
<path d="M52.3998 121.91C53.6998 121.7 56.7098 123.79 56.9898 124.91C57.1598 125.57 55.6298 129.07 55.0798 129.2C53.8898 128.89 49.6998 126.89 49.3798 125.82C48.8998 124.26 50.8998 122.16 52.3998 121.91Z" fill="#F0F5F8"/>
<path d="M119.4 322.29C120.65 321.89 123.17 323.98 123.36 325.27C123.61 326.95 122.04 330.11 120.37 330.34C119.49 330.46 116.08 329.44 115.98 328.39C115.93 327.83 119.06 322.4 119.39 322.29H119.4Z" fill="#EFF5F5"/>
<path d="M77.6899 104.72C78.2499 105.68 76.2599 107.83 75.4799 107.82C74.8999 107.82 71.1599 104.88 70.8999 104.29C70.3699 103.11 71.6499 101.63 72.9999 101.83C73.2699 101.87 77.5499 104.47 77.6899 104.71V104.72Z" fill="#E8F1F5"/>
<path d="M137.39 59.35C132.88 62.36 130.3 51.06 134.38 52.4C134.93 52.58 137.76 58.8 137.39 59.35Z" fill="#EDF3F4"/>
<path d="M260.51 334.24C262.3 333.91 264.84 339.01 264.3 340.14C263.81 341.16 262.12 341.43 261.16 340.81C259.97 340.04 257.91 334.72 260.51 334.24Z" fill="#EBF3F3"/>
<path d="M324.03 105.08C325.84 104.67 327.13 105.51 326.32 107.37C325.98 108.16 322.24 111.27 321.47 111.33C320.13 111.45 319.14 109.8 319.74 108.52C319.89 108.19 323.54 105.19 324.03 105.08Z" fill="#F2F6F5"/>
<path d="M140.12 339.51C144.94 338.03 141.59 347.22 139.34 347.16C136.33 347.07 138.76 339.93 140.12 339.51Z" fill="#F3F7F0"/>
<path d="M211 41.54C215.59 39.97 214 48.84 211.99 49.21C208.02 49.95 209.95 41.89 211 41.54Z" fill="#F1F5F5"/>
<path d="M299.08 85.7601C301.16 85.0701 304.29 86.55 301.64 88.32C298.99 90.09 297.55 86.2701 299.08 85.7601Z" fill="#EEEFEC"/>
<path d="M250.76 342.98C251.42 344.26 252.04 346.2 250.18 346.75C246.52 347.83 247.72 342.81 250.76 342.98Z" fill="#EAF0F3"/>
<path d="M103.32 71.02C104.78 71.94 101.5 74.35 100.6 73.74C99.13 71.73 101.84 70.08 103.32 71.02Z" fill="#EAEAEA"/>
<path d="M221.9 350.4C225.6 349.3 225.09 353.53 222.17 353.51C220.08 353.5 220.2 350.9 221.9 350.4Z" fill="#EEEEEA"/>
<path d="M271.53 331.33C270.35 330.57 272.05 327.93 273.6 328.36C276.9 329.27 272.91 332.22 271.53 331.33Z" fill="#EBF0EF"/>
<path d="M185.85 43.5901C185.06 40.8501 189.53 39.4601 189.71 42.3901C189.83 44.3201 187.17 43.4001 185.85 43.5901Z" fill="#EBEEF0"/>
<path d="M159.18 346.81C157.93 345.53 162.31 343.25 162.99 345.65C163.67 348.05 159.36 346.99 159.18 346.81Z" fill="#E6E9EC"/>
<path d="M63.9602 112.8C67.4802 111.71 66.2102 116.26 63.6202 115.48C62.1102 115.03 62.9002 113.13 63.9602 112.8Z" fill="#EBEEE8"/>
<path d="M121.86 57.72C122.5 57.7 123.85 58.53 123.71 59.17C123.57 59.81 121.18 61.05 120.42 61.12C119.3 60.85 119.72 57.77 121.86 57.72Z" fill="#E7EFF4"/>
<path d="M167.48 42.99C169.44 42.81 170.97 45.14 167.33 45.61C163.47 46.1 165.68 43.16 167.48 42.99Z" fill="#DEE8E9"/>
<path d="M208.31 136.59C208.28 136.36 207.48 134.43 207.26 134.3C205.96 133.5 203.08 136.06 201.81 132.74C199.76 127.41 203.27 124.39 208.08 127.17C209.42 127.95 210.52 130.08 211.97 130.65C213.17 131.12 215.13 130.76 215.61 131.05C215.76 131.14 215.87 131.77 216.2 132.03C216.56 132.32 218.14 133.29 218.14 133.61C218.14 133.93 216.04 134.81 217.8 135.54C215.65 136.33 211.89 135.67 209.52 135.87C208.82 135.93 208.66 135.92 208.32 136.6L208.31 136.59Z" fill="#005388"/>
<path d="M201.64 135.54C201.23 135.48 200.44 134.98 199.89 135.02C201.47 133.34 201.89 133.55 203.05 135.37C202.99 135.68 202.25 135.58 202 135.54C201.88 135.53 201.76 135.56 201.65 135.54H201.64Z" fill="#005388"/>
<path d="M138.47 265.75V256.27H145.31C146.14 256.27 147.69 258.48 147.86 259.33C149.26 266.1 143.58 266.61 138.46 265.74L138.47 265.75Z" fill="#5D1A1E"/>
<path d="M204.45 266.45V256.27H211.64C214.8 256.27 216.4 263.57 212.99 265.69C212.77 265.83 211.38 266.44 211.29 266.44H204.45V266.45Z" fill="#651B23"/>
</g>
<defs>
<clipPath id="clip0_12_1494">
<rect width="393.23" height="393.36" fill="white"/>
</clipPath>
</defs>
</svg>
