<svg width="589" height="393" viewBox="0 0 589 393" fill="none" xmlns="http://www.w3.org/2000/svg">
<g clip-path="url(#clip0_12_340)">
<path d="M138.397 224.325H136.648C136.864 224.335 137.109 224.288 137.278 224.297C137.654 224.316 138.021 224.325 138.397 224.325Z" fill="#05537E"/>
<path d="M520.925 40.8772C520.728 41.3006 520.436 41.3759 520.022 41.263C520.417 41.8746 520.53 42.4204 520.342 42.9097C494.732 25.7647 463.121 16.5899 432.451 14.1339C384.757 10.3134 332.878 17.785 291.401 42.3263C290.479 42.5145 288.899 42.7497 289.661 41.4512C329.944 11.3391 384.155 -6.16352 434.699 2.00437C464.993 6.89758 497.647 20.862 520.916 40.8772H520.925Z" fill="#B3B5B7"/>
<path d="M389.027 222.848C388.735 222.848 388.444 222.848 388.152 222.848C388.415 222.283 388.754 222.283 389.027 222.848Z" fill="#05537E"/>
<path d="M167.93 392.605L185.358 342.459L201.008 342.355L209.623 380.692C210.112 380.682 211.927 378.716 212.388 378.226C223.627 366.417 234.49 354.193 245.645 342.318H260.9L243.905 392.605H232.43L243.472 358.014C240.491 360.874 237.443 363.716 234.612 366.727C227.916 373.851 221.52 381.341 214.852 388.53C213.658 389.819 212.491 391.654 211.071 392.595C208.946 392.68 206.801 392.388 204.713 392.859C203.716 392.228 200.246 393.113 199.926 392.115L191.894 357.712C191.32 357.656 191.358 358.126 191.189 358.456C186.401 368.11 184.21 380.155 180.26 390.252C179.95 391.052 179.714 391.946 179.112 392.586H167.93V392.605Z" fill="#B4B6B7"/>
<path d="M0 392.605L16.2804 342.628H32.8147C32.7959 344.924 33.6988 347.041 34.1973 349.234C36.2946 358.333 38.2415 367.678 40.7527 376.683C40.9502 377.379 41.6274 380.249 42.2575 380.108C51.9166 369.531 61.8485 359.209 71.6111 348.716C73.0313 347.192 75.1381 344.068 76.5582 342.91C76.7652 342.741 77.8279 342.318 77.9972 342.318H92.3778L75.091 392.605H63.9083L75.3826 357.43C74.7619 357.59 74.2069 358.277 73.7837 358.729C63.8236 369.315 54.2868 380.663 44.1668 391.005C43.1228 392.078 42.7278 392.755 41.1195 392.896C40.0661 392.991 32.1752 393.094 31.9212 392.718C29.4759 383.317 27.6513 373.728 25.1871 364.337C24.7545 362.69 24.1431 359.858 23.5412 358.428C23.4189 358.126 23.3531 357.75 22.9487 357.712L10.8912 392.595H0V392.605Z" fill="#B4B6B6"/>
<path d="M326.134 342.299L281.271 342.346L264.389 392.153L265.396 392.614C280.105 391.937 295.539 393.461 310.164 392.614C318.046 392.153 325.269 389.029 328.937 381.745C331.599 376.457 332.238 370.566 326.67 367.075C326.36 366.878 323.388 365.899 323.952 365.287C329.746 364.619 333.846 360.564 335.869 355.266C339.32 346.251 334.637 342.995 326.134 342.308V342.299ZM319.278 377.323C318.967 379.393 316.306 381.783 314.491 382.705C302.772 383.373 290.959 382.846 279.202 383.006C278.779 382.574 282.278 372.787 283.162 371.705C292.445 371.968 302.057 371.216 311.302 371.667C312.816 371.743 315.431 371.884 316.804 372.26C319.541 373.032 319.673 374.66 319.278 377.313V377.323ZM318.845 362.351C308.697 362.634 298.483 362.032 288.344 362.351C287.686 362.37 285.814 363.132 285.927 361.975L288.843 352.678L289.256 352.226L322.335 352.198C326.313 355.096 322.626 361.053 318.836 362.351H318.845Z" fill="#B4B6B7"/>
<path d="M469.864 374.218C480.304 371.649 488.609 362.653 488.393 351.492C488.261 344.604 480.793 342.638 475.178 342.308C461.522 341.49 447.057 342.957 433.316 342.308L432.601 342.468C428.914 353.45 425.086 364.459 421.418 375.469C420.28 378.876 419.18 382.687 417.995 386.281C417.299 388.398 416.377 390.469 415.756 392.614H426.939C427.353 391.918 427.757 390.996 428.04 390.233C429.488 386.413 430.419 381.943 432.009 378.217C432.432 377.238 432.864 375.827 434.181 376.024L452.446 376.1L465.134 392.473C469.883 392.831 474.642 392.586 479.373 392.322L478.912 390.892L466.3 375.036C466.441 374.396 469.225 374.387 469.855 374.227L469.864 374.218ZM435.799 366.727L440.595 352.772C442.843 351.558 445.561 352.462 447.847 352.49C455.559 352.612 464.475 351.831 471.981 352.471C479.213 353.083 474.623 364.328 469.799 366.003C469.479 366.106 466.902 366.727 466.742 366.727H435.799Z" fill="#B4B6B8"/>
<path d="M167.055 342.318C165.936 345.828 165.052 349.667 163.086 352.735L120.979 352.753C120.462 353.817 117.602 361.749 117.96 362.088L145.131 361.796L145.564 362.239L142.3 371.188L141.576 371.922L115.044 371.827C113.022 375.187 112.176 379.186 110.69 382.734C112.383 382.687 114.094 382.8 115.787 382.752C127.863 382.385 140.034 382.856 152.101 382.461C152.656 382.442 153.145 382.235 153.681 382.16C153.013 383.675 151.217 391.683 150.201 392.191L95.5754 392.624L113.003 342.478L167.045 342.336L167.055 342.318Z" fill="#B4B7B8"/>
<path d="M414.59 342.318C414.75 342.459 413.123 345.827 412.944 346.336C412.389 347.869 411.882 350.504 411.176 351.831C410.913 352.33 410.574 352.593 410.029 352.716L368.392 352.622L365.495 362.079L392.808 362.229C391.877 363.528 389.761 371.601 388.829 371.921L361.695 372.1L357.99 381.764L358.084 382.724L401.216 382.432C400.52 385.773 399.241 388.935 397.905 392.049L343.402 392.595L360.548 342.44L414.581 342.308L414.59 342.318Z" fill="#B3B5B7"/>
<path d="M273.334 261.006C256.442 262.652 249.567 286.582 247.027 300.669C245.88 307.021 245.664 315.885 253.564 317.532C275.431 322.105 282.739 309.241 288.645 291.146C294.176 274.217 297.486 258.653 273.343 261.006H273.334ZM281.742 281.35C280.576 287.222 275.346 304.358 270.625 307.726C266.449 310.7 257.006 311.387 256.282 304.649C255.699 299.173 261.239 282.677 263.881 277.436C266.092 273.05 269.082 270.115 274.199 269.738C282.889 269.089 283.124 274.377 281.742 281.35Z" fill="#B3B6B7"/>
<path d="M121.891 267.602C119.926 260.959 109.27 260.441 103.664 261.006C87.6 262.643 81.6653 281.529 78.2418 294.872C75.3262 306.258 73.5392 317.165 88.4746 318.181C103.796 319.235 110.549 312.159 115.825 298.759C118.712 291.428 124.073 274.998 121.891 267.602ZM102.846 305.242C100.071 308.686 96.3468 310.07 91.9452 309.768C83.4617 309.166 86.4149 300.151 87.8821 294.637C90.2146 285.867 93.5346 270.745 104.238 269.729C108.395 269.334 112.242 270.199 112.43 275.027C112.684 281.435 106.89 300.198 102.836 305.242H102.846Z" fill="#B4B6B6"/>
<path d="M338.041 261.787C333.01 261.476 325.928 261.495 320.877 261.787C320.143 261.834 319.447 261.918 318.751 262.135L301.86 317.616H311.444L316.522 299.587C316.936 299.05 323.416 298.759 323.952 299.144L324.225 299.747L327.423 317.626H338.173L333.217 297.15C335.145 295.851 337.496 295.108 339.339 293.64C343.92 290.007 348.218 278.734 348.632 272.994C349.215 264.883 345.725 262.276 338.041 261.796V261.787ZM337.515 281.331C336.32 284.804 334.373 288.135 331.42 290.355L319.776 290.835L319.344 290.196C320.472 287.608 320.905 284.775 321.705 282.084C322.56 279.233 323.623 275.572 324.677 272.853C324.902 272.26 325.627 270.387 326.153 270.293C326.464 270.237 327.084 270.529 327.564 270.529C329.972 270.547 333.809 270.171 335.991 270.529C340.487 271.281 338.512 278.442 337.515 281.331Z" fill="#B3B6B6"/>
<path d="M168.663 261.787C162.221 261.373 155.468 262.012 149.025 261.928C143.006 280.353 137.701 299.078 131.898 317.607H140.758C141.708 317.607 145.837 301.365 146.476 299.493L146.693 299.126C147.803 299.013 153.455 298.711 153.916 299.351L157.462 317.597H167.92L163.255 297.441C170.384 294.571 174.231 288.097 176.62 281.096C179.686 272.109 180.627 262.549 168.663 261.777V261.787ZM161.346 289.951C161.045 290.083 158.355 290.864 158.195 290.864H149.336C149.157 290.685 150.351 286.667 150.511 286.083C151.725 281.858 153.295 275.488 154.941 271.62C155.073 271.31 155.487 270.5 155.722 270.369C156.277 270.067 160.678 270.161 161.685 270.209C162.691 270.256 165.503 270.387 166.256 270.585C167.657 270.943 168.776 272.749 168.804 274.161C168.87 278.452 165.588 288.078 161.346 289.941V289.951Z" fill="#B3B6B7"/>
<path d="M225.32 261.777C220.476 261.495 213.874 261.514 209.021 261.777C208.419 261.805 205.08 262.154 204.948 262.351L188.555 317.597H197.706L203.199 300.415C203.999 299.775 213.705 300.321 215.717 300.151C225.452 299.333 230.004 291.456 233.023 283.166C236.484 273.662 238.911 262.577 225.329 261.777H225.32ZM225.377 276.984C224.878 281.209 222.038 288.568 218.276 290.807C214.852 292.849 209.811 291.513 205.983 291.729C207.394 284.521 209.914 277.548 212.36 270.641C212.614 270.265 212.98 270.265 213.375 270.209C215.341 269.945 220.975 270.133 222.912 270.576C225.753 271.215 225.64 274.725 225.367 276.984H225.377Z" fill="#B4B6B7"/>
<path d="M396.739 261.777C396.382 261.241 395.347 261.787 394.698 261.805C392.431 261.862 390.155 261.702 387.898 261.824L355.319 317.597H365.053C366.116 316.195 368.74 308.752 370.047 308.347C373.706 308.159 377.383 308.404 381.042 308.3C381.775 308.281 386.403 307.444 386.403 308.432V317.447C386.403 317.767 387.108 317.861 387.409 317.899C389.901 318.2 393.325 317.127 395.996 317.597C396.551 307.783 396.184 297.921 396.269 288.078C396.269 287.391 396.579 286.751 396.579 286.064C396.654 277.981 396.391 269.776 396.73 261.768L396.739 261.777ZM386.986 298.853C386.986 298.928 386.685 299.53 386.497 299.587C383.412 299.502 379.067 300.405 376.095 299.869C375.653 299.784 375.361 299.662 375.361 299.154C375.361 298.702 378.841 292.209 379.386 291.24C380.872 288.586 384.155 282.846 386.177 280.88C386.431 280.625 386.412 280.24 386.995 280.39V298.853H386.986Z" fill="#B2B6B7"/>
<path d="M509.884 261.796C509.63 263.066 507.476 270.83 506.799 271.055L487.537 271.112L483.737 283.75C483.643 283.994 484.085 284.465 484.179 284.465H498.56L495.954 293.056L480.859 293.216L476.185 308.592H495.211C495.296 308.592 495.616 308.187 495.936 308.3C495.766 309.448 493.453 317.597 492.888 317.597H463.977L481.264 261.787H509.884V261.796Z" fill="#B4B6B7"/>
<path d="M69.4386 261.796C68.0278 264.817 67.313 268.214 65.3662 270.961C64.8113 271.234 60.7764 270.331 59.7042 270.227C50.9856 269.399 47.2518 271.225 43.8189 279.327C41.477 284.841 36.8308 299.653 37.4798 305.252C37.6773 306.955 39.1163 308.846 40.8374 309.166C42.7185 309.514 47.4022 309.26 49.556 309.194C51.0515 309.147 52.7256 308.63 54.3339 308.893L53.0266 317.325L52.4434 317.616C47.9007 317.72 43.3392 318.143 38.7871 317.899C34.235 317.654 30.0685 317.023 28.0652 312.347C25.0555 305.364 30.5387 289.518 33.2286 282.395C35.326 276.833 38.0065 270.133 42.5774 266.172C50.4401 259.349 59.8735 261.429 69.4386 261.805V261.796Z" fill="#B3B6B7"/>
<path d="M420.694 317.607L435.225 270.961C430.588 271.018 425.895 271.375 421.277 270.811C420.873 270.416 423.619 263.471 423.581 262.22C435.724 261.674 447.894 261.796 460.074 261.805C460.478 261.862 460.582 261.646 460.497 262.238C460.365 263.264 458.108 270.642 457.609 270.98L444.959 271.404L444.263 271.874L429.855 317.626H420.704L420.694 317.607Z" fill="#B4B6B6"/>
<path d="M580.535 68.8343C580.742 68.4955 582.012 68.1756 582.379 66.7547C583.018 64.2892 582.633 61.645 579.755 61.2216C578.269 61.0051 575.861 61.2216 574.234 61.2216C573.369 61.2216 574.084 63.734 574.102 64.261C574.187 66.8205 574.149 69.5588 574.102 72.1372C574.093 72.6265 573.529 74.4238 574.281 74.612C574.667 74.7061 575.833 74.5461 575.833 74.1603V69.8035C575.833 69.3048 577.093 69.2671 577.582 69.5118C578.043 69.7376 581.89 76.127 583.094 74.8849C583.592 73.3323 579.905 69.8788 580.535 68.8343ZM575.833 68.2038V62.9718C578.805 62.7178 581.796 62.8119 580.545 66.67C579.764 69.0695 577.752 68.2979 575.833 68.2038Z" fill="#0A2E47"/>
<path d="M576.058 55.4909C570.989 56.1778 568.073 60.2524 567.688 65.1456C567.152 72.0243 568.026 79.2512 576.256 79.844C583.761 80.3898 588.229 78.3667 588.897 70.3776C589.649 61.4663 586.16 54.1076 576.049 55.4909H576.058ZM586.874 70.0858C586.31 77.6233 582.492 78.3855 575.682 77.8021C572.776 77.548 571.365 76.4564 570.519 73.6616C569.625 70.6881 569.475 64.7598 570.472 61.8144C571.478 58.8126 573.735 58.0881 576.651 57.8246C585.624 57.0153 587.467 62.1062 586.874 70.0858Z" fill="#0A2E47"/>
<path d="M142.94 224.297C141.435 224.307 139.912 224.354 138.397 224.325L142.94 224.297Z" fill="#05537E"/>
<path d="M147.455 224.034C146.241 224.071 145.019 224.156 143.815 224.297C144.859 223.808 146.194 223.977 147.455 224.034Z" fill="#05537E"/>
<path d="M520.925 40.8771C524.791 44.1989 532.174 50.353 535.033 54.23C535.325 54.6252 535.569 54.8416 535.456 55.4062C531.61 52.348 528.045 48.9509 524.264 45.8174C523.145 44.8858 521.264 43.8884 520.352 42.9003C519.261 41.7241 518.856 40.1526 520.935 40.8677L520.925 40.8771Z" fill="#AAA299"/>
<path d="M289.661 41.4606C289.868 42.2981 290.921 41.7899 291.401 42.3357C288.946 43.7849 286.538 45.2905 284.159 46.8619L271.349 55.9896C272.28 54.7569 273.522 53.7689 274.697 52.7997C279.485 48.8663 284.723 45.1399 289.652 41.4512L289.661 41.4606Z" fill="#9F918B"/>
<path d="M148.555 224.024C146.947 224.175 145.498 224.26 143.815 224.297C144.859 223.808 146.194 223.977 147.455 224.034H147.473C147.85 224.043 148.216 224.053 148.564 224.034L148.555 224.024Z" fill="#05537E"/>
<path d="M389.027 222.848C388.735 222.848 388.444 222.848 388.152 222.848C388.415 222.283 388.754 222.283 389.027 222.848Z" fill="#05537E"/>
<path d="M217.316 104.536C215.915 115.546 208.363 126.141 199.343 132.324C195.835 135.485 192.27 138.148 188.659 140.322L188.847 140.576C187.925 140.652 188.254 140.397 188.706 140.002C191.405 137.65 196.465 135.288 198.44 132.869C198.675 132.578 198.656 131.985 198.769 131.9C198.901 131.787 200.726 131.458 201.779 130.413C202.522 129.679 203.19 128.993 203.961 128.23C209.915 122.368 216.169 112.911 217.316 104.526V104.536Z" fill="#05537E"/>
<path d="M341.22 113.25C317.679 113.993 295.21 122.509 282.983 143.493C283.266 143.587 283.303 143.823 283.275 144.077C283.529 144.171 283.529 144.265 283.275 144.369C283.303 144.303 283.266 144.18 283.275 144.077C282.983 144.114 282.889 143.926 282.983 143.493C269.91 165.927 271.199 195.408 293.348 211.462C309.036 222.829 328.9 224.278 347.766 223.582C348.641 223.159 354.105 211.368 355.027 209.476L354.444 209.185C354.717 208.705 355.018 207.707 355.319 207.152C354.952 206.719 355.102 206.578 355.61 206.86C355.554 206.964 355.375 207.039 355.319 207.152C355.676 207.425 355.394 208.291 354.98 208.808C355.074 208.902 355.102 209.138 355.027 209.476C356.814 205.835 358.911 202.202 360.256 198.429C342.34 199.351 317.058 194.43 312.318 174.01C312.224 174.49 312.027 174.396 311.735 173.718C312.149 176.052 312.384 177.322 313.475 179.534L312.723 179.308C312.027 178.263 310.87 174.678 311.735 173.728L312.318 174.019C311.378 169.964 311.246 166.539 312.027 162.389C314.199 150.833 323.181 140.943 334.975 138.845C336.48 138.581 338.305 138.76 339.621 138.261C338.465 138.261 337.298 138.261 336.142 138.261C336.245 137.65 337.421 137.697 337.881 137.687L337.74 136.521C338.972 136.285 341.559 136.784 339.339 137.687C339.603 137.734 339.828 138.017 339.922 138.271C351.049 138.337 362.203 138.346 373.33 138.12L386.93 118.303L389.883 113.278C373.687 113.673 357.397 112.751 341.211 113.259L341.22 113.25ZM341.672 137.678C342.528 137.631 343.788 136.859 344.286 137.96L341.672 137.678Z" fill="#05537E"/>
<path d="M283.265 144.067C282.974 144.105 282.88 143.917 282.974 143.484C283.256 143.578 283.294 143.813 283.265 144.067Z" fill="#05537E"/>
<path d="M312.318 174.01C312.224 174.49 312.027 174.396 311.735 173.718L312.318 174.01Z" fill="#05537E"/>
<path d="M339.339 137.678C339.433 137.076 339.095 136.935 338.719 137.038C338.408 137.123 338.06 137.377 337.891 137.678L337.75 136.511C338.982 136.276 341.568 136.775 339.349 137.678H339.339Z" fill="#05537E"/>
<path d="M339.922 138.252C339.461 138.148 339.273 137.951 339.339 137.669C339.603 137.716 339.828 137.998 339.922 138.252Z" fill="#05537E"/>
<path d="M339.631 138.252C338.474 138.252 337.308 138.252 336.151 138.252C336.254 137.64 337.43 137.687 337.891 137.678C338.408 137.894 338.982 138.092 339.631 138.261V138.252Z" fill="#05537E"/>
<path d="M344.277 137.96L341.662 137.678C342.518 137.631 343.779 136.859 344.277 137.96Z" fill="#05537E"/>
<path d="M354.98 208.799C354.811 209.006 354.623 209.156 354.444 209.175C354.717 208.695 355.018 207.698 355.319 207.143C355.676 207.416 355.394 208.281 354.98 208.799Z" fill="#05537E"/>
<path d="M355.319 207.143C354.952 206.71 355.102 206.569 355.61 206.851C355.112 206.625 354.999 206.7 355.319 207.143Z" fill="#05537E"/>
<path d="M533.415 158.606C533.19 158.342 533.077 157.891 533.086 157.458C533.246 157.74 533.359 158.116 533.415 158.606Z" fill="#05537E"/>
<path d="M535.738 153.374C535.522 153.534 535.428 153.289 535.4 152.988C535.202 154.202 534.638 156.394 533.989 156.282C534.393 155.039 535.099 153.722 535.409 152.386C535.419 152.282 535.437 152.226 535.447 152.216C535.466 152.198 535.475 152.245 535.475 152.329L535.729 153.374H535.738Z" fill="#05537E"/>
<path d="M378.568 210.502C378.295 211.198 378.183 211.914 378.192 212.704C377.9 212.158 378.145 211.33 378.568 210.502Z" fill="#05537E"/>
<path d="M380.186 208.112C380.083 208.225 379.979 208.328 379.885 208.441C379.97 208.328 380.045 208.225 380.12 208.131C380.139 208.131 380.167 208.121 380.186 208.112Z" fill="#05537E"/>
<path d="M386.986 203.087L385.171 203.765C385.791 203.463 386.393 203.238 386.986 203.087Z" fill="#05537E"/>
<path d="M388.152 222.848C387.089 222.848 386.017 222.82 384.954 222.848C385.443 222.406 386.036 222.321 386.647 222.406C386.676 222.406 386.704 222.406 386.723 222.406C387.212 222.481 387.701 222.66 388.143 222.839L388.152 222.848Z" fill="#05537E"/>
<path d="M392.234 222.415C391.143 222.453 390.043 222.603 389.027 222.848C390.08 222.585 391.152 222.443 392.234 222.415Z" fill="#05537E"/>
<path d="M417.205 198.137C415.728 198.137 413.857 198.382 412.559 197.846L417.205 198.137Z" fill="#05537E"/>
<path d="M427.24 200.763C426.986 200.763 426.77 200.734 426.591 200.678C426.648 200.678 426.714 200.659 426.779 200.65C426.883 200.697 427.043 200.734 427.24 200.763Z" fill="#05537E"/>
<path d="M432.319 196.387V194.928C432.554 194.966 433.128 194.872 433.184 194.928C433.466 195.201 432.817 196.34 432.319 196.378V196.387Z" fill="#05537E"/>
<path d="M436.815 114.398C436.664 114.379 436.514 114.191 436.382 113.833C436.758 113.955 436.881 114.162 436.815 114.398Z" fill="#05537E"/>
<path d="M437.83 114.416C437.83 114.416 437.774 114.435 437.736 114.445C437.163 114.633 436.965 114.614 437.106 114.191C437.134 114.087 437.191 113.974 437.257 113.833L437.84 114.416H437.83Z" fill="#05537E"/>
<path d="M439.288 113.551C438.884 114.068 437.896 113.824 437.257 113.842C437.953 113.824 438.63 113.729 439.288 113.551Z" fill="#05537E"/>
<path d="M441.611 114.125C441.122 115.009 438.451 115.15 437.83 114.416C438.583 114.247 440.69 114.172 441.611 114.125Z" fill="#05537E"/>
<path d="M439.862 144.942C439.862 144.942 439.787 144.924 439.759 144.914C438.959 144.604 439.1 142.919 439.862 142.618C440.031 143.098 439.74 144.331 439.862 144.942Z" fill="#05537E"/>
<path d="M440.172 158.277C440.097 158.145 440.022 158.022 439.937 157.91C439.984 157.928 440.041 157.947 440.088 157.966C440.116 158.07 440.144 158.182 440.172 158.286V158.277Z" fill="#05537E"/>
<path d="M440.445 141.16L439.862 142.609C439.862 142.609 439.862 142.609 439.853 142.609C439.364 142.101 439.768 141.367 440.408 141.188C440.426 141.188 440.445 141.188 440.455 141.169L440.445 141.16Z" fill="#05537E"/>
<path d="M441.104 160.723L440.972 160.61C440.953 160.525 440.944 160.441 440.925 160.356C440.981 160.478 441.038 160.601 441.104 160.723Z" fill="#05537E"/>
<path d="M445.091 137.678C442.326 139.108 442.307 139.889 440.445 141.169L440.379 140.51C441.207 139.541 443.906 137.076 445.091 137.687V137.678Z" fill="#05537E"/>
<path d="M447.395 163.97V163.988C447.358 163.923 447.311 163.857 447.273 163.791C447.32 163.847 447.358 163.904 447.395 163.96V163.97Z" fill="#05537E"/>
<path d="M450.114 217.635C450.095 217.917 449.86 218.19 449.483 218.388C449.756 218.209 449.963 217.955 450.114 217.635Z" fill="#05537E"/>
<path d="M451.487 169.079C451.092 168.477 450.781 167.79 450.509 167.056C450.904 167.687 451.233 168.402 451.487 169.079Z" fill="#05537E"/>
<path d="M454.807 171.488C454.083 171.281 453.49 170.989 452.992 170.641C453.754 170.782 454.402 171.093 454.807 171.488Z" fill="#05537E"/>
<path d="M455.973 213.043C455.973 213.118 455.954 213.193 455.954 213.269C455.841 213.363 455.738 213.457 455.625 213.542C455.757 213.391 455.879 213.222 455.973 213.043Z" fill="#05537E"/>
<path d="M458.917 210.408C458.851 210.483 458.776 210.559 458.71 210.634C458.437 210.54 458.183 210.493 457.948 210.483C458.24 210.427 458.559 210.408 458.917 210.417V210.408Z" fill="#05537E"/>
<path d="M462.453 203.473C462.34 203.812 462.162 204.037 461.955 204.084C462.114 203.877 462.284 203.67 462.453 203.473Z" fill="#05537E"/>
<path d="M469.103 138.252H449.164C455.691 137.998 462.5 138.233 469.103 138.252Z" fill="#05537E"/>
<path d="M445.891 136.596C445.75 136.775 445.627 136.953 445.496 137.123C445.402 137.255 445.308 137.377 445.223 137.499C445.223 137.499 445.223 137.509 445.223 137.518C445.185 137.593 445.148 137.659 445.101 137.678C445.185 137.066 445.449 136.709 445.891 136.596Z" fill="#05537E"/>
<path d="M460.967 133.745C459.848 133.603 458.719 133.33 457.609 132.992C457.816 132.964 458.033 132.992 458.258 133.058C459.03 133.34 459.979 133.594 460.976 133.745H460.967Z" fill="#05537E"/>
<path d="M467.165 132.775C466.544 133.114 465.905 133.359 465.247 133.528C465.67 133.378 466.055 133.171 466.403 132.907L467.165 132.775Z" fill="#05537E"/>
<path d="M468.585 133.462C468.143 133.274 467.711 133.048 467.287 132.747L467.372 132.728C467.758 133.029 468.162 133.265 468.585 133.453V133.462Z" fill="#05537E"/>
<path d="M477.116 133.076C477.116 133.076 477.031 133.095 476.994 133.095C477.012 133.095 477.022 133.095 477.031 133.086C477.059 133.086 477.088 133.086 477.116 133.076Z" fill="#05537E"/>
<path d="M479.975 133.556C479.975 133.556 479.928 133.538 479.909 133.528C479.599 133.18 479.194 133.011 478.752 132.954C479.26 132.992 479.693 133.152 479.975 133.566V133.556Z" fill="#05537E"/>
<path d="M482.787 133.698C482.561 133.839 482.308 133.923 482.025 133.97C482.279 133.876 482.533 133.792 482.787 133.698Z" fill="#05537E"/>
<path d="M467.73 117.945H467.711C467.56 117.945 467.41 117.945 467.259 117.926C467.419 117.926 467.579 117.926 467.73 117.945Z" fill="#05537E"/>
<path d="M487.81 126.038C487.81 125.539 487.838 125.05 487.885 124.551C488.12 124.909 488.101 125.407 487.819 126.038H487.81Z" fill="#05537E"/>
<path d="M105.884 105.091C105.235 105.213 104.492 105.26 103.56 105.129C103.476 105.119 103.391 105.1 103.316 105.082C104.172 105.082 105.028 105.082 105.884 105.082V105.091Z" fill="#05537E"/>
<path d="M164.44 107.735C163.97 108.281 163.838 107.189 163.669 107.152C163.133 107.039 162.409 107.208 161.826 107.152C162.813 106.456 161.148 106.324 160.659 107.152C160.659 105.985 158.43 106.361 157.753 106.277C157.763 105.759 158.995 105.966 159.361 105.976C160.744 105.994 162.663 106.041 163.829 106.738C164.12 106.917 164.675 107.444 164.431 107.726L164.44 107.735Z" fill="#05537E"/>
<path d="M169.623 121.493C169.265 122.02 169.011 122.33 169.086 121.389C171.24 119.027 171.447 115.367 169.877 112.45C169.529 111.81 168.165 109.702 167.92 110.342C167.864 109.373 168.071 109.806 168.503 110.201C171.805 113.203 172.049 117.842 169.623 121.493Z" fill="#05537E"/>
<path d="M91.8042 74.5932C89.246 74.5932 86.6689 74.6309 84.1013 74.5932C83.6028 74.5932 82.8128 74.7814 82.5024 74.2921C85.5121 74.4709 88.6064 74.5744 91.7948 74.5838L91.8042 74.5932Z" fill="#05537E"/>
<path d="M123.763 74.5933C123.556 75.2614 123.01 75.1579 122.474 75.1955C114.452 75.7319 103.231 75.5813 95.1429 75.1955C94.1836 75.1485 92.7164 74.9226 91.8135 74.6027C102.206 75.252 113.37 75.4119 123.772 74.6027L123.763 74.5933Z" fill="#05537E"/>
<path d="M125.221 74.5932H123.772C124.054 74.3392 124.873 74.3768 125.221 74.5932Z" fill="#05537E"/>
<path d="M139.169 74.5931L132.359 75.186C130.318 75.1107 128.268 75.2424 126.227 75.1672C125.672 75.1483 125.061 75.4683 125.221 74.5837C125.738 74.6402 125.86 74.7531 125.587 74.8943C127.412 74.9131 129.237 74.9037 131.043 74.8754C133.761 74.8284 136.469 74.7343 139.169 74.5837V74.5931Z" fill="#05537E"/>
<path d="M217.316 92.331C213.733 79.0065 197.754 74.6779 185.358 74.6026C183.975 74.6026 182.197 74.8566 181.003 74.3109C179.649 74.3109 178.285 74.2826 176.94 74.3109C165.296 74.5932 153.512 74.5838 141.783 74.6026C140.918 74.6026 140.034 74.6026 139.169 74.6026L132.359 75.1954C130.318 75.1201 128.268 75.2519 126.227 75.1766C125.672 75.1578 125.061 75.4777 125.221 74.5932H123.772C123.565 75.2613 123.02 75.1578 122.484 75.1954C114.461 75.7318 103.241 75.5812 95.1524 75.1954C94.1931 75.1484 92.7259 74.9225 91.823 74.6026C89.2647 74.6026 86.6877 74.6402 84.1201 74.6026C83.6216 74.6026 82.8316 74.7908 82.5212 74.3015C81.1387 74.0003 80.2169 77.6138 80.1981 78.6583L70.3791 105.317L70.3227 105.985C71.0939 106.004 71.8745 105.966 72.6458 105.985C101.397 106.644 130.318 104.959 159.004 106.644C159.569 106.663 160.199 107.077 160.678 107.142C160.678 105.976 158.449 106.352 157.772 106.267C157.782 105.75 159.014 105.957 159.38 105.966C160.763 105.985 162.682 106.032 163.848 106.728C164.139 106.907 164.694 107.434 164.45 107.716C163.98 108.262 163.848 107.171 163.679 107.133C163.143 107.02 162.418 107.189 161.835 107.133C163.838 107.999 166.331 108.78 167.939 110.332C167.883 109.363 168.09 109.796 168.522 110.191C171.823 113.193 172.068 117.832 169.641 121.483C169.284 122.01 169.03 122.321 169.105 121.38C167.168 124.861 160.763 128.296 157.283 130.338C152.458 133.161 146.994 136.097 141.981 138.572C140.1 139.503 127.186 145.065 126.98 145.949C126.867 146.439 127.384 146.523 127.694 146.683C129.18 147.474 131.334 147.935 132.989 148.65C143.392 153.148 161.12 162.21 160.387 175.581C159.286 195.615 130.102 194.411 115.806 194.928C112.373 195.051 108.912 194.966 105.479 195.211C105.385 195.07 104.99 195.145 105.028 194.627C105.065 194.006 105.555 192.708 105.771 192.021C111.8 173.248 117.706 154.39 123.575 135.57C125.108 130.658 126.528 125.699 128.136 120.806H87.1674L85.4274 127.487C85.2393 127.628 85.0606 127.816 84.9854 128.051C74.8842 160.234 65.5072 192.651 55.5095 224.862L136.667 224.325C136.883 224.325 137.128 224.278 137.297 224.288C137.673 224.307 138.04 224.316 138.416 224.316L142.959 224.288C143.251 224.288 143.542 224.288 143.834 224.288C144.878 223.798 146.213 223.968 147.473 224.024C147.473 224.024 147.473 224.024 147.483 224.024C147.906 224.005 148.339 224.005 148.771 224.005C175.783 221.389 199.55 207.839 202.522 178.659V172.843C202.061 168.458 201.008 164.694 199.324 160.638C196.352 153.468 191.33 147.907 185.386 143.051C186.655 142.383 187.709 141.376 188.866 140.576C187.944 140.651 188.273 140.397 188.725 140.002C191.424 137.65 196.484 135.288 198.459 132.869C198.694 132.578 198.675 131.985 198.788 131.9C198.92 131.787 200.744 131.458 201.798 130.413C202.541 129.679 203.209 128.992 203.98 128.23C209.933 122.368 216.188 112.911 217.335 104.526L217.627 105.11C217.843 103.924 218.088 102.795 218.21 101.619V96.3868C218.003 94.7212 217.758 93.8649 217.335 92.3216L217.316 92.331ZM105.884 105.091C105.235 105.213 104.492 105.26 103.561 105.129C103.476 105.119 103.391 105.1 103.316 105.082C104.172 105.082 105.028 105.082 105.884 105.082V105.091ZM108.809 175.469C109.382 175.469 109.335 176.805 108.517 176.626C107.718 176.447 108.592 175.478 108.809 175.469Z" fill="#05537E"/>
<path d="M105.884 105.091C105.235 105.213 104.492 105.26 103.56 105.129C103.476 105.119 103.391 105.1 103.316 105.082C104.172 105.082 105.028 105.082 105.884 105.082V105.091Z" fill="#05537E"/>
<path d="M141.783 74.5932C140.918 74.5932 140.034 74.5932 139.169 74.5932C140.034 74.3768 140.918 74.3768 141.783 74.5932Z" fill="#05537E"/>
<path d="M217.608 105.119C217.41 105.26 217.316 105.072 217.316 104.536L217.608 105.119Z" fill="#05537E"/>
<path d="M218.191 101.628V96.3962C218.323 98.1371 218.304 99.8779 218.191 101.628Z" fill="#05537E"/>
<path d="M269.318 123.14C268.979 123.591 267.691 121.568 267.869 121.399C268.904 121.446 269.525 122.067 269.318 123.14Z" fill="#05537E"/>
<path d="M283.265 144.067C282.974 144.105 282.88 143.917 282.974 143.484C283.256 143.578 283.294 143.813 283.265 144.067Z" fill="#05537E"/>
<path d="M283.265 144.359C283.294 144.293 283.256 144.171 283.265 144.067C283.519 144.161 283.519 144.256 283.265 144.359Z" fill="#05537E"/>
<path d="M355.027 209.476L354.444 209.185C354.67 208.789 354.867 208.686 354.98 208.808C355.074 208.902 355.102 209.138 355.027 209.476Z" fill="#05537E"/>
<path d="M108.517 176.626C107.718 176.447 108.592 175.478 108.809 175.469C109.382 175.469 109.335 176.805 108.517 176.626Z" fill="#05537E"/>
<path d="M272.807 112.676H241.281L206.848 223.563C216.564 224.081 226.345 223.394 236.061 223.704C236.973 223.733 238.186 224.419 238.958 223.723C239.531 223.206 241.77 215.885 242.212 214.483C251.617 184.784 260.533 154.785 269.515 124.946C270.456 121.822 272.196 116.91 272.722 113.908C272.798 113.494 272.826 113.09 272.788 112.676H272.807ZM269.318 123.139C268.979 123.591 267.691 121.568 267.869 121.399C268.904 121.446 269.525 122.067 269.318 123.139Z" fill="#05537E"/>
<path d="M533.999 156.282C533.745 157.063 533.622 157.957 533.415 158.606C533.19 158.342 533.077 157.891 533.086 157.458C533.105 156.874 533.387 156.31 533.989 156.282H533.999Z" fill="#05537E"/>
<path d="M535.738 153.374C535.522 153.534 535.428 153.289 535.4 152.988C535.202 154.202 534.638 156.394 533.989 156.282C534.393 155.039 535.099 153.722 535.409 152.386C535.428 152.329 535.437 152.273 535.447 152.216L535.475 152.329L535.729 153.374H535.738Z" fill="#05537E"/>
<path d="M548.52 112.092C548.191 113.57 547.881 115.245 547.448 116.684C543.93 128.456 539.99 140.181 536.322 151.915C536.143 152.48 535.861 152.979 535.739 153.365L535.485 152.32C535.485 152.235 535.485 152.188 535.456 152.207C535.447 152.207 535.428 152.282 535.419 152.376C535.108 153.713 534.403 155.03 533.999 156.272C533.387 156.31 533.114 156.865 533.096 157.448C533.077 157.881 533.199 158.333 533.425 158.596C533.632 157.947 533.754 157.053 534.008 156.272C534.657 156.385 535.221 154.193 535.419 152.979C535.447 153.28 535.532 153.524 535.757 153.365C529.691 172.73 523.606 192.059 517.474 211.377C516.486 214.492 515.79 218.021 514.69 221.088C514.492 221.644 514.041 222.933 513.693 223.29C512.461 224.561 485.524 222.98 481.715 223.996C489.503 199.558 496.726 174.932 504.372 150.457C504.504 150.052 504.908 149.713 504.955 149.582C508.426 138.487 511.633 127.186 515.207 116.091C515.63 114.774 516.082 113.306 516.721 112.083H548.539L548.52 112.092Z" fill="#05537E"/>
<path d="M202.503 178.659V172.843C202.625 174.782 202.625 176.711 202.503 178.659Z" fill="#05537E"/>
<path d="M312.318 174.01C312.224 174.49 312.027 174.396 311.735 173.718L312.318 174.01Z" fill="#05537E"/>
<path d="M313.484 179.534L312.732 179.308C312.036 178.263 310.879 174.678 311.744 173.728C312.158 176.061 312.393 177.332 313.484 179.543V179.534Z" fill="#05537E"/>
<path d="M354.98 208.799C355.074 208.893 355.102 209.128 355.027 209.467L354.444 209.175C354.717 208.695 355.018 207.698 355.319 207.143C355.676 207.416 355.394 208.281 354.98 208.799Z" fill="#05537E"/>
<path d="M355.61 206.86C355.554 206.964 355.375 207.039 355.319 207.152C354.952 206.719 355.102 206.578 355.61 206.86Z" fill="#05537E"/>
<path d="M176.931 74.3015C165.287 74.5838 153.502 74.5744 141.774 74.5932C153.493 74.4427 165.212 74.3392 176.931 74.3015Z" fill="#05537E"/>
<path d="M185.358 74.5932C183.975 74.5932 182.197 74.8473 181.003 74.3015L185.358 74.5932Z" fill="#05537E"/>
<path d="M217.608 105.119C214.316 122.923 202.72 130.978 188.847 140.586C187.925 140.661 188.254 140.407 188.706 140.012C191.405 137.659 196.465 135.297 198.44 132.879C198.675 132.587 198.656 131.994 198.769 131.91C198.901 131.797 200.726 131.467 201.779 130.423C202.522 129.689 203.19 129.002 203.961 128.24C209.915 122.377 216.169 112.92 217.316 104.536L217.608 105.119Z" fill="#05537E"/>
<path d="M176.931 74.3015C165.287 74.5838 153.502 74.5744 141.774 74.5932C140.909 74.5932 140.025 74.5932 139.159 74.5932C136.451 74.8285 133.742 74.9226 131.033 74.885C129.086 74.8661 127.149 74.7626 125.211 74.5932H123.763C113.116 75.2425 102.451 75.2519 91.8042 74.5932C89.246 74.5932 86.6689 74.6309 84.1013 74.5932C83.6028 74.5932 82.8128 74.7814 82.5024 74.2921H176.921L176.931 74.3015Z" fill="#05537E"/>
<path d="M169.623 121.493C169.265 122.02 169.011 122.33 169.087 121.389C169.388 120.843 170.074 119.103 170.253 118.482C170.469 117.032 170.488 115.564 170.253 114.125C169.886 112.958 168.804 111.189 167.93 110.342C167.873 109.373 168.08 109.806 168.513 110.201C171.814 113.203 172.059 117.842 169.632 121.493H169.623Z" fill="#05537E"/>
<path d="M469.103 138.252H449.164C455.691 137.998 462.5 138.233 469.103 138.252Z" fill="#05537E"/>
<path d="M164.44 107.735C163.97 108.281 163.838 107.189 163.669 107.152C163.133 107.039 162.409 107.208 161.826 107.152C161.449 107.114 161.026 107.208 160.659 107.152C160.659 105.985 158.43 106.361 157.753 106.277C157.763 105.759 158.995 105.966 159.361 105.976C160.744 105.994 162.663 106.041 163.829 106.738C164.12 106.917 164.675 107.444 164.431 107.726L164.44 107.735Z" fill="#05537E"/>
<path d="M339.922 138.252H339.631C338.474 138.252 337.308 138.252 336.151 138.252C336.254 137.64 337.43 137.687 337.891 137.678C337.947 137.17 338.352 136.963 338.719 137.038C338.991 137.095 339.255 137.311 339.339 137.678C339.603 137.725 339.828 138.007 339.922 138.261V138.252Z" fill="#05537E"/>
<path d="M202.503 178.659V172.843C202.757 175.271 202.757 176.212 202.503 178.659Z" fill="#05537E"/>
<path d="M218.191 101.628V96.3962C218.473 98.6923 218.426 99.3886 218.191 101.628Z" fill="#05537E"/>
<path d="M417.205 198.137C415.728 198.137 413.857 198.382 412.559 197.846C414.035 197.846 415.907 197.601 417.205 198.137Z" fill="#05537E"/>
<path d="M185.358 74.5932C183.975 74.5932 182.197 74.8473 181.003 74.3015C182.376 74.3015 184.172 74.0662 185.358 74.5932Z" fill="#05537E"/>
<path d="M170.253 118.491V114.134C170.732 115.668 170.676 116.985 170.253 118.491Z" fill="#05537E"/>
<path d="M439.288 113.551C438.884 114.068 437.896 113.824 437.257 113.842C437.21 113.993 437.163 114.115 437.106 114.2C437.022 114.351 436.918 114.416 436.815 114.407C436.664 114.388 436.514 114.2 436.382 113.842C436.42 113.842 436.457 113.842 436.504 113.824C437.398 113.72 438.32 113.607 439.288 113.551Z" fill="#05537E"/>
<path d="M313.484 179.534L312.732 179.308C312.036 178.263 310.879 174.678 311.744 173.728C312.158 176.061 312.393 177.332 313.484 179.543V179.534Z" fill="#05537E"/>
<path d="M355.61 206.86C355.554 206.964 355.375 207.039 355.319 207.152C354.952 206.719 355.102 206.578 355.61 206.86Z" fill="#05537E"/>
<path d="M283.265 144.359C283.294 144.293 283.256 144.171 283.265 144.067C283.519 144.161 283.519 144.256 283.265 144.359Z" fill="#05537E"/>
<path d="M339.339 137.678C338.954 137.612 338.314 137.659 337.891 137.678L337.75 136.511C338.982 136.276 341.568 136.775 339.349 137.678H339.339Z" fill="#05537E"/>
<path d="M344.277 137.96L341.662 137.678C342.518 137.631 343.779 136.859 344.277 137.96Z" fill="#05537E"/>
<path d="M533.999 156.282C533.745 157.063 533.622 157.957 533.415 158.606C533.19 158.342 533.077 157.891 533.086 157.458C533.105 156.874 533.387 156.31 533.989 156.282H533.999Z" fill="#05537E"/>
<path d="M378.568 210.502C378.295 211.198 378.183 211.914 378.192 212.704C377.9 212.158 378.145 211.33 378.568 210.502Z" fill="#05537E"/>
<path d="M380.186 208.112C380.083 208.225 379.979 208.328 379.885 208.441C379.97 208.328 380.045 208.225 380.12 208.131C380.139 208.131 380.167 208.121 380.186 208.112Z" fill="#05537E"/>
<path d="M386.986 203.087L385.171 203.765C385.791 203.463 386.393 203.238 386.986 203.087Z" fill="#05537E"/>
<path d="M427.24 200.763C426.986 200.763 426.77 200.734 426.591 200.678C426.648 200.678 426.714 200.659 426.779 200.65C426.883 200.697 427.043 200.734 427.24 200.763Z" fill="#05537E"/>
<path d="M439.862 144.942C439.862 144.942 439.787 144.924 439.759 144.914C438.959 144.604 439.1 142.919 439.862 142.618C440.031 143.098 439.74 144.331 439.862 144.942Z" fill="#05537E"/>
<path d="M439.862 142.609C439.862 142.609 439.862 142.609 439.853 142.609C439.749 142.534 439.072 142.327 439.288 141.611C439.439 141.103 440.201 141.216 440.407 141.188C440.426 141.188 440.445 141.188 440.454 141.169C439.824 141.527 439.636 142.016 439.871 142.618L439.862 142.609Z" fill="#05537E"/>
<path d="M440.172 158.277C440.097 158.145 440.022 158.022 439.937 157.91C439.984 157.928 440.041 157.947 440.088 157.966C440.116 158.07 440.144 158.182 440.172 158.286V158.277Z" fill="#05537E"/>
<path d="M441.104 160.723L440.972 160.61C440.953 160.525 440.944 160.441 440.925 160.356C440.981 160.478 441.038 160.601 441.104 160.723Z" fill="#05537E"/>
<path d="M445.091 137.678C442.326 139.108 442.307 139.889 440.445 141.169L440.379 140.51C441.207 139.541 443.906 137.076 445.091 137.687V137.678Z" fill="#05537E"/>
<path d="M447.395 163.97V163.988C447.358 163.923 447.311 163.857 447.273 163.791C447.32 163.847 447.358 163.904 447.395 163.96V163.97Z" fill="#05537E"/>
<path d="M451.487 169.079C451.092 168.477 450.781 167.79 450.509 167.056C450.904 167.687 451.233 168.402 451.487 169.079Z" fill="#05537E"/>
<path d="M454.807 171.488C454.083 171.281 453.49 170.989 452.992 170.641C453.754 170.782 454.402 171.093 454.807 171.488Z" fill="#05537E"/>
<path d="M450.114 217.635C450.095 217.917 449.86 218.19 449.483 218.388C449.756 218.209 449.963 217.955 450.114 217.635Z" fill="#05537E"/>
<path d="M455.973 213.043C455.973 213.118 455.954 213.193 455.954 213.269C455.841 213.363 455.738 213.457 455.625 213.542C455.757 213.391 455.879 213.222 455.973 213.043Z" fill="#05537E"/>
<path d="M458.917 210.408C458.851 210.483 458.776 210.559 458.71 210.634C458.437 210.54 458.183 210.493 457.948 210.483C458.24 210.427 458.559 210.408 458.917 210.417V210.408Z" fill="#05537E"/>
<path d="M462.453 203.473C462.34 203.812 462.162 204.037 461.955 204.084C462.114 203.877 462.284 203.67 462.453 203.473Z" fill="#05537E"/>
<path d="M408.054 137.998C407.997 138.798 407.922 139.598 407.837 140.397C407.715 139.701 407.79 138.901 408.054 137.998Z" fill="#05537E"/>
<path d="M408.289 152.32C407.96 151.821 407.781 151.181 407.809 150.617C408.035 151.003 408.138 151.492 408.289 152.32Z" fill="#05537E"/>
<path d="M411.195 155.83C410.696 155.642 410.32 155.435 410.038 155.134C410.452 155.35 410.856 155.604 411.195 155.83Z" fill="#05537E"/>
<path d="M415.089 161.128C415.032 161.438 415.013 161.73 415.013 162.022C414.995 161.711 414.995 161.372 415.004 161.005C415.032 161.043 415.06 161.09 415.098 161.128H415.089Z" fill="#05537E"/>
<path d="M419.377 167.376C418.813 167.075 418.258 166.717 417.694 166.313C417.43 166.124 417.186 165.936 416.96 165.748C417.525 166.19 418.173 166.557 418.879 166.858C419.029 167.056 419.199 167.235 419.377 167.376Z" fill="#05537E"/>
<path d="M421.7 168.166C421.541 168.138 421.381 168.11 421.23 168.072C421.371 168.072 421.503 168.072 421.653 168.072C421.672 168.1 421.691 168.129 421.7 168.166Z" fill="#05537E"/>
<path d="M423.309 171.291C422.65 170.406 422.133 169.409 421.776 168.298C422.321 169.277 422.829 170.274 423.309 171.291Z" fill="#05537E"/>
<path d="M445.891 136.596C445.75 136.775 445.627 136.953 445.496 137.123C445.402 137.255 445.308 137.377 445.223 137.499C445.223 137.499 445.223 137.509 445.223 137.518C445.176 137.574 445.138 137.622 445.101 137.678C445.185 137.066 445.449 136.709 445.891 136.596Z" fill="#05537E"/>
<path d="M460.967 133.745C459.848 133.603 458.719 133.33 457.609 132.992C457.816 132.964 458.033 132.992 458.258 133.058C459.03 133.34 459.979 133.594 460.976 133.745H460.967Z" fill="#05537E"/>
<path d="M467.165 132.775C466.544 133.114 465.905 133.359 465.247 133.528C465.67 133.378 466.055 133.171 466.403 132.907L467.165 132.775Z" fill="#05537E"/>
<path d="M468.585 133.462C468.143 133.274 467.711 133.048 467.287 132.747L467.372 132.728C467.758 133.029 468.162 133.265 468.585 133.453V133.462Z" fill="#05537E"/>
<path d="M477.116 133.076C477.116 133.076 477.031 133.095 476.994 133.095C477.012 133.095 477.022 133.095 477.031 133.086C477.059 133.086 477.088 133.086 477.116 133.076Z" fill="#05537E"/>
<path d="M479.975 133.556C479.975 133.556 479.928 133.538 479.909 133.528C479.599 133.18 479.194 133.011 478.752 132.954C479.26 132.992 479.693 133.152 479.975 133.566V133.556Z" fill="#05537E"/>
<path d="M482.787 133.698C482.561 133.839 482.308 133.923 482.025 133.97C482.279 133.876 482.533 133.792 482.787 133.698Z" fill="#05537E"/>
<path d="M378.568 210.502C378.295 211.198 378.183 211.914 378.192 212.704C377.9 212.158 378.145 211.33 378.568 210.502Z" fill="#05537E"/>
<path d="M379.885 208.441C379.471 208.996 378.954 209.749 378.568 210.502C378.832 209.815 379.264 209.147 379.885 208.441Z" fill="#05537E"/>
<path d="M380.186 208.112C380.083 208.225 379.979 208.328 379.885 208.441C379.97 208.328 380.045 208.225 380.12 208.131C380.139 208.131 380.167 208.121 380.186 208.112Z" fill="#05537E"/>
<path d="M386.986 203.087L385.171 203.765C385.791 203.463 386.393 203.238 386.986 203.087Z" fill="#05537E"/>
<path d="M386.647 222.406C386.036 222.359 385.472 222.509 384.954 222.848C385.443 222.406 386.036 222.321 386.647 222.406Z" fill="#05537E"/>
<path d="M392.234 222.415C391.143 222.453 390.043 222.603 389.027 222.848C390.08 222.585 391.152 222.443 392.234 222.415Z" fill="#05537E"/>
<path d="M427.24 200.763C426.986 200.763 426.77 200.734 426.591 200.678C426.648 200.678 426.714 200.659 426.779 200.65C426.883 200.697 427.043 200.734 427.24 200.763Z" fill="#05537E"/>
<path d="M408.054 137.998C407.997 138.798 407.922 139.598 407.837 140.397C407.715 139.701 407.79 138.901 408.054 137.998Z" fill="#05537E"/>
<path d="M408.289 152.32C407.96 151.821 407.781 151.181 407.809 150.617C408.035 151.003 408.138 151.492 408.289 152.32Z" fill="#05537E"/>
<path d="M411.195 155.83C410.696 155.642 410.32 155.435 410.038 155.134C410.452 155.35 410.856 155.604 411.195 155.83Z" fill="#05537E"/>
<path d="M415.089 161.128C415.032 161.438 415.013 161.73 415.013 162.022C414.995 161.711 414.995 161.372 415.004 161.005C415.032 161.043 415.06 161.09 415.098 161.128H415.089Z" fill="#05537E"/>
<path d="M419.377 167.376C418.813 167.075 418.258 166.717 417.694 166.313C417.43 166.124 417.186 165.936 416.96 165.748C417.525 166.19 418.173 166.557 418.879 166.858C419.029 167.056 419.199 167.235 419.377 167.376Z" fill="#05537E"/>
<path d="M421.7 168.166C421.541 168.138 421.381 168.11 421.23 168.072C421.371 168.072 421.503 168.072 421.653 168.072C421.672 168.1 421.691 168.129 421.7 168.166Z" fill="#05537E"/>
<path d="M423.309 171.291C422.65 170.406 422.133 169.409 421.776 168.298C422.321 169.277 422.829 170.274 423.309 171.291Z" fill="#05537E"/>
<path d="M437.83 114.416C437.83 114.416 437.774 114.435 437.736 114.445C437.163 114.633 436.965 114.614 437.106 114.191C437.022 114.341 436.918 114.407 436.815 114.398C436.664 114.379 436.514 114.191 436.382 113.833C436.382 113.833 436.438 113.824 436.504 113.814C436.702 113.814 437.097 113.833 437.257 113.833L437.84 114.416H437.83Z" fill="#05537E"/>
<path d="M408.054 137.998C407.997 138.798 407.922 139.598 407.837 140.397C407.715 139.701 407.79 138.901 408.054 137.998Z" fill="#05537E"/>
<path d="M408.289 152.32C407.96 151.821 407.781 151.181 407.809 150.617C408.035 151.003 408.138 151.492 408.289 152.32Z" fill="#05537E"/>
<path d="M408.213 137.49C408.157 137.669 408.1 137.828 408.053 137.998C408.072 137.725 408.091 137.452 408.11 137.179C408.138 137.283 408.176 137.386 408.213 137.49Z" fill="#05537E"/>
<path d="M411.195 155.83C410.696 155.642 410.32 155.435 410.038 155.134C410.452 155.35 410.856 155.604 411.195 155.83Z" fill="#05537E"/>
<path d="M415.089 161.128C415.032 161.438 415.013 161.73 415.013 162.022C414.995 161.711 414.995 161.372 415.004 161.005C415.032 161.043 415.06 161.09 415.098 161.128H415.089Z" fill="#05537E"/>
<path d="M416.932 165.71C416.537 165.4 416.189 165.052 415.907 164.666C416.17 165.014 416.509 165.362 416.932 165.71Z" fill="#05537E"/>
<path d="M419.377 167.376C418.813 167.075 418.258 166.717 417.694 166.313C417.43 166.124 417.186 165.936 416.96 165.748C417.525 166.19 418.173 166.557 418.879 166.858C419.029 167.056 419.199 167.235 419.377 167.376Z" fill="#05537E"/>
<path d="M421.7 168.166C421.541 168.138 421.381 168.11 421.23 168.072C421.371 168.072 421.503 168.072 421.653 168.072C421.672 168.1 421.691 168.129 421.7 168.166Z" fill="#05537E"/>
<path d="M421.776 168.308C421.776 168.308 421.729 168.214 421.7 168.167C421.71 168.167 421.719 168.167 421.729 168.167C421.747 168.214 421.757 168.251 421.776 168.298V168.308Z" fill="#05537E"/>
<path d="M490.866 113.268C473.72 113.842 456.377 112.459 439.279 113.541C438.874 114.059 437.887 113.814 437.247 113.833L437.83 114.416C438.583 114.247 440.689 114.172 441.611 114.125C441.122 115.009 438.451 115.15 437.83 114.416C437.802 114.426 437.774 114.435 437.736 114.445C437.163 114.633 436.965 114.614 437.106 114.191C437.021 114.341 436.918 114.407 436.815 114.398C436.664 114.379 436.514 114.191 436.382 113.833C416.283 116.016 392.018 133.792 403.793 156.178C409.361 166.755 421.381 178.527 428.82 188.407C431.237 191.616 434.285 197.196 427.814 197.846C424.437 198.184 420.628 198.147 417.214 198.137C415.738 198.137 413.866 198.382 412.568 197.846C402.307 197.827 392.027 197.742 381.766 197.987L369.276 223.714L429.864 223.733C444.621 222.81 460.995 218.2 468.877 204.63C475.818 192.661 471.915 183.524 464.278 173.596C457.76 165.127 450.226 157.307 443.671 148.866C441.752 146.401 439.523 144.66 441.226 141.498C443.05 138.111 445.778 138.403 449.182 138.261C455.71 138.007 462.519 138.243 469.121 138.261H470.965C475.018 138.243 479.646 138.563 483.615 138.271C484.038 138.243 484.856 138.214 485.129 137.894L492.757 112.967C492.108 112.967 491.534 113.25 490.885 113.268H490.866ZM408.053 137.998C408.072 137.725 408.091 137.452 408.11 137.179C408.138 137.283 408.176 137.386 408.213 137.49C408.157 137.669 408.1 137.829 408.053 137.998C407.997 138.798 407.922 139.598 407.837 140.397C407.715 139.701 407.79 138.901 408.053 137.998ZM407.818 150.617C408.044 151.003 408.148 151.492 408.298 152.32C407.969 151.821 407.79 151.181 407.818 150.617ZM410.038 155.134C410.452 155.35 410.856 155.604 411.195 155.83C410.696 155.642 410.32 155.435 410.038 155.134ZM415.004 162.012C414.985 161.702 414.985 161.363 414.994 160.996C415.023 161.034 415.051 161.081 415.089 161.118C415.032 161.429 415.013 161.721 415.013 162.012H415.004ZM415.897 164.666C416.161 165.014 416.499 165.362 416.923 165.71C416.528 165.4 416.18 165.052 415.897 164.666ZM417.694 166.303C417.43 166.115 417.186 165.927 416.96 165.739C417.524 166.181 418.173 166.548 418.879 166.849C419.029 167.047 419.199 167.225 419.377 167.367C418.813 167.065 418.258 166.708 417.694 166.303ZM421.776 168.308C421.776 168.308 421.729 168.214 421.7 168.166C421.541 168.138 421.381 168.11 421.23 168.072C421.371 168.072 421.503 168.072 421.653 168.072C421.672 168.101 421.691 168.129 421.7 168.166C421.71 168.166 421.719 168.166 421.729 168.166C421.747 168.214 421.757 168.251 421.776 168.298C422.321 169.277 422.829 170.274 423.309 171.291C422.65 170.406 422.133 169.409 421.776 168.298V168.308ZM427.936 179.628C427.654 179.534 427.391 179.43 427.127 179.327C427.579 179.393 428.002 179.534 428.388 179.741C428.444 179.769 428.491 179.797 428.538 179.825C428.331 179.769 428.134 179.703 427.945 179.628H427.936ZM379.885 208.441C379.471 208.997 378.954 209.749 378.568 210.502C378.295 211.198 378.183 211.914 378.192 212.704C377.9 212.158 378.145 211.33 378.568 210.502C378.832 209.815 379.264 209.147 379.885 208.441C379.97 208.328 380.045 208.225 380.12 208.131C380.139 208.131 380.167 208.121 380.186 208.112C380.082 208.225 379.979 208.328 379.885 208.441ZM386.986 203.087L385.171 203.765C385.791 203.463 386.393 203.238 386.986 203.087ZM389.027 222.848C388.735 222.848 388.444 222.848 388.152 222.848C387.089 222.848 386.017 222.82 384.954 222.848C385.443 222.406 386.036 222.321 386.647 222.406C386.675 222.406 386.704 222.406 386.722 222.406C387.174 222.443 387.654 222.594 388.143 222.839C388.406 222.274 388.745 222.274 389.017 222.839C390.071 222.575 391.143 222.434 392.225 222.406C391.134 222.443 390.033 222.594 389.017 222.839L389.027 222.848ZM426.591 200.678C426.648 200.678 426.713 200.659 426.779 200.65C426.883 200.697 427.043 200.735 427.24 200.763C426.986 200.763 426.77 200.735 426.591 200.678ZM432.319 196.387V194.929C432.554 194.966 433.128 194.872 433.184 194.929C433.466 195.201 432.817 196.34 432.319 196.378V196.387ZM462.453 203.473C462.51 203.322 462.557 203.143 462.575 202.955C462.575 203.078 462.575 203.2 462.575 203.322C462.528 203.369 462.491 203.426 462.444 203.473C462.331 203.812 462.152 204.037 461.945 204.084C462.105 203.877 462.274 203.67 462.444 203.473H462.453ZM459.632 208.018C459.707 207.905 459.773 207.792 459.848 207.679C459.763 207.877 459.688 208.084 459.622 208.291C459.622 208.206 459.622 208.112 459.632 208.018ZM458.917 210.408C458.917 210.408 458.954 210.361 458.973 210.342C459.011 210.295 459.039 210.248 459.077 210.201C459.114 210.145 459.142 210.097 459.18 210.032C459.161 210.163 459.133 210.286 459.114 210.417C459.048 210.417 458.983 210.417 458.926 210.417C458.86 210.493 458.785 210.568 458.719 210.643C458.446 210.549 458.193 210.502 457.957 210.493C458.249 210.436 458.569 210.417 458.926 210.427L458.917 210.408ZM455.973 213.043C455.973 213.118 455.954 213.193 455.954 213.269C455.841 213.363 455.738 213.457 455.625 213.542C455.757 213.391 455.879 213.222 455.973 213.043ZM451.487 169.079C451.882 169.691 452.361 170.218 452.982 170.641C453.744 170.782 454.393 171.093 454.797 171.488C454.073 171.281 453.481 170.989 452.982 170.641C452.662 170.585 452.324 170.547 451.966 170.538C451.844 170.105 451.684 169.597 451.487 169.07C451.092 168.468 450.781 167.781 450.508 167.047C450.904 167.677 451.233 168.392 451.487 169.07V169.079ZM451.919 215.696L451.233 216.082C450.48 216.082 449.756 216.44 449.671 216.892C449.465 216.75 449.182 216.609 448.816 216.477C449.897 216.336 450.932 216.073 451.919 215.687V215.696ZM449.483 218.388C449.756 218.209 449.963 217.955 450.113 217.635C450.095 217.927 449.86 218.19 449.483 218.397C449.107 218.651 448.609 218.783 447.997 218.783C448.59 218.755 449.107 218.604 449.483 218.397V218.388ZM447.395 163.97V163.988C447.358 163.923 447.311 163.857 447.273 163.791C447.32 163.847 447.358 163.904 447.395 163.96V163.97ZM440.925 160.356C440.981 160.478 441.037 160.601 441.103 160.723L440.972 160.61C440.953 160.526 440.943 160.441 440.925 160.356C440.614 159.688 440.36 159.001 440.172 158.277C440.097 158.145 440.022 158.022 439.937 157.91C439.984 157.928 440.041 157.947 440.088 157.966C440.116 158.069 440.144 158.182 440.172 158.286C440.511 158.869 440.765 159.556 440.925 160.366V160.356ZM445.496 137.123C445.401 137.255 445.307 137.377 445.223 137.499C445.223 137.499 445.223 137.509 445.223 137.518C445.185 137.593 445.148 137.659 445.101 137.678C442.335 139.108 442.317 139.889 440.454 141.169L439.871 142.618C440.041 143.098 439.749 144.331 439.871 144.943C439.834 144.943 439.796 144.924 439.768 144.914C438.968 144.604 439.109 142.919 439.871 142.618C439.871 142.618 439.871 142.618 439.862 142.618C439.758 142.543 439.081 142.336 439.297 141.621C439.448 141.113 440.21 141.226 440.417 141.197C440.436 141.197 440.454 141.197 440.464 141.179L440.398 140.52C441.226 139.551 443.925 137.085 445.11 137.697C445.195 137.085 445.458 136.728 445.9 136.615C445.759 136.793 445.637 136.972 445.505 137.142L445.496 137.123ZM467.729 117.945L468.444 117.559C468.623 116.138 469.883 116.59 470.325 117.682C470.664 117.842 471.049 117.983 471.454 118.086C470.212 118.039 468.98 117.992 467.739 117.955H467.72C467.57 117.955 467.419 117.955 467.269 117.936C467.428 117.936 467.588 117.936 467.739 117.955L467.729 117.945ZM457.6 132.992C457.807 132.964 458.023 132.992 458.249 133.058C459.02 133.34 459.97 133.594 460.967 133.745C459.848 133.603 458.719 133.331 457.609 132.992H457.6ZM467.287 132.757L467.156 132.775C466.535 133.114 465.895 133.359 465.237 133.528C465.66 133.378 466.046 133.171 466.394 132.907L467.156 132.775C467.156 132.775 467.212 132.747 467.25 132.728C467.259 132.728 467.278 132.747 467.287 132.757L467.372 132.738C467.758 133.039 468.162 133.274 468.585 133.462C468.143 133.274 467.711 133.048 467.287 132.747V132.757ZM468.595 133.472C469.883 134.008 471.266 134.13 472.667 134.027C471.247 134.159 469.855 134.046 468.595 133.472ZM476.994 133.095C476.994 133.095 477.022 133.095 477.031 133.086C477.059 133.086 477.088 133.086 477.116 133.076C477.078 133.076 477.031 133.095 476.994 133.095ZM477.144 133.067C477.642 132.964 478.207 132.888 478.724 132.945C478.254 132.917 477.708 132.982 477.144 133.067ZM480.314 134.676C480.267 134.177 480.144 133.82 479.966 133.556C479.947 133.556 479.919 133.538 479.9 133.528C479.589 133.18 479.185 133.011 478.743 132.954C479.251 132.992 479.683 133.152 479.966 133.566C480.671 133.923 481.395 134.074 482.016 133.98C481.254 134.262 480.539 134.544 480.314 134.686V134.676ZM482.025 133.97C482.279 133.876 482.533 133.792 482.787 133.698C482.561 133.839 482.307 133.923 482.025 133.97ZM487.809 126.038C487.809 125.539 487.838 125.05 487.885 124.551C488.12 124.909 488.101 125.407 487.819 126.038H487.809Z" fill="#05537E"/>
<path d="M423.309 171.291C422.65 170.406 422.133 169.409 421.776 168.298C422.321 169.277 422.829 170.274 423.309 171.291Z" fill="#05537E"/>
<path d="M428.387 179.741C428.265 179.694 428.115 179.656 427.936 179.628C427.654 179.534 427.391 179.43 427.127 179.327C427.579 179.393 428.002 179.534 428.387 179.741Z" fill="#05537E"/>
<path d="M441.611 114.125C441.122 115.009 438.451 115.15 437.83 114.416C438.583 114.247 440.69 114.172 441.611 114.125Z" fill="#05537E"/>
<path d="M467.73 117.945H467.711C467.56 117.945 467.41 117.945 467.259 117.926C467.419 117.926 467.579 117.926 467.73 117.945Z" fill="#05537E"/>
<path d="M445.891 136.596C445.75 136.775 445.627 136.953 445.496 137.123C445.383 137.198 445.298 137.367 445.223 137.499C445.223 137.499 445.223 137.509 445.223 137.518C445.185 137.593 445.148 137.659 445.101 137.678C445.185 137.066 445.449 136.709 445.891 136.596Z" fill="#05537E"/>
<path d="M460.967 133.745C459.848 133.603 458.719 133.33 457.609 132.992C457.816 132.964 458.033 132.992 458.258 133.058C459.03 133.34 459.979 133.594 460.976 133.745H460.967Z" fill="#05537E"/>
<path d="M467.165 132.775C466.544 133.114 465.905 133.359 465.247 133.528C465.67 133.378 466.055 133.171 466.403 132.907L467.165 132.775Z" fill="#05537E"/>
<path d="M467.287 132.757L467.156 132.775C467.156 132.775 467.212 132.747 467.25 132.728C467.259 132.728 467.278 132.747 467.287 132.757Z" fill="#05537E"/>
<path d="M468.585 133.462C468.143 133.274 467.711 133.048 467.287 132.747L467.372 132.728C467.758 133.029 468.162 133.265 468.585 133.453V133.462Z" fill="#05537E"/>
<path d="M472.667 134.017C471.247 134.149 469.855 134.036 468.595 133.462C469.883 133.999 471.266 134.121 472.667 134.017Z" fill="#05537E"/>
<path d="M477.116 133.076C477.116 133.076 477.031 133.095 476.994 133.095C477.012 133.095 477.022 133.095 477.031 133.086C477.059 133.086 477.088 133.086 477.116 133.076Z" fill="#05537E"/>
<path d="M478.724 132.945C478.254 132.917 477.708 132.982 477.144 133.067C477.643 132.964 478.207 132.888 478.724 132.945Z" fill="#05537E"/>
<path d="M479.975 133.556C479.975 133.556 479.928 133.538 479.909 133.528C479.599 133.18 479.194 133.011 478.752 132.954C479.26 132.992 479.693 133.152 479.975 133.566V133.556Z" fill="#05537E"/>
<path d="M482.016 133.97C481.254 134.253 480.539 134.535 480.314 134.676C480.267 134.177 480.144 133.82 479.966 133.556C480.671 133.914 481.395 134.065 482.016 133.97Z" fill="#05537E"/>
<path d="M482.787 133.698C482.561 133.839 482.308 133.923 482.025 133.97C482.279 133.876 482.533 133.792 482.787 133.698Z" fill="#05537E"/>
<path d="M487.81 126.038C487.81 125.539 487.838 125.05 487.885 124.551C488.12 124.909 488.101 125.407 487.819 126.038H487.81Z" fill="#05537E"/>
<path d="M440.172 158.277C440.097 158.145 440.022 158.022 439.937 157.91C439.984 157.928 440.041 157.947 440.088 157.966C440.116 158.07 440.144 158.182 440.172 158.286V158.277Z" fill="#05537E"/>
<path d="M440.925 160.356C440.614 159.688 440.36 159.001 440.172 158.276C440.511 158.86 440.765 159.547 440.925 160.356Z" fill="#05537E"/>
<path d="M441.104 160.723L440.972 160.61C440.953 160.525 440.944 160.441 440.925 160.356C440.981 160.478 441.038 160.601 441.104 160.723Z" fill="#05537E"/>
<path d="M447.395 163.97V163.988C447.358 163.923 447.311 163.857 447.273 163.791C447.32 163.847 447.358 163.904 447.395 163.96V163.97Z" fill="#05537E"/>
<path d="M451.487 169.079C451.092 168.477 450.781 167.79 450.509 167.056C450.904 167.687 451.233 168.402 451.487 169.079Z" fill="#05537E"/>
<path d="M452.992 170.641C452.672 170.585 452.333 170.547 451.976 170.538C451.854 170.105 451.694 169.597 451.496 169.07C451.891 169.681 452.371 170.208 452.992 170.632V170.641Z" fill="#05537E"/>
<path d="M454.807 171.488C454.083 171.281 453.49 170.989 452.992 170.641C453.754 170.782 454.402 171.093 454.807 171.488Z" fill="#05537E"/>
<path d="M449.483 218.388C449.107 218.642 448.609 218.774 447.997 218.774C448.59 218.745 449.107 218.595 449.483 218.388Z" fill="#05537E"/>
<path d="M450.114 217.635C450.095 217.917 449.86 218.19 449.483 218.388C449.756 218.209 449.963 217.955 450.114 217.635Z" fill="#05537E"/>
<path d="M451.919 215.696L451.233 216.082C450.48 216.082 449.756 216.44 449.672 216.891C449.465 216.75 449.182 216.609 448.816 216.477C449.897 216.336 450.932 216.073 451.919 215.687V215.696Z" fill="#05537E"/>
<path d="M455.973 213.043C455.973 213.118 455.954 213.193 455.954 213.269C455.841 213.363 455.738 213.457 455.625 213.542C455.757 213.391 455.879 213.222 455.973 213.043Z" fill="#05537E"/>
<path d="M458.917 210.408C458.851 210.483 458.776 210.559 458.71 210.634C458.437 210.54 458.183 210.493 457.948 210.483C458.24 210.427 458.559 210.408 458.917 210.417V210.408Z" fill="#05537E"/>
<path d="M459.171 210.032C459.152 210.163 459.124 210.286 459.105 210.417C459.039 210.417 458.973 210.417 458.917 210.417C458.936 210.399 458.954 210.37 458.973 210.352C458.992 210.352 459.001 210.333 459.011 210.333C459.03 210.314 459.058 210.276 459.067 210.21C459.105 210.154 459.133 210.107 459.171 210.041V210.032Z" fill="#05537E"/>
<path d="M459.839 207.679C459.754 207.877 459.679 208.084 459.613 208.291C459.613 208.206 459.613 208.112 459.622 208.018C459.697 207.905 459.763 207.792 459.839 207.679Z" fill="#05537E"/>
<path d="M462.453 203.473C462.34 203.812 462.162 204.037 461.955 204.084C462.114 203.877 462.284 203.67 462.453 203.473Z" fill="#05537E"/>
<path d="M462.576 203.322C462.528 203.369 462.491 203.426 462.444 203.473C462.5 203.322 462.547 203.144 462.566 202.955C462.566 203.078 462.566 203.2 462.566 203.322H462.576Z" fill="#05537E"/>
<path d="M467.73 117.945H467.711C467.56 117.945 467.41 117.945 467.259 117.926C467.419 117.926 467.579 117.926 467.73 117.945Z" fill="#05537E"/>
<path d="M471.445 118.077C470.203 118.03 468.971 117.983 467.729 117.945L468.444 117.559C468.623 116.138 469.883 116.59 470.325 117.682C470.664 117.842 471.05 117.983 471.454 118.086L471.445 118.077Z" fill="#05537E"/>
<path d="M487.81 126.038C487.81 125.539 487.838 125.05 487.885 124.551C488.12 124.909 488.101 125.407 487.819 126.038H487.81Z" fill="#05537E"/>
<path d="M392.234 222.415C391.143 222.453 390.043 222.603 389.027 222.848C390.08 222.585 391.152 222.443 392.234 222.415Z" fill="#05537E"/>
<path d="M388.152 222.848C387.089 222.848 386.017 222.82 384.954 222.848C385.443 222.406 386.036 222.321 386.647 222.406C386.676 222.406 386.704 222.406 386.723 222.406C387.174 222.443 387.654 222.594 388.143 222.839L388.152 222.848Z" fill="#05537E"/>
<path d="M440.445 141.16L439.862 142.609C439.862 142.609 439.862 142.609 439.853 142.609C439.749 142.534 439.072 142.327 439.288 141.611C439.439 141.103 440.201 141.216 440.407 141.188C440.426 141.188 440.445 141.188 440.454 141.169L440.445 141.16Z" fill="#05537E"/>
<path d="M432.319 196.387V194.928C432.554 194.966 433.128 194.872 433.184 194.928C433.466 195.201 432.817 196.34 432.319 196.378V196.387Z" fill="#05537E"/>
<path d="M123.763 74.5933C123.556 75.2614 123.01 75.1579 122.474 75.1955C114.452 75.7319 103.231 75.5813 95.1429 75.1955C94.1836 75.1485 92.7164 74.9226 91.8135 74.6027C102.46 74.6027 113.126 74.6027 123.772 74.6027L123.763 74.5933Z" fill="#05537E"/>
<path d="M139.169 74.5931L132.359 75.186C130.318 75.1107 128.268 75.2424 126.227 75.1672C125.672 75.1483 125.061 75.4683 125.221 74.5837C129.867 74.5837 134.522 74.5837 139.169 74.5837V74.5931Z" fill="#05537E"/>
<path d="M281.676 85.3583C279.24 95.7376 267.437 100.781 257.702 98.0054C237.547 92.2559 241.3 62.6896 262.301 62.172C275.44 61.8427 284.752 72.2596 281.676 85.3583Z" fill="#05537E"/>
<path d="M536.133 97.3091C516.072 92.19 518.348 62.9625 539.745 61.0146C548.37 60.2336 557.747 66.256 559.778 74.8097C563.155 89.0376 549.997 100.847 536.133 97.3091Z" fill="#05537E"/>
<path d="M269.318 123.14C268.979 123.591 267.691 121.568 267.869 121.399C268.904 121.446 269.525 122.067 269.318 123.14Z" fill="#05537E"/>
<path d="M108.517 176.626C107.718 176.447 108.592 175.478 108.809 175.469C109.382 175.469 109.335 176.805 108.517 176.626Z" fill="#05537E"/>
<path d="M580.535 68.8343C580.742 68.4955 582.012 68.1756 582.379 66.7547C583.018 64.2892 582.633 61.645 579.755 61.2216C578.269 61.0051 575.861 61.2216 574.234 61.2216C573.369 61.2216 574.084 63.734 574.102 64.261C574.187 66.8205 574.149 69.5588 574.102 72.1372C574.093 72.6265 573.529 74.4238 574.281 74.612C574.667 74.7061 575.833 74.5461 575.833 74.1603V69.8035C575.833 69.3048 577.093 69.2671 577.582 69.5118C578.043 69.7376 581.89 76.127 583.094 74.8849C583.592 73.3323 579.905 69.8788 580.535 68.8343ZM575.833 68.2038V62.9718C578.805 62.7178 581.796 62.8119 580.545 66.67C579.764 69.0695 577.752 68.2979 575.833 68.2038Z" fill="#EAF5F4"/>
<path d="M580.535 68.8343C580.742 68.4955 582.012 68.1756 582.379 66.7547C583.018 64.2892 582.633 61.645 579.755 61.2216C578.269 61.0051 575.861 61.2216 574.234 61.2216C573.369 61.2216 574.084 63.734 574.102 64.261C574.187 66.8205 574.149 69.5588 574.102 72.1372C574.093 72.6265 573.529 74.4238 574.281 74.612C574.667 74.7061 575.833 74.5461 575.833 74.1603V69.8035C575.833 69.3048 577.093 69.2671 577.582 69.5118C578.043 69.7376 581.89 76.127 583.094 74.8849C583.592 73.3323 579.905 69.8788 580.535 68.8343ZM575.833 68.2038V62.9718C578.805 62.7178 581.796 62.8119 580.545 66.67C579.764 69.0695 577.752 68.2979 575.833 68.2038Z" fill="#0B1D31"/>
</g>
<defs>
<clipPath id="clip0_12_340">
<rect width="589" height="393" fill="white"/>
</clipPath>
</defs>
</svg>
