<svg width="704" height="393" viewBox="0 0 704 393" fill="none" xmlns="http://www.w3.org/2000/svg">
<g clip-path="url(#clip0_12_229)">
<path d="M492.12 0C491.82 0.93 493.62 0.88 494.13 0.94C497.96 1.34 501.63 1.84 505.43 2.47C508.6 2.99 511.51 3.62 514.45 4.19C557.6 12.54 602.03 35.01 631.25 67.94C632.65 69.52 634.99 71.13 635.25 73.12C632.87 71.28 631.06 68.71 628.89 66.66C620.35 58.59 610.67 52.02 600.66 46.12C541.2 14.01 462.34 10.02 396.26 25.26C375.21 30.12 354.26 37.37 335.75 46.81C322.72 53.46 310.73 62.2 299.51 71.37C298.54 72.16 297.44 72.89 296.32 73.47C296.09 73.22 297.11 71.93 297.35 71.66C298.41 70.49 300.15 69.4 301.18 68.47C330.75 41.74 365.46 21.8 403.86 10.34C419.23 5.75 434.51 3.24 450.38 0.7C451.03 0.6 451.77 1.09 451.57 0L492.12 0Z" fill="#B4B8BD"/>
<path d="M426.27 393C427.09 390.38 425.97 391.62 425.62 391.25C425.27 390.88 425.84 387.44 425.96 386.63C426.95 380.19 428.84 374.14 430.05 367.85C432.09 357.33 433.58 346.23 435.99 335.66C436.48 333.51 437.5 331.4 437.9 329.22C441.35 329.59 445.65 328.76 448.98 329.22C449.47 329.29 449.88 329.28 450.19 329.75L469.07 368.05C469.75 368.1 469.76 367.65 469.91 367.16C471.31 362.58 471.83 357.53 472.81 352.73C474.26 345.67 475.95 338.15 477.55 331.42C477.68 330.89 477.44 329.35 477.55 329.23C478 328.78 488.13 329.72 489.68 329.58C490.08 331.29 488.94 332.91 488.66 334.28C484.76 352.99 481.51 371.94 477.55 390.58C477.47 390.85 477.34 391.25 477.13 391.26C475.74 391.32 466.95 391.2 466.26 390.94L465.77 390.23C464.91 390.45 463.82 388.64 463.45 387.85C458.13 375.72 452.23 363.33 445.94 352.04C443.17 365.3 440.67 378.58 438.46 391.87L437.7 393.01H426.26L426.27 393Z" fill="#B7B9BB"/>
<path d="M381.22 393L381.91 391.27C380.47 391.88 379.83 390.68 379.57 390.6C376.72 389.72 373.64 387.75 372.25 385.09C368.21 377.37 370.91 363.32 372.8 355.65C374.5 348.71 377.42 340.29 382.8 335.49C390.96 328.2 403.5 327.74 414.31 328.55C416.78 328.74 420.37 328.91 422.66 329.21C423.3 329.29 423.11 329.86 423.39 329.92C424.05 330.07 424.88 329.85 425.58 329.92C426.11 331.27 425.01 331.62 424.91 331.92C424.8 332.25 424.91 332.71 424.78 333.1C423.89 335.72 422.81 338.3 422.07 340.97C421.88 341.1 417.97 341.11 417.41 341.04C416.75 340.96 417.08 340.38 416.42 340.29C411.45 339.66 401.79 339.18 397.06 340.33C396.8 340.39 396.86 340.89 396.56 340.99C392.19 342.45 389.53 344.97 387.67 349.37C385.58 354.3 382.72 368.63 383.28 373.79C383.61 376.81 386.86 381.23 389.81 381.81C394.27 382.69 400.79 381.36 405.48 381.91L409.69 360.48C410.8 359.74 411.8 360.42 412.92 360.44C415.75 360.5 418.6 360.36 421.43 360.42L415.58 390.37C415.2 390.9 412.75 390.4 411.97 390.58C411.69 390.65 411.88 391.21 411.24 391.29C410.34 391.41 409.22 391.15 408.27 391.27L408.62 393H381.24H381.22Z" fill="#B6B8BB"/>
<path d="M294.92 393C296.1 389.76 290.45 390.87 288.86 390.57C286.77 390.18 289.13 387.57 289.56 386.43C289.99 385.29 290.18 383.39 290.48 382.15C290.69 381.3 291.76 380.62 291.45 379.48L296.84 380.85C299.91 380.69 302.93 381.52 305.82 381.92C308.02 382.23 315.74 382.21 317.99 381.92C318.16 381.9 320.64 380.39 320.98 380.13C323.54 378.2 326.05 371.4 323.42 369.06C323.15 368.82 320.93 367.48 320.66 367.41C319.98 367.23 319.3 367.45 318.73 367.32C318.47 367.26 318.51 366.7 318.26 366.64C315.34 365.96 311.89 365.72 308.99 364.89C306.51 364.17 298.82 361.73 297.46 359.61C297.34 359.43 295.63 355.96 295.61 355.74C294.72 348.64 297.46 337.77 303.53 333.38C313.21 326.38 326.25 328.62 337.39 329.91C339.17 330.12 341.29 329.74 343.12 329.9C343.65 331.25 342.55 331.6 342.45 331.9C342.34 332.23 342.45 332.69 342.32 333.08C341.48 335.64 340.13 338.28 339.96 340.96C338.61 341.65 337.52 341.02 336.35 341C335.12 340.97 332.92 341.23 331.91 341C331.63 340.93 331.82 340.37 331.18 340.29C327.82 339.85 317.61 339.54 314.61 340.34C314.34 340.41 314.39 340.85 314.08 340.98C313.67 341.15 313.13 340.93 312.41 341.33C311.75 341.7 309.41 345.03 309.22 345.77C309.04 346.45 309.26 347.13 309.13 347.7C309.08 347.94 308.12 347.85 308.42 349.86C308.43 349.95 309.3 351.35 309.37 351.41C309.63 351.63 312.09 352.78 312.59 352.97C318.56 355.26 328.13 355.79 333.63 359.14C333.79 359.24 336.36 361.35 336.44 361.52C336.65 361.92 336.4 362.51 336.52 362.93C336.61 363.23 337.08 363.2 337.17 363.46C338.79 368.1 337.83 374.68 336.18 378.98C334.4 383.6 331.02 388.43 326.26 390.2C325.66 390.42 323.6 391.22 323.44 391.25C322.06 391.56 320.25 390.43 320.56 392.99H294.91L294.92 393Z" fill="#B6B8BB"/>
<path d="M108.82 393C109.16 390.42 107.08 391.52 105.54 391.25C105.02 391.16 104.65 390.68 104.12 390.59C103.09 390.41 101.68 390.89 100.83 390.01C100.52 388.83 101.34 388.92 101.51 388.57C102.09 387.34 105.26 379.86 105.7 379.63C106.27 379.3 106.65 380.05 107.28 380.17C110.75 380.8 114.5 381.44 117.99 381.93C120.16 382.24 129.76 382.25 131.85 381.89C132.08 381.85 134.59 380.87 134.72 380.77C135.93 379.82 138.09 375.65 138.3 374.13C138.4 373.42 138.4 370.61 138.22 370.02C137.85 368.85 132.67 367.13 131.43 366.76C126.4 365.26 121.58 364.74 116.87 362.54C113.45 360.94 111.05 359.42 110.3 355.32C109.68 351.94 111.49 345.1 112.84 342.08C120.34 325.21 140.82 328.03 156.05 330.02C156.91 330.13 157.8 330.62 158.71 330.65C159.15 331.17 157.96 334.12 157.66 334.86C157.28 335.81 155.47 338.74 155.28 339.54C155.17 339.97 155.36 340.93 155.28 341.03C155.05 341.28 149.21 341.14 148.5 341.05C146.03 340.7 143.53 340.1 140.91 339.98C137.79 339.84 132.12 339.71 129.18 340.35C128.93 340.4 128.93 340.89 128.67 341.01C128.23 341.22 127.72 341.15 127.3 341.48C126.94 341.76 125.79 343.68 125.46 344.24C125.15 344.75 123.98 346.63 123.81 347.17C123.08 349.51 123.78 351.01 125.77 352.08C131.67 355.27 139.7 355.38 146.16 358.3C146.89 358.63 148.2 359.34 148.83 359.81C149.22 360.1 151.77 363.23 151.81 363.46C153.16 370.26 150.16 381.85 144.9 386.63C142.29 389.01 140.5 389.76 137.16 390.61C136.88 390.68 136.93 391.22 136.68 391.28C134.95 391.69 133.32 390.16 133.8 393.02H108.85L108.82 393Z" fill="#B7B8BA"/>
<path d="M55.45 393L55.8 391.27C55.61 391.1 53.24 391.42 52.57 391.27C52.31 391.21 52.36 390.66 52.09 390.59C51.15 390.36 48.53 391.08 48.19 390.02C47.85 388.96 49.81 386.9 49.93 385.66C51.09 385.16 51.55 379.92 51.95 379.64C53.37 378.65 54.16 380.14 54.29 380.18C57.47 380.92 62.87 380.59 65.6 381.23C65.88 381.3 65.69 381.86 66.33 381.94C68.28 382.2 75.18 382.2 77.11 381.94C78.2 381.79 80.77 380.89 81.68 380.29C84.27 378.59 86.16 373.69 85.57 370.66C85.31 369.33 82.62 367.95 81.42 367.53C75.84 365.58 70.32 365.2 64.82 362.99C62.47 362.04 58.94 360.43 58.28 357.75C57.17 353.25 58.44 346.11 60.12 342.09C64.82 330.82 77.17 328 88.53 328.54C92.34 328.72 96.32 329.46 99.97 329.92C101.12 330.07 105.61 329.72 105.7 331.16C105.74 331.85 105.18 332.18 105.07 332.63C104.49 334.98 103.74 337.36 102.58 339.56C102.38 339.94 102.35 340.85 102.16 340.98C101.9 341.17 96.47 341.14 95.77 341.05C95.07 340.96 95.44 340.39 94.78 340.3C93.41 340.13 91.7 340.46 90.25 340.32C85.67 339.9 81.0499 339.38 76.4499 340.33C76.2699 340.37 73.75 342.2 73.43 342.57C71.6 344.78 69.7 349.71 72.14 352C73.15 351.98 73.7199 352.69 74.4499 352.99C78.5499 354.63 84.06 355.26 88.56 356.55C90.92 357.23 95.58 358.81 97.23 360.56C97.59 360.94 98.13 362.45 98.38 362.96C98.47 363.15 98.92 363.17 98.97 363.29C99.52 364.58 99.98 367.22 99.78 368.59C98.96 374.23 96.33 381.92 92.33 386.09C91.15 387.32 88.02 389.98 86.56 390.36C85.65 390.6 84.76 390.42 84.06 390.59C83.79 390.66 83.84 391.2 83.58 391.27C82.93 391.43 82.08 391.19 81.39 391.27L81.73 393H55.39H55.45Z" fill="#B8B9BB"/>
<path d="M344.13 393C344.28 391.18 343.91 389.08 344.15 387.3C344.22 386.8 344.71 386.41 344.81 385.88C347.13 372.18 349.73 359.03 352.43 345.67C353.28 341.43 354.32 337.4 355.15 333.14C355.35 332.12 355.07 331.07 355.24 330.18C355.25 330.12 355.86 329.24 355.92 329.24H367.88C368 329.24 368.75 329.98 368.69 330.38C368.65 330.62 368.24 330.94 368.17 331.26C363.89 350.48 360.47 370.5 356.95 390.05C356.78 391 355.97 391.85 356.27 393.01H344.14L344.13 393Z" fill="#B7B9BC"/>
<path d="M0.35 389.19C10.54 390.07 20.81 390.2 31.15 389.57C34.66 389.22 37.96 389.53 41.05 390.49C41.41 389.93 41.82 389.73 42.28 389.88C42.1 390.89 41.96 391.97 41.93 393H0V389.19H0.35Z" fill="#CED1D4"/>
<path d="M230.57 332.07C225.56 329.37 221.04 330.24 215.72 329.94C208.34 329.51 199.84 328.56 192.48 329.21C191.6 329.29 191.72 329.56 191.07 330.02C190.44 332.05 190.34 334.26 189.89 336.31C186.78 350.35 184.12 364.36 181.58 378.25C180.99 381.45 179.87 384.82 179.86 388.14C179.86 388.95 179.86 389.76 179.86 390.57C191.49 390.08 203.65 391.22 215.21 390.57C225.41 389.99 230.55 380.62 233.6 372.12C234.83 368.68 235.96 365.21 236.67 361.61C238.51 352.25 240.87 337.64 230.57 332.08V332.07ZM224.95 354.38C224.87 355.02 224.29 354.83 224.24 355.11C223.89 356.7 223.67 358.83 223.28 360.68C221.99 366.8 220.93 374.68 215.14 378.87C212.44 380.82 211.61 380.52 208.87 381.2C208.5 381.29 208.68 381.9 208.64 381.9H193.74L201.37 340.57C201.87 339.23 209.33 339.54 210.91 339.61C212.73 339.69 217.22 339.96 218.8 340.32C219.05 340.38 218.99 340.92 219.29 341C219.71 341.11 220.19 340.91 220.69 341.1C220.94 341.2 224 344.63 224.16 345.08C224.33 345.59 224.14 346.19 224.26 346.65C224.33 346.95 224.88 346.75 224.97 347.39C225.14 348.7 225.14 353.06 224.97 354.37L224.95 354.38Z" fill="#B4B7BA"/>
<path d="M583.02 369.08C583.26 369.02 583.28 368.58 583.39 368.53C588.1 366.49 589.85 365.24 592.3 360.61C595.5 354.57 596.65 346.44 596.09 339.46C595.95 337.74 595.42 337.49 595.07 336.6C594.93 336.27 595.16 335.7 594.96 335.2C594.88 334.99 592 332.47 591.58 332.18C587.58 329.51 580.08 329.7 575.14 329.56C569.02 329.39 562.86 329.76 556.74 329.59C555.32 329.55 553.79 328.96 552.24 329.21C550.5 329.49 550.95 333.7 550.68 334.89C547.71 347.97 544.79 362.63 542.33 376.16C541.5 380.73 540.83 384.54 539.74 388.83C539.58 389.47 539.62 389.96 539.59 390.58L552.41 390.23C553.44 385.53 553.96 380.8 554.8 376.16C555.02 374.92 554.96 372.02 556.38 371.84C557.94 371.65 562.84 371.64 564.39 371.84C565.03 371.92 564.85 372.49 565.12 372.55C565.82 372.71 567.15 372.33 567.6 372.62C568.05 372.9 571.86 380.9 572.47 382.13C573.81 384.84 575.25 388 576.32 390.58C580.05 391.07 585.44 389.93 588.95 390.56C589.24 390.61 589.12 392.59 590.18 392.66L589.84 388.85C588.69 386.07 587.44 383.3 586.16 380.58C585.15 378.42 582.16 373.69 581.69 371.88C581.56 371.38 581.38 369.23 581.52 369.09C581.62 369 582.58 369.19 583.01 369.09L583.02 369.08ZM579.34 359.62C578.69 360.35 576.15 361.3 575.14 361.48C571.46 362.12 563.12 362.61 559.51 362.17C557.86 361.97 558.22 360.68 558.3 359.19C558.53 354.83 560.49 346.06 561.76 341.85C561.89 341.42 561.67 340.83 561.82 340.37C562.4 340.07 563.03 340.01 563.67 339.96C567.21 339.7 572.96 339.7 576.5 339.98C580.29 340.28 582.8 341.24 583.22 345.39C583.59 349.03 581.78 356.87 579.34 359.62Z" fill="#B6B8BA"/>
<path d="M0.349823 389.19L14.9798 329.31L55.8198 329.79C55.7398 330.8 55.9098 331.84 55.7698 332.84C55.6198 333.91 55.0198 336.63 54.7298 337.69C54.5398 338.4 53.7498 340.87 53.1198 340.99L27.1898 341.03C23.6498 339.32 24.7398 341.52 24.2498 343.59C23.6198 346.25 22.4898 349.38 21.8598 351.65C21.7698 351.98 21.5298 353.85 21.8198 354.01L44.0198 354.52C44.1498 354.65 43.7598 357.72 43.6598 358.08C43.3298 359.26 42.6298 361.09 42.2298 362.6C41.9998 363.48 42.1198 365.31 41.3798 365.56L18.3798 365.61L15.6098 381.21H43.6798C44.1898 382.71 43.1798 383.85 42.9998 384.86C42.7198 386.42 42.5798 388.24 42.2898 389.87C41.0598 392.33 41.1098 390.79 39.3598 390.54C33.8298 389.76 24.8698 390.66 18.8798 390.57C13.6498 390.5 7.04982 390.69 1.90982 390.21C1.15982 390.14 0.239823 390.08 0.349823 389.17V389.19Z" fill="#B5B8BB"/>
<path d="M240.17 390.23C240.53 384.78 241.92 379.76 242.92 374.44C245.1 362.85 247.22 351.82 249.5 340.47C250.21 336.96 250.74 333.39 251.49 329.9C252.18 329.45 252.67 329.29 253.49 329.21C257.15 328.86 261.25 329.84 264.93 329.94C272.3 330.15 279.19 329.44 286.42 329.22C288.67 329.15 290.94 329.3 293.19 329.23C293.19 333.08 291.88 336.6 291.45 340.32C291.29 340.49 287.52 340.2 286.75 340.29C286.09 340.37 286.42 340.95 285.76 341.04C282.58 341.44 271.92 341.44 268.73 341.04C268.07 340.96 268.4 340.38 267.74 340.29C266.63 340.15 262.09 340.03 261.76 341.1L260.6 350.12C259.62 350.2 259.75 353.43 259.96 353.78C260.77 355.07 279.34 354.31 282.09 354.52C282.09 355.26 282.14 356 282.05 356.74C281.81 358.79 280.91 361.08 280.38 363.04C280.15 363.9 280.73 365.12 279.42 365.55L257.46 365.77C256.76 366.28 256.61 370.14 256.43 370.98C256.04 372.75 254.98 375.51 254.73 377.25C254.55 378.51 254.81 379.93 254.71 381.22H282.78C282.67 382.27 282.94 383.52 282.8 384.53C282.64 385.67 282.28 386.71 282.09 388.15L281.2 390.6L240.16 390.23H240.17Z" fill="#B6B9BB"/>
<path d="M489.34 388.84C489.75 384.02 491.14 379.36 492.09 374.44C494.44 362.33 496.6 348.64 499.73 336.62C499.53 335.43 500.45 330.16 501.26 329.55L542.36 329.93C543.04 330.62 540.27 338.83 540.63 340.33C540.44 340.52 536.1 340.19 535.23 340.3C534.57 340.38 534.9 340.96 534.24 341.05C530.39 341.54 517.25 341.54 513.4 341.05C512.77 340.97 512.92 340.5 512.81 340.44C510.44 339.24 511 343.65 510.8 344.64C510.47 346.28 509.33 348.88 509.1 350.57C508.93 351.83 509.17 353.25 509.08 354.54H531.26C531.57 355.7 530.76 356.54 530.59 357.51C530.26 359.46 529.91 361.2 529.53 362.75C529.38 363.36 529.67 365.49 529.53 365.63L506.64 365.79C506.17 366.1 505.86 368.32 505.71 369.02C505.3 370.92 505.22 372.9 504.9 374.79C504.54 376.9 503.39 378.85 503.89 381.23H531.79C532.45 381.23 532.05 384.53 531.94 385.2C531.72 386.64 531.48 388.08 531.27 389.55L529.73 390.61L489.53 390.59C489.19 390.54 489.3 389.25 489.33 388.85L489.34 388.84Z" fill="#B5B7BA"/>
<path d="M230.21 133C225.68 154.76 209.38 166.53 192.11 177.9C191.44 178.34 189.98 179.29 189.93 180.03C189.82 181.55 192.52 182.41 193.28 183.09C207.29 195.52 214.43 215.55 209.64 234.07C200.06 271.17 162.53 281.82 128.41 283.15C94.6302 284.46 60.0102 282.12 26.1402 283.15C23.5202 282.95 26.0902 279.13 26.5602 277.64C28.3502 271.89 30.0102 266.08 31.7702 260.32C42.6902 224.61 53.7702 188.64 64.8402 152.69C65.4202 151.85 66.1102 151.85 67.0302 151.76C80.9302 150.48 96.8602 152.57 111.07 152.14C112.09 152.11 116.04 151.08 116.4 152.34L88.0602 245.3C88.4302 245.88 95.2802 245.76 96.5202 245.71C108.78 245.25 127.98 244.88 139.31 241.54C151.96 237.81 162.75 224.31 155.94 211.04C153.26 205.83 146.47 200.34 141.64 197.09C133.79 191.79 124.82 188.01 116.08 184.36C115.28 182.87 117.04 182.92 117.81 181.93C128.23 178.16 140.07 171.4 149.63 166.03C158.04 161.3 171.34 156.03 170.49 144.51C170.29 141.87 168.81 139.61 166.33 138.62C162.42 134.94 155.69 134.23 150.58 133.41H44.1802L43.7002 132.95C47.7502 121.93 51.5702 110.83 55.6202 99.81C56.3302 97.88 56.4302 96.86 57.4902 95.02C57.7402 94.59 57.3302 93.55 58.3902 93.56H191.82C215.76 96.08 236.04 104.97 230.21 133Z" fill="#035187"/>
<path d="M117.73 181.98C117.73 181.98 117.8 181.96 117.83 181.95C117.06 182.93 115.3 182.89 116.1 184.38C115.13 183.49 115.68 182.69 117.74 181.99L117.73 181.98Z" fill="#035187"/>
<path d="M170.51 144.52C169.87 142.1 168.48 139.98 166.35 138.63C168.82 139.62 170.31 141.88 170.51 144.52Z" fill="#035187"/>
<path d="M303.24 229.77C299.42 203.83 309.1 177.34 329.73 160.94C345.62 148.3 366.24 143.75 386.23 142.77L448.1 142.79C448.44 143.12 446.8 146 446.46 146.53C444.13 150.2 440.94 153.72 438.53 157.48C435 161.94 431.65 169.02 428 173.11C427.13 174.08 426.69 174.23 425.41 174.34C421.01 174.74 415.39 174.32 410.82 174.34C388.63 174.42 363.73 170.73 352.71 194.88C341.66 219.09 356.17 239.13 379.45 246.6C384.2 248.12 390.59 249.37 395.93 249.87C400.71 250.32 405.51 250.22 410.31 250.22C410.53 252.23 408.9 253.78 408.09 255.46C406.53 258.71 405.06 262.32 403.43 265.69C400.95 270.78 398.38 275.87 395.68 280.84L394.21 281.42C386.91 280.92 378.86 282.03 371.65 281.42C341.47 278.85 314.71 266.62 304.95 236.35L303.22 229.77H303.24Z" fill="#035187"/>
<path d="M649.11 141.05L605.44 281.41H565.24L608.56 141.05H649.11Z" fill="#035187"/>
<path d="M230.12 238.78C239.44 208.54 248.26 178.11 258.02 147.99C258.33 147.05 259.14 142.09 260.1 142.09H299.78C300.12 145.02 298.32 147.73 297.53 150.41C293.1 165.27 288.31 180.52 283.87 195.03C275.53 222.24 267.96 251.61 258.3 278.57C258.12 279.08 258.02 281.41 256.98 281.41H217.3C216.97 279.19 218.31 277.26 218.92 275.23C221.69 265.95 224.5 256.7 227.35 247.45C228.07 244.5 228.99 241.61 230.12 238.79V238.78Z" fill="#035187"/>
<path d="M577.37 147.29C577.6 146.39 577.64 145.8 578.06 144.86L577.55 143.47C556.85 144.25 535.38 142.61 514.6 143.39C511.96 143.51 509.31 143.66 506.67 143.82C506.33 143.84 505.97 143.8 505.63 143.82L501.28 145.19C499.19 145.09 497.25 145.81 495.23 146.25C495.12 146.27 494.99 146.23 494.88 146.25L490.37 147.98C487.42 148.88 484.41 150.57 481.71 152.14C481.85 153.22 480.1 153.45 479.35 153.84C479.33 153.85 479.3 153.86 479.28 153.87C479.23 153.94 479.33 154.25 479.04 154.57C478.65 154.98 477.47 155.5 476.86 155.61C474.81 157.16 473.36 158.54 471.66 160.46C471.61 160.88 470.74 162.33 470.54 162.46C470.29 162.63 470.02 162.49 469.93 162.54C467.59 167.38 464.18 171.76 463.08 177.35C462.87 178.43 463.46 180.01 462.31 180.56C462.25 181.89 462.25 183.39 462.31 184.72C463.39 184.53 462.95 185.26 463 185.92C463.15 187.75 463.53 189.55 464.04 191.31C464.71 193.62 465.23 194.54 466.47 196.51C467.59 198.28 468.91 199.85 469.94 201.71C469.99 201.8 469.89 201.97 469.94 202.06C471.03 202.5 471.21 203.39 471.67 204.14C472.55 205.55 473.03 206.29 474.1 207.61C475.05 208.77 475.99 209.91 476.87 211.08C477.09 211.37 477.29 211.76 477.56 212.12C478.64 212.18 479.16 213.25 479.29 214.2C479.82 214.79 480.42 215.6 481.02 216.28C482.22 217.61 483.35 218.86 484.49 220.44C485.31 221.57 486.1 222.76 486.92 223.91C488.74 224.33 489.48 226.77 490.39 228.07C492.38 229.26 495.09 233.12 496.28 235.35C496.33 235.44 496.23 235.6 496.28 235.7C497.85 235.49 497.6 236.64 498.01 237.43C498.09 237.48 498.38 237.34 498.62 237.5C498.87 237.67 502 242.23 502.09 242.53C502.41 243.63 502.01 245.59 501.28 246.43C500.94 246.82 500.49 246.73 500.44 246.79C500.24 246.98 499.85 247.3 499.75 247.48C498.9 248.97 499 248.27 498.68 248.72C498.42 249.08 498.49 250.14 498.03 250.45C497.42 250.87 496.72 250.26 496.17 250.35C494.3 250.66 494.56 250.58 492.66 250.58C487.59 250.58 482.52 250.61 477.45 250.64C477.3 250.64 477.15 250.64 477 250.64H476.98C469.83 250.78 462.62 250.79 455.35 250.7C450.56 250.7 445.77 250.67 440.99 250.61C440.27 250.6 439.56 250.23 438.94 250.26C437.67 250.33 437.32 251.46 436.67 252.33C433.19 256.99 426.84 271.26 424.89 276.94C424.44 278.23 423.71 279.37 423.85 280.75H505.64C505.75 280.75 505.87 280.75 505.99 280.75C505.8 279.71 506.52 280.08 507.19 280.06C510.17 279.97 512.75 279.35 515.7 279.02C515.81 279.01 515.93 279.03 516.05 279.02L526.45 275.55C526.92 275.35 527.37 275.07 527.84 274.86L538.93 267.93C539.44 267.39 540.07 266.98 540.66 266.54L543.43 263.77C546.52 259.78 548.46 256.47 550.71 251.99C550.81 251.13 550.88 249.97 551.75 249.56C551.77 249.33 551.72 249.09 551.75 248.87C551.86 247.94 551.46 246.74 552.44 246.1C552.44 245.99 552.44 245.87 552.44 245.75C552.5 243.24 552.53 240.63 552.44 238.13C552.44 237.9 552.45 237.67 552.44 237.44C551.73 236.73 551.72 235.61 551.75 234.67C551.38 233.66 551.12 232.55 550.71 231.55C549.81 230.94 549.18 229.88 549.32 228.78C543.44 219.24 535.64 211.31 528.87 202.44C527.87 202.55 527.27 200.65 526.79 200.01C523.18 195.24 517.07 189.35 514.31 184.41C513.51 184.52 513.63 183.9 513.39 183.44C512.78 182.28 511.53 180.37 511.87 179.08C511.97 178.68 512.54 178.91 512.58 178.86C512.77 178.65 512.98 178.18 513.27 177.82C513.42 177.64 513.41 177.07 513.94 176.57C514.34 176.2 514.88 176.19 515.01 176.08C515.39 175.76 515.75 175.62 516.05 175.39C516.09 175.36 515.94 174.9 516.11 174.77C516.48 174.48 518.62 174.77 519.33 173.64H567.51C569.57 173.27 568.95 170.18 570.47 169.16C570.71 168.46 570.93 167.52 571.16 166.73C571.21 165.62 571.16 163.86 572.2 163.26C572.43 162.45 572.69 161.65 572.89 160.83C573.14 159.8 573.04 158.45 573.93 157.71C574.14 157 574.39 156.33 574.62 155.63C574.84 154.02 575.26 151.65 576.35 150.43C576.4 150.23 576.31 149.95 576.35 149.74C576.51 148.92 576.72 147.89 577.39 147.31L577.37 147.29ZM492.46 269.62C492.27 269.81 490.75 269.57 490.74 269.1C490.7 267.29 493.35 268.73 492.46 269.62Z" fill="#035187"/>
<path d="M455.35 250.67C450.56 250.67 445.77 250.64 440.99 250.58C440.27 250.57 439.56 250.2 438.94 250.23C437.67 250.3 437.32 251.43 436.67 252.3C437.18 249.85 438.85 249.78 441 250.33C445.81 250.5 450.59 250.61 455.35 250.67Z" fill="#035187"/>
<path d="M464.04 191.3L463.11 188.95C462.96 186.96 462.7 185.55 462.3 184.72C463.38 184.53 462.94 185.26 462.99 185.92C463.14 187.75 463.52 189.55 464.03 191.31L464.04 191.3Z" fill="#035187"/>
<path d="M463.08 177.35C462.87 178.43 463.46 180.01 462.31 180.56C463.47 174.2 465.77 167.73 469.93 162.54C467.59 167.38 464.18 171.76 463.08 177.35Z" fill="#035187"/>
<path d="M469.94 201.7C468.56 200.22 467.28 198.42 466.47 196.5C467.59 198.27 468.91 199.84 469.94 201.7Z" fill="#035187"/>
<path d="M471.67 204.12C471.04 203.5 470.47 202.8 469.94 202.04C471.03 202.48 471.21 203.37 471.67 204.12Z" fill="#035187"/>
<path d="M471.67 160.46C471.62 160.88 470.75 162.33 470.55 162.46C470.3 162.63 470.03 162.49 469.94 162.54C470.63 161.97 471.2 161.28 471.67 160.46Z" fill="#035187"/>
<path d="M476.87 211.06C475.8 210.03 474.85 208.88 474.1 207.59C475.05 208.75 475.99 209.89 476.87 211.06Z" fill="#035187"/>
<path d="M499.74 247.44C498.89 248.93 498.99 248.23 498.67 248.68C498.41 249.04 498.48 250.1 498.02 250.41C497.41 250.83 496.71 250.22 496.16 250.31C494.29 250.62 494.55 250.54 492.65 250.54C487.58 250.54 482.51 250.57 477.44 250.6C477.29 250.6 477.14 250.6 476.99 250.6C477.08 250.6 477.17 250.6 477.26 250.6C480.31 250.54 483.35 250.46 486.37 250.35C490.13 250.23 493.87 250.07 497.6 249.88C497.94 248.88 498.65 248.07 499.73 247.44H499.74Z" fill="#035187"/>
<path d="M479.29 214.17C478.89 213.33 478.39 212.54 477.56 212.09C478.64 212.15 479.16 213.22 479.29 214.17Z" fill="#035187"/>
<path d="M479.29 153.87C479.24 153.94 479.34 154.25 479.05 154.57C478.66 154.98 477.48 155.5 476.87 155.61C477.86 155.21 478.68 154.64 479.3 153.88L479.29 153.87Z" fill="#035187"/>
<path d="M479.36 153.84C480.26 153.35 481.05 152.78 481.72 152.14C481.86 153.22 480.11 153.45 479.36 153.84Z" fill="#035187"/>
<path d="M484.49 220.41C483.18 219.16 482.03 217.77 481.02 216.25C482.22 217.58 483.35 218.83 484.49 220.41Z" fill="#035187"/>
<path d="M490.38 228.04C489.32 226.56 488.17 225.17 486.91 223.88C488.73 224.3 489.47 226.74 490.38 228.04Z" fill="#035187"/>
<path d="M492.46 269.62C492.27 269.81 490.75 269.57 490.74 269.1C490.7 267.29 493.35 268.73 492.46 269.62Z" fill="#035187"/>
<path d="M496.28 235.31C494.42 232.79 492.45 230.37 490.39 228.03C492.38 229.22 495.09 233.08 496.28 235.31Z" fill="#035187"/>
<path d="M494.89 146.25L490.38 147.98L490.97 147.69C492.24 147.08 493.54 146.6 494.89 146.25Z" fill="#035187"/>
<path d="M498.01 237.39C497.56 236.66 496.98 236.09 496.28 235.66C497.85 235.45 497.6 236.6 498.01 237.39Z" fill="#035187"/>
<path d="M501.28 246.39C500.94 246.78 500.49 246.69 500.44 246.75C502.67 243.97 501.86 240.85 498.01 237.39C498.09 237.44 498.38 237.3 498.62 237.46C498.87 237.63 502 242.19 502.09 242.49C502.41 243.59 502.01 245.55 501.28 246.39Z" fill="#035187"/>
<path d="M505.63 280.71L503.55 281.06H423.54C422.89 280.63 424.28 277.4 424.89 276.89C424.44 278.18 423.71 279.32 423.85 280.7H505.64L505.63 280.71Z" fill="#035187"/>
<path d="M505.63 143.82L501.28 145.19C499.19 145.09 497.25 145.81 495.23 146.25C498.62 145.18 502.09 144.38 505.63 143.82Z" fill="#035187"/>
<path d="M515.68 278.98C512.26 279.83 509.22 280.32 506.58 280.47L505.98 280.72C505.79 279.68 506.51 280.05 507.18 280.03C510.16 279.94 512.74 279.32 515.69 278.99L515.68 278.98Z" fill="#035187"/>
<path d="M514.3 184.37C513.5 184.48 513.62 183.86 513.38 183.4C512.77 182.24 511.52 180.33 511.86 179.04C511.96 178.64 512.53 178.87 512.57 178.82C512.16 179.32 512.11 179.77 512.42 180.82C512.76 181.96 513.48 183.58 514.31 184.37H514.3Z" fill="#035187"/>
<path d="M514.99 176.05L513.26 177.78C513.41 177.6 513.4 177.03 513.93 176.53C514.33 176.16 514.87 176.15 515 176.04L514.99 176.05Z" fill="#035187"/>
<path d="M526.43 275.52C523.05 276.94 519.59 278.09 516.03 278.99L526.43 275.52Z" fill="#035187"/>
<path d="M528.85 202.39C527.85 202.5 527.25 200.6 526.77 199.96C527.43 200.82 528.12 201.63 528.85 202.39Z" fill="#035187"/>
<path d="M538.9 267.89C535.47 270.57 531.77 272.88 527.81 274.82L538.9 267.89Z" fill="#035187"/>
<path d="M543.41 263.73C542.58 264.73 541.66 265.68 540.64 266.5L543.41 263.73Z" fill="#035187"/>
<path d="M550.69 231.5C549.79 230.89 549.16 229.83 549.3 228.73C549.54 229.75 550.04 230.68 550.69 231.5Z" fill="#035187"/>
<path d="M551.72 249.52L550.68 251.95C550.78 251.09 550.85 249.93 551.72 249.52Z" fill="#035187"/>
<path d="M551.72 248.83C551.83 247.9 551.43 246.7 552.41 246.06C552.23 247.02 552 247.94 551.72 248.83Z" fill="#035187"/>
<path d="M552.42 237.39C551.71 236.68 551.7 235.56 551.73 234.62L552.42 237.39Z" fill="#035187"/>
<path d="M552.42 245.71C552.48 243.2 552.51 240.59 552.42 238.09C552.75 240.62 552.74 243.18 552.42 245.71Z" fill="#035187"/>
<path d="M570.44 169.12L570.01 169.91C569.7 171.95 568.88 173.3 567.55 173.97H519.45C517.95 174.57 516.81 175.03 516.03 175.36C516.07 175.33 515.92 174.87 516.09 174.74C516.46 174.45 518.6 174.74 519.31 173.61H567.49C569.55 173.24 568.93 170.15 570.45 169.13L570.44 169.12Z" fill="#035187"/>
<path d="M572.17 163.23C571.57 164.27 571.23 165.43 571.13 166.7C571.18 165.59 571.13 163.83 572.17 163.23Z" fill="#035187"/>
<path d="M573.9 157.69L572.86 160.81C573.11 159.78 573.01 158.43 573.9 157.69Z" fill="#035187"/>
<path d="M576.33 150.41C575.55 152.06 575.03 153.84 574.6 155.61C574.82 154 575.24 151.63 576.33 150.41Z" fill="#035187"/>
<path d="M577.37 147.29C577.37 147.29 577.36 147.34 577.35 147.37C577.1 148.28 576.76 149.06 576.33 149.72C576.49 148.9 576.7 147.87 577.37 147.29Z" fill="#035187"/>
<path d="M578.09 144.83C578.09 144.84 578.07 144.85 578.06 144.85L577.55 143.46C556.85 144.24 535.38 142.6 514.6 143.38C530.51 142.64 546.45 142.62 562.43 143.32L577.69 143.11C578.26 143.11 578.55 144.45 578.09 144.82V144.83Z" fill="#035187"/>
<path d="M303.78 83.67C307.93 87.16 311.47 92.72 311.91 98.24C314.43 129.69 269.25 132.98 264.15 105.1C260.15 83.18 287.42 69.92 303.77 83.67H303.78Z" fill="#035187"/>
<path d="M655.22 81.92C671.48 94.39 663.64 121.34 643.75 122.7C631.88 123.51 622.35 119.73 617.87 108.41C608.69 85.18 636.76 67.76 655.21 81.92H655.22Z" fill="#035187"/>
<path d="M505.63 280.71L503.74 281.42L422.8 281.4C423.09 279.72 423.4 277.97 424.88 276.9C424.43 278.19 423.7 279.33 423.84 280.71H505.63Z" fill="#035187"/>
<path d="M578.58 144.51C578.49 144.7 578.19 144.77 578.09 144.83C578.09 144.83 578.07 144.85 578.06 144.85L577.55 143.46C556.85 144.24 535.38 142.6 514.6 143.38C511.94 143.48 509.3 143.62 506.67 143.81C507.52 143.42 509.03 143.19 509.97 143.12C532.08 141.45 555.32 143.66 577.56 142.75C578.73 142.71 579.06 143.49 578.58 144.5V144.51Z" fill="#035187"/>
<path d="M570.44 169.12C570.04 170.32 569.37 174.32 567.84 174.32H519.32C519.09 174.32 516.86 175.66 516.03 175.36C516.07 175.33 515.92 174.87 516.09 174.74C516.46 174.45 518.6 174.74 519.31 173.61H567.49C569.55 173.24 568.93 170.15 570.45 169.13L570.44 169.12Z" fill="#035187"/>
<path d="M466.26 250.66C462.62 250.67 458.98 250.68 455.35 250.67C450.56 250.67 445.77 250.64 440.99 250.58C440.27 250.57 439.56 250.2 438.94 250.23C437.67 250.3 437.32 251.43 436.67 252.3C436.65 248.57 440.19 250.18 442.37 250.23C449.93 250.41 458.11 250.61 466.26 250.66Z" fill="#035187"/>
<path d="M477.44 250.61C477.29 250.61 477.14 250.61 476.99 250.61H476.97C473.5 250.66 469.96 250.67 466.42 250.65C470.03 250.64 473.64 250.62 477.25 250.6H477.43L477.44 250.61Z" fill="#035187"/>
<path d="M499.74 247.44C498.89 248.93 498.99 248.23 498.67 248.68C498.41 249.04 498.48 250.1 498.02 250.41C497.41 250.83 496.71 250.22 496.16 250.31C494.29 250.62 494.55 250.54 492.65 250.54C487.58 250.54 482.51 250.57 477.44 250.6C480.48 250.55 483.47 250.47 486.38 250.35C487.32 250.31 488.26 250.27 489.18 250.22C491.2 250.12 495.29 249.8 497.05 249.07C497.95 248.7 498.62 247.53 499.74 247.43V247.44Z" fill="#035187"/>
<path d="M498.01 237.39C497.23 236.93 496.82 236.73 496.28 235.66C497.85 235.45 497.6 236.6 498.01 237.39Z" fill="#035187"/>
<path d="M501.28 246.39C500.94 246.78 500.49 246.69 500.44 246.75C503.2 242.82 499.77 240.76 498.01 237.39C498.09 237.44 498.38 237.3 498.62 237.46C498.87 237.63 502 242.19 502.09 242.49C502.41 243.59 502.01 245.55 501.28 246.39Z" fill="#035187"/>
<path d="M463.08 177.35C462.87 178.43 463.46 180.01 462.31 180.56C462.49 176.38 466.43 164.26 469.93 162.54C467.59 167.38 464.18 171.76 463.08 177.35Z" fill="#035187"/>
<path d="M471.67 160.46C471.62 160.88 470.75 162.33 470.55 162.46C470.3 162.63 470.03 162.49 469.94 162.54C470.63 161.11 470.87 161.37 471.67 160.46Z" fill="#035187"/>
<path d="M464.04 191.3C462.36 189.34 462.41 187.07 462.31 184.72C463.39 184.53 462.95 185.26 463 185.92C463.15 187.75 463.53 189.55 464.04 191.31V191.3Z" fill="#035187"/>
<path d="M170.51 144.52C169.46 142.34 168.14 140.31 166.35 138.63C168.82 139.62 170.31 141.88 170.51 144.52Z" fill="#035187"/>
<path d="M505.63 143.82L501.28 145.19C499.19 145.09 497.25 145.81 495.23 146.25C495.7 145.56 497.48 145.15 498.28 144.96C500.77 144.39 503.12 143.96 505.63 143.82Z" fill="#035187"/>
<path d="M469.94 201.7C469.2 201.87 469.2 201.27 468.89 200.86C467.94 199.62 466.6 198.09 466.48 196.5C467.6 198.27 468.92 199.84 469.95 201.7H469.94Z" fill="#035187"/>
<path d="M538.9 267.89C538.93 268.69 537.85 269.14 537.27 269.56C533.85 272.06 531.49 273.13 527.81 274.82L538.9 267.89Z" fill="#035187"/>
<path d="M490.38 228.04C488.91 227.16 487.94 225.32 486.91 223.88C488.73 224.3 489.47 226.74 490.38 228.04Z" fill="#035187"/>
<path d="M496.28 235.31C495.75 234.88 494.99 234.17 494.56 233.66C493.09 231.9 491.67 229.87 490.39 228.04C492.38 229.23 495.09 233.09 496.28 235.32V235.31Z" fill="#035187"/>
<path d="M526.43 275.52C523.05 276.95 519.93 278.55 516.03 278.99L526.43 275.52Z" fill="#035187"/>
<path d="M515.68 278.98C515.33 279.59 514.71 279.56 514.13 279.69C511.3 280.32 508.84 280.6 505.97 280.72C505.78 279.68 506.5 280.05 507.17 280.03C510.15 279.94 512.73 279.32 515.68 278.99V278.98Z" fill="#035187"/>
<path d="M576.33 150.41C575.83 152.62 575.26 153.64 574.6 155.61C574.82 154 575.24 151.63 576.33 150.41Z" fill="#035187"/>
<path d="M552.42 245.71C552.48 243.2 552.51 240.59 552.42 238.09C553 240.33 553 243.48 552.42 245.71Z" fill="#035187"/>
<path d="M227.34 247.44L227.8 244.61L230.11 238.78C229.22 241.67 228.21 244.6 227.34 247.44Z" fill="#035187"/>
<path d="M304.97 236.35C304.15 233.8 303.66 232.63 303.24 229.77C304.26 231.59 304.63 234.26 304.97 236.35Z" fill="#035187"/>
<path d="M116.1 184.37C115.96 184.31 115.54 184.48 115.44 184.35C115.32 184.19 115.33 182.93 115.47 182.7C115.69 182.33 117.19 182.13 117.74 181.98C117.78 181.97 117.81 181.96 117.84 181.95C117.07 182.93 115.31 182.89 116.11 184.38L116.1 184.37Z" fill="#035187"/>
<path d="M476.87 211.06C475.7 210.27 474.6 208.94 474.1 207.59C475.05 208.75 475.99 209.89 476.87 211.06Z" fill="#035187"/>
<path d="M514.3 184.37C513.5 184.48 513.62 183.86 513.38 183.4C512.77 182.24 511.52 180.33 511.86 179.04C511.96 178.64 512.53 178.87 512.57 178.82C512.32 180.65 513.41 182.76 514.3 184.36V184.37Z" fill="#035187"/>
<path d="M543.41 263.73C542.11 265.4 542.41 265.19 540.64 266.5L543.41 263.73Z" fill="#035187"/>
<path d="M572.17 163.23C571.84 164.39 571.47 165.55 571.13 166.7C571.18 165.59 571.13 163.83 572.17 163.23Z" fill="#035187"/>
<path d="M550.69 231.5C549.79 230.89 549.16 229.83 549.3 228.73C550.06 229.97 550.13 230.15 550.69 231.5Z" fill="#035187"/>
<path d="M528.85 202.39C527.85 202.5 527.25 200.6 526.77 199.96C527.96 200.42 528.31 201.68 528.85 202.39Z" fill="#035187"/>
<path d="M551.72 248.83C551.83 247.9 551.43 246.7 552.41 246.06C552.38 247.02 552.77 248.44 551.72 248.83Z" fill="#035187"/>
<path d="M484.49 220.41C482.93 219.76 481.91 217.64 481.02 216.25C482.22 217.58 483.35 218.83 484.49 220.41Z" fill="#035187"/>
<path d="M479.29 153.87C479.24 153.94 479.34 154.25 479.05 154.57C478.66 154.98 477.48 155.5 476.87 155.61C477.83 154.88 478.15 154.54 479.3 153.88L479.29 153.87Z" fill="#035187"/>
<path d="M479.36 153.84C479.36 153.84 479.31 153.86 479.29 153.87C480.08 152.74 480.5 152.84 481.72 152.14C481.86 153.22 480.11 153.45 479.36 153.84Z" fill="#035187"/>
<path d="M479.29 214.17C478.54 213.33 478.17 212.91 477.56 212.09C478.64 212.15 479.16 213.22 479.29 214.17Z" fill="#035187"/>
<path d="M552.42 237.39C551.71 236.68 551.7 235.56 551.73 234.62C552.18 235.85 552.33 235.46 552.42 237.39Z" fill="#035187"/>
<path d="M573.9 157.69C573.63 158.58 573.9 160.08 572.86 160.81C573.11 159.78 573.01 158.43 573.9 157.69Z" fill="#035187"/>
<path d="M551.72 249.52C551.52 251.3 551.22 250.86 550.68 251.95C550.78 251.09 550.85 249.93 551.72 249.52Z" fill="#035187"/>
<path d="M514.99 176.05C515.02 176.66 513.86 177.81 513.26 177.78C513.41 177.6 513.4 177.03 513.93 176.53C514.33 176.16 514.87 176.15 515 176.04L514.99 176.05Z" fill="#035187"/>
<path d="M494.89 146.25L490.38 147.98L490.97 147.69L493.51 146.41C493.93 146.15 494.51 146.33 494.89 146.24V146.25Z" fill="#035187"/>
<path d="M471.67 204.12C470.69 204.2 470.33 202.78 469.94 202.04C471.03 202.48 471.21 203.37 471.67 204.12Z" fill="#035187"/>
<path d="M577.37 147.29C577.37 147.29 577.36 147.34 577.35 147.37C577.15 148.31 577.33 150.02 576.33 149.72C576.49 148.9 576.7 147.87 577.37 147.29Z" fill="#035187"/>
<path d="M492.46 269.62C492.27 269.81 490.75 269.57 490.74 269.1C490.7 267.29 493.35 268.73 492.46 269.62Z" fill="#035187"/>
<path d="M703.52 73.8201V89.0701C703.04 89.8501 702.75 90.7101 702.64 91.6501L702.13 91.8401C702.11 91.9101 701.72 92.0001 701.67 92.1801C700.86 94.8601 698.34 96.0701 695.56 96.5301C692.39 97.0601 683.89 97.0201 681.26 95.2901C679.3 94.0001 677.58 91.0601 677.52 88.7201C677.06 87.5801 676.6 86.0601 678.13 86.0701C678.23 85.2501 678.6 84.8601 679.25 84.9101C680.24 85.2001 680.1 85.4401 679.25 85.9501C679.64 86.6801 679.87 87.4901 679.94 88.3801C680.57 90.1001 682.02 92.9801 684.01 93.5001C685.73 93.9401 690.7 94.0401 692.6 93.9401C694.79 93.8301 697.44 93.7101 698.77 91.8101C702.01 87.1501 701.97 75.5401 698.64 70.9801C696.21 67.6601 688.34 67.7901 684.7 68.7201C680.49 69.7901 679.46 75.3301 679.24 79.0301C679.17 79.4601 679.09 79.8501 678.86 79.4601C679 79.9701 679.05 85.8701 677.83 84.1301C676.85 82.7301 677.07 72.1201 679.11 69.4701C679.15 69.4201 679.19 69.3701 679.23 69.3201C682.97 65.0101 691.44 64.6301 696.85 66.4301C699.33 67.2501 701.36 68.7701 702.11 71.4001L702.83 72.1501C702.69 72.8201 702.91 73.3801 703.5 73.8201H703.52Z" fill="#1C3B69"/>
<path d="M679.26 84.9101L678.56 86.9901L677.53 86.6401C677.53 87.3301 677.51 88.0301 677.53 88.7201C676.69 88.2501 676.56 85.9901 676.49 85.0801C676.14 80.0701 675.89 73.3701 679.13 69.4701C679.17 69.4201 679.21 69.3701 679.25 69.3201C679.01 70.8701 678.18 71.2101 678.18 72.9601C678.18 74.6101 678.21 76.1501 678.2 77.7901C678.19 79.8101 678.23 81.8401 678.22 83.8701C678.83 83.9501 678.55 83.0901 678.56 82.6601C678.59 81.8501 678.53 81.0301 678.56 80.2101C678.59 79.5401 678.2 78.8201 679.25 79.0101C680.23 80.3501 680.26 83.5701 679.25 84.9001L679.26 84.9101Z" fill="#1C3B69"/>
<path d="M679.95 88.3701C679.56 87.3101 679.36 87.5401 679.26 85.9401C680.25 86.2901 679.94 87.5001 679.95 88.3701Z" fill="#1C3B69"/>
<path d="M696.22 88.5701C695.99 87.4201 694.78 86.3801 694.59 85.7001C693.71 82.6701 696.67 80.2001 696.26 77.0901C696.17 76.3801 694.89 72.8401 694.42 72.5201C693.21 71.7301 686.26 71.5901 685.25 72.5201C684.35 73.3401 684.27 78.7501 684.25 80.2801C684.2 83.3901 684.56 86.9801 684.67 90.1301C688.59 91.2401 687.1 87.1701 687.74 85.2301C689.25 80.6501 693.79 90.4601 694.59 90.7101C696.2 91.2401 696.48 89.8401 696.22 88.5601V88.5701ZM688.27 81.6201C687.22 81.1101 687.37 75.9301 687.9 75.0901C688.52 74.1101 691.03 74.5301 691.96 75.0001C695.07 76.5601 692.83 83.8401 688.27 81.6201Z" fill="#1C3B69"/>
</g>
<defs>
<clipPath id="clip0_12_229">
<rect width="703.52" height="393" fill="white"/>
</clipPath>
</defs>
</svg>
