<svg width="433" height="393" viewBox="0 0 433 393" fill="none" xmlns="http://www.w3.org/2000/svg">
<g clip-path="url(#clip0_12_1686)">
<path d="M130.526 8.63594C134.651 8.59228 138.752 8.71928 142.833 9.009C143.879 10.8822 140.392 11.6284 138.803 11.168C136.616 10.4655 135.027 10.2353 132.884 11.2116C118.433 10.8664 103.674 10.8346 88.6089 11.1164L82.5149 10.6957C81.7145 10.4933 81.5441 10.0726 82.0434 9.38206C95.0516 9.05662 109.177 9.05662 122.32 9.38206C121.995 9.2749 121.999 9.15187 122.32 9.009C109.11 9.24315 95.6974 9.30665 82.079 9.19553C81.7303 9.92181 81.3817 9.92181 81.0369 9.19553C75.4303 9.30665 69.9227 9.24315 64.5181 9.009C64.843 9.11615 64.8391 9.23918 64.5181 9.38206C69.7563 9.06853 75.8899 9.06456 81.2985 9.38206C82.4673 10.9021 79.3054 11.1918 78.0414 11.2791C60.0843 11.2077 41.6477 11.418 23.2032 12.061C20.8615 12.6801 18.5951 13.0293 16.4079 13.1166C16.5268 13.7993 16.0275 14.1922 14.9101 14.2954V377.752L15.0528 378.058L344.486 378.427L344.954 379.173C345.128 380.272 344.134 380.395 341.97 379.546C342.87 380.61 341.411 381.07 340.338 381.106C338.911 380.931 337.536 381.125 336.217 381.693C331.296 379.804 325.935 379.344 320.142 380.312L301.567 379.887C295.445 379.018 290.92 380.475 285.904 382.443C282.845 383.376 280.622 382.713 277.963 381.32C261.294 380.895 244.597 380.812 227.868 381.066C216.853 380.145 205.513 379.955 194.137 380.248L153.412 381.042C124.979 380.633 97.0446 380.625 69.6176 381.018L66.7766 380.268C51.7318 380.61 36.6473 380.502 21.5351 379.959C16.6219 379.76 16.0513 380.272 14.5575 384.352L13.0518 384.769C69.471 383.408 125.93 383.86 182.361 384.769C182.686 384.876 182.682 384.999 182.361 385.142L11.7284 385.122L8.95085 385.511C8.85575 381.221 9.06576 376.903 8.96274 372.609C7.99593 331.762 8.60613 290.611 8.18612 249.748C7.63933 196.651 7.90084 143.672 8.21782 90.626C8.38028 63.4204 8.06329 36.175 8.20197 8.99312L11.7245 8.59625C51.3237 8.68753 90.9268 8.53275 130.518 8.61213L130.526 8.63594Z" fill="#0D5586"/>
<path d="M383.372 295.135C382.786 295.163 382.509 294.734 382.536 293.845C381.058 293.278 379.596 292.714 378.154 292.147C379.026 289.273 379.913 286.404 380.848 283.554C381.784 280.705 382.727 277.855 383.769 275.045C394.15 246.986 404.682 218.979 415.356 191.027C391.915 134.381 368.53 77.5571 345.2 20.5581L345.711 19.8398C345.754 19.1373 346.365 18.6571 347.541 18.3951C349.455 18.3832 349.095 13.6049 348.762 12.9897C347.732 12.3587 347.121 11.3506 346.927 9.96951C339.363 9.01701 331.347 8.18358 323.502 8.51695C306.516 9.35039 289.371 9.56867 272.709 8.89001L269.028 9.35833C268.565 10.6085 267.475 10.8506 266.211 10.8268C259.281 9.90998 252.335 9.6917 245.37 10.1719C242.659 9.27498 239.715 9.19164 236.538 9.91395C206.793 9.01305 177.012 8.95748 147.196 9.7552C145.718 9.66789 144.264 9.41786 142.841 9.00908C138.764 9.00114 134.457 8.64395 130.534 8.63602L348.718 8.05261L423.927 190.793L388.884 281.792C387.16 286.265 385.405 290.797 383.376 295.139L383.372 295.135Z" fill="#0A5380"/>
<path d="M378.15 292.147C380.599 290.678 380.9 293.94 383.368 292.893V295.135C372.175 325.278 360.335 355.19 348.686 385.158H268.505C239.794 385.158 211.068 385.158 182.361 385.158V384.785C214.899 383.939 247.446 383.828 279.988 384.249C279.263 382.852 281.288 382.487 282.52 383.118C283.649 382.804 286.026 382.558 285.626 384.312C285.599 384.436 285.515 383.491 286.284 383.082C287.318 382.531 288.455 383.11 288.856 384.09L342.854 384.035C342.628 382.729 342.438 381.515 342.279 380.391L341.974 379.554C341.459 379.471 340.116 379.911 340.112 379.185C341.427 378.78 344.201 379.84 344.958 379.185C344.629 378.633 344.74 378.05 345.291 377.427C354.111 353.876 363.454 328.937 372.599 304.767C373.411 302.624 374.334 300.521 375.257 298.417C376.185 296.314 377.159 294.23 378.146 292.155L378.15 292.147Z" fill="#095182"/>
<path d="M358.386 4.15524C381.232 63.7855 406.476 122.519 429.79 181.97C430.642 184.145 433.004 189.074 433.004 191.11C433.004 192.496 431.898 195.206 431.395 196.627C424.659 215.637 416.426 234.354 409.198 253.213C392.505 296.77 375.709 340.315 359.226 383.951C358.128 386.86 357.146 389.829 356.187 392.786L355.03 393.008C355.168 392.77 355.248 392.484 355.402 392.262C356.718 390.349 357.261 387.337 358.108 385.07C382.282 320.301 407.986 256.067 432.58 191.452C431.641 187.801 430.044 184.348 428.673 180.851C405.616 122.134 379.624 63.6863 358.017 4.53227C357.902 4.04015 357.906 3.93299 358.39 4.15921L358.386 4.15524Z" fill="#676160"/>
<path d="M0.748874 218.189C0.130756 218.578 0.376418 219.606 0.368494 220.237C0.0871706 247.022 0.0911329 274.057 0 300.739V130.595C0.526986 129.988 0.364531 131.012 0.372456 131.333C0.487363 135.195 0.269436 139.072 0.356607 142.934C0.376418 143.819 0.744912 144.637 0.760761 145.518C1.19265 169.707 0.721138 193.992 0.744912 218.185L0.748874 218.189Z" fill="#6F676B"/>
<path d="M358.01 4.52828C357.53 3.2186 356.354 1.56761 356.147 0.0475817C357.142 -0.142918 356.797 0.261893 357.059 0.797673C357.546 1.79383 357.978 3.0916 358.386 4.15522L358.014 4.52828H358.01Z" fill="#969492"/>
<path d="M342.723 12.7476C344.01 12.6325 344.434 14.0969 343.84 14.9899C344.89 15.0653 344.977 15.3907 344.213 16.1091C344.522 16.6845 344.767 17.3037 344.957 17.9783C345.984 17.9069 346.455 19.1848 345.702 19.8476L416.041 191.114C403.255 224.73 390.797 258.488 378.146 292.154C367.657 320.063 357.003 347.923 346.725 375.915C346.273 376.974 345.845 378.415 344.957 379.185L14.1689 378.812V13.704L16.4076 13.1206C18.5195 12.8984 20.6315 12.692 22.7473 12.5412C24.8632 12.3904 26.9791 12.2475 29.091 12.2197C56.6131 11.8943 84.1392 12.0054 111.661 12.1165C188.585 13.1206 265.018 13.0849 340.96 12.0173L342.715 12.7476H342.723Z" fill="#FCFDFD"/>
<path d="M341.974 379.554C344.145 379.895 343.008 381.57 343.159 382.654C343.278 383.491 344.304 383.892 344.209 384.781L288.816 384.813C287.964 384.745 288.324 383.86 287.354 383.646C285.626 383.265 287.338 385.201 285.099 384.789C284.731 384.721 285.036 383.828 284.897 383.693C284.584 383.388 283.039 383.872 282.468 383.852C281.422 383.816 280.685 382.558 280.233 384.801C247.612 384.769 214.982 384.761 182.361 384.777C125.93 384.805 69.4828 384.757 13.0518 384.777C15.4886 383.408 14.1057 379.935 17.3271 379.534C26.3096 378.415 37.5823 380.419 46.8185 379.534C53.2255 379.657 59.8822 380.201 65.8335 379.574C68.0762 379.336 68.3575 380.098 69.9068 380.316C71.6898 380.57 75.3153 380.324 77.3876 380.332C84.4484 380.356 91.5924 380.074 98.6255 379.907C115.275 379.514 131.941 380.284 148.63 380.312C170.945 380.348 193.297 379.03 215.759 379.53C220.494 379.637 225.146 380.475 229.932 380.312C237.005 380.074 243.63 380.157 250.813 380.28C259.257 380.423 267.728 380.149 276.16 380.268C278.989 380.308 280.685 382.13 282.131 382.185C282.591 382.205 285.377 381.836 285.777 381.709C287.405 381.189 292.461 379.173 294.062 379.141C302.525 378.986 311.254 379.459 319.773 379.562C323.89 379.614 329.402 378.637 333.106 379.653C333.998 379.895 335.63 380.907 336.264 380.955C336.859 381.003 337.417 380.379 338.083 380.308C339.327 380.173 341.308 380.836 341.978 379.542L341.974 379.554Z" fill="#095287"/>
<path d="M142.833 9.00899C173.204 9.07646 205.842 7.48103 235.571 9.14789C238.42 9.30664 241.383 8.48908 242.968 8.59624C243.788 8.6518 244.288 9.27886 245.183 9.40189C246.717 9.60827 247.996 8.96136 249.288 8.99708C252.506 9.08439 255.806 9.23521 259.016 9.37014C260.957 9.44952 266.516 10.6203 267.879 9.77892C268.212 9.57255 268.252 8.85421 268.743 8.69943C273.197 7.27465 280.812 9.10424 285.46 8.25096C303.702 9.87814 326.513 5.81019 344.043 8.99708C345.017 9.17568 346.424 8.77086 347.323 9.35824C348.151 9.89799 347.573 12.7991 350.18 12.3824C348.738 13.7596 349.816 14.9224 349.82 16.3115C349.827 18.5062 347.47 19.411 345.707 19.8476C345.334 19.2642 345.144 18.6451 344.962 17.9783L344.217 16.1091C344.094 15.7558 343.963 15.2955 343.844 14.9899C343.25 13.4262 344.241 13.5572 345.477 13.8667C347.422 11.6403 344.336 11.0727 342.723 12.7475C339.807 12.815 336.867 12.6642 333.943 12.7317C228.24 15.2518 122.182 11.6522 16.412 13.1206L14.1772 12.7515C15.7542 12.5848 17.6641 12.9857 19.1896 12.7277C20.2792 12.5412 21.9711 11.3545 23.3024 11.3148C35.6608 10.9656 48.1341 10.2353 60.6233 10.4933C64.2845 10.5687 65.7743 10.8664 69.5543 10.5052C72.3081 10.2433 75.8108 10.8108 78.838 10.4655C79.5631 10.3822 80.9974 10.1917 81.3065 9.38602H64.5262V9.01296H122.328V9.38602H82.0514C82.1227 10.1083 83.5492 10.1163 84.088 10.148C94.5247 10.8306 106.424 10.2988 116.908 10.1163C118.651 10.0845 129.278 10.525 129.785 10.1282C130.645 9.45746 128.814 9.47333 129.044 9.01296C131.604 8.65974 129.892 9.75114 130.158 10.1242C132.182 11.3585 134.072 9.75114 135.562 9.73527C137.563 9.71146 141.054 12.0094 142.841 9.00502L142.833 9.00899Z" fill="#0A5083"/>
<path d="M52.2113 9.00903H45.8716V9.38209H52.2113V9.00903Z" fill="#0A5083"/>
<path d="M63.0285 9.00903H57.8062V9.38209H63.0285V9.00903Z" fill="#0A5083"/>
<path d="M44.0094 9.00903H38.7871V9.38209H44.0094V9.00903Z" fill="#0A5083"/>
<path d="M23.4927 9.013C23.5799 9.66387 22.6448 9.36225 22.1931 9.38209C21.0163 9.42971 19.8236 9.35034 18.6468 9.38209C18.5596 8.73122 19.4947 9.03284 19.9464 9.013C21.1232 8.96537 22.3159 9.04475 23.4927 9.013Z" fill="#0A5083"/>
<path d="M38.0379 9.01294C38.1251 9.66778 37.1939 9.36218 36.7383 9.38203C35.9339 9.42172 35.1137 9.35822 34.3133 9.38203C34.2262 8.72719 35.1573 9.03278 35.613 9.01294C36.4173 8.97325 37.2375 9.03675 38.0379 9.01294Z" fill="#0A5083"/>
<path d="M32.0747 9.01294H30.2124V9.37806H32.0747V9.01294Z" fill="#0A5083"/>
<path d="M24.2412 92.3088C24.4354 96.2617 24.6176 100.215 24.7444 104.167C24.8712 108.12 24.9901 112.073 25.002 116.026C25.1525 163.464 25.1248 210.907 25.0773 258.349C25.0218 266.259 24.6533 274.164 24.2452 282.062C24.3284 292.035 24.2016 301.997 23.8727 311.943C23.845 302.168 23.9044 292.385 23.8886 282.606C23.7737 209.065 23.8529 135.032 23.8727 61.3051C24.2927 61.0154 24.3006 61.8528 24.3046 62.2933L24.2452 92.3088H24.2412Z" fill="#655256"/>
<path d="M322.955 370.962C323.28 371.069 323.276 371.192 322.955 371.335C236.133 371.668 149.474 371.354 62.6519 371.335C62.327 371.227 62.3309 371.104 62.6519 370.962C67.4661 370.767 72.2842 370.588 77.0984 370.465C81.9126 370.342 86.7347 370.227 91.5489 370.223C159.043 370.176 226.544 370.219 294.042 370.311C303.682 370.323 313.319 370.632 322.955 370.966V370.962Z" fill="#685E61"/>
<path d="M264.781 19.0975L291.756 19.4706L292.002 19.8437C239.43 20.9351 186.822 20.9867 134.255 19.8437C133.264 19.7246 133.308 19.3793 134.255 19.0975C177.757 19.0896 221.278 19.0737 264.781 19.0975Z" fill="#866867"/>
<path d="M355.402 328.754V328.381C356.555 323.309 358.081 318.34 359.975 313.498C375.574 271.874 390.94 231.23 406.076 191.559C405.957 190.42 406.096 189.459 406.496 188.682C406.603 188.356 406.726 188.36 406.869 188.682C408.267 190.924 407.213 192.642 406.504 194.853C405.137 199.107 402.954 203.41 401.369 207.64C388.757 241.319 376.363 275.093 363.517 308.68C360.942 315.407 358.243 322.142 355.406 328.758L355.402 328.754Z" fill="#737071"/>
<path d="M406.865 188.678H406.492L405.668 188.626C383.273 133.234 360.878 77.8349 338.479 22.4234L338.995 21.709C339.102 21.3836 339.224 21.3876 339.367 21.709C347.082 37.4252 353.758 56.4355 360.431 72.8898C376.062 111.426 391.436 150.066 406.865 188.682V188.678Z" fill="#716B6C"/>
<path d="M87.2658 19.0975C88.2564 19.2166 88.2128 19.5619 87.2658 19.8437C86.3585 20.0381 85.4511 20.2167 84.5318 20.3437C83.6126 20.4707 82.7092 20.5898 81.7978 20.5977C62.9373 20.7644 43.8588 20.7207 25.1647 20.2326L24.9864 91.8484L24.2415 92.3088C24.2415 82.6648 24.3485 73.0009 24.2494 63.3529C24.2415 62.7219 24.4872 61.69 23.869 61.305C23.869 47.9225 23.9879 34.52 23.8849 21.1335C23.8809 20.5263 23.5758 19.9429 23.5719 19.5579C23.56 18.3197 24.6972 19.1174 25.5213 19.1174C46.1015 19.0698 66.6896 19.1015 87.2619 19.0975H87.2658Z" fill="#846F6C"/>
<path d="M24.2412 282.062L24.9901 282.415L25.3546 370.239C37.7923 370.089 50.226 370.358 62.6518 370.962V371.335C50.5113 371.335 37.9944 370.938 25.8975 371.315C25.1803 371.339 24.5582 371.605 23.8688 371.708C23.9361 351.793 23.7697 331.858 23.8688 311.943C23.9163 302.124 24.1937 291.996 24.2412 282.062Z" fill="#76676B"/>
<path d="M339.367 21.709H338.995C338.242 22.3003 337.477 21.1295 337.651 20.6573L298.124 20.5898C296.067 20.5025 294.026 20.2564 292.006 19.8437L264.781 19.0976C288.959 19.1134 313.152 19.1055 337.334 19.0777C338.848 19.0063 338.836 20.6374 339.363 21.7129L339.367 21.709Z" fill="#9F8181"/>
<path d="M88.7594 19.0976C89.5954 19.4111 90.5345 19.4111 91.3705 19.0976C105.659 19.0936 119.966 19.0976 134.258 19.0976V19.8437L134.001 20.5898H87.7252L87.2695 19.8437V19.0976C87.7648 19.0976 88.2641 19.0976 88.7594 19.0976Z" fill="#9A817A"/>
<path d="M355.402 328.754C354.966 329.977 354.84 331.707 354.19 332.957L339.557 370.97C339.272 371.351 338.868 371.311 338.456 371.362C334.073 371.886 327.607 371.323 322.959 371.343V370.97L323.866 370.227C328.784 370.517 333.677 370.509 338.547 370.2L354.542 328.548L355.402 328.389C355.363 328.5 355.442 328.651 355.402 328.762V328.754Z" fill="#767475"/>
<path d="M342.723 12.7476C342.18 11.6443 344.288 11.0212 344.87 10.9339C346.301 10.7195 347.474 12.8468 346.487 14.089C345.378 15.486 343.713 13.4342 343.844 14.9899C343.579 14.3073 342.98 13.4977 342.727 12.7476H342.723Z" fill="#0A5380"/>
<path d="M344.958 17.9744C344.149 17.5259 344.403 16.6607 344.213 16.1051C345.263 16.4186 344.795 17.3791 344.958 17.9744Z" fill="#0A5380"/>
<path d="M91.3704 19.0975C90.8989 19.7167 89.2308 19.7167 88.7593 19.0975C89.627 19.0975 90.5027 19.0975 91.3704 19.0975Z" fill="#846F6C"/>
<path d="M87.2656 19.8436H134.254C186.83 19.8436 239.426 19.7801 292.002 19.8436C307.28 19.8635 322.634 19.6809 337.877 20.0222L338.99 21.7089L406.488 188.678C407.372 190.825 406.639 192.384 406.021 194.373C404.737 198.496 402.526 202.778 400.988 206.886C385.853 247.371 369.869 287.705 355.398 328.377L339.189 370.596C338.895 370.969 338.491 370.93 338.079 370.977C333.788 371.489 327.504 370.938 322.955 370.958C236.248 371.315 149.323 370.938 62.6518 370.958C49.9764 370.958 37.2852 370.958 24.6098 370.958L24.2373 282.054C24.5424 218.816 24.2413 155.551 24.2373 92.3008L24.3998 19.8119C24.7683 19.284 26.3928 19.419 27.0505 19.4428C47.0403 20.2127 67.2164 19.8317 87.2616 19.8357L87.2656 19.8436Z" fill="#FEFEFE"/>
<path d="M32.4473 237.239L380.765 237.057L334.287 361.647L32.4473 362.746V237.239Z" fill="#6B6377"/>
<path d="M332.837 25.8206L379.64 144.228C297.164 143.954 214.665 144.593 132.186 144.248C108.159 144.148 83.9056 143.712 59.8742 143.466C52.1517 143.386 44.0369 143.224 36.3421 143.466C35.625 143.49 35.0029 143.755 34.3134 143.859L33.937 25.8245H332.837V25.8206Z" fill="#045386"/>
<path d="M151.97 176.728C154.109 176.902 156.82 177.442 158.619 178.657C164.201 182.419 164.217 198.33 157.378 201.385V201.929C159.573 204.62 161.907 207.545 163.801 210.446C164.443 211.426 165.255 212.585 165.58 213.704H154.767C153.198 211.307 151.459 208.497 149.699 206.267C148.966 205.338 147.393 203.076 146.367 202.882C145.69 202.755 142.088 202.691 142.088 203.433V213.331C139.39 213.577 136.386 213.978 133.68 213.724C133.189 213.677 132.689 213.728 132.487 213.161L132.392 176.724C138.752 177.105 145.678 176.212 151.97 176.724V176.728Z" fill="#065286"/>
<path d="M309.531 213.704V176.724C314.678 176.894 319.876 176.502 325.023 176.708C332.33 177.002 337.94 177.121 340.591 185.022C342.79 191.575 343.151 206.934 336.395 210.914C330.087 214.633 321.271 213.073 314.179 213.316C312.697 213.367 311.128 214.002 309.531 213.704Z" fill="#095284"/>
<path d="M302.074 176.728V184.947H285.666V190.551L298.718 190.924V198.766L285.666 199.139V204.743H302.074V212.776C302.074 212.855 302.633 213.204 302.446 213.331C295.833 214.391 289.113 213.208 282.476 213.315C281.228 213.335 277.187 214.324 276.501 213.359C276.184 212.915 276.731 209.656 276.731 208.648C276.743 199.397 275.253 187.13 276.323 178.014C276.366 177.637 276.493 176.724 276.901 176.724H302.074V176.728Z" fill="#085486"/>
<path d="M125.304 176.728V184.947H108.896V190.364C108.896 190.404 109.415 190.924 109.455 190.924H122.32V198.766H109.455C109.415 198.766 108.896 199.286 108.896 199.326V204.743H125.304V213.335L99.7352 213.359L99.5529 178.018C99.4737 177.637 99.8224 176.728 100.131 176.728H125.304Z" fill="#095184"/>
<path d="M90.2134 185.288C83.0614 183.383 75.0695 182.986 74.2216 192.234C73.5083 200.024 75.1527 206.862 84.476 205.866C85.8668 205.719 89.4883 203.989 90.2728 204.533C90.9583 205.005 93.0464 212.784 92.4957 213.335C84.6147 213.621 71.4796 215.705 66.8358 207.47C63.9156 202.29 63.9711 189.602 66.1068 184.098C69.1062 176.371 78.0452 175.874 85.2209 176.355C86.2828 176.426 92.7413 177.224 92.8166 178.022C92.8523 178.406 90.5343 185.062 90.2213 185.284L90.2134 185.288Z" fill="#095384"/>
<path d="M251.352 184.943H234.944C235.043 187.808 234.299 190.309 234.944 193.162H248.741V200.631H234.944L234.572 213.335L225.621 213.708V176.728H250.794C250.833 176.728 251.352 177.248 251.352 177.287V184.943Z" fill="#075386"/>
<path d="M201.007 176.728V184.947H189.631C189.592 184.947 189.073 185.467 189.073 185.507V213.335C187.947 212.958 179.749 214.534 179.749 213.149V184.947H168.188V176.728H201.003H201.007Z" fill="#095484"/>
<path d="M217.047 176.728V213.331L207.347 213.704V176.728H217.047Z" fill="#075588"/>
<path d="M267.764 176.728V213.335C264.662 213.681 261.571 213.808 258.441 213.708V176.728H267.764Z" fill="#075485"/>
<path d="M218.164 310.077V319.043H225.994V310.077H232.892C232.932 310.077 233.451 310.597 233.451 310.637V333.608H225.994V324.642H218.723C218.683 324.642 218.164 325.162 218.164 325.202V333.421C218.164 333.461 217.645 333.981 217.606 333.981H211.08V310.073H218.164V310.077Z" fill="#F9F8F9"/>
<path d="M187.211 310.077C187.088 310.99 187.607 315.681 186.652 315.681H176.398C176.516 316.534 176.061 318.777 176.746 319.253C177.895 320.051 183.177 318.197 184.976 319.416V324.647H176.398V328.754H187.587L187.215 333.985H169.313V310.077H187.215H187.211Z" fill="#FAFBFB"/>
<path d="M167.819 266.374V276.085C169.143 275.22 178.26 274.835 178.26 276.272V291.773H172.293V280.566C170.795 279.943 169.404 280.792 167.819 280.566V291.773H161.479V266.374H167.819Z" fill="#F9F8FA"/>
<path d="M207.724 310.077C207.264 311.244 207.629 315.423 206.991 315.895C201.166 315.665 196.558 313.971 196.154 321.456C195.801 327.972 198.056 329.52 204.177 329.123C205.053 329.068 207.141 328.068 207.549 328.734C207.846 329.381 207.498 333.247 207.3 333.556C206.265 335.191 195.92 334.183 193.8 333.171C189.37 331.056 188.225 322.888 189.172 318.574C191.439 308.232 199.284 309.76 207.724 310.077Z" fill="#F9F8F8"/>
<path d="M167.447 310.077L167.074 315.681H159.617V333.985H153.092C153.052 333.985 152.533 333.465 152.533 333.425V315.681H145.448V310.077H167.451H167.447Z" fill="#F9F8FA"/>
<path d="M124.559 267.12C123.838 268.747 124.309 270.616 124.187 272.35H116.916C116.876 272.35 116.357 272.87 116.357 272.91V291.773H110.017L109.645 272.35H101.815L102.188 267.12H124.563H124.559Z" fill="#F7F6F8"/>
<path d="M276.339 291.773H269.813C269.773 291.773 269.254 291.253 269.254 291.214V280.756C269.254 279.697 265.526 280.296 265.526 281.129V291.773H258.441V275.712H263.849C264.594 275.712 265.244 277.248 265.339 277.204C265.629 277.073 265.969 276.422 266.548 276.172C268.636 275.256 273.153 274.708 275.047 276.077C275.352 276.295 276.343 277.542 276.343 277.768V291.773H276.339Z" fill="#FBFBF9"/>
<path d="M199.518 291.773H192.806V281.129C192.806 279.494 189.077 280.355 189.077 280.57V291.214C189.077 291.254 188.558 291.773 188.518 291.773H182.179C182.139 291.773 181.62 291.254 181.62 291.214V275.712H187.029C187.207 275.712 187.734 276.843 188.451 276.776C189.057 276.72 190.69 275.625 191.974 275.434C193.658 275.188 196.831 275.069 198.226 276.077C198.531 276.295 199.522 277.542 199.522 277.768V291.773H199.518Z" fill="#F9F9F7"/>
<path d="M255.457 291.773H249.49C249.395 291.773 249.316 290.238 249.114 289.908C246.13 292.238 241.625 293.119 239.351 289.42C235.135 282.554 244.046 280.562 249.118 280.943C249.118 280.542 249.217 280.173 248.955 279.804C248.286 278.851 241.906 279.712 240.539 279.454C240.686 278.732 240.317 276.069 240.583 275.756C241.074 275.18 250.469 275.204 251.828 275.43C253.187 275.656 255.461 277.165 255.461 278.514V291.773H255.457Z" fill="#FDFCFB"/>
<path d="M141.529 286.92C142.456 287.205 141.779 290.892 141.351 291.226C139.647 292.559 131.457 292.019 129.436 290.813C124.349 287.781 124.369 277.518 130.593 275.593C137.405 273.489 143.736 276.391 142.773 284.241C142.504 284.296 142.036 284.677 141.902 284.677H132.392C132.17 285.162 133.422 286.92 133.696 286.92C135.32 286.92 140.444 286.59 141.525 286.92H141.529Z" fill="#FBFAFC"/>
<path d="M217.606 291.773C212.716 290.96 212.209 285.038 212.558 281.113C213.18 274.073 221.211 274.724 226.374 275.716L225.998 279.824C224.341 279.867 222.653 279.129 220.969 279.458C217.522 280.133 218.735 286.547 219.844 286.547H225.998V291.777C223.442 291.48 220.046 292.182 217.606 291.777V291.773Z" fill="#F9F8FB"/>
<path d="M158.496 286.547C157.656 287.896 158.94 291.472 157.192 291.777C155.072 292.15 151.304 292.119 149.24 291.523C144.901 290.265 144.263 284.947 144.695 281.129C145.488 274.188 153.262 274.386 158.496 275.716L157.743 280.197C156.162 279.744 154.779 279.2 153.068 279.431C149.529 279.903 150.357 286.547 152.342 286.547H158.496Z" fill="#F8F7FA"/>
<path d="M236.438 275.339V291.773H229.35L228.977 275.339H236.438Z" fill="#FCFBFC"/>
<path d="M209.213 275.339V291.773H203.06C203.02 291.773 202.501 291.253 202.501 291.214V275.898C202.501 275.859 203.02 275.339 203.06 275.339H209.213Z" fill="#F8F8F8"/>
<path d="M236.438 268.243V273.847C233.934 273.878 231.442 273.934 228.981 273.474V268.243H236.438Z" fill="#F7F6F8"/>
<path d="M209.213 268.243C209.027 269.326 209.621 273.152 208.864 273.68C207.878 274.371 203.935 272.978 202.501 273.47V268.239H209.213V268.243Z" fill="#F7F6FA"/>
<path d="M142.274 109.489C142.762 109.418 145.603 108.442 146.189 108.184C148.443 107.192 149.521 105.501 149.149 102.981C148.673 99.7423 143.368 97.8373 140.753 96.4522C140.483 96.3093 139.548 96.3212 140.222 95.6783C140.416 95.4917 144.358 94.3567 145.325 93.8725C146.839 93.1184 151.17 90.8563 151.629 89.3362C152.588 86.189 148.107 85.7564 145.999 85.5937C139.227 85.0698 132.337 86.4867 125.545 85.9112C125.169 85.7525 124.999 85.6731 125.078 85.1929C125.201 84.4507 127.431 77.6602 127.721 77.3626C128.042 77.0371 128.39 76.9617 128.83 76.9776C138.054 77.6801 148.487 76.1045 157.561 77.0014C164.312 77.6681 166.781 82.6053 163.544 88.5901C162.034 91.3841 159.455 92.8247 157.184 94.9401C156.784 95.3131 155.643 95.2695 156.499 96.0791C158.365 97.8492 159.97 98.6826 160.572 101.631C162.28 109.99 155.936 115.82 148.241 116.963C139.358 116.951 130.494 117.903 121.579 117.713L129.413 89.7014H140.226C140.091 92.2215 134.33 109.077 135.007 109.87C135.411 110.013 135.824 109.497 135.938 109.497C137.817 109.497 140.551 109.751 142.278 109.497L142.274 109.489Z" fill="#F6FAFB"/>
<path d="M238.673 85.9588L236.399 93.0192C232.353 93.4121 227.935 92.2929 224.131 93.809C223.969 94.4519 224.397 94.5551 224.686 94.9281C228.216 99.5001 236.486 105.12 231.751 111.708C227.535 117.574 215.101 115.581 208.639 115.828C208.108 115.847 205.045 116.792 205.489 115.661L208.841 109.676C210.984 108.966 220.7 110.291 221.722 108.759C222.11 108.18 221.908 107.489 221.69 106.89C220.854 104.608 216.468 101.397 215.018 98.631C213.397 95.5473 213.334 91.7849 216.108 89.3124C216.654 88.8242 222.808 85.9548 223.2 85.9548H238.677L238.673 85.9588Z" fill="#F3FAFA"/>
<path d="M211.076 85.9589L206.717 93.0748C205.636 93.7336 200.837 92.8922 198.943 93.0391C188.574 93.8527 186.747 105.898 196.978 108.854C199.003 109.438 201.17 109.549 203.242 109.867C203.54 110.16 200.251 115.863 199.724 116.24C197.897 117.554 188.728 115.296 186.502 114.117C179.576 110.45 178.228 101.278 182.06 94.8091C187.908 84.9349 201.313 86.6375 211.072 85.9589H211.076Z" fill="#F5F9FC"/>
<path d="M248.741 70.2704C241.672 64.4483 232.809 60.678 223.588 60.166C208.758 59.3484 192.865 60.8248 181.069 70.6554C180.142 71.4293 179.488 72.6516 178.264 72.8898L180.594 74.8463C182.452 77.3387 182.492 80.5494 179.647 82.2996C174.008 85.7683 168.025 78.6444 173.224 74.3741C174.785 73.0922 176.382 73.493 177.86 72.6675C179.128 71.9611 181.212 69.179 182.563 68.04C199.391 53.812 232.943 50.9942 248 68.9607C248.353 69.3814 248.904 69.5679 248.741 70.2704Z" fill="#F1F8FA"/>
<path d="M161.852 116.963L170.355 88.3123C170.589 87.8361 170.898 87.3122 171.433 87.1534C172.158 86.9391 175.823 86.7486 176.937 86.6891C177.745 86.6454 178.573 86.7486 179.377 86.7089L179.298 87.5543L170.24 116.963H161.848H161.852Z" fill="#F4F9FA"/>
<path d="M236.438 115.466L244.308 85.9946C247.196 86.2247 249.855 85.0659 252.672 85.9469C253.072 86.0739 253.361 85.6929 253.203 86.4867L244.644 115.462H236.438V115.466Z" fill="#F3F9FA"/>
<path d="M249.395 72.0166C249.641 71.7309 249.316 70.9728 249.669 71.0205C252.632 71.6832 256.991 73.8422 256.5 77.4538C256.155 79.9779 253.06 82.5219 250.52 82.1488C249.146 81.9464 246.138 79.1564 245.837 77.8467C245.072 74.501 247.866 73.7986 249.391 72.0166H249.395Z" fill="#EEF7F9"/>
<path d="M260.196 69.9767C266.524 68.5559 265.779 77.045 261.274 76.6124C259.218 76.414 256.753 70.7506 260.196 69.9767Z" fill="#D2E7F5"/>
<path d="M150.104 184.57C151.059 184.776 152.346 186.376 152.505 187.392C152.719 188.765 152.937 195.401 151.221 195.401H142.084V184.57C144.394 184.907 147.972 184.11 150.104 184.57Z" fill="#F1F6F6"/>
<path d="M318.854 205.862V184.57H327.246C328.724 184.57 330.535 186.55 330.907 187.999C331.712 191.15 331.767 198.294 331.082 201.481C330.713 203.183 328.237 205.858 326.501 205.858H318.858L318.854 205.862Z" fill="#F3FAFD"/>
<path d="M246.007 284.737C248.678 283.816 250.988 285.614 248.143 287.245C245.14 288.968 244.268 285.336 246.007 284.737Z" fill="#56537A"/>
<path d="M136.394 279.542C138.518 281.594 133.696 281.483 132.392 281.312C131.845 279.058 135.213 278.399 136.394 279.542Z" fill="#504566"/>
</g>
<defs>
<clipPath id="clip0_12_1686">
<rect width="433" height="393" fill="white"/>
</clipPath>
</defs>
</svg>
