<svg width="909" height="393" viewBox="0 0 909 393" fill="none" xmlns="http://www.w3.org/2000/svg">
<g clip-path="url(#clip0_12_564)">
<path d="M784.17 393H781.09C780.56 391.3 783.69 391.61 784.17 393Z" fill="#888753"/>
<path d="M908.79 306.33V382.23H522.09L522.41 306.36L908.79 306.33Z" fill="#DBA727"/>
<path d="M355.42 179.13C355.27 178.44 355.95 178.55 356.45 178.38C363.67 175.82 367.56 174.52 371.41 167.18C380.6 149.65 368.25 131.64 349.52 129.9H302.59V232.99H350.54C351.97 232.99 358.03 231.44 359.74 230.91C384.86 223.15 382.24 181.83 355.41 179.14L355.42 179.13ZM323.62 146.57C323.62 146.52 324.34 145.8 324.39 145.8H337.72C338.57 145.8 342.14 146.66 343.21 146.97C356.23 150.78 354.1 169.05 341.7 171.32C340.71 171.5 336.95 171.95 336.18 171.95H323.61V146.56L323.62 146.57ZM341.82 216.58H323.61V188.89C329.08 189.34 335.43 188.29 340.79 188.89C341.89 189.01 344.86 189.9 346.02 190.33C360.31 195.68 356.18 216.58 341.82 216.58Z" fill="#5D8292"/>
<path d="M609.28 119.13V162.72C604.9 160.54 601.24 158.52 596.19 158.11C564.03 155.49 549.64 196.84 564.38 221.2C572.68 234.91 592.41 240.17 604.93 228.89C605.68 228.22 609.2 223.64 609.79 224.26C609.11 227.12 609.26 230.05 609.28 232.98H628.26V119.12H609.28V119.13ZM609.28 206.06C608.23 215.41 594.07 222.98 586.19 216.84C574.34 207.61 576.98 176.65 593.25 174.13C601.77 172.81 608.51 175.85 609.3 185.02C609.74 190.13 609.85 201.06 609.28 206.07V206.06Z" fill="#5B8090"/>
<path d="M886.74 119.13V162.72C885.27 162.57 884.29 161.2 882.98 160.58C865.61 152.32 846.3 163.82 839.68 180.53C832.25 199.31 836.86 229.15 859.64 234.18C871.13 236.72 879.12 233.22 886.74 224.77V232.98H905.72V119.12H886.74V119.13ZM886.73 205.54C885.76 215.68 871.51 223.63 863.14 216.33C851.49 206.16 854.79 175.4 872.78 173.64C879.51 172.98 886.12 176.85 886.76 183.99C887.24 189.42 887.25 200.13 886.73 205.54Z" fill="#5C8091"/>
<path d="M697.07 171.1C688.47 156.92 668.49 155.3 654.42 161.7V119.13H634.93V230.93C651.01 235.74 670.87 238.13 685.66 228.58C703.5 217.06 707.81 188.79 697.07 171.1ZM654.41 219.14V176.83C654.41 174.89 663.03 172.47 664.93 172.43C671.93 172.29 678.62 177.79 680.97 184.12C687.43 201.52 675.76 227.28 654.42 219.14H654.41Z" fill="#5D8192"/>
<path d="M161.48 175.36C153.47 156.61 133.2 155.11 115.91 161.18V119.13H96.9299L96.9799 230.88C116.79 236.39 141.01 238.58 155.66 221.19C165.3 209.75 167.27 188.91 161.48 175.36ZM124.88 220.72C123.68 220.74 117.14 219.6 116.54 219.03C114.99 217.53 116.35 181.89 116.02 176.94C120.53 171.88 128.64 171.24 134.57 174.08C151.99 182.4 145.52 220.34 124.88 220.73V220.72Z" fill="#5C8293"/>
<path d="M64.11 146.83H20.51V172.47H56.41V189.91H20.51V232.99H0V129.39H63.85C64.41 129.39 64.58 130.64 64.65 131.16C65.22 136 64.34 141.95 64.11 146.83Z" fill="#5C8092"/>
<path d="M455.83 158.26C408.87 161.9 412.82 238.58 462.34 235.03C509.35 231.66 506.68 154.32 455.83 158.26ZM460.81 219.65C438.86 221.91 435.92 176.99 457.34 173.62C480.29 170.01 482.38 217.43 460.81 219.65Z" fill="#5D8191"/>
<path d="M833.4 232.99H814.42C814.01 218.75 814.97 204.38 814.44 190.14C814.33 187.15 814.25 182.17 813.86 179.44C812.51 169.9 802.56 175.94 798.25 179.64C796.36 181.27 788.78 188.64 788.78 190.68V232.99H769.29V160.16H788.78V171.96C790.2 172.26 789.96 170.64 790.83 169.65C798.47 160.86 811.08 155.82 822.46 160.07C828.35 162.27 833.4 168.89 833.4 175.29V232.99Z" fill="#5D8192"/>
<path d="M759.13 217.25C758.19 204.44 760.06 190.54 759.02 177.86C757.43 158.35 739.62 156.28 723.52 158.76C710.39 160.78 699.31 168.93 703.61 183.54L721.01 180.09C720.94 172.85 728.6 169.39 734.78 171.84C739.21 173.59 739.86 178.68 739.86 182.89C739.86 184.27 739.68 188.17 738.73 188.84C726.29 193.3 706 193.48 701.62 208.65C695.09 231.22 720.69 241.9 737.35 230.02C739 228.84 740.04 227.14 741.84 226.31C745.65 234.28 753.5 234.32 761.28 234.04L765.18 219.14C763.57 219.27 759.71 219.15 759.13 217.25ZM739.55 213.75C739.55 215.83 732.52 219.32 730.53 219.6C729.32 219.77 727.16 219.8 725.95 219.65C721.07 219.06 718.9 212.69 720.98 208.5C722.71 205.02 735.63 202.45 739.55 201.17V213.74V213.75Z" fill="#5C8190"/>
<path d="M232.33 185.55C232.33 171.88 218.63 159.25 205.4 158.12C157.79 154.06 150.58 229.69 194.78 234.39C207.88 235.78 221.29 232.62 232.3 225.5L225.66 210.94C220.93 213.36 216.63 216.53 211.42 217.97C196.52 222.11 184.57 215.22 184.64 199.14H232.34V185.55H232.33ZM185.66 187.34C187.62 168.26 213.51 165.74 213.35 187.34H185.66Z" fill="#5E8092"/>
<path d="M561.1 220.43C560.76 218.21 556.71 219.12 556.02 218.56C555.8 218.38 555.46 215.91 555.41 215.32C554.56 203.09 556.5 189.48 555.42 177.36C553.72 158.29 535.95 156.46 520.35 158.69C506.39 160.68 496.71 168.64 499.53 183.77C502.58 182.4 515.72 181.32 517.49 179.94C518.17 179.41 517.98 177.36 518.38 176.21C520.12 171.2 528.28 169.8 532.52 172.57C537.16 175.6 536.48 183.81 536.48 188.58C522.16 193.48 498.45 193.61 496.94 213.24C495.44 232.86 517.85 240.23 532.5 230.85L539.01 226.33C541.18 234.62 551.24 234.19 558.21 234.05C558.39 230.98 561.48 222.92 561.1 220.44V220.43ZM536.45 213.24C536.45 215.44 529.86 218.96 527.84 219.5C520.57 221.44 514.79 217.2 517.19 209.37C518.63 204.67 532.16 202.66 536.45 201.19V213.24Z" fill="#5D8192"/>
<path d="M402.6 232.99H383.62L383.18 160.49C383.43 159.62 384.12 159.72 384.88 159.62C389.93 159 395.47 160.47 400.55 160.16V174.26C400.55 174.48 401.14 175.3 401.82 174.5C402.87 173.27 403.75 170.32 404.76 168.71C408.69 162.45 413.42 157.52 421.49 159.47C423.13 159.87 427.84 163.07 428.14 164.57C428.6 166.91 422.67 179.88 421.34 182.7C413.33 175.97 404.67 187.45 403.26 194.9C403.12 195.65 402.62 198.89 402.62 199.39V232.98L402.6 232.99Z" fill="#5B8193"/>
<path d="M254.89 175.55C256.1 175.8 255.71 175.39 256.04 174.89C257.18 173.12 257.93 170.62 259.09 168.73C261.67 164.54 266.74 158.72 272.07 158.59C274.67 158.53 282.21 161.27 282.59 164.04C283.02 167.2 276.92 178.11 276.93 182.22C271.88 179.88 269.52 179.15 264.89 182.74C260.26 186.33 256.93 193.72 256.93 199.4V232.99H237.95V159.65H254.87V175.55H254.89Z" fill="#5C8091"/>
<path d="M782.2 24.85L782.13 144.53C781.44 150.48 772.3 149.45 771.83 145.57C771.77 110.35 771.78 75.06 772.39 39.91C772.45 36.28 772.96 28.65 772.37 25.53C772.06 23.9 769.72 23.76 768.51 22.72C761.69 16.84 763.89 3.25999 773.11 0.629991C789.53 -4.04001 798.06 18.35 782.19 24.84L782.2 24.85Z" fill="#1D9AD5"/>
<path d="M751.88 146.8C751.28 133.75 751.63 120.64 750.82 107.6C749.82 91.37 748.02 70.63 744.54 54.88C744.04 52.61 740.71 52.74 738.67 51.55C730.31 46.64 730.97 32.41 740.58 28.63C755.68 22.68 766.05 41.96 753.06 51.69C758.27 71.91 759.04 92.97 760.6 113.74C759.36 123.41 762.37 135.23 761.12 144.56C760.56 148.74 754.77 147.21 751.89 146.82L751.88 146.8Z" fill="#5F8494"/>
<path d="M89.24 159.65L88.47 232.99H69.75V159.65H89.24Z" fill="#5D8093"/>
<path d="M802.11 50.9301C802.03 50.8101 800.32 50.2801 799.6 49.5901C791.89 42.2201 796.91 28.6401 807.48 27.8201C822.03 26.6901 827.44 45.1001 815.11 51.8501C813.93 52.5001 811.83 52.7401 811.1 53.4801C809.33 55.3001 807.19 72.6601 806.74 76.3001C803.93 99.2501 803.21 122.41 802.64 145.54C802.19 147.83 796.54 147.32 794.77 146.73C794.14 146.52 793.94 146.18 793.91 145.53C794.34 136.31 794.07 127.03 794.4 117.81C795.11 98.1901 796.45 72.1801 801.13 53.2501C801.3 52.5801 802.37 51.2801 802.11 50.9101V50.9301Z" fill="#7F63A9"/>
<path d="M837.88 53.1C855.25 50.36 858.63 73.67 844.28 77.96C839.33 79.44 838.97 76.93 836.39 82.38C827.33 101.44 826.47 124.68 825.61 145.45C824.77 148.1 817.8 147.78 816.74 146.31C816.39 145.82 816.01 143.7 815.97 142.97C815.38 133.73 817.12 119.6 818.69 110.32C820.05 102.25 822.08 93.37 824.81 85.67C825.65 83.32 829.57 75.61 829.7 74.17C829.77 73.45 827.67 70.46 827.38 68.48C826.3 61.19 830.36 54.28 837.88 53.1Z" fill="#DEA92A"/>
<path d="M712.78 52.57C721.7 52.07 728.79 60.71 725.85 69.27C725.32 70.82 723.5 72.98 723.64 74.24C723.69 74.68 725.94 77.93 726.46 79.15C735.3 99.7 736.67 122.37 736.98 144.51C735.27 147.88 729.99 149.4 727.86 145.44C727.77 129.14 726.61 112.75 722.48 96.97C721.32 92.52 718.87 83.99 716.72 80.16C714.93 76.96 713.5 78.45 710.29 77.87C696.7 75.44 696.82 53.46 712.78 52.57Z" fill="#E2782A"/>
<path d="M904.69 290.43V256.07H908.79V297.61C907.22 297.4 904.57 298.16 903.4 297.1L882.04 263.59L880.59 262.73V297.6C880.59 297.84 876.73 298.4 876.49 296.83C875.53 290.57 877.02 281.79 877.03 275.26C877.03 269.88 875.79 263.3 876.47 257.82C876.8 255.13 880.29 255.6 882.15 256.8L903.25 289.55L904.7 290.41L904.69 290.43Z" fill="#618796"/>
<path d="M649.2 255.68C624.91 256.57 624.06 295.66 648.01 298.12C676.72 301.07 678.03 254.62 649.2 255.68ZM647.61 294.41C630.78 291.75 631.09 262.49 647.1 259.78C672.28 255.52 671.35 298.16 647.61 294.41Z" fill="#618494"/>
<path d="M843.56 255.7C819.85 256.97 818.08 292.8 841.07 297.89C869.34 304.15 873.82 254.07 843.56 255.7ZM853.65 291.44C839.24 303.1 822.08 282.44 831.77 266.99C833.36 264.45 838.03 260.37 840.96 259.77C859.35 256.01 866.62 280.95 853.65 291.44Z" fill="#608493"/>
<path d="M754.29 256.45C753.78 254.77 751.13 254.62 749.79 255.29C747.78 256.29 736.81 292.8 734.93 297.6C735.9 297.41 738.32 297.94 738.96 297.53C739.62 297.11 741.6 286.92 743.12 285.54C745.35 285.33 760.12 284.88 760.63 285.6C761.84 287.98 763.29 296.11 764.93 297.62C766.01 298.61 766.97 297.58 768.26 297.6C764.57 283.58 759.05 270.11 754.29 256.45ZM746.98 281.71C746.25 281.63 745.04 280.96 744.16 280.95L752.1 260.68L758.52 281.71C754.81 281.43 750.62 282.09 746.98 281.71Z" fill="#5E8494"/>
<path d="M541.51 255.62L536.39 255.86L522.09 297.61C522.94 297.44 525.75 297.9 526.14 297.56C526.62 297.15 529.22 287.05 530.24 285.62C530.79 284.9 545.5 285.33 547.75 285.54C549.03 286.99 551.31 297.73 551.85 298.12C552.25 298.41 555.02 297.24 555.93 297.61L541.5 255.63L541.51 255.62ZM531.84 281.71C531.73 280.84 531.97 280.07 532.19 279.24C533.33 275.06 536.13 266.79 537.97 262.96C538.34 262.18 538.73 261.19 539.79 261.19L546.21 281.71H531.85H531.84Z" fill="#5E8596"/>
<path d="M78.3299 129.51C88.1899 127.87 95.5599 139.02 89.4599 147.3C85.1599 153.13 75.4999 152.86 71.2899 147.07C66.7199 140.78 70.7499 130.77 78.3299 129.5V129.51Z" fill="#5D8095"/>
<path d="M581.41 282.91C576.59 277.25 565.64 276.52 563.69 268.05C560.65 254.85 579.52 252.89 587.2 258.95C586.47 264.11 580.35 259.31 576.64 259.18C572.57 259.03 567.54 261.39 567.7 266.07C567.97 274.35 584.99 275.37 587.01 284.75C589.56 296.61 576.49 300.45 567.24 296.83C565.25 296.05 562.42 294.99 563.22 292.33C564.08 289.47 566.04 292.24 567.55 292.93C571.14 294.57 576.2 295.6 579.71 293.42C583.22 291.24 584.25 286.23 581.42 282.91H581.41Z" fill="#618594"/>
<path d="M620.49 261.64C619.48 262.28 613.85 259.49 611.96 259.27C604.45 258.37 598.03 265.31 604.66 271.2C610.74 276.6 624.39 278.57 621.1 290.2C619.13 297.16 612.06 298.88 605.56 297.99C602.54 297.58 594.26 294.86 598.26 290.94C604.41 296.66 620.32 296.36 616.74 284.76C615.17 279.66 600.75 276.43 598.25 269.4C593.34 255.58 612.81 253.06 621.37 258.62C621.73 259.14 620.62 261.56 620.49 261.64Z" fill="#5F8493"/>
<path d="M709.73 258.69C710.26 259.54 709.44 261.39 708.41 261.64C707.6 261.84 704.4 260.23 703.13 259.91C692.32 257.18 683.66 264.39 683.1 275.28C682.28 291.14 695.06 298.82 709.27 292.48C711.95 297.08 702.43 298.71 699.28 298.68C671.92 298.39 672.43 255.11 698.74 255.54C700.38 255.57 709.04 257.6 709.73 258.69Z" fill="#608392"/>
<path d="M799.04 256.07V259.66L785.19 260.17V297.61H781.6V260.17H768.27V256.07H799.04Z" fill="#628999"/>
<path d="M812.89 256.58V297.61H808.78V256.07L812.89 256.58Z" fill="#648B9C"/>
<path d="M724.67 256.07H721.08V297.61H724.67V256.07Z" fill="#668797"/>
<path d="M603.64 323.76C605.53 323.83 608.92 322.19 610.26 324.06L622.11 355.04C623.28 354.37 623.89 352.63 624.4 351.44C628.2 342.57 630.87 332.66 635.01 323.84L641.6 323.75V361.71H636.98V331.96L635.83 332.61L624.42 361.71C623.74 362.52 620.51 362.55 619.8 361.71L608.26 332.47V361.45C608.26 362.52 604.5 362.22 603.64 362.22V323.76Z" fill="#F6F7EF"/>
<path d="M725.19 362.23H720.57V330.95L707.92 362.26C706.47 362.15 704.55 362.78 703.69 361.42L691.84 332.49V361.47C691.84 362.57 687.22 362.57 687.22 361.47V324.54C687.22 323.36 692.72 323.75 693.8 323.86L705.93 354.54L718.59 323.86C719.62 323.52 725.16 322.58 725.16 324.02V362.23H725.19Z" fill="#F7F7F1"/>
<path d="M739.03 362.23V323.77H754.67C755.21 323.77 758.47 325.5 759.05 326.05C763.58 330.33 762.2 339.28 756.47 341.97C757.55 343.08 759.11 343.33 760.31 344.28C765.69 348.53 763.56 359.22 756.99 361.47C756.63 361.59 753.82 362.23 753.65 362.23H739.03Z" fill="#F6F6F3"/>
<path d="M811.35 345.82V361.46C811.35 362.49 806.22 361.99 806.22 361.72V323.77H822.38C823.32 323.77 826.41 326.26 827.16 327.19C831.56 332.65 830.28 340.04 824.66 344.01C823.67 344.71 821.54 344.74 821.65 346C821.83 347.99 831.63 360.05 831.34 361.45C831.12 362.54 827.31 362.55 826.43 361.75L816.24 346.29C814.94 345.35 812.89 345.96 811.33 345.81L811.35 345.82Z" fill="#F5F7EF"/>
<path d="M795.45 323.76C795.29 324.97 796.05 327.83 794.61 328.31C793.48 328.69 786.68 327.73 784.4 327.84C782.58 327.93 780.88 328.53 779.04 328.38V340.18H792.89C792.89 341.03 793.19 344.8 792.12 344.8H779.04V357.62H796.48C796.53 358.51 796.61 362.03 795.63 362.26L773.92 361.73V323.78H795.46L795.45 323.76Z" fill="#F5F6ED"/>
<path d="M676.98 323.76V327.86H660.82C660.77 327.86 660.05 328.57 660.05 328.63V340.17H673.9C673.9 341.02 674.2 344.79 673.13 344.79H660.05V357.61H676.72C677.82 357.61 677.82 362.23 676.72 362.23H655.69C655.27 362.23 654.78 360.99 654.89 360.46L655.43 323.76H676.97H676.98Z" fill="#F6F7EF"/>
<path d="M743.65 357.61V344.79H752.63C753.89 344.79 757.11 347.23 757.63 348.51C758.32 350.23 758.29 353.08 757.44 354.72C757.04 355.5 754.29 357.61 753.66 357.61H743.66H743.65Z" fill="#D9AB2B"/>
<path d="M744.42 327.87H752.63C753.18 327.87 756.16 330.6 756.37 331.31C756.64 332.24 756.61 334.29 756.44 335.28C755.43 341.42 743.65 340.74 743.65 339.41V328.64C743.65 328.5 744.25 328.13 744.42 327.87Z" fill="#D8AB2C"/>
<path d="M811.6 327.87H819.29C819.58 327.87 822.22 328.88 822.62 329.16C826.41 331.86 824.79 339.15 820.53 340.91C819.02 341.53 810.83 342.51 810.83 340.95V328.64C810.83 328.5 811.43 328.13 811.6 327.87Z" fill="#DBA92C"/>
</g>
<defs>
<clipPath id="clip0_12_564">
<rect width="908.79" height="393" fill="white"/>
</clipPath>
</defs>
</svg>
