<svg width="394" height="395" viewBox="0 0 394 395" fill="none" xmlns="http://www.w3.org/2000/svg">
<g clip-path="url(#clip0_12_10)">
<path d="M296.34 366.93C295.55 367.28 294.65 366.9 295.34 366.13C297.36 365.15 299.37 364.09 301.01 362.53C300.06 363.24 298.71 362.83 299.91 361.84C300.47 361.19 301.05 360.55 301.76 360.06C311.86 352.99 320.89 346.44 329.87 337.88C389.72 280.8 407.14 190.25 372.05 115.22C330.85 27.12 231.06 -17.19 138.28 12.18C125.93 16.09 115.45 21.08 103.91 26.78C103.13 27.17 102.28 27.38 101.43 27.56L101.07 27.45L92.0902 32.62C89.7502 32.21 93.4002 29.56 94.1102 29.51C94.1302 29.51 93.8102 29.56 93.7802 29.34C186.94 -28.66 309.06 2.38004 365.08 95.51C421.63 189.51 390.1 311.61 296.34 366.93Z" fill="#28246A"/>
<path d="M59.1398 337.63L59.2398 337.29C55.9998 334.22 52.9698 330.96 50.1498 327.49C49.7398 325.2 50.4998 325.72 51.6698 326.93C56.2398 331.63 60.8498 336.21 65.5098 340.81C69.2798 344.53 73.8698 348.19 78.2498 351.14L78.7198 350.79C88.7998 357.89 98.7498 364.76 110.94 370.78C161.14 395.55 220.19 397.53 271.83 375.86C280.87 372.07 288.8 367.63 297.3 362.86C298.12 362.4 299.02 362.11 299.91 361.84C299.47 362.4 299.7 362.5 300.28 362.34C301.16 362.11 301.57 360.65 302.45 361.71C300.64 363.99 297.93 365.48 295.32 366.68L296.34 366.93C219.8 412.09 122.05 400.24 59.1398 337.63Z" fill="#2B2872"/>
<path d="M93.7902 29.35C94.7402 29.35 94.2102 29.43 93.8702 29.78C93.5302 30.13 91.7602 31.62 91.7602 31.77C91.7602 32.73 92.9202 31.59 93.0502 31.53C95.8102 30.34 98.1502 28.65 100.8 27.3C101.3 27.04 101.51 26.74 101.44 27.56C100.88 28.16 100.3 28.75 99.6002 29.19C90.9202 34.65 82.9602 39.67 74.9702 46.2C51.4402 65.43 32.6302 90.31 20.1702 118.01C14.5202 130.57 11.1402 142.29 7.6702 155.51C7.4602 156.31 7.0702 157.04 6.6602 157.75L4.7902 167.92C3.6102 168.64 3.8402 166.62 4.0102 165.75L4.5702 162.65C4.3102 162.91 3.8202 163.38 3.4502 163.08L3.8502 159.79C4.4202 153.74 7.0202 145.35 8.8202 139.41C22.8302 93.12 52.9402 54.78 93.7902 29.35Z" fill="#241F5E"/>
<path d="M12.26 257.63C12.95 260.84 13.91 264 15.15 267.11C15.25 267.55 14.64 268.19 14.2 268.09C13.89 268.02 12.42 264.36 12.21 263.73C10.63 259.06 9.10997 254.39 7.75997 249.65C7.73997 249.41 7.73997 249.18 7.80997 248.97C7.82997 248.92 7.98997 249.89 7.42997 249.48C1.40997 227.52 -1.23003 205.15 0.539973 182.35C1.12997 174.77 2.36997 167.24 3.84997 159.8C3.75997 160.8 3.91997 161.83 3.59997 162.86C4.16997 162.6 4.25997 161.48 5.11997 161.59C5.44997 161.97 3.95997 166.94 4.47997 167.96L6.64997 157.77L6.80997 158.96C3.37997 178.89 2.17997 198.35 4.55997 218.56C6.04997 231.25 8.91997 242.71 12.03 255.03C12.25 255.88 12.26 256.77 12.26 257.65V257.63Z" fill="#2B2871"/>
<path d="M7.42016 249.48L7.80016 248.97C9.61016 253.96 10.6802 259.29 12.7202 264.18C13.1802 265.29 14.0602 266.47 14.3002 267.83L14.7702 267C13.7702 263.76 12.5102 260.55 11.7502 257.26L12.2602 257.64C12.6402 258.08 13.0402 258.55 13.2402 259.1C16.4202 267.84 19.3802 275.69 23.6702 284.03C31.1302 298.54 40.6302 312.91 51.3702 325.18C59.2602 334.2 67.5502 341.41 76.6402 349.21C77.2802 349.76 77.7702 350.45 78.2502 351.14C76.0402 350.76 67.6902 343.26 65.2802 341.05C60.4702 336.63 55.9602 331.8 51.3502 327.19C51.2602 327.1 50.5702 325.72 50.4702 326.55C50.3802 327.27 50.7502 327.65 51.1302 328.18C53.1602 331.04 56.2702 333.88 58.7202 336.38C58.8002 336.46 60.1902 337.91 59.1302 337.63C33.9002 312.52 16.8402 283.94 7.41016 249.48H7.42016Z" fill="#272368"/>
<path d="M40.46 313.26C42.26 315.48 43.99 317.99 45.79 320.28C46.7 321.44 46.29 321.26 46.71 322.04C46.9 322.39 48.89 323.25 48.44 324.64C48.07 325.02 45.5 322.13 45.14 321.7C42.77 318.93 41.11 315.69 39.03 312.85C38.73 312.45 36.53 311.19 38.34 311.17L40.46 313.25V313.26Z" fill="#2B2872"/>
<path d="M50.2201 326.17C49.6101 326.9 48.4701 325.41 48.7001 324.64C48.7901 324.53 50.5901 325.73 50.2201 326.17Z" fill="#2B2872"/>
<path d="M372.59 125.71C371.46 122.98 369.77 119.94 368.82 117.25C368.74 117.03 368.52 116.57 368.82 116.48C369.14 116.88 369.43 117.33 369.71 117.75L369.38 117.83C370.7 120.41 371.81 123.14 372.83 125.81L373.02 125.64C373.11 126.5 372.78 126.19 372.58 125.7L372.59 125.71Z" fill="#332E84"/>
<path d="M375.83 132.79L375.7 133.04H375.07L374.82 131.26L375.33 131.51C375.03 131.89 375.29 132.7 375.84 132.78L375.83 132.79Z" fill="#332E84"/>
<path d="M378.89 142.47C378.89 142.72 378.89 142.98 378.89 143.23C377.99 142.87 378.28 141.82 378.05 141.14C377.45 139.32 376.63 137.47 376.35 135.59C376.63 135.53 376.72 135.89 376.85 136.1C377.15 137.52 377.62 139.07 378.26 140.74C378.55 142.72 378.76 143.3 378.89 142.47Z" fill="#332E84"/>
<path d="M383.65 161.53C382.47 155.16 380.94 148.59 378.89 142.47C378.89 142.72 378.89 142.98 378.89 143.23C377.99 142.87 378.28 141.82 378.05 141.14C377.45 139.32 376.63 137.47 376.35 135.59C376.63 135.53 376.72 135.89 376.85 136.1C376.74 134.93 376.2 133.88 375.83 132.79L375.7 133.04H375.07L374.82 131.26L375.33 131.51C374.57 129.36 373.88 127.73 373.04 125.65C373.13 126.51 372.8 126.2 372.6 125.71C371.47 122.98 369.78 119.94 368.83 117.25C368.75 117.03 368.53 116.57 368.83 116.48C369.15 116.88 369.44 117.33 369.72 117.75C369.69 116.51 368.69 115.45 368.19 114.44C349.39 76.26 320.06 45.04 281.56 26.29C280.1 25.98 278.5 25.05 277.23 24.25C276.28 23.82 275.37 23.42 274.43 22.98C273.24 22.73 271.84 22.16 270.86 21.45C269.46 20.88 268.16 20.26 266.78 19.67C265.85 19.67 264.71 19.24 263.98 18.65C261.01 17.6 258.01 16.73 255.06 15.59C254.17 15.51 253.16 15.21 252.51 14.57C252.43 14.55 252.34 14.59 252.26 14.57C251.41 14.38 250.23 14.54 249.46 13.81C247.12 13.33 244.88 12.54 242.58 12.03C236 10.28 229.31 8.90001 222.55 7.99001C147.99 -2.15999 75.7498 31.94 35.9498 95.08C-20.1802 184.14 6.28983 301.29 94.1598 358.02C103.87 364.29 115.33 370.25 126.07 374.52C129.15 375.74 134.23 377.82 137.35 378.4C149.02 382.3 161.18 384.99 173.4 386.55C226.19 393.28 280.32 376.7 320.4 342.21C372.25 297.6 396.19 229.26 383.64 161.53H383.65ZM380.31 209.55C373.63 306.94 292.59 382.73 194.5 381.58C183.89 381.46 174.14 380.2 163.68 378.84C162.8 378.73 161.92 378.81 161.04 378.91C160.42 378.55 159.77 378.19 159.06 378.02C149.71 375.81 141.27 373.7 132.23 370.23C107.54 360.74 84.3198 345.72 65.6998 326.84C11.8498 272.21 -3.07018 187.07 30.1898 117.76C35.1798 107.36 40.8798 98.73 47.3298 89.25C47.8198 88.54 48.1398 87.73 48.4298 86.93C49.1198 86.44 49.8098 85.92 50.3598 85.27C57.3698 76.92 63.8698 69.27 71.9398 61.85C119.75 17.84 186.74 1.22001 249.21 20.04C259.85 23.24 269.04 27.37 279.08 31.96C279.87 32.32 280.72 32.5 281.57 32.66C282.13 33.23 282.7 33.8 283.39 34.2C292.36 39.46 300.56 44.34 308.85 50.75C324.32 62.73 337.95 77.12 348.99 93.28C354.67 101.6 358.89 109.74 363.45 118.65C363.81 119.36 364.34 119.97 364.88 120.56C364.31 121.04 364.68 121.8 365.39 121.58C368.68 129.06 370.96 136.87 373.8 144.51L373.77 145.7C379.45 166.69 381.81 187.79 380.32 209.55H380.31Z" fill="#342F86"/>
<path d="M252.26 14.5701C251.41 14.3801 250.23 14.5401 249.46 13.8101L252.26 14.5701Z" fill="#312E81"/>
<path d="M255.07 15.5899C254.18 15.5099 253.17 15.2099 252.52 14.5699C253.34 14.9899 254.18 15.3699 255.07 15.5899Z" fill="#312E81"/>
<path d="M266.79 19.66C265.86 19.66 264.72 19.23 263.99 18.64C264.87 19.11 265.82 19.44 266.79 19.66Z" fill="#312E81"/>
<path d="M274.43 22.9799C273.24 22.7299 271.84 22.16 270.86 21.45C272 22.07 273.2 22.5599 274.43 22.9799Z" fill="#312E81"/>
<path d="M281.56 26.29C280.1 25.98 278.5 25.05 277.23 24.25C278.64 25 280.06 25.75 281.56 26.29Z" fill="#312E81"/>
<path d="M372.59 125.71C371.46 122.98 369.77 119.94 368.82 117.25C368.74 117.03 368.52 116.57 368.82 116.48C369.14 116.88 369.43 117.33 369.71 117.75C371.29 120.12 371.97 123.03 373.02 125.65C373.11 126.51 372.78 126.2 372.58 125.71H372.59Z" fill="#312E81"/>
<path d="M378.89 142.47C378.89 142.72 378.89 142.98 378.89 143.23C377.99 142.87 378.28 141.82 378.05 141.14C377.45 139.32 376.63 137.47 376.35 135.59C376.63 135.53 376.72 135.89 376.85 136.1C377.59 137.2 378.88 141.11 378.89 142.47Z" fill="#312E81"/>
<path d="M274.43 22.9799C273.24 22.7299 271.84 22.16 270.86 21.45C272.19 21.99 273.11 22.3599 274.43 22.9799Z" fill="#342F86"/>
<path d="M375.83 132.79L375.7 133.04H375.07L374.82 131.26L375.33 131.51C375.47 131.9 375.68 132.29 375.84 132.78L375.83 132.79Z" fill="#312E81"/>
<path d="M281.56 26.29C280.1 25.98 278.5 25.05 277.23 24.25C278.69 24.9 280.1 25.58 281.56 26.29Z" fill="#342F86"/>
<path d="M266.79 19.66C265.86 19.66 264.72 19.23 263.99 18.64C265.02 19 265.72 19.2 266.79 19.66Z" fill="#342F86"/>
<path d="M252.26 14.5701C251.41 14.3801 250.23 14.5401 249.46 13.8101C250.38 14.0001 251.44 14.0201 252.26 14.5701Z" fill="#342F86"/>
<path d="M255.07 15.5899C254.18 15.5099 253.17 15.2099 252.52 14.5699C253.7 14.8399 254.13 15.2199 255.07 15.5899Z" fill="#342F86"/>
<path d="M131.24 160.3C131.36 159.05 131.43 157.8 131.47 156.55C131.48 156.19 131.49 155.82 131.5 155.46C131.28 157.2 131.29 158.53 131.25 160.3H131.24ZM131.5 185.53C131.48 185.28 131.47 185.02 131.47 184.76L131.25 178.91C131.28 181.11 131.04 183.44 131.5 185.53ZM131.5 220.69C131.5 222.43 131.48 224.18 131.5 225.92C131.5 226.35 131.34 227.05 131.76 227.32C131.6 225.18 131.52 222.97 131.51 220.7L131.5 220.69ZM131.75 227.82C131.75 228.78 131.54 230.12 132 230.88L131.75 227.82ZM131.47 156.55C131.48 156.19 131.49 155.82 131.5 155.46C131.47 155.81 131.46 156.18 131.47 156.55Z" fill="#1C4696"/>
<path d="M239.27 236.99C238.45 236.56 237.34 235.63 236.72 234.95C236.85 234.87 236.96 234.82 237.01 234.86C237.49 235.2 238.8 236.3 239.27 236.72C239.31 236.76 239.3 236.87 239.27 236.99Z" fill="#19499E"/>
<path d="M235.19 200.81V219.88C235.19 213.53 235.11 207.16 235.19 200.81Z" fill="#1A4797"/>
<path d="M235.45 228.08L234.98 221.83C234.98 221.62 235.2 221.49 235.2 221.46C235.3 223.66 235.38 225.86 235.45 228.08Z" fill="#1A4797"/>
<path d="M235.7 230.88C235.49 229.85 235.49 229.39 235.45 228.33C235.58 229.01 235.66 229.7 235.69 230.4C235.7 230.56 235.71 230.72 235.71 230.88H235.7Z" fill="#1A4797"/>
<path d="M235.96 233.68C235.96 233.68 235.94 233.68 235.93 233.67C235.8 233.63 235.43 233.72 235.2 233.56C234.49 233.04 235.19 232.08 235.96 232.67V231.9L236.06 232.87C235.5 232.82 235.33 232.95 235.55 233.26C235.63 233.38 235.77 233.52 235.96 233.69V233.68Z" fill="#1A4797"/>
<path d="M236.72 234.96C236.44 234.66 236.41 233.94 235.96 233.69C236.41 233.47 237.01 234.62 236.72 234.96Z" fill="#1A4797"/>
<path d="M234.94 165.65C234.97 162.58 234.77 159.75 235.45 156.73C235.12 159.69 234.95 162.66 234.94 165.65Z" fill="#1E4593"/>
<path d="M112.07 246.92C111.85 246.95 111.62 246.99 111.4 247.02L109.89 246.89C107.2 247.73 104.63 248.44 101.69 247.95C103.36 247.92 105.28 248.04 106.92 247.7C107.43 247.59 108.53 246.52 110.02 246.43C110.84 246.38 111.05 246.88 111.5 246.91C111.68 246.92 111.88 246.93 112.09 246.92H112.07Z" fill="#1D4695"/>
<path d="M117.74 228.84C117.68 230.23 117.74 230.55 117.23 231.9L117.74 228.84Z" fill="#1D4695"/>
<path d="M148.82 247.69C146.86 248.15 144.84 248.03 142.86 247.66C142.86 246.33 142.61 246.28 142.08 247.5C137.81 246.62 133.6 246.11 129.41 245.93C129.4 245.93 129.38 245.93 129.37 245.93C128 245.87 126.63 245.84 125.26 245.85H125.24C122.72 245.87 120.2 246 117.67 246.23C119.31 245.96 120.92 245.71 122.19 245.64C128.91 245.31 135.31 246.46 141.91 247.14C142.02 246.71 141.98 246.15 142.58 246.15C143.7 246.15 143.16 247.37 143.21 247.43C143.58 247.84 147.97 247.81 148.82 247.69Z" fill="#1D4695"/>
<path d="M212.77 247.69C211.79 247.91 210.77 248 209.71 247.94C210.73 247.83 211.7 247.77 212.77 247.69Z" fill="#1D4695"/>
<path d="M219.65 236.23C220.04 236.12 220.2 236.03 219.9 235.72C221.82 235.77 220.82 237.73 219.65 236.23Z" fill="#1D4695"/>
<path d="M221.44 233.43C220.9 234.26 220.55 234.92 219.91 235.72C219.98 235.04 220.72 233.48 221.44 233.43Z" fill="#1D4695"/>
<path d="M241.18 237.76C241.02 237.76 239.56 237.14 239.27 237C239.66 236.79 241.18 237.22 241.18 237.76Z" fill="#1D4695"/>
<path d="M247.68 237.76H241.18C241.22 237.57 241.26 237.42 241.3 237.42C243.05 237.34 245.74 237.39 247.5 237.49C247.56 237.49 247.62 237.61 247.67 237.76H247.68Z" fill="#1D4695"/>
<path d="M270.33 237.2C270.13 237.21 269.92 237.22 269.71 237.24C269.11 237.3 268.68 237.69 268.4 237.71C268.13 237.73 267.91 237.44 267.66 237.31C268.55 237.26 269.44 237.22 270.33 237.19V237.2Z" fill="#1D4695"/>
<path d="M279.53 236.48C276.01 237.85 273.88 237.12 270.92 237.17C272.51 237.11 274.1 237.08 275.72 237.04C277.03 236.8 278.3 236.62 279.52 236.48H279.53Z" fill="#1D4695"/>
<path d="M291.5 247.95C289.74 248.13 288 248.05 286.3 247.72L291.5 247.95Z" fill="#1D4695"/>
<path d="M280.22 236.76C280.16 236.79 280.1 236.81 280.03 236.83L279.6 236.54C279.79 236.66 279.99 236.73 280.22 236.76Z" fill="#1D4695"/>
<path d="M296.59 231.78C296.43 228.1 296.58 224.14 296.6 220.43C296.6 219.63 296.39 218.47 296.85 217.88C296.85 217.03 296.85 216.18 296.85 215.33C296.85 214.53 296.64 213.37 297.1 212.78C297.1 212.1 297.1 211.42 297.1 210.74C297.1 209.5 297.18 208.14 297.1 206.92C296.67 200.35 288.04 199.17 285.77 205.14C285.44 206 285.5 206.37 285.38 207.18C285.38 209.38 285.38 211.6 285.38 213.8V216.09C285.85 217.54 285.63 219.39 285.63 220.93C285.63 222.2 285.67 223.49 285.63 224.75C285.59 225.97 285.67 226.6 285.38 227.81C283.6 235.04 280.21 236.65 273.04 236.99C266.19 237.32 259.21 236.93 252.4 236.97C248.81 236.99 242 237.99 239.03 236.32C237.76 235.6 236.75 234.23 236.2 232.9L235.95 233.66C236.4 233.44 237 234.59 236.71 234.93C236.84 234.85 236.95 234.8 237 234.84C237.48 235.18 238.79 236.28 239.26 236.7C239.3 236.74 239.29 236.85 239.26 236.97C239.65 236.76 241.17 237.19 241.17 237.73C241.21 237.54 241.25 237.39 241.29 237.39C243.04 237.31 245.73 237.36 247.49 237.46C247.55 237.46 247.61 237.58 247.66 237.73H241.16C241 237.73 239.54 237.11 239.25 236.97C238.43 236.54 237.32 235.61 236.7 234.93C236.42 234.63 236.39 233.91 235.94 233.66C235.94 233.66 235.92 233.66 235.91 233.65C235.78 233.61 235.41 233.7 235.18 233.54C234.47 233.02 235.17 232.06 235.94 232.65V231.88C235.84 231.51 235.77 231.25 235.69 230.86C235.48 229.83 235.48 229.37 235.44 228.31C235.44 228.23 235.44 228.14 235.44 228.06L234.97 221.81C234.97 221.6 235.19 221.47 235.19 221.44C235.19 221.1 235.19 220.76 235.19 220.42V219.87C235.19 213.52 235.11 207.15 235.19 200.8C235.19 200.23 234.92 199.66 234.99 199.21C235.05 198.86 235.91 196.93 236.16 196.55C237.44 194.53 240 194.33 242.2 194.18C246.07 193.93 255.29 193.79 257.72 197.25C261.48 202.61 252.92 220.04 264.87 218.89C269.19 218.47 269.8 215.08 269.59 211.38C269.05 202.22 267.02 194.21 267.56 184.63C267.85 179.43 270.79 167.12 269.13 162.92C267.5 158.78 260.66 158.11 258.68 162.25C255.63 168.62 263.83 180.61 253.74 183.3C251.18 183.98 241.91 184.1 239.17 183.72C237.89 183.54 236.1 182.09 235.59 180.92C235.41 180.5 235.52 180.23 235.45 179.92C234.91 177.34 235.23 174.1 235.2 171.38C235.2 170.95 235.36 170.25 234.94 169.98C234.96 168.54 234.93 167.09 234.94 165.65C234.97 162.58 234.77 159.75 235.45 156.73C237.24 148.81 244.32 149.06 251.11 148.82C258.24 148.57 266.98 148.75 273.98 149.92C280.15 150.95 282.01 153.56 283.09 159.53C284.12 165.2 283.19 170.84 283.6 176.47C283.91 180.73 285.36 185.16 290.58 184.48C298.06 183.51 294.54 172.44 294.28 167.57C294.02 162.58 294.63 157.62 294.8 152.66C295.02 150.68 295.77 145.61 295.59 143.86C295.54 143.39 295.11 143.52 295.06 143.32C294.86 142.4 295.07 142.03 294.55 140.95C293.89 139.59 291.98 138.37 290.53 137.97C287.82 137.22 282.44 137.77 279.38 137.89C263.94 138.47 247.37 140.05 231.99 139.44C223.74 139.11 213.89 137.18 205.76 137.91C201.83 138.26 200.34 140.54 200.79 144.4C200.92 145.48 201.21 145.78 201.81 146.57C202.42 147.36 203.36 148.25 204.36 148.5C205.1 148.69 205.29 148.45 205.89 148.35C209.92 148.39 214.38 146.51 218.12 148.86C220.08 150.09 221.46 153.36 221.69 155.61C222.47 163.48 221.61 173.69 221.68 181.86C221.8 196.09 222.72 211.51 221.94 225.67C221.67 230.69 221.08 236.35 215.57 238.15C211.34 239.53 207.89 235.75 203.5 237.55C199.66 239.13 199.95 245 203.26 247.16C205.46 248.6 207.36 248.23 209.71 247.97C210.73 247.86 211.7 247.8 212.77 247.72C233.53 246.47 254.51 246.83 274.94 247.47C277.7 247.77 280.42 247.6 283.23 247.71C285.95 247.82 288.86 248.54 291.5 247.97C289.74 248.15 288 248.07 286.3 247.74H286.05C286.05 247.74 286.05 247.7 286.04 247.69C286.13 247.71 286.22 247.73 286.31 247.74L291.51 247.97C291.75 247.92 291.9 247.75 292.02 247.72C299.47 245.38 296.85 237.69 296.6 231.81L296.59 231.78ZM219.65 236.23C219.75 236.12 219.8 235.86 219.9 235.72C219.97 235.04 220.71 233.48 221.43 233.43C220.89 234.26 220.54 234.92 219.9 235.72C221.82 235.77 220.82 237.73 219.65 236.23ZM222.97 207.95C222.68 207.53 222.76 205.29 223.47 205.92C223.67 206.1 223.92 206.88 224.75 207.06L222.98 207.95H222.97ZM269.71 237.24C269.11 237.3 268.68 237.69 268.4 237.71C268.13 237.73 267.91 237.44 267.66 237.31C267.49 237.31 267.32 237.33 267.15 237.34C267.26 237.28 267.35 237.25 267.43 237.25C267.51 237.25 267.59 237.28 267.66 237.32C268.55 237.27 269.44 237.23 270.33 237.2C270.13 237.21 269.92 237.22 269.71 237.24ZM270.92 237.18C272.51 237.12 274.1 237.09 275.72 237.05C277.03 236.81 278.3 236.63 279.52 236.49C276 237.86 273.87 237.13 270.91 237.18H270.92ZM280.04 236.83L279.61 236.54C279.8 236.66 280 236.73 280.23 236.76C280.17 236.79 280.11 236.81 280.04 236.83ZM294.56 214.07L296.09 214.32C295.83 215.79 294.29 215.67 294.56 214.07Z" fill="#1C4696"/>
<path d="M236.21 232.92L235.96 233.68C235.96 233.68 235.94 233.68 235.93 233.67C235.65 233.56 235.53 233.4 235.55 233.25C235.57 233.05 235.81 232.89 236.21 232.91V232.92Z" fill="#1C4794"/>
<path d="M236.72 234.96C236.44 234.66 236.41 233.94 235.96 233.69C236.41 233.47 237.01 234.62 236.72 234.96Z" fill="#1C4794"/>
<path d="M239.27 236.99C238.45 236.56 237.34 235.63 236.72 234.95C236.85 234.87 236.96 234.82 237.01 234.86C237.49 235.2 238.8 236.3 239.27 236.72C239.31 236.76 239.3 236.87 239.27 236.99Z" fill="#1C4794"/>
<path d="M241.18 237.76C241.02 237.76 239.56 237.14 239.27 237C239.66 236.79 241.18 237.22 241.18 237.76Z" fill="#1C4794"/>
<path d="M247.68 237.76H241.18C241.22 237.57 241.26 237.42 241.3 237.42C243.05 237.34 245.74 237.39 247.5 237.49C247.56 237.49 247.62 237.61 247.67 237.76H247.68Z" fill="#1C4794"/>
<path d="M270.33 237.2C270.13 237.21 269.92 237.22 269.71 237.24C269.11 237.3 268.68 237.69 268.4 237.71C268.13 237.73 267.91 237.44 267.66 237.31C268.55 237.26 269.44 237.22 270.33 237.19V237.2Z" fill="#1C4794"/>
<path d="M279.53 236.48C276.01 237.85 273.88 237.12 270.92 237.17C272.51 237.11 274.1 237.08 275.72 237.04C277.03 236.8 278.3 236.62 279.52 236.48H279.53Z" fill="#1C4794"/>
<path d="M280.22 236.76C280.16 236.79 280.1 236.81 280.03 236.83L279.6 236.54C279.79 236.66 279.99 236.73 280.22 236.76Z" fill="#1C4794"/>
<path d="M285.39 213.81C285.18 211.61 285.24 209.39 285.39 207.19C285.39 209.39 285.39 211.61 285.39 213.81Z" fill="#1C4794"/>
<path d="M285.64 224.76C285.6 225.98 285.68 226.61 285.39 227.82C285.39 227.67 285.41 227.53 285.42 227.39V227.33C285.46 226.47 285.54 225.61 285.65 224.77L285.64 224.76Z" fill="#1C4794"/>
<path d="M285.64 220.94L285.39 216.1C285.86 217.55 285.64 219.4 285.64 220.94Z" fill="#1C4794"/>
<path d="M296.09 214.32C295.83 215.79 294.29 215.67 294.56 214.07L296.09 214.32Z" fill="#1C4794"/>
<path d="M296.85 217.88L296.6 220.43C296.6 219.63 296.39 218.47 296.85 217.88Z" fill="#1C4794"/>
<path d="M297.11 212.79L296.86 215.34C296.86 214.54 296.65 213.38 297.11 212.79Z" fill="#1C4794"/>
<path d="M297.11 210.75C297.11 209.51 297.19 208.15 297.11 206.93C297.37 208.19 297.33 209.49 297.11 210.75Z" fill="#1C4794"/>
<path d="M219.65 236.23C219.75 236.12 219.8 235.86 219.9 235.72C220.49 236.07 220.32 236.31 219.65 236.23Z" fill="#1C4793"/>
<path d="M221.44 233.43C220.9 234.26 220.55 234.92 219.91 235.72C219.98 235.04 220.72 233.48 221.44 233.43Z" fill="#1C4793"/>
<path d="M224.74 207.06L222.97 207.95C222.68 207.53 222.76 205.29 223.47 205.92C223.67 206.1 223.92 206.88 224.75 207.06H224.74Z" fill="#1C4793"/>
<path d="M359.27 182.34C359.43 181.81 361.57 181.69 361.78 182.37C362.06 183.25 361.94 185.6 362.07 186.66C362.2 187.72 363.04 190.7 362.59 191.45C362.5 191.6 360.69 192.9 360.36 193.12C354.86 196.72 348.35 199.66 342.97 203.25C342.72 203.41 341.28 204.27 341.68 204.63L360.62 203.07C361.88 202.13 360.05 198.28 361.53 197.87C364.45 197.05 363.42 201.08 363.59 202.98C363.69 204.07 364.64 209.17 364.31 209.7C364.1 210.04 362.29 210.01 361.8 209.99C361.91 209.43 361.6 206.27 361.12 206.16C360.29 206.19 359.45 206.13 358.62 206.17C352.13 206.51 345.54 207.78 339.02 207.68C338.83 207.68 338.24 207.52 338.16 207.4C337.97 207.11 337.59 203.82 337.86 203.51C338.75 202.47 343.21 199.98 344.66 199.09C347.66 197.25 350.72 195.45 353.74 193.65C354.71 193.07 359.1 191.37 358.75 190C358.63 189.55 356.55 189.82 356.08 189.87C350.75 190.48 345.47 191.92 340.06 191.94C338.95 192.3 340.47 196.5 338.95 196.95C336.69 197.62 337.48 195.43 337.34 194.07C337.09 191.68 336.16 187.57 336.3 185.4C336.32 185.05 336.23 184.63 336.57 184.38C336.74 184.25 337.94 183.97 338.11 184.1C338.84 184.67 338.47 188.6 339.75 188.84L359.24 186.67C359.45 185.55 358.95 183.27 359.24 182.34H359.27Z" fill="#2B2870"/>
<path d="M299.15 94.31C299.62 94.79 301.11 92.79 301.43 92.39C304.75 88.38 307.51 83.43 310.82 79.34C311.32 77.83 307.83 76.8 307.58 76.05C307.32 75.25 308.32 74.72 308.32 73.93L318.23 80.97C318.28 81.27 317.02 82.53 316.81 82.56C316.4 82.63 314.18 80.54 313.15 81.18C309.55 85.6 306.52 90.5 302.95 94.94C302.19 95.88 300.33 98.54 299.24 98.64C298.37 98.72 296.08 97.15 296.07 96.23C296.04 94.79 296.66 92.23 296.93 90.69C297.88 85.13 299.62 79.24 300.35 73.72C300.47 72.78 300.67 71.84 299.54 72.66C296.03 77.63 292.09 82.29 288.81 87.42C288.68 87.69 288.65 87.92 288.81 88.19C289.2 88.79 292.82 90.68 292.22 91.72C292.15 91.85 290.54 92.89 290.22 92.39C288.06 90.57 285.9 88.65 283.57 87.06C281.84 85.87 279.69 85.97 282.22 83.36C283.11 83.59 285.69 85.97 286.39 85.52L298.37 69.46C298.37 68.64 295.25 67.14 295.07 66.61C294.89 66.08 295.55 64.47 296.19 64.47C296.67 64.47 303.62 69.81 303.72 70.48L299.13 94.29L299.15 94.31Z" fill="#29256B"/>
<path d="M346.35 262.54C346.87 262 347.67 262.76 348.3 262.76C348.4 263.11 348.34 263.47 348.27 263.82C348.04 264.92 345.78 270.1 345.15 271.15C343.83 273.36 343.73 272.31 341.83 272.4C338.64 272.55 335.35 272.87 332.16 272.94C328.59 273.02 324.08 272.53 320.67 272.92C318.68 273.15 320.65 274.26 321.48 274.68C323.79 275.86 326.59 276.61 328.96 277.65C331.76 278.87 334.45 280.41 337.29 281.55C339.08 281.02 338.95 277.12 340.79 277.27C342.63 277.42 341.57 279.45 341.13 280.64C340.75 281.66 338.13 288.54 337.72 288.69C337.07 288.92 336.23 288.61 335.59 288.47C335.39 288.18 337.11 285.07 336.57 284.18C331 281.52 325.01 279.35 319.48 276.68C318.65 276.28 317.35 275.66 316.6 275.22C316.29 275.04 315.56 274.61 315.49 274.29C315.36 273.6 317.3 271.24 317.56 270.44C318.8 269.68 320.18 270.4 321.45 270.4C326.58 270.4 331.84 269.83 336.98 269.6C337.97 269.56 342.17 269.91 342.47 269.23C342.86 268.33 341.08 268.42 340.44 268.21C337.71 267.3 334.23 265.79 331.52 264.65C329.31 263.72 327.17 262.59 325.02 261.54C323.04 262.85 323.3 266.83 320.16 265.05C319.79 264.59 321.82 261.11 322.14 260.37C322.85 258.71 323.58 256.06 324.34 254.67C324.82 253.79 325.56 253.16 326.54 253.85C327.92 254.82 324.95 257.64 325.93 258.79L343.7 266.78C345.06 267.12 345.67 263.28 346.38 262.55L346.35 262.54Z" fill="#2B2870"/>
<path d="M191.6 29.63L193.12 39.87C189.41 43.11 190.59 33.62 188.66 32.95C188.23 32.8 183.25 33.58 182.4 33.74C181.55 33.9 178.39 34.42 178.27 35.16C178.18 35.73 179.25 41.5 179.53 41.83C180.08 42.48 183.57 41.98 184.47 41.54C184.86 40.43 184 36.78 184.47 36.12C184.79 35.86 186.66 35.91 186.76 36C187.05 36.25 187.38 42.6 187.58 43.72C187.73 44.58 188.93 48.02 188.71 48.46C188.51 48.86 187.54 49.13 187.09 49.17C184.82 49.4 186.13 44.5 184.76 44.24C184.41 44.17 180.34 44.87 180.14 45C179.77 45.25 179.89 45.86 179.92 46.25C180 47.22 181.39 54.01 181.79 54.34C181.94 54.47 182.09 54.56 182.3 54.54C183.94 54.03 191.77 53.53 192.65 52.66C193.76 51.55 191.75 46.34 192.16 45.05C192.37 44.4 193.92 44.15 194.43 44.49C195.02 44.88 195.06 48.37 195.22 49.31C195.4 50.33 196.47 53.95 196.09 54.57C195.45 55.61 185.24 56.63 183.41 56.93C182.17 57.13 174.76 58.82 174.3 58.53C173.81 58.23 173.56 56.94 174.04 56.47C174.79 55.73 178.29 55.72 178.4 54.7L175.05 35.22C173.52 34.64 170.48 36.64 169.65 34.89C169.07 33.67 169.85 33.23 170.93 32.98C176.07 31.77 182.3 31.19 187.61 30.3C188.32 30.18 191.12 29.33 191.6 29.64V29.63Z" fill="#2D2974"/>
<path d="M54.7502 214.89C54.4802 214.55 52.2302 214.8 51.6602 214.86C46.0002 215.48 40.1502 217.08 34.4302 217.63C34.1102 217.94 34.9002 221.65 34.6902 222.55C34.6002 222.96 33.0002 223.13 32.6202 222.86L29.1802 201.04C30.4302 200.95 39.4002 199.15 39.7702 199.53C39.8502 199.61 40.0802 201.42 39.7802 201.7C38.6302 202.76 33.1802 202.35 32.6902 204.04C32.0702 206.18 33.9102 211.8 33.9402 214.28C34.2702 214.56 41.1002 213.77 41.5602 213.42C42.1702 212.96 41.5302 209.15 41.0602 208.56C40.1502 207.4 36.2402 210.11 35.5502 207.95C34.9902 206.21 36.3402 206.22 37.6702 205.97C41.2602 205.29 44.9602 205.04 48.5202 204.14C51.5102 208.02 44.7002 206.64 43.9502 207.67C43.6602 208.07 44.2802 212.26 44.6402 212.49C45.5802 212.52 46.5702 212.61 47.5102 212.49C48.2802 212.4 53.2102 211.42 53.4602 211.18C53.8302 210.83 53.5502 208.97 53.4902 208.34C53.3802 207.18 52.5202 200.5 52.1302 200.02C51.9002 199.75 51.7002 199.75 51.3702 199.75C49.9702 199.76 45.6302 200.94 44.7802 200.74C43.8302 200.52 43.7602 198.32 44.7902 198.04C46.4402 198.21 53.3402 196.19 54.3002 196.83C54.5602 197 54.7202 197.79 54.7802 198.14C55.9202 204.72 56.2202 211.49 57.8802 217.99C58.2402 218.96 56.0002 219.18 55.6802 218.91C55.0502 218.38 55.3702 215.65 54.7402 214.86L54.7502 214.89Z" fill="#2C2974"/>
<path d="M351.9 175.84C351.69 175.2 351.32 173.64 351.88 173.17C352.68 172.49 357.85 172.17 358.22 171.1C358.49 170.33 356.26 161.32 355.6 160.79C354.98 160.29 353.36 160.96 352.59 161.14C351.88 161.31 348.21 162.23 348.09 162.75C348.04 162.99 349.33 167.16 349.58 167.33C350.22 167.74 353.6 165.88 354.67 166.18C354.63 166.88 355.42 168.31 354.83 168.73C354.19 169.18 351.45 169.37 350.4 169.67C347.96 170.35 345.41 171.59 343.03 172.5C338.53 169.26 346.36 169.39 346.74 168.03C346.81 167.79 345.57 163.5 345.39 163.34C345.03 163.01 337.24 165.69 336.08 165.92C336.83 167.72 338.31 175.72 339.49 176.64C340.55 177.47 345.02 175.49 346.4 175.09C347.33 175.09 347.91 177.31 346.97 177.71C344.69 177.9 339.73 180.73 337.74 180.44C336.76 180.3 337.2 178.97 336.98 178.12C335.92 173.92 334.35 169.16 333.08 164.94C332.64 163.46 331.5 161.2 331.27 159.84C331.08 158.7 332.56 157.86 333.28 158.36C333.87 158.77 334.3 162.36 335.69 162.58L352.88 157.86C353.35 157.64 354.48 157.56 354.65 157.06C354.92 156.23 353.51 152.95 353.68 152.27C353.79 151.83 355.25 151.67 355.7 151.72L361.79 173.11L351.88 175.81L351.9 175.84Z" fill="#2A276F"/>
<path d="M98.8599 328.17L103.22 321.71C102.25 321.36 99.1599 319.02 98.4999 319C97.7299 318.98 96.4399 323.29 94.7999 322.75C94.5499 322.67 93.4699 322.08 93.5199 321.72C93.5999 321.21 97.7899 315.28 98.4799 314.17C98.9599 313.4 100.16 310.62 100.84 310.41C101.7 310.15 102.7 310.95 102.65 311.72C102.58 312.88 99.9499 315.74 100.13 316.56C100.18 316.81 104.11 319.29 104.36 319.29C104.79 319.29 105.44 318.2 105.7 317.83C106.2 317.13 109.58 311.87 109.57 311.5C109.55 310.73 105.47 308.07 104.61 307.55C103.21 306.7 101.89 305.88 100.25 305.52C99.3399 305.55 96.7899 310.28 95.7999 310.74C94.9599 311.13 93.2299 309.96 93.6399 309.08C94.8599 307.66 95.9299 306.09 97.0399 304.57C97.8899 303.4 98.5099 301.86 99.7499 301.16L117.96 313.75C116.19 316.7 114.72 313.78 112.63 313.25C112.34 313.18 112.19 313.07 111.99 313.4L101.18 329.62C101.05 330.37 104.55 332.62 104.7 333.2C104.85 333.78 104.13 334.44 103.59 334.54L85.9999 323.07C85.8799 322.88 85.8599 322.68 85.8699 322.46C85.8999 321.96 90.7799 314.25 91.2299 314.01C91.8199 313.7 93.0599 314.76 93.0199 315.53C92.9499 316.67 90.3499 319.84 89.8299 321.3C89.7099 321.62 89.7499 321.67 89.8899 321.97C90.3299 322.93 94.0299 325.45 95.1299 326.18C95.7499 326.59 98.3699 328.47 98.8499 328.13L98.8599 328.17Z" fill="#2A276F"/>
<path d="M329.26 292.84C330.13 292.33 331.74 293.54 331.12 294.56C329.26 297.33 327.07 299.9 325.18 302.64C324.19 304.08 320.01 311.38 318.85 311.6C318.55 311.66 317.79 311.19 317.5 310.99C315.84 309.87 312.9 307.68 311.39 306.4C311.11 306.16 310.3 305.56 310.37 305.18C310.81 304.73 311.55 303.6 312.21 303.77L317.99 307.68C318.14 307.77 318.28 307.7 318.43 307.65C318.88 307.48 321.46 303.67 321.92 302.96C322.38 302.25 324.49 299.05 324.34 298.56C324.24 298.23 319.25 294.9 318.74 294.7C318.43 294.58 318.32 294.47 317.99 294.69C317.8 294.81 315.25 298.08 315.21 298.31C314.99 299.52 321.92 301.4 317.61 303.5L307.3 296.23C306.45 295.71 307.96 293.8 308.44 293.8C309 293.8 311.96 296.76 313.01 296.87C313.52 296.04 315.96 293.75 315.96 292.92C315.96 291.74 309.76 288.47 308.81 287.32C308.63 287.19 308.44 287.16 308.23 287.22C307.95 287.29 305.05 291.2 304.64 291.81C304.23 292.42 301.96 295.93 301.93 296.27C301.81 297.7 306.69 300.06 307.54 301.36C306.94 302.05 306.26 303.43 305.26 302.87L297.86 297.52L310.26 279.04C313.96 279.52 310.74 282.28 310.13 284.24C310.39 285.57 324.51 294.45 326.31 296.36C327.52 296.27 328.88 293.08 329.25 292.87L329.26 292.84Z" fill="#2A276F"/>
<path d="M42.1001 141.99C41.6601 143.59 39.2001 151.12 39.9001 152.16C40.1101 152.48 46.5301 154.32 47.0101 154.17C47.5301 154 48.5501 149.86 48.4101 149.27C48.1201 148.02 44.6201 148.46 43.8501 147.7C43.3201 147.18 43.7101 145.18 44.2601 145.04C44.5001 144.98 48.1701 146.29 48.9001 146.47C51.3701 147.07 54.0801 147.65 56.6001 147.82C57.1701 152.71 53.4901 149.6 50.7501 149.87C50.8901 151.03 49.3201 154.34 50.4101 154.9C52.6101 155.12 56.7601 157.15 58.7701 157C59.3901 156.95 59.8601 155.32 60.0501 154.7C60.4801 153.25 61.7401 146.84 61.4001 145.7C60.9701 144.28 55.1001 144.29 54.4301 142.97C54.2201 142.57 54.8901 141.21 55.4401 141.2C57.1101 141.82 63.9701 142.58 64.9601 143.54C65.1901 143.76 65.2301 144.2 65.1601 144.5C63.8001 150.44 62.0001 156.3 60.7501 162.27C60.4201 163.82 61.0701 165.37 58.5201 164.88C56.9101 164.57 59.2301 161.24 58.6201 160.07L41.3301 155.83C36.8701 153.91 39.5301 161.51 35.3101 159.8L40.1701 138.38C40.3601 138.1 40.5801 138.15 40.8701 138.18C43.5101 138.43 46.9901 140.07 49.8101 140.22C50.6001 140.49 50.2501 142.29 49.7401 142.59C48.5801 143.27 43.7601 141.41 42.1201 141.98L42.1001 141.99Z" fill="#2B2872"/>
<path d="M289.51 323.16C289.83 322.97 290.34 323.11 290.63 323.35C292.01 325.35 293.92 326.94 295.96 328.22C296.49 328.22 302.86 321.95 303.49 320.94C303.6 319.85 299.45 316.38 298.85 315.27C298.16 314.79 294.67 317.94 294.59 318.19C294.17 319.43 297.35 321.08 297.59 322.02C297.73 322.57 296.38 323.92 296 323.86C295.68 323.81 293.29 320.7 292.79 320.18C291.56 318.9 290.01 317.8 288.83 316.5C288.6 316.25 287.22 314.68 287.19 314.55C287.14 314.25 288.35 313.03 288.62 312.96C289.65 312.69 291.18 316.28 292.65 316.27C293.48 316.27 295.93 314.03 296.58 313.28C296.66 312.81 290.51 306.45 290.05 306.34C289.59 306.23 288.96 306.79 288.58 307.08C287.69 307.78 281.73 313.73 281.62 314.38C281.42 315.53 286.71 319.14 286.55 320.35C286.48 320.85 284.9 321.84 284.37 321.48L277.78 314.29C277.75 314.1 279.83 311.71 280.15 311.4C283.71 307.93 287.51 304.14 291.24 300.83C292.36 299.84 293.91 297.88 294.68 299.96C295.12 301.14 292.38 302.4 292.02 303.6C296.6 308.68 300.99 314.07 306.25 318.44C308.13 317.83 310.01 313.49 311.08 317.34L295.63 332.01L294.78 331.68L288.81 325.16C288.32 324.82 289.31 323.29 289.49 323.18L289.51 323.16Z" fill="#2B276F"/>
<path d="M349.1 232.93C349.56 232.48 353.22 233.47 354.04 233.42C355.62 233.31 357.28 230.53 357.67 229.15C360.36 219.75 348.48 216.28 341.55 218.64C333.4 221.42 334.6 233.27 343.94 232.12C344.61 231.23 344.59 227.36 345.24 226.91C345.53 226.71 347 227.05 347.17 227.3C347.65 227.98 345.64 237.89 345.9 239.56C345.67 240.03 343.85 239.64 343.75 239.52C343.38 239.08 344.03 236.25 343.94 235.87C343.78 235.22 339.79 234.8 339 234.71C337.57 234.54 335.43 234.68 334.17 234.45C331.63 233.98 334.78 231.91 334.94 231.65C335.34 231.02 334.14 229.56 333.91 228.85C331.79 222.19 336.58 215.58 343.37 214.87C352.66 213.9 363.48 219.13 360.1 230.07C359.77 231.15 358 233.61 357.98 233.83C357.86 234.91 359.07 234.58 359.4 235.22C359.81 236.01 359.4 237.07 358.41 237L349.4 235.29C348.51 235.31 349 233.04 349.09 232.95L349.1 232.93Z" fill="#2A276F"/>
<path d="M245.32 47.12C244.85 47.67 243.26 47.27 242.95 46.68C242.55 45.91 243.48 44.0901 243.58 43.2201C244.21 37.7301 232.84 35.02 232.19 41.53C231.72 46.18 239.1 47.11 241.9 49.01C245.39 51.38 246.23 55.4701 243.81 58.9901C240.81 63.3501 235.52 63.1901 231.2 60.9901C230.6 60.6801 228.37 59.0101 228.19 58.9901C227.28 58.8601 227.5 60.45 226.88 60.66C226.53 60.78 225.17 60.62 225.04 60.41C224.73 59.92 225.86 55.85 226 54.93C226.26 53.22 226.26 51.02 226.6 49.41C226.94 47.8 229.1 48.5001 229.31 49.1301C229.8 50.5701 228.44 53.47 228.89 55.41C229.46 57.86 234.11 59.8501 236.39 59.9001C239.33 59.9701 242.58 57.7801 241.98 54.5601C240.81 48.3201 225.86 49.9301 229.33 39.6501C231.16 34.2501 237.15 34.02 241.58 36.35C242.23 36.69 243.6 37.8601 244.06 37.9701C244.61 38.1101 247.56 36.3 247.39 38.09C247.34 38.65 246.47 40.62 246.28 41.57C246.09 42.52 245.67 46.72 245.34 47.12H245.32Z" fill="#2B2871"/>
<path d="M219.65 40.68C219.48 41.22 217.65 41.24 217.22 40.81C216.56 40.16 216.95 38.07 216.84 37.11C216.33 32.31 207.34 31.51 205.7 36.68C204.06 41.85 213.07 42.25 216 43.3C220.23 44.82 221.55 48.26 220.23 52.47C218.99 56.41 213.97 58.37 210.11 57.85C208.57 57.64 205.63 55.81 204.72 55.84C203.9 55.86 204.13 57.18 203.6 57.5C202.98 57.87 201.52 57.84 201.61 56.81C201.8 54.74 201.88 52.7 201.82 50.61C201.8 49.72 201.01 46.01 201.97 45.69C204.88 44.71 204.1 48.71 204.37 50.35C205.19 55.39 213.93 57.38 216.8 52.62C221.11 45.45 208.49 45.41 204.88 42.96C201.27 40.51 201.79 34.25 205.29 31.94C207.45 30.51 210.35 30.05 212.86 30.65C213.87 30.89 216.03 32.32 216.46 32.31C217.15 32.31 217.24 31.4 217.84 31.23C218.27 31.11 219.65 31.24 219.65 31.38V40.68Z" fill="#2C2871"/>
<path d="M163.31 33.2C164.24 36.4 165.95 39.75 166.11 43.07C165.98 43.28 164.43 43.5 164.15 43.32C163.42 42.86 162.38 36.87 160.87 36.52C160.45 36.42 153.52 38.82 152.72 39.24C152.2 39.51 151.43 39.74 151.36 40.44C151.31 40.96 152.82 45.77 153.13 46.56C153.26 46.88 153.45 47.6 153.8 47.68C154.03 47.73 158.24 46.38 158.37 46.18C158.91 45.38 157.31 42.27 157.75 40.98C157.93 40.46 159.65 39.95 159.99 40.71C159.82 42.59 164.35 52.11 163.79 53.01C163.65 53.24 161.91 53.75 161.57 53.53C161.21 53.3 160.35 49.04 159.32 48.76C159.03 48.68 155.22 49.82 154.84 50.05C154.59 50.2 154.37 50.27 154.41 50.63C155.42 51.94 156.88 57.99 157.83 58.69C158.85 59.43 161.4 57.63 162.93 57.89C164.48 60.85 160 60.98 158.04 61.66C156.92 62.05 151.7 64.21 151.01 64C150.58 63.87 150.18 62.38 150.38 62.03C150.75 61.4 154.58 60.79 154.69 60.29C152.87 53.77 150.29 47.49 148 41.14C147.1 40.59 144.33 41.97 143.88 41.84C143.51 41.73 142.85 40.34 142.96 39.98C143.15 39.38 149.29 37.75 150.33 37.39C153.88 36.17 158.05 34.28 161.6 33.37C162.16 33.23 162.72 33.08 163.3 33.23L163.31 33.2Z" fill="#2D2A76"/>
<path d="M72.33 260.24C72.54 260.46 72.72 261.24 72.66 261.53C72.52 262.22 64.06 266.52 62.88 267.37C62 267.95 61.09 265.64 61.28 265.27C61.47 264.9 65.21 263.22 66.12 261.94C69.24 257.57 64.3 248.53 58.65 251.16C57.56 251.66 56.11 253.77 56.06 254.96C55.86 259.39 62.06 266.69 55.65 270.58C50.69 273.59 46.58 270.76 44.49 266.03C43.8 264.47 43.5 262.09 42.94 260.95C42.57 260.19 41.18 260.09 41.28 259.03C41.35 258.31 44.17 257.27 44.94 256.81C46.06 256.13 47.7 254.7 48.76 254.25C49.09 254.11 49.34 253.93 49.71 254.17C49.82 254.24 50.72 255.82 50.7 255.93C50.51 257.07 45.96 258.52 45.64 260.57C45.25 263.11 47.63 268.2 50.4 268.78C52.97 269.32 55.71 267.5 55.84 264.89C56.07 260.38 50.56 255.81 54.55 250.62C59.1 244.68 67.41 249.01 69.19 255.34C69.53 256.54 69.48 259.84 69.7 260.18C70.1 260.83 71.5 259.38 72.32 260.23L72.33 260.24Z" fill="#29266C"/>
<path d="M59.39 230.11C59.77 231.33 62.33 237.52 62.17 238.1C62.07 238.43 60.77 239.15 60.41 238.92C59.5 238.34 59.25 234.64 57.78 234.77L39.37 241.06C38.93 241.7 40.48 246.67 41.3 247.07C42.76 247.78 46.71 245.11 48.33 245.16C49.11 245.18 49.59 247.27 48.8 247.68C46.34 248.33 43.82 249.62 41.36 250.17C40.76 250.31 39.24 250.78 38.88 250.25C38.72 250.02 38.06 246.29 37.81 245.46C36.51 241.09 33.53 235.33 32.76 231.14C32.68 230.7 32.5 230.28 32.76 229.85C33.14 229.22 40 227.6 41.11 226.71C42.4 226.14 43.11 227.73 43 228.72C42.87 229.84 36.38 230.62 35.99 231.81C35.84 232.28 37.4 237.02 37.74 237.56C37.92 237.84 38.1 237.89 38.41 237.93C43.75 235.78 49.85 234.52 55.13 232.34C55.99 231.99 57.23 231.82 57.11 230.62C57.56 230.74 57.9 230.56 58.13 230.06C58.62 230.17 59.04 230.19 59.4 230.11H59.39Z" fill="#2C2973"/>
<path d="M194.62 163.04C190.95 139.23 169.01 137.27 149.33 137.88C148.91 137.89 148.48 137.86 148.06 137.88C147.5 138.32 146.03 138.3 145.51 137.88C139.05 138.18 132.49 139.24 126.15 139.41C125.89 139.83 125.18 139.66 124.75 139.67C121.7 139.71 118.92 139.52 115.95 139.16C111.52 138.61 102.99 136.59 99.0702 138.46C95.2202 140.3 95.7802 147.51 100.34 148.27C101.82 148.52 102.96 148.16 104.23 148.08C109.12 147.75 113.93 146.34 116.34 151.89C116.89 153.16 117.08 154.54 117.45 155.87C117.51 179.8 118.32 203.88 117.73 227.82C117.73 228.16 117.75 228.5 117.73 228.84C117.67 230.23 117.73 230.55 117.22 231.9C116.01 235.11 113.92 237.68 110.4 238.46C107.58 239.09 106.97 238.09 104.58 237.54C101.5 236.83 98.0002 237.11 96.9702 240.57C95.8402 244.37 97.9902 247.19 101.68 247.96C103.35 247.93 105.27 248.05 106.91 247.71C107.42 247.6 108.52 246.53 110.01 246.44C110.83 246.39 111.04 246.89 111.49 246.92C111.67 246.93 111.87 246.94 112.08 246.93C113.95 246.65 115.81 246.42 117.67 246.24C119.31 245.97 120.92 245.72 122.19 245.65C128.91 245.32 135.31 246.47 141.91 247.15C142.02 246.72 141.98 246.16 142.58 246.16C143.7 246.16 143.16 247.38 143.21 247.44C143.58 247.85 147.97 247.82 148.82 247.7C155 245.73 153.73 237.77 147.94 237.24C143.4 236.83 140.77 239.48 136.24 237.47C134.02 236.49 132.91 234.71 132.26 232.4C132.26 231.76 132.02 231.31 132.01 231.13C132.01 231.05 132.01 230.96 132.01 230.88C131.54 230.12 131.76 228.79 131.76 227.82C131.76 227.65 131.76 227.48 131.76 227.31C131.34 227.05 131.51 226.34 131.5 225.91C131.48 224.17 131.51 222.42 131.5 220.68C131.5 219.06 131.5 217.45 131.5 215.84C131.5 210.95 131.16 205.84 132.01 201.06C132.27 200.38 131.53 200.29 132.77 199.79C141.3 199.93 149.83 200.15 158.39 200.05L162.33 199.53C182.83 198.07 197.99 184.88 194.62 163.03V163.04ZM145.63 189.85C140.96 189.98 132.87 191.65 131.5 185.53C131.03 183.44 131.27 181.1 131.25 178.91C131.18 172.67 131.11 166.54 131.25 160.31C131.29 158.53 131.29 157.2 131.5 155.47C131.61 154.59 131.68 153.57 131.96 152.73C132.06 152.42 133.42 150.55 133.66 150.38C136.7 148.21 145.15 147.94 148.94 147.82C163.11 147.35 179.9 149.12 180.94 166.8C182.28 189.65 162.72 189.39 145.63 189.86V189.85Z" fill="#1C4696"/>
<path d="M126.15 139.41C125.89 139.83 125.18 139.66 124.75 139.67C121.7 139.71 118.92 139.52 115.95 139.16C119.42 139.54 122.81 139.63 126.14 139.41H126.15Z" fill="#1E4690"/>
<path d="M148.06 137.88C147.5 138.32 146.03 138.3 145.51 137.88C146.34 138.09 147.23 138.11 148.06 137.88Z" fill="#1E4690"/>
<path d="M324.62 133.05C324.28 133.51 329.7 142.5 330.49 142.86C332.03 143.58 335.91 139.89 337.77 139.93C338.46 139.95 338.79 141.9 338.61 142.18C338.5 142.35 335.49 143.63 334.9 143.95C333.91 144.5 329.83 147.31 328.99 146.76L318.75 128.07C318.75 127.59 320.36 126.61 320.65 126.68C321.48 126.88 322.2 130.66 323.67 130.19C327.36 127.96 331.26 126.07 334.99 123.91C335.74 123.48 340.39 120.83 340.56 120.56C341.28 119.43 338.54 116.84 338.68 116.13C338.78 115.6 340.23 114.43 340.83 115.18C342.36 118.36 344.74 121.38 346.33 124.46C346.59 124.96 347.26 125.91 346.94 126.42C346.76 126.69 345.56 127.26 345.26 127.08C344.63 126.67 343.4 122.99 341.89 123.4C336.04 126.43 330.77 130.61 324.63 133.05H324.62Z" fill="#2B276F"/>
<path d="M84.87 288.21C83.7 286.89 84.8 286.96 85.84 287.2C88.63 287.84 92 292.51 92.38 295.35C92.63 295.22 93.25 294.98 93.42 295.16C93.57 295.31 93.36 297.46 93.28 297.89C92.77 303.55 85.24 310.5 79.62 311.11C74 311.72 68.62 307.26 68.56 301.45C67.83 300.73 66.3 303.87 64.98 301.59C64.36 300.52 65.14 300.65 65.76 300.05C66.7 299.15 71.63 293.93 72.47 294.1C72.64 294.13 73.46 294.92 73.53 295.09C73.96 296.04 71.49 297.93 71 298.93C69.29 302.44 73.06 307.8 76.86 308.31C85.96 309.52 97.89 293.18 84.86 288.2L84.87 288.21Z" fill="#2A266B"/>
<path d="M75.9099 274.24L74.7899 274.43L59.2499 285.15C58.8499 285.78 61.2699 288.81 61.1999 289.61C61.1499 290.22 59.2799 290.99 58.9099 290.73L52.5499 280.64C52.3399 280.15 53.7599 278.97 54.1399 279.07C54.7599 279.23 56.4899 283.03 57.8699 282.51L72.8899 272.03C74.1299 270.46 71.3499 268.13 71.3599 266.93C71.3599 266.27 72.7099 265.95 73.2199 266.09C74.0599 266.31 75.2499 269.27 75.8399 270.11C76.7099 271.35 80.4199 275.09 80.2899 276.36C80.2299 276.97 79.2599 277.63 78.6799 277.48C78.2699 277.38 76.2899 274.81 75.9099 274.25V274.24Z" fill="#2A266C"/>
<path d="M266.49 47.65C265.57 48.22 262.3 46.29 261.56 47.18C260.05 52.1 257.8 56.78 256.15 61.64C255.83 62.59 254.88 65.01 255.11 65.85C255.45 67.07 258.82 67.43 259.29 68.33C259.46 68.66 258.72 69.99 258.59 70.07C257.77 70.56 248.03 65.4 246.16 65.52C246.33 61.3 249.19 64.6 251.51 64.66C254.61 58.72 256.32 52.19 258.83 46C259.02 44.52 255.24 44.72 254.68 43.62C254.63 43.53 255.02 41.66 255.09 41.59C255.59 41.07 265.26 45.66 266.8 45.79C267.37 45.96 266.63 47.58 266.5 47.66L266.49 47.65Z" fill="#2B2871"/>
<path d="M348.6 258.88C348.18 258.25 350.49 254.91 349.23 253.79L330.64 247.98C329.18 249.54 329.4 253.21 326.42 252.01C326.23 251.79 326.97 249.24 327.1 248.77C327.45 247.56 330.16 239.58 330.6 239.25C330.98 238.96 332.39 239.52 332.49 239.94C332.65 240.65 330.64 244.06 331.5 244.76C334.99 246.07 338.52 247.32 342.07 248.46C343.14 248.8 349.78 251.03 350.2 250.95C351.22 250.75 352.36 246.36 353.42 246.52C353.57 246.54 354.5 247.06 354.58 247.17C354.77 247.47 353.32 250.86 353.09 251.56C352.56 253.19 351.66 257.46 350.93 258.57C350.29 259.53 349.54 259.16 348.6 258.87V258.88Z" fill="#2A266D"/>
<path d="M94.4399 97.13C94.0399 97.22 91.2999 100.5 90.6499 100.4L84.1099 94.95L87.6699 91.13C89.4599 88.68 90.8299 86.18 89.9699 83.11C88.9099 79.35 86.0799 76.7 81.9699 77.27C77.8699 77.84 73.3799 85.67 70.8599 88.83C70.4599 89.33 68.0299 91.8 68.0799 92.11C70.0599 95.41 71.4699 90.43 73.5199 90.73L78.4999 94.56C80.9999 96.6 83.7199 98.67 86.1499 100.8C86.5099 101.11 88.1999 102.73 88.3199 102.98C88.9099 104.26 86.4699 106.26 85.6499 107.18C87.9199 110.39 90.1499 105.25 91.5099 103.62C92.1299 102.88 95.7499 99.12 95.8199 98.74C95.8599 98.52 94.7899 97.06 94.4499 97.13H94.4399ZM80.5399 92.79C79.7599 91.51 75.7499 88.92 75.3099 87.94C74.9999 87.26 75.5599 86.79 75.8999 86.24C76.9299 84.57 79.8799 80.93 81.6999 80.32C83.7599 79.63 86.4599 81.13 87.1699 83.11C88.7999 87.67 84.3099 90.16 82.2999 93.52C81.6899 93.87 81.1899 92.79 80.5499 92.79H80.5399Z" fill="#2C2973"/>
<path d="M83.8498 284.64C83.7098 285.46 84.4598 285.96 86.0898 286.16L86.1398 286.42C89.3798 288.02 92.7598 290.76 92.8698 294.68C92.6498 293.96 92.6998 293.5 93.0198 293.29C93.7898 294.45 93.7098 296.57 93.2698 297.88C93.3398 297.06 93.2198 296.17 93.2698 295.33L92.3798 296.09C91.5098 295.45 91.6898 294.3 91.2798 293.37C90.4998 291.58 87.4098 287.84 85.4798 287.44C84.6698 287.27 84.8398 287.59 84.8598 288.19C84.6498 288.11 84.4798 287.98 84.3498 287.94C83.3298 287.72 82.3998 287.81 81.5498 288.19C81.0798 288.55 78.0898 291.17 78.0198 291.43C77.6498 292.78 81.3898 294.77 80.2898 296.23C80.1498 296.41 79.1098 297.11 78.9098 297.08C78.5498 297.02 74.8298 292.42 73.9098 291.63C72.8698 290.73 70.4598 289.98 70.9798 288.46C71.9698 285.56 74.6898 289.79 75.7798 289.45C76.0698 289.36 76.2098 288.81 76.4798 288.6C77.0298 288.16 77.7498 287.78 78.2398 287.3C79.0198 286.54 81.9398 282.5 82.4998 282.36C83.8198 282.02 83.7698 283.92 83.8498 284.63V284.64Z" fill="#2B276D"/>
<path d="M291.5 247.95C289.74 248.13 288 248.05 286.3 247.72L291.5 247.95Z" fill="#19489C"/>
<path d="M274.94 247.44C271.16 247.38 267.37 247.51 263.59 247.45C250.53 247.23 237.18 246.76 224.1 247.17C219.46 247.32 214.28 248.25 209.71 247.94C210.73 247.83 211.7 247.77 212.77 247.69C233.53 246.44 254.51 246.8 274.94 247.44Z" fill="#19499E"/>
<path d="M148.82 247.69C147.83 248.01 147.27 248.23 146.15 248.2C140.95 248.08 134.82 246.29 129.4 245.92C129.39 245.92 129.37 245.92 129.36 245.92C129.26 245.92 129.16 245.91 129.07 245.9C127.82 245.83 126.54 245.81 125.25 245.84H125.23C120.42 245.94 115.38 246.62 110.76 247.2C107.47 247.61 105.14 248.65 101.68 247.93C103.35 247.9 105.27 248.02 106.91 247.68C107.42 247.57 108.52 246.5 110.01 246.41C110.83 246.36 111.04 246.86 111.49 246.89C111.67 246.9 111.87 246.91 112.08 246.9C113.6 246.88 115.65 246.54 117.67 246.21C119.31 245.94 120.92 245.69 122.19 245.62C128.91 245.29 135.31 246.44 141.91 247.12C142.02 246.69 141.98 246.13 142.58 246.13C143.7 246.13 143.16 247.35 143.21 247.41C143.58 247.82 147.97 247.79 148.82 247.67V247.69Z" fill="#1F4A9F"/>
<path d="M57.1002 230.62C56.9402 230.11 56.1502 226.48 56.3302 226.29C56.8202 226.38 58.0202 226.12 58.3302 226.33C58.6402 226.54 59.2002 229.52 59.3802 230.12C59.4502 232.4 58.6002 230.38 58.4902 230.38C58.2002 230.38 58.0902 231.44 57.7202 231.65C57.3502 231.86 57.1702 230.91 57.0902 230.63L57.1002 230.62Z" fill="#201C55"/>
<path d="M235.91 82.64C236.48 83.61 235.11 84.46 234.08 84.37C231.15 84.1 231.35 80.97 233.01 81.07C233.34 81.09 235.83 82.5 235.92 82.64H235.91Z" fill="#27235E"/>
<path d="M131.73 297.87C131.68 297.94 130.23 298.6 130.14 298.6C129.54 298.6 127.69 297.41 127.68 296.75C127.68 296.54 128.41 295.18 128.49 295.13C129.38 294.6 132.32 297.06 131.74 297.87H131.73Z" fill="#251F5A"/>
<path d="M88.9601 142.46C88.6601 140.86 91.2401 137.46 92.6501 139.67C93.0901 140.36 91.2001 142.65 90.3401 142.72C89.9101 142.76 89.4201 142.46 88.9601 142.46Z" fill="#282662"/>
<path d="M243.86 307.06C244.74 308.62 240.97 310.53 240.19 310.34C240.01 310.3 239.33 309.34 239.31 309.18C239.17 308.26 242.92 306.6 243.86 307.06Z" fill="#262157"/>
<path d="M199.96 75.5101C200.9 75.2401 202.82 75.2201 202.77 76.5601C202.72 78.0701 201.47 78.5201 200.15 78.5201C198.73 78.5201 199.03 75.7801 199.96 75.5001V75.5101Z" fill="#242158"/>
<path d="M161.53 81.61C161.68 81.85 161.62 83.07 161.44 83.36C161.25 83.68 158.92 84.79 158.5 84.52C158.42 84.47 157.53 83.06 157.53 82.97C157.53 82.06 160.92 80.65 161.53 81.61Z" fill="#252156"/>
<path d="M199.55 318.75C199.31 318.55 199.09 316.53 199.52 316.1C199.95 315.67 201.91 315.53 202.34 315.84C202.99 316.29 202.7 318.54 201.43 318.78C201.14 318.83 199.65 318.85 199.55 318.76V318.75Z" fill="#242155"/>
<path d="M99.8301 124.42C100.12 124.35 101.43 124.66 101.58 124.87C102.25 125.79 99.6601 128.89 98.1101 127.83C97.2101 127.21 99.1901 124.57 99.8301 124.42Z" fill="#1F1B49"/>
<path d="M219.65 314.19C220 316.4 218.3 316.9 216.43 316.98C215.22 317.03 215.3 315.18 215.97 314.72C216.35 314.46 219.48 314.02 219.65 314.19Z" fill="#221F58"/>
<path d="M191.03 316.02C191.41 315.9 193.93 315.91 194.19 316.09C194.54 316.34 194.54 317.96 194.32 318.29C194.08 318.64 191.42 318.65 191.1 318.42C190.85 318.24 190.33 316.24 191.03 316.02Z" fill="#262463"/>
<path d="M76.7602 182.18C76.1502 181.2 77.0702 177.15 79.0302 178.51C79.6202 178.92 79.4302 182.48 77.8802 182.49C77.6602 182.49 76.8302 182.3 76.7602 182.18Z" fill="#221E55"/>
<path d="M215.6 79.51C215.5 79.36 215.55 77.39 215.99 77.26C216.67 77.07 219.42 77.74 219.6 78.68C220.02 80.9 215.83 79.84 215.6 79.51Z" fill="#2C2863"/>
<path d="M82.62 157.72C82.11 157.14 83.52 153.46 84.86 154.06C86.61 154.84 84.76 158.12 83.94 158.24C83.87 158.25 82.66 157.78 82.62 157.72Z" fill="#24215A"/>
<path d="M284.83 114.65C284.75 114.8 283.74 115.23 283.48 115.23C282.02 115.24 280.56 112.89 281.9 111.71C282.89 110.84 285.35 113.74 284.83 114.64V114.65Z" fill="#201D4B"/>
<path d="M314.88 170.56C315.26 170.94 315.33 173.15 315.16 173.65C314.95 174.26 313.45 174.54 313.08 173.75C312.95 173.47 312.39 171.4 312.44 171.19C312.65 170.28 314.24 169.91 314.89 170.56H314.88Z" fill="#1E1C4E"/>
<path d="M302.37 138.67C302.83 138.62 304.89 142.07 303.82 142.42C302.39 142.88 301.06 141.79 300.72 140.49C300.51 139.68 301.77 138.73 302.37 138.67Z" fill="#24215B"/>
<path d="M207.46 76.2601C207.76 75.7901 211.08 76.2101 211.26 77.1201C211.75 79.6601 207.63 78.9001 207.43 77.8901C207.38 77.6201 207.37 76.4301 207.47 76.2701L207.46 76.2601Z" fill="#252159"/>
<path d="M227.29 312.16C227.97 314.18 227.08 315.16 225.03 315.34C224.03 315.43 223.45 313.7 223.76 313.2C223.89 313 226.77 311.88 227.29 312.16Z" fill="#282465"/>
<path d="M293.72 265.82C294.34 265.65 295.48 266.51 295.51 266.93C295.54 267.35 293.72 269.61 293.16 269.61C292.6 269.61 291.7 268.82 291.75 268.22C291.79 267.72 293.26 265.95 293.72 265.82Z" fill="#242054"/>
<path d="M288.61 272.46C289.31 272.4 290.44 273.14 290.19 274.01C290.07 274.44 288.16 276.28 287.61 276.2C285.04 275.82 287.79 272.54 288.61 272.47V272.46Z" fill="#231F54"/>
<path d="M306.2 244.17C306.49 244.1 307.34 244.33 307.55 244.51C308.55 245.36 306.38 248.23 305.68 248.17C303.4 247.97 305.22 244.4 306.2 244.17Z" fill="#211E54"/>
<path d="M158.67 309.66C159.34 309.53 161.84 310.96 161.78 311.73C161.62 313.71 157.22 312.37 157.53 310.79C157.57 310.58 158.45 309.7 158.67 309.66Z" fill="#27225C"/>
<path d="M77.0398 212.34C77.1798 212.19 78.1598 211.77 78.3798 211.77C79.6498 211.78 79.5498 215.32 78.7598 215.71C76.5298 216.8 76.4298 212.98 77.0398 212.33V212.34Z" fill="#201D4D"/>
<path d="M168.13 79.08C170.03 78.82 170.33 80.38 168.58 81.33C164.74 83.42 164.37 79.59 168.13 79.08Z" fill="#27244F"/>
<path d="M315.27 187.38C315.74 186.8 316.97 186.49 317.36 187.31C317.61 187.83 317.83 190.22 317.23 190.49C314.97 191.54 314.28 188.61 315.27 187.38Z" fill="#1F1B4B"/>
<path d="M106.77 275.19C106.72 275.26 105.2 275.97 105.11 275.98C104.22 276.11 102.98 274.6 103.03 274.06C103.04 273.9 103.54 273.51 103.7 273.26C103.86 273.02 103.95 272.46 104 272.42C104.8 271.83 107.3 274.45 106.77 275.19Z" fill="#221F50"/>
<path d="M315.62 203.66C318.68 202.62 317.84 208.24 315.36 207.4C314.64 207.16 314.72 203.96 315.62 203.66Z" fill="#1D1B46"/>
<path d="M122.24 290.01C122.98 289.76 124.74 291.31 124.84 291.94C124.89 292.28 123.41 293.46 123.16 293.52C122.56 293.68 121.17 292.49 121.08 291.83C121.02 291.42 121.92 290.11 122.24 290V290.01Z" fill="#262357"/>
<path d="M78.21 195.25C78.99 195.73 78.32 200.4 76.19 198.92C75.78 198.64 75.86 195.8 76.18 195.36C76.35 195.12 78 195.12 78.21 195.25Z" fill="#1F1D4C"/>
<path d="M118.49 287.43C117.71 287.64 117.33 288.11 116.46 287.85C116.03 287.72 114.38 286.2 114.45 285.82C114.47 285.71 115.56 284.58 115.71 284.5C116.58 284.07 118.87 286.88 118.49 287.43Z" fill="#25215B"/>
<path d="M307.76 149.56C307.69 149.67 306.47 150.15 306.2 150.08C305.7 149.95 304.36 148.38 304.52 147.75C304.57 147.56 305.59 146.5 305.76 146.41C306.97 145.85 308.25 148.75 307.75 149.56H307.76Z" fill="#201C56"/>
<path d="M310.07 154.22C310.35 154.4 311.86 158.26 309.47 158.02C308.72 157.95 307.17 155.33 308.13 154.5C308.35 154.31 309.84 154.06 310.07 154.21V154.22Z" fill="#23205B"/>
<path d="M258.85 93.77C258.8 93.86 257.57 94.59 257.26 94.57C256.74 94.54 254.8 93.54 254.81 92.92C254.81 92.78 255.48 91.43 255.57 91.37C256.42 90.77 259.26 93.07 258.85 93.77Z" fill="#221D51"/>
<path d="M234.61 309.92C235.9 309.92 235.79 312.05 234.18 312.79C232.38 313.62 232.36 312.79 231.64 311.28C231.75 310.77 234.1 309.91 234.61 309.91V309.92Z" fill="#272359"/>
<path d="M169.4 314.9C168.45 315.89 164.34 314.01 166.03 312.4C166.73 311.74 171.08 313.15 169.4 314.9Z" fill="#23205B"/>
<path d="M264.98 295.11C265.04 295.17 265.54 296.59 265.53 296.72C265.49 297.29 263.76 298.57 263.31 298.61C262.89 298.65 262.24 297.53 261.44 297.88C261.34 296.83 264.38 294.6 264.98 295.11Z" fill="#231F55"/>
<path d="M315.13 178.44C316.57 178.14 316.6 179.15 316.69 180.33C316.75 181.14 316.93 182.3 315.82 182.47C314.58 182.66 314.28 181 314.2 180.01C314.13 179.14 314.17 178.64 315.13 178.44Z" fill="#1A1844"/>
<path d="M176.02 77.3C178.41 76.82 178.68 79.38 176.1 79.93C172.93 80.6 173.32 77.83 176.02 77.3Z" fill="#282457"/>
<path d="M292.61 127.35C291.06 125.75 293.36 123.95 294.4 124.66C296.29 125.94 294.82 129.64 292.61 127.35Z" fill="#251E50"/>
<path d="M251.46 89.95C249.7 91.92 245.33 88.22 248.12 87.47C249.02 87.23 251.93 89.13 251.46 89.95Z" fill="#2A2561"/>
<path d="M315.13 220.51C315.83 221.33 314.44 225.11 312.64 223.89C311.97 223.43 313.22 218.28 315.13 220.51Z" fill="#25224E"/>
<path d="M134.56 93.8C134.23 93.33 137.14 91.08 137.53 91.03C137.92 90.98 138.52 91.94 138.59 92.22C138.88 93.36 136.7 94.8 135.76 94.54C135.39 94.43 135.09 93.78 134.56 93.81V93.8Z" fill="#242055"/>
<path d="M276.26 105.84C277.16 105.33 279.22 108.1 278.9 108.59C277.85 110.23 275.48 108.57 274.98 107.18C275.34 107.03 276.18 105.89 276.26 105.84Z" fill="#221E56"/>
<path d="M135.48 300.09C135.72 299.85 135.71 299.43 136.2 299.41C137.02 299.39 139.18 301.05 138.77 301.96C138.01 303.67 135.02 301.66 134.83 301.05C134.62 300.38 135.19 300.38 135.48 300.09Z" fill="#262360"/>
<path d="M79.0401 170C79.3101 169.8 80.9101 170.37 80.9601 170.86C81.1001 172.08 79.5501 175.35 78.2201 173.69C77.7401 173.1 78.6701 170.26 79.0301 169.99L79.0401 170Z" fill="#242150"/>
<path d="M297.8 131.55C298.87 131.25 300.47 133.35 300.04 134.31C299.14 136.3 296.23 133.63 296.72 132.54C296.8 132.35 297.6 131.61 297.8 131.55Z" fill="#201C4E"/>
<path d="M87.8499 244.46C88.0299 244.67 88.9499 246.59 88.9099 246.77C88.8399 247.13 87.4799 248.06 87.0699 247.93C86.8099 247.85 85.9399 246.42 85.8299 246.09C85.3199 244.61 86.7899 243.24 87.8499 244.46Z" fill="#25215A"/>
<path d="M186.02 76.22C186.3 78.21 185.8 78.89 183.78 78.96C182.64 79 182.43 78.17 182.47 77.09C182.53 75.73 185.09 76.34 186.01 76.22H186.02Z" fill="#25215A"/>
<path d="M80.3702 165.83C79.4002 164.6 80.9602 161.28 82.4302 162.36C83.6502 163.26 81.8102 167.65 80.3702 165.83Z" fill="#1D1A47"/>
<path d="M315.47 198.76C315.35 198.63 315.41 195.46 315.75 195.24C316.01 195.08 317.17 195.17 317.5 195.33C318.53 195.83 317.72 198.83 317.08 199C316.98 199.03 315.53 198.82 315.48 198.76H315.47Z" fill="#262256"/>
<path d="M150.52 307.09C151.54 306.76 154.48 308.09 153.52 309.34C151.82 311.54 148.28 307.82 150.52 307.09Z" fill="#272464"/>
<path d="M194.18 75.72C194.4 77.89 194.01 78.57 191.74 78.28C190.57 78.13 190.6 77.03 190.64 76C191.75 75.52 193 75.77 194.18 75.71V75.72Z" fill="#262361"/>
<path d="M210.96 315.5C211.18 315.69 211.3 317.12 210.92 317.45C210.51 317.81 208.17 318.27 207.71 317.99C207.29 317.73 207.33 315.95 207.92 315.6C208.23 315.41 210.83 315.4 210.95 315.5H210.96Z" fill="#1F1E50"/>
<path d="M177.83 314.99C178.28 315.72 177.1 316.79 176.41 316.95C173.32 317.64 173.64 313.77 175.6 314.08C175.78 314.11 177.77 314.89 177.84 314.99H177.83Z" fill="#201D54"/>
<path d="M77.16 203.67C77.63 203.57 78.29 203.49 78.47 204.04C78.64 204.56 78.68 207.21 78.09 207.41C75.96 208.12 75.11 204.11 77.16 203.67Z" fill="#1E1B41"/>
<path d="M78.5599 223.68C77.9199 223.05 77.7799 219.61 79.8499 220.22C80.5599 220.43 80.9299 222.69 80.7599 223.3C80.5199 224.16 79.0799 224.19 78.5699 223.68H78.5599Z" fill="#221F51"/>
<path d="M83.38 239.75C83.3 239.7 82.6601 238.25 82.6201 238.08C82.3001 236.53 84.4201 235.39 85.1401 237.1C85.2701 237.4 85.6201 238.9 85.5701 239.13C85.4301 239.84 83.81 240.03 83.38 239.75Z" fill="#231F57"/>
<path d="M271.58 103.95C271.19 104.18 269.15 103.13 268.94 102.72C268.47 101.78 269.57 100.22 270.86 100.81C271.01 100.88 272.61 102.48 272.64 102.6C272.66 102.69 271.65 103.9 271.58 103.94V103.95Z" fill="#242052"/>
<path d="M110.02 278.82C110.86 278.58 112.33 280.58 112.39 281.22C112.58 283.29 109.12 281.45 108.67 280.56C108.43 280.08 109.66 278.92 110.01 278.82H110.02Z" fill="#201C53"/>
<path d="M85.6698 149.83C85.2598 149.18 86.4198 146.51 87.5198 146.56C90.3698 146.67 87.9098 150.09 86.7998 150.14C86.5898 150.14 85.7398 149.94 85.6798 149.84L85.6698 149.83Z" fill="#1E1B4C"/>
<path d="M313.36 165.35C313.31 165.44 312.42 165.9 312.25 165.92C311.03 166.04 309.12 162.02 312.02 162.33C313.15 162.45 313.77 164.63 313.36 165.35Z" fill="#1F1C53"/>
<path d="M224.66 79.07C226.03 78.59 227.15 79.83 228.06 80.68C226.87 81.81 226.14 82.13 224.57 81.37C223.37 80.78 223.89 79.34 224.66 79.07Z" fill="#322D68"/>
<path d="M183.38 315.23C183.5 315.19 185.27 315.5 185.52 315.58C187.1 316.12 186.19 318.34 183.84 318.02C181.99 317.77 182.8 315.39 183.37 315.23H183.38Z" fill="#242258"/>
<path d="M96.5402 132.07C96.9902 132.85 95.5602 135.1 94.7202 135.07C91.7602 134.97 94.3202 131.4 95.4302 131.5C95.5902 131.52 96.4902 131.99 96.5402 132.07Z" fill="#1E1D47"/>
<path d="M262.91 95.89C263.89 95.65 266.12 97.68 265.66 98.39C264.56 100.12 261.5 97.65 261.71 96.76C261.96 96.48 262.57 95.97 262.91 95.89Z" fill="#292664"/>
<path d="M316.43 212.06C316.8 212.64 316.38 215.8 315.34 215.83C312.92 215.9 314.27 211.87 315.33 211.76C315.55 211.74 316.35 211.93 316.43 212.06Z" fill="#262153"/>
<path d="M308.99 236.53C312.51 235.31 310.33 241.54 308.06 239.67C307.45 239.17 308.5 236.7 308.99 236.53Z" fill="#24205A"/>
<path d="M142.21 305.52C142.03 305.27 142.78 303.53 143.35 303.48C144.07 303.42 146.16 304.86 146.26 305.44C146.35 305.94 145.4 306.57 144.88 306.57C144.61 306.57 142.29 305.64 142.21 305.52Z" fill="#2A2563"/>
<path d="M110.79 111.94C113.8 111.29 111.08 115.68 109.78 115.42C107.47 114.95 109.58 112.2 110.79 111.94Z" fill="#252348"/>
<path d="M271.85 290.28C273.24 291.16 269.66 295.26 268.44 292.54C268.12 291.82 270.73 289.58 271.85 290.28Z" fill="#1F1B4A"/>
<path d="M250.69 303.54C250.75 303.58 251.25 304.5 251.25 304.64C251.27 305.73 247.89 307.24 246.92 306.03C246.54 305.48 249.82 303.03 250.69 303.54Z" fill="#201D42"/>
<path d="M257.81 299.71C260.24 299.44 257.03 303.76 255.58 302.86C255.23 302.64 254.69 301.65 254.93 301.2C255.16 300.77 257.31 299.77 257.81 299.71Z" fill="#262252"/>
<path d="M243.86 86.67C242.79 87.34 240.14 87.08 239.82 85.73C239.13 82.8 244.04 84.91 243.86 86.67Z" fill="#1F1C51"/>
<path d="M144.68 87.7401C148 87.2801 144.92 91.1001 143.39 90.7101C142.99 90.6101 142.06 89.6001 142.21 89.1201C142.34 88.6901 144.18 87.8101 144.68 87.7401Z" fill="#26235E"/>
<path d="M104.67 118.31C105.41 118.09 106.54 118.66 106.53 119.41C106.53 119.88 105.08 121.62 104.38 121.58C101.97 121.45 103.27 118.73 104.67 118.31Z" fill="#1E1C47"/>
<path d="M99.82 265.82C100.53 265.76 101.68 268.11 101.31 268.84C100.53 270.4 97.47 268.25 98.36 266.92C98.56 266.62 99.49 265.85 99.82 265.82Z" fill="#1A1844"/>
<path d="M311.44 228.65C311.66 228.47 312.71 228.26 312.99 228.35C313.9 228.63 312.97 232.03 311.74 232.16C311.35 232.2 310.47 231.88 310.38 231.49C310.33 231.28 311.24 228.81 311.43 228.65H311.44Z" fill="#292659"/>
<path d="M124.07 100.46C124.18 100.52 124.62 101.49 124.58 101.77C124.5 102.4 122.89 104.04 122.21 104C122.07 104 120.84 103.53 120.8 103.47C120.36 102.82 123.38 100.07 124.06 100.46H124.07Z" fill="#211D54"/>
<path d="M302.88 251.55C304.85 251.38 303.51 255.47 302.09 255.34C301.86 255.32 300.88 254.73 300.78 254.57C300.5 254.13 301.95 251.63 302.88 251.55Z" fill="#242055"/>
<path d="M80.84 228.13C82.19 227.36 83.63 231.41 82.14 231.86C80.79 232.27 79.75 230.36 80.07 229.29C80.09 229.22 80.78 228.17 80.84 228.14V228.13Z" fill="#272456"/>
<path d="M131.21 95.8799C132.64 96.7899 128.93 100.75 127.79 98.3899C127.41 97.5999 130.23 95.2599 131.21 95.8799Z" fill="#221F4F"/>
<path d="M152.82 84.16C153.2 84.14 153.34 84.4 153.47 84.69C154.33 86.55 150.75 88.12 149.58 86.27C149.41 85.57 152.24 84.19 152.82 84.16Z" fill="#1B1846"/>
<path d="M117.15 105.81C117.6 105.77 117.87 106.37 117.95 106.73C118.29 108.4 115.61 110.28 114.54 108.58C114.08 107.84 116.43 105.88 117.15 105.81Z" fill="#201D4E"/>
<path d="M90.91 251.55C91.58 251.44 92.87 253.98 92.26 254.69C90.76 256.45 88.85 253.54 89.7 252.39C89.79 252.27 90.81 251.57 90.91 251.55Z" fill="#272454"/>
<path d="M95.4999 259.24C96.3699 259.99 97.7299 262.37 95.6799 262.47C95.1199 262.5 93.4199 260.93 93.3299 260.52C93.1599 259.73 94.7599 258.61 95.4999 259.24Z" fill="#1F1C4F"/>
<path d="M76.2399 190.34C76.0699 190.15 75.8699 186.88 77.0899 186.82C79.3099 186.71 78.7299 190.52 77.6099 190.63C77.4399 190.65 76.2799 190.39 76.2399 190.34Z" fill="#1A1746"/>
<path d="M275.77 287.89C275.72 287.87 274.98 287.09 274.96 287.04C274.74 286.33 277.13 284.05 278.15 284.88C279.39 285.87 277.04 288.41 275.77 287.9V287.89Z" fill="#1B1949"/>
<path d="M290.18 121.02C289.49 122.2 286.37 120.73 287.04 119.29C287.15 119.05 288.26 117.98 288.53 118.03C289.24 118.44 290.61 120.28 290.17 121.02H290.18Z" fill="#231E55"/>
<path d="M283.28 278.82C283.91 278.64 284.36 278.92 284.52 279.54C284.74 280.38 282.12 283.61 281.18 281.58C280.73 280.61 282.54 279.03 283.27 278.82H283.28Z" fill="#1D1B4B"/>
<path d="M86.91 286.42C89.27 287.57 92.71 290.51 93.02 293.3C93.07 293.79 92.98 294.33 93.02 294.83C92.74 295.23 92.24 292.81 92.13 292.54C91.18 290.23 88.69 288.02 86.45 287C86.17 286.87 85.44 287 86.14 286.42C86.27 286.22 86.53 286.22 86.9 286.42H86.91Z" fill="#2A266B"/>
<path d="M299.88 259.44C300.4 260.06 298.72 262.42 298.01 262.45C297.62 262.47 297.07 262.13 296.6 262.21C296.21 261.64 297.62 259.39 297.92 259.21C298.19 259.05 299.8 259.34 299.88 259.43V259.44Z" fill="#16153D"/>
<path d="M235.19 200.81V219.88C235.19 213.53 235.11 207.16 235.19 200.81Z" fill="#19499E"/>
<path d="M126.15 139.41C125.89 139.83 125.18 139.66 124.75 139.67C121.7 139.71 118.92 139.52 115.95 139.16C119.35 139.2 122.73 139.5 126.14 139.41H126.15Z" fill="#1F4A9F"/>
<path d="M86.9099 286.42C86.6799 286.38 86.3298 286.48 86.1498 286.42C85.8998 286.34 85.6598 286.04 85.2098 285.96C83.3198 285.64 84.4198 287.35 82.5898 287.18L83.8598 284.63C84.0398 286.15 84.6198 285.45 85.8598 285.82C86.3998 285.98 86.5898 286.25 86.9198 286.41L86.9099 286.42Z" fill="#7868A2"/>
<path d="M234.94 165.65C234.97 162.58 234.77 159.75 235.45 156.73L234.94 165.65Z" fill="#19499E"/>
<path d="M235.45 228.08L234.98 221.83C234.98 221.62 235.2 221.49 235.2 221.46C235.72 223.54 235.39 225.92 235.45 228.08Z" fill="#19499E"/>
<path d="M285.39 213.81C284.97 213.55 285.14 212.84 285.13 212.41C285.11 210.53 285.12 209.01 285.39 207.18C285.39 209.38 285.39 211.6 285.39 213.8V213.81Z" fill="#19489C"/>
<path d="M131.76 222.09C131.78 223.83 131.76 225.58 131.76 227.32C131.34 227.06 131.51 226.35 131.5 225.92C131.48 224.18 131.51 222.43 131.5 220.69C131.92 220.95 131.75 221.66 131.76 222.09Z" fill="#1F4A9F"/>
<path d="M236.21 232.92L235.96 233.68C235.96 233.68 235.94 233.68 235.93 233.67C235.8 233.63 235.43 233.72 235.2 233.56C234.49 233.04 235.19 232.08 235.96 232.67V231.9C236.04 232.19 236.19 232.85 236.21 232.92Z" fill="#19499E"/>
<path d="M285.64 220.94C285.17 219.5 285.39 217.64 285.39 216.1C285.86 217.55 285.64 219.4 285.64 220.94Z" fill="#19489C"/>
<path d="M297.11 210.75C297.11 209.51 297.19 208.15 297.11 206.93C297.54 207.87 297.54 209.76 297.11 210.75Z" fill="#19489C"/>
<path d="M117.74 228.84C117.68 230.23 117.74 230.55 117.23 231.9C117.32 230.93 117.34 229.67 117.74 228.84Z" fill="#1F4A9F"/>
<path d="M285.41 227.39V227.33C285.4 226.45 285.17 225.42 285.64 224.77C285.6 225.99 285.68 226.62 285.39 227.83C285.41 227.69 285.42 227.55 285.42 227.4L285.41 227.39Z" fill="#19489C"/>
<path d="M84.3601 287.95L81.5601 288.2C81.7101 288.09 81.6201 287.8 82.1901 287.69C83.0401 287.54 83.6301 287.68 84.3601 287.94V287.95Z" fill="#7868A2"/>
<path d="M132.01 230.88C131.54 230.12 131.76 228.79 131.76 227.82C132.25 228.59 131.98 229.9 132.01 230.88Z" fill="#1F4A9F"/>
<path d="M148.06 137.88C147.5 138.32 146.03 138.3 145.51 137.88C146.36 137.84 147.21 137.91 148.06 137.88Z" fill="#1C4696"/>
<path d="M235.7 230.88C235.49 229.85 235.49 229.39 235.45 228.33C235.89 228.82 235.71 229.67 235.69 230.4C235.69 230.57 235.69 230.73 235.71 230.88H235.7Z" fill="#19499E"/>
<path d="M296.85 215.34C296.85 214.54 296.64 213.38 297.1 212.79C297.1 213.59 297.31 214.75 296.85 215.34Z" fill="#19489C"/>
<path d="M296.6 220.43C296.6 219.63 296.39 218.47 296.85 217.88C296.85 218.68 297.06 219.84 296.6 220.43Z" fill="#19489C"/>
<path d="M131.47 184.75C131.47 185.01 131.48 185.27 131.5 185.52C131.03 183.43 131.27 181.09 131.25 178.9C131.77 180.73 131.45 182.81 131.47 184.75Z" fill="#1F4A9F"/>
<path d="M131.24 160.3C131.28 158.52 131.28 157.19 131.49 155.46C131.46 155.81 131.45 156.18 131.46 156.55C131.5 157.82 131.68 159.18 131.23 160.3H131.24Z" fill="#1F4A9F"/>
<path d="M280.22 236.76C280.16 236.79 280.1 236.81 280.03 236.83L279.6 236.54C279.79 236.66 279.99 236.73 280.22 236.76Z" fill="#19489C"/>
<path d="M219.65 236.23C219.75 236.12 219.8 235.86 219.9 235.72C221.82 235.77 220.82 237.73 219.65 236.23Z" fill="#19499E"/>
<path d="M296.09 214.32C295.83 215.79 294.29 215.67 294.56 214.07L296.09 214.32Z" fill="#19489C"/>
<path d="M224.74 207.06L222.97 207.95C222.68 207.53 222.76 205.29 223.47 205.92C223.67 206.1 223.92 206.88 224.75 207.06H224.74Z" fill="#19499E"/>
<path d="M201.31 243.11C201.71 243.18 203.51 245.7 202.45 245.65C202.07 245.63 201.23 243.61 201.31 243.11Z" fill="#1D4695"/>
<path d="M54.6798 180.18C53.3498 180.43 54.5198 183.47 53.8098 184.6C53.4198 185.22 50.6598 185.06 49.8298 185.03C49.1498 185.01 45.4298 184.7 45.2298 184.53C45.0098 184.36 44.9298 184.13 44.8798 183.86C44.6498 182.66 44.7798 177.95 45.2798 176.89C45.4398 176.54 46.4798 175.24 46.8398 175.13C49.2498 174.42 55.9898 176.53 56.7998 173.11C57.1098 171.78 57.1998 169.48 56.7298 168.19C55.6698 165.31 51.3498 165.72 48.8298 165.64C48.1098 165.62 47.4598 164.97 46.9598 165.81C46.6198 166.38 46.0998 167.96 46.9198 168.33C48.6198 168.68 53.8798 167.65 54.2898 169.85C54.9898 173.57 51.2498 172 49.0698 171.99C48.4298 171.99 46.8598 172.12 46.2898 172.28C45.1198 172.6 44.3398 174.12 42.9898 173.81C42.7498 173.75 42.2898 171.07 40.3398 170.29C39.2398 169.85 36.5798 169.79 35.4298 170.09C32.8198 170.78 31.1098 174.52 30.8498 176.98C30.3398 181.81 31.2298 187.48 30.8498 192.39C31.3998 192.74 33.3998 192.76 33.3998 192.01V187.93C33.3998 187.29 34.8998 187.8 35.2998 187.81C39.9998 187.93 44.6198 187.81 49.3098 188.06C50.1198 188.11 54.0298 187.71 54.0298 188.69V192.77C54.0298 193.29 55.8098 193.02 56.1398 192.9C57.0698 192.55 56.2898 189.74 56.2998 188.95C56.3498 186.48 56.7998 183.53 56.7898 181.04C56.7898 179.89 55.6598 179.97 54.6698 180.16L54.6798 180.18ZM42.3198 184.38C42.2198 184.71 41.7398 184.74 41.4398 184.78C40.3298 184.91 38.2598 184.85 37.0898 184.78C36.3798 184.74 33.8598 184.55 33.6998 184.09C33.1298 182.37 33.2598 177.18 33.8998 175.46C35.3198 171.61 41.3098 172.46 42.0098 176.3C42.1398 177 42.3198 179.39 42.3198 180.06C42.3198 180.99 42.5098 183.78 42.3198 184.39V184.38Z" fill="#2B286F"/>
<path d="M286.57 334.09C286 334.14 283.78 336.49 282.66 336.58L282.33 336.5C279.83 332.95 277.35 329.37 274.99 325.73C274.48 324.94 271.12 320.02 271.12 319.66C271.12 318.74 274.48 317.18 274.67 316.57C274.81 316.11 274.11 314.73 273.54 314.68C272.73 314.61 264.33 321.14 262.7 321.72C263.41 325.7 267.12 320.84 268.32 321.43C268.91 321.72 270.48 324.02 270.93 324.7C271.3 325.26 273.02 327.99 273.12 328.39C273.21 328.73 273.19 328.89 273.04 329.21C272.68 329.99 267.66 332.45 266.71 333.36C265.66 333.77 263.34 331.09 262.58 330.24C261.27 328.75 259.87 325.68 257.74 325.63C254.82 325.55 252.41 328.78 252.79 331.62C252.98 332.99 255.79 337.5 257.03 337.85C257.71 338.04 258.9 337.09 258.85 336.53C258.7 334.97 254.38 332.47 255.63 329.92C256.49 328.17 257.64 328.47 258.76 329.73C259.5 330.57 262.04 335.01 262.45 335.21C263.45 335.7 264.97 334.48 265.48 334.85C266.33 335.46 264.6 338.06 264.48 339.02C264.02 342.68 266.4 346.12 270.21 346.3C274.11 346.48 279.29 341.65 282.49 339.45C283.32 338.88 287.5 336.65 287.63 335.93C287.68 335.66 287.05 334.04 286.57 334.08V334.09ZM279.24 338.47C279.07 339.11 274.16 342.65 273.33 343.03C270.48 344.33 266.82 342.65 267.06 339.33C267.38 334.93 272.04 333.6 274.81 331.02C275.75 332.16 279.55 337.32 279.23 338.47H279.24Z" fill="#2A266D"/>
<path d="M141.94 326.55L131.11 321.83C127.33 324.86 132.76 324.79 133.98 325.98C134.16 326.15 134.23 326.46 134.17 326.7C133.06 328.69 132.52 331.17 131.46 333.15C131.13 333.76 130.77 334.59 129.96 334.48C128.9 334.35 124.22 332.28 123.46 331.52C121.14 329.2 123.08 327.68 123.97 325.4C124.88 323.05 125.52 320.36 123 318.73C121.26 317.6 119.01 317.03 117.34 318.52C116.34 319.42 113.79 324.51 113.88 325.79C113.96 326.94 115.46 327.33 116.21 326.56C117.12 325.63 118.05 319.44 120.7 320.49C123.16 321.47 120.57 324.83 120.01 326.54C119.84 327.07 119.25 328.98 119.27 329.37C119.31 329.97 120.76 331.07 120.78 331.9C119.42 332.58 117.91 332.44 116.52 333.25C113.59 334.97 113.04 339.68 114.91 342.35C117.48 346.02 127.77 347.69 131.72 350.25C132.75 350.99 133.93 349.44 133.39 348.58C133.01 347.98 129.87 347.2 129.28 346.29V345.78L136.8 327.86C137.57 326.74 140.32 329 141.49 328.72C141.77 328.65 142.55 326.82 141.91 326.54L141.94 326.55ZM129.66 337.95C129.51 338.52 126.49 344.96 126.15 345.17C123.43 344.55 116.95 342.42 116.51 339.23C116.31 337.75 118.46 334.94 119.96 334.63C123.36 333.94 126.47 336.21 129.6 337.11C129.8 337.38 129.73 337.65 129.66 337.95Z" fill="#2A276F"/>
<path d="M123.54 72.34C123.27 70.71 119.56 65.8 118.07 65.56C117.66 65.49 116.62 66.58 116.75 67.12C117.16 68.79 122.05 71.33 120.51 73.78C120.26 74.18 119.38 74.73 118.91 74.7C117.03 74.61 114.77 68.85 112.01 68.87C111.41 68.87 110.38 69.73 109.96 69.1C109.53 68.47 110.47 67.21 110.59 66.39C111.23 61.83 106.75 58.01 102.32 59.39C99.6299 60.23 95.9999 64.74 93.7999 66.67C91.8599 68.38 89.5899 69.75 87.6899 71.51C89.7599 73.95 89.5899 72.72 91.2699 71.53C94.0799 69.53 94.8099 72.11 96.4699 73.94C99.1899 76.94 102.07 79.98 104.63 83.11C104.91 83.46 106.46 85.41 106.51 85.59C106.86 86.89 102.44 88.53 103.35 90C104.13 91.27 105.89 89.8 106.67 89.23C108.53 87.85 111.48 85.35 113.18 83.76C114.11 82.89 115.23 82.02 113.57 81.06C111.88 80.09 110.43 84.13 109.11 83.51C109.01 83.46 107.63 82.3 107.44 82.11C106.8 81.48 103.31 77.34 103.1 76.76C102.75 75.76 103.72 75.81 104.6 75.17C105.63 74.42 108.8 71.47 109.61 71.24C110.2 71.07 111.61 71.6 112.09 71.98C113.34 73 114.81 75.39 115.89 76.46C118.83 79.35 124.17 76 123.57 72.35L123.54 72.34ZM101.31 74.69C100.42 73.79 95.8099 69.02 95.8399 68.19C95.8499 67.74 99.2799 64.63 99.9099 64.12C100.56 63.59 102.2 62.17 102.9 62.01C104.99 61.54 106.47 62.44 107.41 64.27C109.77 68.87 104.12 72.03 101.32 74.69H101.31Z" fill="#2A276F"/>
<path d="M74.4402 120.16C72.9402 115.47 67.5902 112 62.9202 111.04C49.6802 108.32 48.9702 121.67 44.6802 130.37C45.0402 131.01 46.0602 131.47 46.7502 131.23C47.1302 131.1 48.4202 127.69 49.2102 127.3C50.3202 126.75 54.4002 129.45 55.6602 130.03C59.5402 131.81 63.5502 133.31 67.4502 135.07C67.8902 135.64 65.6602 139.54 66.0302 139.93C66.8302 139.84 67.7502 140.57 68.4502 139.93C68.9202 139.5 70.5702 134.51 71.0802 133.39C73.0802 128.93 76.1402 125.44 74.4502 120.17L74.4402 120.16ZM70.6502 128.89C70.4402 129.36 69.0102 131.83 68.7702 131.97C68.4202 132.17 67.9202 131.99 67.5502 131.9C64.4402 131.1 56.8802 127.4 53.7802 125.8C52.9802 125.39 50.0902 124.03 50.3202 123.11C50.5902 122.06 52.2602 118.77 52.8902 117.75C56.0902 112.49 61.3402 113.07 66.1902 115.68C72.0702 118.85 73.4302 122.72 70.6502 128.89Z" fill="#2C2973"/>
<path d="M321.36 116.14C323.87 111.57 326.83 106.58 329.09 101.96C329.43 101.27 330.74 98.62 330.63 98.13C330.6 98.01 329.73 96.24 329.65 96.16C329.12 95.63 327 96.36 326.27 96.59C319.55 98.75 312.79 102.1 306.09 104.45C304.84 105.1 303.73 102.59 303.06 102.48C302.77 102.43 300.74 103.81 301.68 104.39C303.41 105.36 307.97 112.3 309.26 112.63C309.88 112.79 310.65 111.94 310.62 111.28C310.55 110.04 308.02 108.05 307.84 107.39C307.71 106.9 307.85 106.81 308.24 106.59C308.64 106.36 312.69 104.87 313.1 104.8C313.32 104.76 313.52 104.71 313.74 104.8C314.43 104.99 320.02 111.37 320.02 112.02C320.02 112.31 317.48 116.97 317.24 117.13C316.92 117.33 316.78 117.27 316.47 117.13C315.92 116.87 313.88 114.32 313.49 114.19C312.81 113.96 311.89 115.09 311.88 115.59C311.88 116.42 319.39 124.12 320.42 125.39C320.72 124.88 322.13 124.36 322.04 123.79C321.9 122.91 318.81 120.59 319.04 119.72C319.13 119.39 320.97 116.83 321.35 116.14H321.36ZM316.48 103.38L326.92 99.42L322.04 109.06C320.97 109.43 321.13 108.76 320.69 108.34C319.99 107.67 316.32 104.12 316.48 103.39V103.38Z" fill="#2C2973"/>
<path d="M128.12 44.19C125.87 44.5 123.36 46.2 121.94 47.94C114.64 56.87 126.92 76.47 138.81 69.39C149.65 62.94 140.87 42.4501 128.13 44.1801L128.12 44.19ZM136.48 67.57C126.26 71.75 116.22 48.8101 128.89 46.9901C137.64 45.7301 145.89 63.72 136.48 67.57Z" fill="#2B2871"/>
<path d="M285.9 56.4799C283.6 53.4799 279.7 51.6599 275.91 52.0899C266.58 53.1599 259.47 70.3099 267.57 76.3299C280.29 85.7899 292.7 65.3199 285.9 56.4699V56.4799ZM270.48 74.9599C262.88 70.5699 270.03 55.3599 277.19 54.8799C279.95 54.6999 284.16 57.1899 284.61 60.0599C285.72 67.1699 278.83 79.7699 270.48 74.9599Z" fill="#2B2871"/>
</g>
<defs>
<clipPath id="clip0_12_10">
<rect width="393.23" height="394.16" fill="white"/>
</clipPath>
</defs>
</svg>
